<?xml version="1.0" encoding="UTF-8" standalone="no"?>
<svg width="184.15mm" height="143.228mm"
 viewBox="0 0 522 406"
 xmlns="http://www.w3.org/2000/svg" xmlns:xlink="http://www.w3.org/1999/xlink"  version="1.2" baseProfile="tiny">
<title>Qt SVG Document</title>
<desc>Generated with Qt</desc>
<defs>
</defs>
<g fill="none" stroke="black" stroke-width="1" fill-rule="evenodd" stroke-linecap="square" stroke-linejoin="bevel" >

<g fill="#f0f0f0" fill-opacity="1" stroke="none" transform="matrix(1,0,0,1,0,0)"
font-family="MS Shell Dlg 2" font-size="8.25" font-weight="400" font-style="normal" 
>
<rect x="0" y="0" width="522" height="406"/>
</g>

<g fill="none" stroke="#000000" stroke-opacity="1" stroke-width="1" stroke-linecap="square" stroke-linejoin="bevel" transform="matrix(1,0,0,1,0,0)"
font-family="MS Shell Dlg 2" font-size="8.25" font-weight="400" font-style="normal" 
>
</g>

<g fill="none" stroke="#000000" stroke-opacity="1" stroke-width="1" stroke-linecap="square" stroke-linejoin="bevel" transform="matrix(0.75,0,0,0.75,0,0)"
font-family="MS Shell Dlg 2" font-size="8.25" font-weight="400" font-style="normal" 
>
</g>

<g fill="none" stroke="#000000" stroke-opacity="1" stroke-width="1" stroke-linecap="square" stroke-linejoin="bevel" transform="matrix(0.75,0,0,0.75,0,0)"
font-family="MS Shell Dlg 2" font-size="8.25" font-weight="400" font-style="normal" 
>
</g>

<g fill="#ffffff" fill-opacity="1" stroke="none" transform="matrix(0.75,0,0,0.75,0,0)"
font-family="MS Shell Dlg 2" font-size="8.25" font-weight="400" font-style="normal" 
>
<rect x="50" y="2" width="644" height="511.333"/>
</g>

<g fill="none" stroke="#000000" stroke-opacity="1" stroke-width="1" stroke-linecap="square" stroke-linejoin="bevel" transform="matrix(0.75,0,0,0.75,0,0)"
font-family="MS Shell Dlg 2" font-size="8.25" font-weight="400" font-style="normal" 
>
</g>

<g fill="none" stroke="#000000" stroke-opacity="1" stroke-width="1" stroke-linecap="square" stroke-linejoin="bevel" transform="matrix(0.75,0,0,0.75,0,0)"
font-family="MS Shell Dlg 2" font-size="8.25" font-weight="400" font-style="normal" 
>
</g>

<g fill="none" stroke="#000000" stroke-opacity="1" stroke-width="1" stroke-linecap="square" stroke-linejoin="bevel" transform="matrix(0.75,0,0,0.75,0,0)"
font-family="MS Shell Dlg 2" font-size="8.25" font-weight="400" font-style="normal" 
>
</g>

<g fill="none" stroke="#ff0056" stroke-opacity="1" stroke-width="1" stroke-linecap="square" stroke-linejoin="bevel" transform="matrix(0.75,0,0,0.75,0,0)"
font-family="MS Shell Dlg 2" font-size="8.25" font-weight="400" font-style="normal" 
>
<polyline fill="none" vector-effect="non-scaling-stroke" points="54,413.85 54.626,416.008 55.252,420.61 55.878,423.486 56.504,425.068 57.13,428.088 57.756,429.526 58.382,434.128 59.008,435.566 59.634,438.586 60.26,439.305 60.886,440.743 61.512,442.325 62.138,443.044 62.764,445.201 63.39,445.201 64.016,445.201 64.642,446.064 65.268,447.646 65.894,447.502 66.52,447.358 67.146,447.502 67.772,447.502 68.398,445.201 69.024,445.201 69.65,445.345 70.276,444.482 70.902,443.044 71.528,441.318 72.154,440.743 72.78,439.305 73.406,438.442 74.032,434.128 74.658,432.546 75.284,429.526 75.91,428.088 76.536,424.924 77.162,422.191 77.788,420.61 78.414,413.994 79.04,413.85 79.666,409.392 80.292,407.091 80.918,402.633 81.544,400.476 82.17,395.73 82.796,391.272 83.422,389.115 84.048,380.199 84.674,380.199 85.3,373.296 85.926,370.42 86.552,364.38 87.178,359.634 87.804,357.621 88.43,351.581 89.056,348.561 89.682,339.645 90.308,336.625 90.934,330.585 91.56,327.565 92.186,321.525 92.812,315.916 93.438,312.896 94.064,304.124 94.69,303.98 95.316,295.064 95.942,292.044 96.568,286.004 97.194,283.128 97.82,276.369 98.446,270.616 99.072,267.596 99.698,258.536 100.324,258.536 100.95,249.476 101.576,247.319 102.202,242.717 102.828,236.533 103.454,233.801 104.08,229.199 104.706,226.898 105.332,217.838 105.958,215.681 106.584,211.079 107.21,208.778 107.836,204.176 108.462,199.718 109.088,197.561 109.714,193.103 110.34,193.103 110.966,186.344 111.592,184.906 112.218,181.742 112.844,180.304 113.47,177.14 114.096,174.264 114.722,172.682 115.348,168.368 115.974,168.368 116.6,166.067 117.226,165.348 117.852,163.766 118.478,162.184 119.104,161.609 119.73,161.609 120.356,161.465 120.982,159.308 121.608,7.44476 122.234,159.308 122.86,159.308 123.486,159.164 124.112,160.746 124.738,161.609 125.364,161.609 125.99,161.609 126.616,163.766 127.242,164.485 127.868,166.067 128.494,166.786 129.12,168.08 129.746,171.244 130.372,172.682 130.998,177.284 131.624,177.284 132.25,181.742 132.876,183.324 133.502,186.344 134.128,190.658 134.754,193.103 135.38,196.123 136.006,197.705 136.632,204.32 137.258,206.621 137.884,211.079 138.51,213.38 139.136,217.694 139.762,223.878 140.388,226.898 141.014,231.644 141.64,233.801 142.266,242.717 142.892,245.018 143.518,249.476 144.144,252.496 144.77,258.392 145.396,264.576 146.022,267.452 146.648,276.656 147.274,276.656 147.9,285.572 148.526,288.592 149.152,295.064 149.778,300.96 150.404,303.98 151.03,309.876 151.656,312.752 152.282,321.669 152.908,324.689 153.534,330.729 154.16,333.605 154.786,339.357 155.412,345.685 156.038,348.561 156.664,356.183 157.29,357.477 157.916,364.236 158.542,367.256 159.168,373.009 159.794,375.453 160.42,379.911 161.046,386.095 161.672,389.115 162.298,395.874 162.924,395.874 163.55,402.49 164.176,404.934 164.802,409.392 165.428,412.125 166.054,413.85 166.68,418.309 167.306,420.61 167.932,425.068 168.558,426.65 169.184,429.67 169.81,431.108 170.436,433.984 171.062,437.148 171.688,438.442 172.314,440.743 172.94,440.743 173.566,443.044 174.192,443.907 174.818,445.345 175.444,445.345 176.07,445.057 176.696,446.783 177.322,447.502 177.948,447.646 178.574,447.646 179.2,447.502 179.826,446.927 180.452,445.345 181.078,445.057 181.704,445.345 182.33,443.619 182.956,443.044 183.582,440.887 184.208,440.024 184.834,438.586 185.46,437.148 186.086,433.984 186.712,430.82 187.338,429.67 187.964,425.355 188.59,425.068 189.216,420.61 189.842,418.309 190.468,413.85 191.094,412.412 191.72,409.105 192.346,404.934 192.972,402.633 193.598,395.874 194.224,395.874 194.85,388.971 195.476,386.095 196.102,380.055 196.728,375.31 197.354,373.296 197.98,367.256 198.606,364.236 199.232,357.477 199.858,354.601 200.484,348.705 201.11,345.541 201.736,339.501 202.362,333.605 202.988,330.585 203.614,321.812 204.24,321.812 204.866,312.752 205.492,309.876 206.118,303.98 206.744,301.104 207.37,294.92 207.996,289.024 208.622,286.004 209.248,276.656 209.874,276.512 210.5,267.596 211.126,264.576 211.752,258.536 212.378,252.352 213.004,249.476 213.63,244.874 214.256,242.717 214.882,233.657 215.508,231.5 216.134,226.898 216.76,223.878 217.386,217.838 218.012,213.38 218.638,211.079 219.264,204.464 219.89,204.32 220.516,197.561 221.142,196.123 221.768,193.103 222.394,190.658 223.02,186.056 223.646,183.18 224.272,181.598 224.898,177.284 225.524,177.284 226.15,172.682 226.776,171.244 227.402,168.224 228.028,166.498 228.654,166.067 229.28,164.485 229.906,163.766 230.532,161.465 231.158,161.609 231.784,161.465 232.41,160.89 233.036,159.164 233.662,159.308 234.288,159.308 234.914,159.308 235.54,159.308 236.166,161.609 236.792,161.609 237.418,161.465 238.044,162.328 238.67,163.622 239.296,165.348 239.922,166.067 240.548,168.224 241.174,168.224 241.8,172.682 242.426,174.264 243.052,177.284 243.678,180.16 244.304,181.742 244.93,184.762 245.556,186.2 246.182,193.103 246.808,194.397 247.434,197.705 248.06,199.862 248.686,204.176 249.312,208.922 249.938,210.935 250.564,215.537 251.19,217.982 251.816,226.898 252.442,229.199 253.068,233.657 253.694,236.677 254.32,242.573 254.946,247.175 255.572,249.476 256.198,258.536 256.824,258.536 257.45,267.596 258.076,270.616 258.702,276.656 259.328,282.409 259.954,285.572 260.58,291.612 261.206,295.064 261.832,303.98 262.458,307 263.084,163.766 263.71,164.629 264.336,165.923 264.962,167.649 265.588,168.224 266.214,172.538 266.84,172.682 267.466,177.284 268.092,178.866 268.718,181.742 269.344,183.468 269.97,186.2 270.596,190.802 271.222,193.103 271.848,197.705 272.474,197.561 273.1,204.32 273.726,206.621 274.352,211.079 274.978,215.537 275.604,217.982 276.23,223.878 276.856,226.898 277.482,233.801 278.108,236.677 278.734,242.861 279.36,245.018 279.986,249.332 280.612,255.516 281.238,258.68 281.864,265.87 282.49,267.452 283.116,276.656 283.742,279.676 284.368,285.572 284.994,288.449 285.62,295.064 286.246,301.104 286.872,303.98 287.498,312.896 288.124,312.896 288.75,321.812 289.376,324.689 290.002,330.585 290.628,336.481 291.254,339.501 291.88,345.541 292.506,348.561 293.132,357.477 293.758,359.778 294.384,364.38 295.01,367.256 295.636,373.009 296.262,377.754 296.888,380.055 297.514,388.971 298.14,389.115 298.766,395.874 299.392,398.175 300.018,402.633 300.644,404.79 301.27,409.249 301.896,412.269 302.522,413.707 303.148,420.61 303.774,420.61 304.4,425.068 305.026,426.65 305.652,429.67 306.278,432.402 306.904,434.128 307.53,437.148 308.156,438.586 308.782,440.743 309.408,441.606 310.034,443.044 310.66,443.763 311.286,445.057 311.912,445.345 312.538,445.201 313.164,446.639 313.79,447.502 314.416,447.502 315.042,447.502 315.668,447.646 316.294,446.783 316.92,445.057 317.546,445.345 318.172,445.345 318.798,443.044 319.424,443.044 320.05,440.887 320.676,440.024 321.302,438.586 321.928,435.422 322.554,434.128 323.18,431.108 323.806,429.67 324.432,425.068 325.058,423.63 325.684,420.61 326.31,418.309 326.936,413.707 327.562,410.83 328.188,409.392 328.814,402.777 329.44,402.633 330.066,395.874 330.692,393.717 331.318,389.115 331.944,386.095 332.57,379.911 333.196,375.597 333.822,373.296 334.448,364.38 335.074,364.38 335.7,357.621 336.326,354.601 336.952,348.561 337.578,342.521 338.204,339.645 338.83,333.605 339.456,330.729 340.082,321.669 340.708,318.792 341.334,312.896 341.96,309.876 342.586,303.836 343.212,298.084 343.838,295.064 344.464,286.291 345.09,286.004 345.716,276.656 346.342,273.636 346.968,267.596 347.594,264.576 348.22,258.392 348.846,252.496 349.472,249.476 350.098,242.717 350.724,242.717 351.35,233.801 351.976,231.5 352.602,226.898 353.228,220.858 353.854,217.982 354.48,213.236 355.106,210.935 355.732,204.32 356.358,202.163 356.984,197.561 357.61,196.123 358.236,192.815 358.862,188.645 359.488,186.344 360.114,181.742 360.74,181.742 361.366,177.284 361.992,175.846 362.618,172.682 363.244,171.244 363.87,168.08 364.496,166.786 365.122,166.067 365.748,163.766 366.374,163.91 367,161.752 367.626,161.609 368.252,161.609 368.878,159.883 369.504,7.44476 370.13,159.308 370.756,159.451 371.382,159.308 372.008,160.17 372.634,161.609 373.26,161.752 373.886,161.465 374.512,163.19 375.138,163.766 375.764,165.923 376.39,166.21 377.016,168.224 377.642,169.806 378.268,172.682 378.894,174.264 379.52,177.14 380.146,180.304 380.772,181.742 381.398,186.488 382.024,186.344 382.65,193.103 383.276,194.685 383.902,197.705 384.528,202.019 385.154,204.464 385.78,208.778 386.406,211.079 387.032,217.838 387.658,220.858 388.284,226.898 388.91,229.343 389.536,233.513 390.162,239.841 390.788,242.717 391.414,247.894 392.04,249.62 392.666,258.536 393.292,261.556 393.918,267.596 394.544,270.616 395.17,276.369 395.796,282.552 396.422,285.572 397.048,294.92 397.674,295.064 398.3,303.98 398.926,307 399.552,312.896 400.178,318.792 400.804,321.669 401.43,327.709 402.056,330.585 402.682,339.501 403.308,342.665 403.934,348.561 404.56,351.437 405.186,357.333 405.812,361.791 406.438,364.236 407.064,373.152 407.69,373.296 408.316,380.055 408.942,383.075 409.568,389.115 410.194,391.416 410.82,395.73 411.446,400.189 412.072,402.633 412.698,409.392 413.324,409.392 413.95,413.85 414.576,416.151 415.202,420.753 415.828,423.486 416.454,425.068 417.08,428.231 417.706,429.67 418.332,434.128 418.958,435.71 419.584,438.73 420.21,439.305 420.836,440.599 421.462,442.325 422.088,443.044 422.714,445.345 423.34,445.345 423.966,445.201 424.592,446.064 425.218,447.646 425.844,447.502 426.47,447.358 427.096,447.646 427.722,447.646 428.348,445.345 428.974,445.345 429.6,445.345 430.226,444.626 430.852,443.044 431.478,441.462 432.104,440.743 432.73,439.305 433.356,438.586 433.982,434.128 434.608,432.69 435.234,429.67 435.86,428.088 436.486,424.924 437.112,422.335 437.738,420.61 438.364,413.994 438.99,413.85 439.616,409.249 440.242,407.091 440.868,402.633 441.494,400.476 442.12,395.73 442.746,391.272 443.372,388.971 443.998,380.055 444.624,380.055 445.25,373.296 445.876,370.276 446.502,364.236 447.128,359.634 447.754,357.477 448.38,351.437 449.006,348.561 449.632,339.501 450.258,336.625 450.884,330.585 451.51,327.709 452.136,321.525 452.762,315.916 453.388,312.752 454.014,304.124 454.64,303.98 455.266,295.064 455.892,292.044 456.518,286.004 457.144,282.552 457.77,276.369 458.396,270.472 459.022,267.596 459.648,258.536 460.274,258.536 460.9,249.476 461.526,247.319 462.152,242.717 462.778,236.533 463.404,233.657 464.03,229.055 464.656,226.898 465.282,217.838 465.908,215.681 466.534,211.079 467.16,208.922 467.786,204.176 468.412,199.862 469.038,197.705 469.664,193.103 470.29,193.103 470.916,186.344 471.542,375.597 472.168,373.296 472.794,367.256 473.42,364.38 474.046,357.477 474.672,357.621 475.298,348.417 475.924,345.541 476.55,339.645 477.176,333.605 477.802,330.585 478.428,324.689 479.054,321.812 479.68,312.752 480.306,309.732 480.932,303.98 481.558,301.104 482.184,295.064 482.81,289.024 483.436,286.004 484.062,276.8 484.688,276.656 485.314,267.596 485.94,264.432 486.566,258.536 487.192,252.64 487.818,249.62 488.444,245.018 489.07,242.717 489.696,233.657 490.322,233.657 490.948,226.754 491.574,223.878 492.2,217.838 492.826,213.236 493.452,211.079 494.078,206.621 494.704,204.176 495.33,197.561 495.956,195.979 496.582,192.959 497.208,190.802 497.834,186.2 498.46,183.324 499.086,181.886 499.712,177.284 500.338,177.284 500.964,172.682 501.59,171.1 502.216,168.224 502.842,166.786 503.468,166.067 504.094,164.629 504.72,163.766 505.346,161.609 505.972,161.609 506.598,161.465 507.224,160.746 507.85,159.308 508.476,159.308 509.102,7.44476 509.728,159.308 510.354,159.308 510.98,161.465 511.606,161.465 512.232,161.465 512.858,162.471 513.484,163.766 514.11,165.348 514.736,166.21 515.362,168.368 515.988,168.368 516.614,172.826 517.24,173.976 517.866,177.284 518.492,180.16 519.118,181.886 519.744,184.762 520.37,186.2 520.996,193.103 521.622,193.103 522.248,197.417 522.874,199.862 523.5,204.176 524.126,208.778 524.752,211.079 525.378,215.537 526.004,217.982 526.63,226.898 527.256,229.055 527.882,233.657 528.508,236.821 529.134,242.717 529.76,247.319 530.386,249.62 531.012,258.536 531.638,258.68 532.264,267.596 532.89,270.472 533.516,276.512 534.142,280.827 534.768,285.572 535.394,291.756 536.02,295.064 536.646,303.98 537.272,304.124 537.898,312.752 538.524,315.629 539.15,321.669 539.776,327.709 540.402,330.585 541.028,336.625 541.654,339.645 542.28,348.561 542.906,351.437 543.532,357.621 544.158,359.778 544.784,364.38 545.41,370.276 546.036,373.296 546.662,380.055 547.288,380.055 547.914,389.115 548.54,391.129 549.166,395.874 549.792,400.332 550.418,402.633 551.044,407.091 551.67,409.249 552.296,413.85 552.922,413.994 553.548,420.322 554.174,422.191 554.8,425.068 555.426,428.088 556.052,429.67 556.678,432.546 557.304,433.984 557.93,438.586 558.556,439.161 559.182,440.887 559.808,441.606 560.434,443.044 561.06,444.482 561.686,445.345 562.312,445.201 562.938,445.345 563.564,447.502 564.19,447.502 564.816,447.646 565.442,447.502 566.068,447.502 566.694,446.064 567.32,445.201 567.946,445.345 568.572,445.345 569.198,442.9 569.824,442.325 570.45,440.743 571.076,439.161 571.702,438.586 572.328,435.71 572.954,434.128 573.58,429.67 574.206,427.944 574.832,425.068 575.458,423.63 576.084,420.61 576.71,416.008 577.336,413.85 577.962,409.392 578.588,409.249 579.214,402.633 579.84,400.045 580.466,395.874 581.092,391.56 581.718,388.971 582.344,383.075 582.97,380.055 583.596,373.296 584.222,373.296 584.848,364.092 585.474,362.079 586.1,357.477 586.726,351.581 587.352,348.561 587.978,342.521 588.604,339.645 589.23,330.585 589.856,327.565 590.482,321.812 591.108,318.649 591.734,312.896 592.36,306.856 592.986,303.98 593.612,295.064 594.238,295.064 594.864,286.004 595.49,282.696 596.116,276.512 596.742,270.76 597.368,267.596 597.994,261.412 598.62,258.536 599.246,249.476 599.872,249.476 600.498,242.573 601.124,239.697 601.75,233.657 602.376,229.199 603.002,226.898 603.628,220.858 604.254,217.838 604.88,211.079 605.506,208.778 606.132,204.32 606.758,202.163 607.384,197.561 608.01,194.685 608.636,193.103 609.262,186.344 609.888,186.344 610.514,181.886 611.14,180.016 611.766,177.284 612.392,174.408 613.018,172.826 613.644,169.806 614.27,168.224 614.896,166.067 615.522,166.067 616.148,163.622 616.774,163.047 617.4,161.465 618.026,161.465 618.652,161.609 619.278,160.027 619.904,159.308 620.53,159.451 621.156,159.308 621.782,159.308 622.408,160.17 623.034,161.752 623.66,161.609 624.286,161.752 624.912,163.766 625.538,163.766 626.164,166.067 626.79,166.786 627.416,168.368 628.042,171.244 628.668,172.826 629.294,175.846 629.92,177.284 630.546,181.886 631.172,181.886 631.798,186.2 632.424,188.501 633.05,193.103 633.676,196.123 634.302,197.705 634.928,202.163 635.554,204.32 636.18,211.079 636.806,213.236 637.432,217.982 638.058,220.858 638.684,227.042 639.31,231.5 639.936,233.657 640.562,242.861 641.188,242.717 641.814,249.62 642.44,252.496 643.066,258.536 643.692,262.85 644.318,267.596 644.944,273.636 645.57,276.512 646.196,285.716 646.822,285.572 647.448,294.776 648.074,298.084 648.7,303.98 649.326,310.02 649.952,312.896 650.578,318.792 651.204,321.812 651.83,330.729 652.456,333.461 653.082,339.501 653.708,342.665 654.334,348.561 654.96,354.601 655.586,357.621 656.212,364.38 656.838,364.38 657.464,373.296 658.09,375.31 658.716,380.199 659.342,385.951 659.968,389.115 660.594,393.573 661.22,395.874 661.846,402.633 662.472,402.49 663.098,409.105 663.724,410.83 664.35,413.85 664.976,418.452 665.602,420.61 666.228,423.486 666.854,425.211 667.48,429.526 668.106,430.964 668.732,434.128 669.358,435.71 669.984,438.586 670.61,440.024 671.236,440.887 671.862,443.044 672.488,443.044 673.114,445.345 673.74,445.057 674.366,445.201 674.992,445.776 675.618,447.502 676.244,447.646 676.87,447.502 677.496,447.502 678.122,447.502 678.748,445.057 679.374,445.201 " />
</g>

<g fill="none" stroke="#000000" stroke-opacity="1" stroke-width="1" stroke-linecap="square" stroke-linejoin="bevel" transform="matrix(0.75,0,0,0.75,0,0)"
font-family="MS Shell Dlg 2" font-size="8.25" font-weight="400" font-style="normal" 
>
</g>

<g fill="none" stroke="#000000" stroke-opacity="1" stroke-width="1" stroke-linecap="square" stroke-linejoin="bevel" transform="matrix(0.75,0,0,0.75,0,0)"
font-family="MS Shell Dlg 2" font-size="8.25" font-weight="400" font-style="normal" 
>
</g>

<g fill="none" stroke="#000000" stroke-opacity="1" stroke-width="1" stroke-linecap="square" stroke-linejoin="bevel" transform="matrix(0.75,0,0,0.75,0,0)"
font-family="MS Shell Dlg 2" font-size="8.25" font-weight="400" font-style="normal" 
>
</g>

<g fill="none" stroke="#7e2dd2" stroke-opacity="1" stroke-width="1" stroke-linecap="square" stroke-linejoin="bevel" transform="matrix(0.75,0,0,0.75,0,0)"
font-family="MS Shell Dlg 2" font-size="8.25" font-weight="400" font-style="normal" 
>
<polyline fill="none" vector-effect="non-scaling-stroke" points="54,419.315 54.626,416.727 55.252,423.773 55.878,425.211 56.504,428.375 57.13,429.813 57.756,432.833 58.382,435.853 59.008,437.291 59.634,441.75 60.26,441.75 60.886,444.05 61.512,444.913 62.138,446.351 62.764,447.79 63.39,448.509 64.016,448.509 64.642,448.509 65.268,450.81 65.894,450.666 66.52,450.81 67.146,450.81 67.772,450.81 68.398,449.371 69.024,448.509 69.65,448.509 70.276,448.365 70.902,446.351 71.528,445.489 72.154,444.05 72.78,443.331 73.406,441.75 74.032,438.873 74.658,437.291 75.284,432.833 75.91,432.833 76.536,428.231 77.162,426.65 77.788,423.773 78.414,419.171 79.04,417.014 79.666,413.994 80.292,412.556 80.918,405.653 81.544,403.496 82.17,398.894 82.796,396.737 83.422,392.135 84.048,386.095 84.674,383.075 85.3,378.473 85.926,376.029 86.552,367.112 87.178,364.955 87.804,360.353 88.43,357.333 89.056,351.293 89.682,345.253 90.308,342.233 90.934,333.03 91.56,333.03 92.186,323.97 92.812,320.95 93.438,314.766 94.064,308.438 94.69,305.418 95.316,299.234 95.942,296.214 96.568,287.442 97.194,285.285 97.82,277.807 98.446,274.93 99.072,269.034 99.698,263.138 100.324,260.118 100.95,254.222 101.576,251.49 102.202,244.443 102.828,241.423 103.454,235.383 104.08,233.226 104.706,228.624 105.332,222.584 105.958,219.564 106.584,212.805 107.21,212.805 107.836,205.902 108.462,203.745 109.088,199.43 109.714,196.267 110.34,194.829 110.966,190.227 111.592,187.926 112.218,183.468 112.844,182.03 113.47,179.01 114.096,177.428 114.722,174.12 115.348,171.388 115.974,169.806 116.6,168.368 117.226,167.649 117.852,165.348 118.478,164.629 119.104,163.047 119.73,163.19 120.356,163.19 120.982,161.752 121.608,160.89 122.234,7.44476 122.86,161.033 123.486,160.89 124.112,161.609 124.738,163.19 125.364,163.19 125.99,163.19 126.616,164.772 127.242,165.348 127.868,167.649 128.494,168.368 129.12,169.95 129.746,171.531 130.372,174.408 130.998,177.571 131.624,178.866 132.25,181.886 132.876,183.611 133.502,187.926 134.128,190.227 134.754,194.685 135.38,196.267 136.006,199.287 136.632,203.745 137.258,206.046 137.884,212.805 138.51,212.949 139.136,219.564 139.762,222.584 140.388,228.624 141.014,232.938 141.64,235.527 142.266,241.423 142.892,244.443 143.518,251.202 144.144,253.934 144.77,260.118 145.396,263.138 146.022,269.034 146.648,275.074 147.274,277.95 147.9,283.99 148.526,287.298 149.152,296.358 149.778,299.378 150.404,305.418 151.03,308.582 151.656,314.766 152.282,320.95 152.908,324.113 153.534,333.173 154.16,333.03 154.786,342.09 155.412,345.253 156.038,351.293 156.664,357.333 157.29,360.497 157.916,364.955 158.542,367.112 159.168,376.316 159.794,376.172 160.42,383.075 161.046,386.239 161.672,392.135 162.298,396.737 162.924,399.038 163.55,403.496 164.176,405.51 164.802,412.556 165.428,413.994 166.054,417.014 166.68,419.315 167.306,423.773 167.932,426.793 168.558,428.231 169.184,432.833 169.81,432.833 170.436,437.291 171.062,438.73 171.688,441.75 172.314,443.188 172.94,443.907 173.566,445.489 174.192,446.208 174.818,448.509 175.444,448.509 176.07,448.509 176.696,449.228 177.322,450.81 177.948,450.81 178.574,450.81 179.2,450.81 179.826,450.666 180.452,448.652 181.078,448.509 181.704,448.509 182.33,447.79 182.956,446.351 183.582,444.77 184.208,443.907 184.834,441.606 185.46,441.75 186.086,437.291 186.712,435.853 187.338,432.833 187.964,429.813 188.59,428.231 189.216,425.211 189.842,423.773 190.468,417.014 191.094,415.576 191.72,412.412 192.346,410.255 192.972,405.653 193.598,401.195 194.224,398.894 194.85,394.436 195.476,391.991 196.102,383.075 196.728,380.774 197.354,376.316 197.98,373.296 198.606,367.112 199.232,362.654 199.858,360.353 200.484,351.15 201.11,351.293 201.736,342.233 202.362,339.213 202.988,333.173 203.614,326.99 204.24,323.97 204.866,317.642 205.492,314.766 206.118,305.418 206.744,303.261 207.37,296.358 207.996,293.482 208.622,287.442 209.248,281.258 209.874,277.95 210.5,272.054 211.126,269.178 211.752,260.118 212.378,257.098 213.004,251.346 213.63,249.045 214.256,244.443 214.882,238.547 215.508,235.383 216.134,228.624 216.76,228.768 217.386,219.564 218.012,217.263 218.638,212.805 219.264,208.203 219.89,206.046 220.516,201.588 221.142,199.287 221.768,194.685 222.394,192.671 223.02,187.926 223.646,186.488 224.272,183.324 224.898,180.591 225.524,179.01 226.15,175.846 226.776,174.551 227.402,169.95 228.028,169.087 228.654,167.649 229.28,166.93 229.906,165.348 230.532,163.91 231.158,163.19 231.784,163.19 232.41,163.19 233.036,160.89 233.662,160.89 234.288,160.89 234.914,160.89 235.54,160.89 236.166,162.471 236.792,163.047 237.418,163.047 238.044,163.766 238.67,165.491 239.296,166.21 239.922,167.649 240.548,169.23 241.174,169.806 241.8,172.826 242.426,174.408 243.052,178.866 243.678,180.591 244.304,183.468 244.93,185.05 245.556,187.926 246.182,192.528 246.808,194.685 247.434,199.287 248.06,199.287 248.686,206.046 249.312,208.347 249.938,212.949 250.564,217.119 251.19,219.708 251.816,225.748 252.442,228.48 253.068,235.383 253.694,238.259 254.32,244.443 254.946,246.744 255.572,251.202 256.198,257.242 256.824,260.262 257.45,266.158 258.076,269.322 258.702,277.95 259.328,280.827 259.954,287.298 260.58,290.318 261.206,296.214 261.832,302.398 262.458,305.418 263.084,165.348 263.71,165.491 264.336,167.649 264.962,168.368 265.588,169.95 266.214,172.97 266.84,174.408 267.466,177.428 268.092,178.866 268.718,183.468 269.344,184.762 269.97,188.07 270.596,190.227 271.222,194.829 271.848,197.705 272.474,199.287 273.1,203.745 273.726,206.19 274.352,212.805 274.978,215.106 275.604,219.564 276.23,222.728 276.856,228.624 277.482,233.082 278.108,235.383 278.734,244.587 279.36,244.443 279.986,251.346 280.612,254.222 281.238,260.262 281.864,266.158 282.49,269.034 283.116,275.074 283.742,277.807 284.368,287.01 284.994,289.887 285.62,296.358 286.246,299.522 286.872,305.418 287.498,311.746 288.124,314.766 288.75,320.95 289.376,323.826 290.002,333.03 290.628,336.05 291.254,342.233 291.88,345.253 292.506,351.293 293.132,357.333 293.758,360.497 294.384,367.112 295.01,367.112 295.636,376.172 296.262,378.473 296.888,383.075 297.514,389.115 298.14,392.279 298.766,396.737 299.392,399.038 300.018,405.797 300.644,407.81 301.27,412.556 301.896,413.994 302.522,417.014 303.148,421.472 303.774,423.773 304.4,426.793 305.026,428.088 305.652,432.833 306.278,434.271 306.904,437.291 307.53,438.873 308.156,441.75 308.782,443.188 309.408,444.05 310.034,446.208 310.66,446.351 311.286,448.509 311.912,448.509 312.538,448.509 313.164,449.947 313.79,450.81 314.416,450.81 315.042,450.81 315.668,450.81 316.294,450.09 316.92,448.509 317.546,448.509 318.172,448.509 318.798,447.07 319.424,446.351 320.05,444.77 320.676,443.763 321.302,441.75 321.928,440.168 322.554,437.291 323.18,435.71 323.806,432.69 324.432,429.67 325.058,428.231 325.684,423.63 326.31,423.63 326.936,417.014 327.562,415.432 328.188,412.412 328.814,407.954 329.44,405.653 330.066,401.195 330.692,398.894 331.318,392.135 331.944,389.403 332.57,383.075 333.196,380.774 333.822,376.172 334.448,370.276 335.074,367.112 335.7,362.654 336.326,360.21 336.952,351.293 337.578,348.273 338.204,342.233 338.83,339.07 339.456,333.03 340.082,326.99 340.708,323.97 341.334,314.766 341.96,314.622 342.586,305.418 343.212,302.398 343.838,296.358 344.464,290.462 345.09,287.586 345.716,281.258 346.342,277.807 346.968,269.178 347.594,266.877 348.22,260.118 348.846,257.242 349.472,251.202 350.098,246.744 350.724,244.443 351.35,238.403 351.976,235.527 352.602,228.624 353.228,225.604 353.854,219.708 354.48,217.407 355.106,212.805 355.732,208.347 356.358,206.046 356.984,199.287 357.61,199.287 358.236,194.685 358.862,192.528 359.488,187.926 360.114,184.906 360.74,183.611 361.366,180.304 361.992,178.866 362.618,174.408 363.244,173.113 363.87,169.95 364.496,169.23 365.122,167.649 365.748,166.21 366.374,165.491 367,163.91 367.626,163.334 368.252,163.19 368.878,162.328 369.504,160.89 370.13,160.89 370.756,7.44476 371.382,160.89 372.008,160.746 372.634,163.047 373.26,163.19 373.886,162.903 374.512,163.91 375.138,165.491 375.764,166.786 376.39,167.649 377.016,169.087 377.642,169.95 378.268,174.408 378.894,173.545 379.52,179.01 380.146,180.448 380.772,183.324 381.398,186.488 382.024,187.926 382.65,192.528 383.276,194.829 383.902,199.287 384.528,201.588 385.154,206.046 385.78,208.347 386.406,212.805 387.032,217.407 387.658,219.708 388.284,228.624 388.91,228.768 389.536,235.383 390.162,238.547 390.788,244.443 391.414,248.901 392.04,251.346 392.666,257.242 393.292,260.118 393.918,269.178 394.544,271.767 395.17,277.807 395.796,280.97 396.422,287.154 397.048,293.338 397.674,296.358 398.3,302.398 398.926,305.274 399.552,314.622 400.178,317.786 400.804,323.97 401.43,326.99 402.056,333.03 402.682,339.07 403.308,342.233 403.934,351.293 404.56,351.293 405.186,360.353 405.812,362.798 406.438,367.256 407.064,373.296 407.69,376.316 408.316,380.918 408.942,383.075 409.568,392.279 410.194,392.423 410.82,398.894 411.446,401.195 412.072,405.653 412.698,410.399 413.324,412.556 413.95,415.432 414.576,416.87 415.202,423.773 415.828,425.211 416.454,428.231 417.08,429.67 417.706,432.69 418.332,435.853 418.958,437.291 419.584,441.75 420.21,441.75 420.836,443.907 421.462,444.77 422.088,446.208 422.714,447.79 423.34,448.509 423.966,448.652 424.592,448.509 425.218,450.81 425.844,450.81 426.47,450.81 427.096,450.81 427.722,450.666 428.348,449.371 428.974,448.509 429.6,448.509 430.226,448.365 430.852,446.208 431.478,445.489 432.104,444.05 432.73,443.331 433.356,441.75 433.982,438.73 434.608,437.291 435.234,432.546 435.86,432.69 436.486,428.231 437.112,426.793 437.738,423.773 438.364,419.171 438.99,417.014 439.616,413.994 440.242,412.412 440.868,405.653 441.494,403.64 442.12,398.894 442.746,396.737 443.372,392.135 443.998,386.095 444.624,383.075 445.25,378.617 445.876,376.029 446.502,367.256 447.128,364.955 447.754,360.353 448.38,357.477 449.006,351.293 449.632,345.253 450.258,342.233 450.884,333.03 451.51,333.173 452.136,323.97 452.762,320.95 453.388,314.766 454.014,308.438 454.64,305.562 455.266,299.378 455.892,296.214 456.518,287.442 457.144,284.997 457.77,277.95 458.396,275.074 459.022,269.034 459.648,263.138 460.274,260.262 460.9,254.222 461.526,251.49 462.152,244.443 462.778,241.279 463.404,235.527 464.03,233.226 464.656,228.624 465.282,222.584 465.908,219.564 466.534,212.805 467.16,212.949 467.786,206.046 468.412,203.889 469.038,199.287 469.664,196.267 470.29,194.685 470.916,190.227 471.542,380.774 472.168,376.316 472.794,373.152 473.42,367.112 474.046,362.654 474.672,360.497 475.298,352.012 475.924,351.293 476.55,342.233 477.176,339.213 477.802,333.03 478.428,330.01 479.054,323.826 479.68,317.786 480.306,314.622 480.932,305.562 481.558,305.418 482.184,296.214 482.81,293.338 483.436,287.442 484.062,281.258 484.688,277.95 485.314,272.054 485.94,269.178 486.566,260.262 487.192,257.242 487.818,251.346 488.444,249.045 489.07,244.443 489.696,238.403 490.322,235.527 490.948,229.055 491.574,228.624 492.2,219.564 492.826,217.407 493.452,212.805 494.078,210.648 494.704,206.19 495.33,201.444 495.956,199.287 496.582,194.685 497.208,194.829 497.834,187.926 498.46,186.488 499.086,183.468 499.712,180.448 500.338,179.01 500.964,175.846 501.59,174.408 502.216,169.95 502.842,169.23 503.468,167.649 504.094,166.93 504.72,165.348 505.346,163.91 505.972,163.047 506.598,163.047 507.224,163.19 507.85,160.89 508.476,160.89 509.102,7.44476 509.728,160.89 510.354,160.89 510.98,162.328 511.606,163.047 512.232,163.047 512.858,163.19 513.484,165.348 514.11,166.21 514.736,167.649 515.362,169.23 515.988,169.95 516.614,172.97 517.24,174.408 517.866,178.866 518.492,180.448 519.118,183.468 519.744,184.906 520.37,187.926 520.996,192.384 521.622,194.685 522.248,196.698 522.874,199.287 523.5,206.046 524.126,208.347 524.752,212.805 525.378,215.106 526.004,219.708 526.63,225.748 527.256,228.624 527.882,235.383 528.508,235.527 529.134,244.443 529.76,246.744 530.386,251.346 531.012,257.242 531.638,260.118 532.264,266.158 532.89,269.034 533.516,277.95 534.142,280.827 534.768,287.298 535.394,290.318 536.02,296.358 536.646,302.398 537.272,305.418 537.898,314.334 538.524,314.766 539.15,323.97 539.776,326.99 540.402,333.173 541.028,336.193 541.654,342.09 542.28,348.273 542.906,351.293 543.532,360.353 544.158,360.497 544.784,367.112 545.41,370.276 546.036,376.316 546.662,380.774 547.288,383.075 547.914,389.115 548.54,392.135 549.166,399.038 549.792,401.195 550.418,405.797 551.044,407.954 551.67,412.556 552.296,415.289 552.922,417.014 553.548,423.486 554.174,423.773 554.8,428.231 555.426,429.813 556.052,432.833 556.678,434.271 557.304,437.148 557.93,440.311 558.556,441.75 559.182,444.05 559.808,444.05 560.434,446.208 561.06,447.07 561.686,448.652 562.312,448.509 562.938,448.509 563.564,450.09 564.19,450.81 564.816,450.81 565.442,450.81 566.068,450.81 566.694,450.09 567.32,448.509 567.946,448.509 568.572,448.509 569.198,446.351 569.824,446.351 570.45,444.05 571.076,443.188 571.702,441.893 572.328,440.311 572.954,437.004 573.58,434.271 574.206,432.833 574.832,428.231 575.458,428.231 576.084,423.773 576.71,421.616 577.336,417.014 577.962,413.994 578.588,412.412 579.214,408.098 579.84,405.653 580.466,398.894 581.092,396.593 581.718,392.135 582.344,389.259 582.97,383.075 583.596,378.473 584.222,376.316 584.848,367.4 585.474,367.256 586.1,360.497 586.726,357.477 587.352,351.293 587.978,348.273 588.604,342.09 589.23,336.193 589.856,333.173 590.482,324.113 591.108,324.113 591.734,314.622 592.36,311.746 592.986,305.562 593.612,299.378 594.238,296.358 594.864,290.462 595.49,287.298 596.116,278.094 596.742,274.93 597.368,269.178 597.994,266.158 598.62,260.118 599.246,254.222 599.872,251.202 600.498,244.874 601.124,244.443 601.75,235.527 602.376,233.226 603.002,228.624 603.628,225.604 604.254,219.708 604.88,215.106 605.506,212.805 606.132,206.19 606.758,206.19 607.384,199.287 608.01,197.705 608.636,194.829 609.262,190.227 609.888,188.07 610.514,184.906 611.14,183.468 611.766,179.01 612.392,177.428 613.018,174.408 613.644,172.97 614.27,169.95 614.896,168.368 615.522,167.649 616.148,165.491 616.774,165.491 617.4,163.19 618.026,163.19 618.652,163.19 619.278,162.471 619.904,161.177 620.53,160.89 621.156,160.89 621.782,160.89 622.408,160.89 623.034,163.334 623.66,163.19 624.286,163.19 624.912,164.629 625.538,165.491 626.164,166.786 626.79,167.649 627.416,169.95 628.042,171.388 628.668,174.408 629.294,175.846 629.92,178.866 630.546,182.03 631.172,183.468 631.798,187.782 632.424,187.926 633.05,194.685 633.676,196.267 634.302,199.287 634.928,201.588 635.554,206.19 636.18,210.648 636.806,212.805 637.432,219.708 638.058,219.708 638.684,228.624 639.31,230.925 639.936,235.383 640.562,241.279 641.188,244.443 641.814,248.901 642.44,251.346 643.066,260.262 643.692,263.138 644.318,269.178 644.944,272.054 645.57,277.95 646.196,283.99 646.822,287.298 647.448,295.927 648.074,296.358 648.7,305.418 649.326,308.582 649.952,314.766 650.578,317.786 651.204,323.97 651.83,330.01 652.456,333.173 653.082,342.233 653.708,342.09 654.334,351.293 654.96,354.313 655.586,360.353 656.212,364.955 656.838,367.112 657.464,373.152 658.09,376.172 658.716,383.075 659.342,386.095 659.968,392.279 660.594,394.436 661.22,398.894 661.846,403.496 662.472,405.653 663.098,412.412 663.724,412.556 664.35,417.014 664.976,419.315 665.602,423.773 666.228,425.211 666.854,428.088 667.48,431.395 668.106,432.69 668.732,437.291 669.358,437.291 669.984,441.75 670.61,442.612 671.236,444.05 671.862,445.632 672.488,446.208 673.114,447.79 673.74,448.509 674.366,448.652 674.992,449.228 675.618,450.81 676.244,450.81 676.87,450.81 677.496,450.81 678.122,450.81 678.748,448.652 679.374,448.652 " />
</g>

<g fill="none" stroke="#000000" stroke-opacity="1" stroke-width="1" stroke-linecap="square" stroke-linejoin="bevel" transform="matrix(0.75,0,0,0.75,0,0)"
font-family="MS Shell Dlg 2" font-size="8.25" font-weight="400" font-style="normal" 
>
</g>

<g fill="none" stroke="#000000" stroke-opacity="1" stroke-width="1" stroke-linecap="square" stroke-linejoin="bevel" transform="matrix(0.75,0,0,0.75,0,0)"
font-family="MS Shell Dlg 2" font-size="8.25" font-weight="400" font-style="normal" 
>
</g>

<g fill="none" stroke="#000000" stroke-opacity="1" stroke-width="1" stroke-linecap="square" stroke-linejoin="bevel" transform="matrix(0.75,0,0,0.75,0,0)"
font-family="MS Shell Dlg 2" font-size="8.25" font-weight="400" font-style="normal" 
>
</g>

<g fill="none" stroke="none" transform="matrix(0.75,0,0,0.75,0,0)"
font-family="MS Shell Dlg 2" font-size="8.25" font-weight="400" font-style="normal" 
>
<rect x="549" y="483" width="136" height="21"/>
</g>

<g fill="none" stroke="#000000" stroke-opacity="1" stroke-width="1" stroke-linecap="square" stroke-linejoin="bevel" transform="matrix(0.75,0,0,0.75,0,0)"
font-family="MS Shell Dlg 2" font-size="8.25" font-weight="400" font-style="normal" 
>
</g>

<g fill="none" stroke="#000000" stroke-opacity="1" stroke-width="1" stroke-linecap="square" stroke-linejoin="bevel" transform="matrix(0.75,0,0,0.75,0,0)"
font-family="MS Shell Dlg 2" font-size="8.25" font-weight="400" font-style="normal" 
>
</g>

<g fill="none" stroke="#000000" stroke-opacity="1" stroke-width="1" stroke-linecap="square" stroke-linejoin="bevel" transform="matrix(0.75,0,0,0.75,414.75,366.75)"
font-family="MS Shell Dlg 2" font-size="8.25" font-weight="400" font-style="normal" 
>
</g>

<g fill="#ff0056" fill-opacity="1" stroke="none" transform="matrix(0.75,0,0,0.75,0,0)"
font-family="MS Shell Dlg 2" font-size="8.25" font-weight="400" font-style="normal" 
>
<path vector-effect="none" fill-rule="evenodd" d="M553,489 L561,489 L561,497 L553,497 L553,489"/>
</g>

<g fill="none" stroke="#000000" stroke-opacity="1" stroke-width="1" stroke-linecap="square" stroke-linejoin="bevel" transform="matrix(0.75,0,0,0.75,414.75,366.75)"
font-family="MS Shell Dlg 2" font-size="8.25" font-weight="400" font-style="normal" 
>
</g>

<g fill="none" stroke="#000000" stroke-opacity="1" stroke-width="1" stroke-linecap="square" stroke-linejoin="bevel" transform="matrix(0.75,0,0,0.75,0,0)"
font-family="MS Shell Dlg 2" font-size="8.25" font-weight="400" font-style="normal" 
>
</g>

<g fill="none" stroke="#000000" stroke-opacity="1" stroke-width="1" stroke-linecap="square" stroke-linejoin="bevel" transform="matrix(0.75,0,0,0.75,0,0)"
font-family="MS Shell Dlg 2" font-size="11" font-weight="400" font-style="normal" 
>
</g>

<g fill="none" stroke="#000000" stroke-opacity="1" stroke-width="1" stroke-linecap="square" stroke-linejoin="bevel" transform="matrix(0.75,0,0,0.75,0,0)"
font-family="MS Shell Dlg 2" font-size="11" font-weight="400" font-style="normal" 
>
<text fill="#000000" fill-opacity="1" stroke="none" xml:space="preserve" x="565" y="498" font-family="MS Shell Dlg 2" font-size="11" font-weight="400" font-style="normal" 
 >Channel 1</text>
</g>

<g fill="none" stroke="#000000" stroke-opacity="1" stroke-width="1" stroke-linecap="square" stroke-linejoin="bevel" transform="matrix(0.75,0,0,0.75,0,0)"
font-family="MS Shell Dlg 2" font-size="8.25" font-weight="400" font-style="normal" 
>
</g>

<g fill="none" stroke="#000000" stroke-opacity="1" stroke-width="1" stroke-linecap="square" stroke-linejoin="bevel" transform="matrix(0.75,0,0,0.75,0,0)"
font-family="MS Shell Dlg 2" font-size="8.25" font-weight="400" font-style="normal" 
>
</g>

<g fill="none" stroke="#000000" stroke-opacity="1" stroke-width="1" stroke-linecap="square" stroke-linejoin="bevel" transform="matrix(0.75,0,0,0.75,0,0)"
font-family="MS Shell Dlg 2" font-size="8.25" font-weight="400" font-style="normal" 
>
</g>

<g fill="none" stroke="#000000" stroke-opacity="1" stroke-width="1" stroke-linecap="square" stroke-linejoin="bevel" transform="matrix(0.75,0,0,0.75,0,0)"
font-family="MS Shell Dlg 2" font-size="8.25" font-weight="400" font-style="normal" 
>
</g>

<g fill="none" stroke="#000000" stroke-opacity="1" stroke-width="1" stroke-linecap="square" stroke-linejoin="bevel" transform="matrix(0.75,0,0,0.75,0,0)"
font-family="MS Shell Dlg 2" font-size="8.25" font-weight="400" font-style="normal" 
>
</g>

<g fill="none" stroke="#000000" stroke-opacity="1" stroke-width="1" stroke-linecap="square" stroke-linejoin="bevel" transform="matrix(0.75,0,0,0.75,0,0)"
font-family="MS Shell Dlg 2" font-size="8.25" font-weight="400" font-style="normal" 
>
</g>

<g fill="none" stroke="#000000" stroke-opacity="1" stroke-width="1" stroke-linecap="square" stroke-linejoin="bevel" transform="matrix(0.75,0,0,0.75,465.75,366.75)"
font-family="MS Shell Dlg 2" font-size="8.25" font-weight="400" font-style="normal" 
>
</g>

<g fill="#7e2dd2" fill-opacity="1" stroke="none" transform="matrix(0.75,0,0,0.75,0,0)"
font-family="MS Shell Dlg 2" font-size="8.25" font-weight="400" font-style="normal" 
>
<path vector-effect="none" fill-rule="evenodd" d="M621,489 L629,489 L629,497 L621,497 L621,489"/>
</g>

<g fill="none" stroke="#000000" stroke-opacity="1" stroke-width="1" stroke-linecap="square" stroke-linejoin="bevel" transform="matrix(0.75,0,0,0.75,465.75,366.75)"
font-family="MS Shell Dlg 2" font-size="8.25" font-weight="400" font-style="normal" 
>
</g>

<g fill="none" stroke="#000000" stroke-opacity="1" stroke-width="1" stroke-linecap="square" stroke-linejoin="bevel" transform="matrix(0.75,0,0,0.75,0,0)"
font-family="MS Shell Dlg 2" font-size="8.25" font-weight="400" font-style="normal" 
>
</g>

<g fill="none" stroke="#000000" stroke-opacity="1" stroke-width="1" stroke-linecap="square" stroke-linejoin="bevel" transform="matrix(0.75,0,0,0.75,0,0)"
font-family="MS Shell Dlg 2" font-size="11" font-weight="400" font-style="normal" 
>
</g>

<g fill="none" stroke="#000000" stroke-opacity="1" stroke-width="1" stroke-linecap="square" stroke-linejoin="bevel" transform="matrix(0.75,0,0,0.75,0,0)"
font-family="MS Shell Dlg 2" font-size="11" font-weight="400" font-style="normal" 
>
<text fill="#000000" fill-opacity="1" stroke="none" xml:space="preserve" x="633" y="498" font-family="MS Shell Dlg 2" font-size="11" font-weight="400" font-style="normal" 
 >Channel 2</text>
</g>

<g fill="none" stroke="#000000" stroke-opacity="1" stroke-width="1" stroke-linecap="square" stroke-linejoin="bevel" transform="matrix(0.75,0,0,0.75,0,0)"
font-family="MS Shell Dlg 2" font-size="8.25" font-weight="400" font-style="normal" 
>
</g>

<g fill="none" stroke="#000000" stroke-opacity="1" stroke-width="1" stroke-linecap="square" stroke-linejoin="bevel" transform="matrix(0.75,0,0,0.75,0,0)"
font-family="MS Shell Dlg 2" font-size="8.25" font-weight="400" font-style="normal" 
>
</g>

<g fill="none" stroke="#000000" stroke-opacity="1" stroke-width="1" stroke-linecap="square" stroke-linejoin="bevel" transform="matrix(0.75,0,0,0.75,0,0)"
font-family="MS Shell Dlg 2" font-size="8.25" font-weight="400" font-style="normal" 
>
</g>

<g fill="none" stroke="#000000" stroke-opacity="1" stroke-width="1" stroke-linecap="square" stroke-linejoin="bevel" transform="matrix(0.75,0,0,0.75,0,0)"
font-family="MS Shell Dlg 2" font-size="8.25" font-weight="400" font-style="normal" 
>
</g>

<g fill="none" stroke="#000000" stroke-opacity="1" stroke-width="1" stroke-linecap="square" stroke-linejoin="bevel" transform="matrix(0.75,0,0,0.75,0,0)"
font-family="MS Shell Dlg 2" font-size="8.25" font-weight="400" font-style="normal" 
>
</g>

<g fill="none" stroke="#000000" stroke-opacity="1" stroke-width="1" stroke-linecap="square" stroke-linejoin="bevel" transform="matrix(0.75,0,0,0.75,0,0)"
font-family="MS Shell Dlg 2" font-size="8.25" font-weight="400" font-style="normal" 
>
</g>

<g fill="none" stroke="#000000" stroke-opacity="1" stroke-width="1" stroke-linecap="square" stroke-linejoin="bevel" transform="matrix(0.75,0,0,0.75,0,0)"
font-family="MS Shell Dlg 2" font-size="8.25" font-weight="400" font-style="normal" 
>
</g>

<g fill="#a0a0a0" fill-opacity="1" stroke="none" transform="matrix(0.75,0,0,0.75,0,0)"
font-family="MS Shell Dlg 2" font-size="8.25" font-weight="400" font-style="normal" 
>
<path vector-effect="none" fill-rule="evenodd" d="M48,514.333 L48,0 L695,0 L694,1 L49,1 L49,513.333"/>
</g>

<g fill="#ffffff" fill-opacity="1" stroke="none" transform="matrix(0.75,0,0,0.75,0,0)"
font-family="MS Shell Dlg 2" font-size="8.25" font-weight="400" font-style="normal" 
>
<path vector-effect="none" fill-rule="evenodd" d="M48,514.333 L695,514.333 L695,0 L694,1 L694,513.333 L49,513.333"/>
</g>

<g fill="none" stroke="#000000" stroke-opacity="1" stroke-width="1" stroke-linecap="square" stroke-linejoin="bevel" transform="matrix(0.75,0,0,0.75,0,0)"
font-family="MS Shell Dlg 2" font-size="8.25" font-weight="400" font-style="normal" 
>
</g>

<g fill="none" stroke="#000000" stroke-opacity="1" stroke-width="1" stroke-linecap="square" stroke-linejoin="bevel" transform="matrix(0.75,0,0,0.75,0,0)"
font-family="MS Shell Dlg 2" font-size="8.25" font-weight="400" font-style="normal" 
>
</g>

<g fill="none" stroke="#000000" stroke-opacity="1" stroke-width="1" stroke-linecap="square" stroke-linejoin="bevel" transform="matrix(0,-0.75,0.75,0,0,385)"
font-family="MS Shell Dlg 2" font-size="10" font-weight="400" font-style="normal" 
>
</g>

<g fill="none" stroke="#000000" stroke-opacity="1" stroke-width="1" stroke-linecap="square" stroke-linejoin="bevel" transform="matrix(0,-0.75,0.75,0,0,385)"
font-family="MS Shell Dlg 2" font-size="12" font-weight="700" font-style="normal" 
>
</g>

<g fill="none" stroke="#000000" stroke-opacity="1" stroke-width="1" stroke-linecap="square" stroke-linejoin="bevel" transform="matrix(0,-0.75,0.75,0,0,385)"
font-family="MS Shell Dlg 2" font-size="12" font-weight="700" font-style="normal" 
>
</g>

<g fill="none" stroke="#000000" stroke-opacity="1" stroke-width="1" stroke-linecap="square" stroke-linejoin="bevel" transform="matrix(0,-0.75,0.75,0,0,385)"
font-family="MS Shell Dlg 2" font-size="10" font-weight="400" font-style="normal" 
>
</g>

<g fill="none" stroke="#000000" stroke-opacity="1" stroke-width="1" stroke-linecap="square" stroke-linejoin="bevel" transform="matrix(0.75,0,0,0.75,0,0)"
font-family="MS Shell Dlg 2" font-size="8.25" font-weight="400" font-style="normal" 
>
</g>

<g fill="none" stroke="#000000" stroke-opacity="1" stroke-width="1" stroke-linecap="square" stroke-linejoin="bevel" transform="matrix(0.75,0,0,0.75,0,0)"
font-family="MS Shell Dlg 2" font-size="10" font-weight="400" font-style="normal" 
>
</g>

<g fill="none" stroke="#000000" stroke-opacity="1" stroke-width="1" stroke-linecap="square" stroke-linejoin="bevel" transform="matrix(0.75,0,0,0.75,0,0)"
font-family="MS Shell Dlg 2" font-size="10" font-weight="400" font-style="normal" 
>
</g>

<g fill="none" stroke="#000000" stroke-opacity="1" stroke-width="1" stroke-linecap="square" stroke-linejoin="bevel" transform="matrix(0.75,0,0,0.75,0,0)"
font-family="MS Shell Dlg 2" font-size="10" font-weight="400" font-style="normal" 
>
</g>

<g fill="none" stroke="#000000" stroke-opacity="1" stroke-width="1" stroke-linecap="square" stroke-linejoin="bevel" transform="matrix(0.75,0,0,0.75,8.25,377.5)"
font-family="MS Shell Dlg 2" font-size="10" font-weight="400" font-style="normal" 
>
</g>

<g fill="none" stroke="#000000" stroke-opacity="1" stroke-width="1" stroke-linecap="square" stroke-linejoin="bevel" transform="matrix(0.75,0,0,0.75,8.25,377.5)"
font-family="MS Shell Dlg 2" font-size="13" font-weight="400" font-style="normal" 
>
</g>

<g fill="none" stroke="#000000" stroke-opacity="1" stroke-width="1" stroke-linecap="square" stroke-linejoin="bevel" transform="matrix(0.75,0,0,0.75,8.25,377.5)"
font-family="MS Shell Dlg 2" font-size="13" font-weight="400" font-style="normal" 
>
<text fill="#000000" fill-opacity="1" stroke="none" xml:space="preserve" x="0" y="10" font-family="MS Shell Dlg 2" font-size="13" font-weight="400" font-style="normal" 
 >500</text>
</g>

<g fill="none" stroke="#000000" stroke-opacity="1" stroke-width="1" stroke-linecap="square" stroke-linejoin="bevel" transform="matrix(0.75,0,0,0.75,8.25,377.5)"
font-family="MS Shell Dlg 2" font-size="10" font-weight="400" font-style="normal" 
>
</g>

<g fill="none" stroke="#000000" stroke-opacity="1" stroke-width="1" stroke-linecap="square" stroke-linejoin="bevel" transform="matrix(0.75,0,0,0.75,8.25,377.5)"
font-family="MS Shell Dlg 2" font-size="10" font-weight="400" font-style="normal" 
>
</g>

<g fill="none" stroke="#000000" stroke-opacity="1" stroke-width="1" stroke-linecap="square" stroke-linejoin="bevel" transform="matrix(0.75,0,0,0.75,0,0)"
font-family="MS Shell Dlg 2" font-size="10" font-weight="400" font-style="normal" 
>
</g>

<g fill="none" stroke="#000000" stroke-opacity="1" stroke-width="1" stroke-linecap="square" stroke-linejoin="bevel" transform="matrix(0.75,0,0,0.75,0,323.571)"
font-family="MS Shell Dlg 2" font-size="10" font-weight="400" font-style="normal" 
>
</g>

<g fill="none" stroke="#000000" stroke-opacity="1" stroke-width="1" stroke-linecap="square" stroke-linejoin="bevel" transform="matrix(0.75,0,0,0.75,0,323.571)"
font-family="MS Shell Dlg 2" font-size="13" font-weight="400" font-style="normal" 
>
</g>

<g fill="none" stroke="#000000" stroke-opacity="1" stroke-width="1" stroke-linecap="square" stroke-linejoin="bevel" transform="matrix(0.75,0,0,0.75,0,323.571)"
font-family="MS Shell Dlg 2" font-size="13" font-weight="400" font-style="normal" 
>
<text fill="#000000" fill-opacity="1" stroke="none" xml:space="preserve" x="0" y="10" font-family="MS Shell Dlg 2" font-size="13" font-weight="400" font-style="normal" 
 >1 000</text>
</g>

<g fill="none" stroke="#000000" stroke-opacity="1" stroke-width="1" stroke-linecap="square" stroke-linejoin="bevel" transform="matrix(0.75,0,0,0.75,0,323.571)"
font-family="MS Shell Dlg 2" font-size="10" font-weight="400" font-style="normal" 
>
</g>

<g fill="none" stroke="#000000" stroke-opacity="1" stroke-width="1" stroke-linecap="square" stroke-linejoin="bevel" transform="matrix(0.75,0,0,0.75,0,323.571)"
font-family="MS Shell Dlg 2" font-size="10" font-weight="400" font-style="normal" 
>
</g>

<g fill="none" stroke="#000000" stroke-opacity="1" stroke-width="1" stroke-linecap="square" stroke-linejoin="bevel" transform="matrix(0.75,0,0,0.75,0,0)"
font-family="MS Shell Dlg 2" font-size="10" font-weight="400" font-style="normal" 
>
</g>

<g fill="none" stroke="#000000" stroke-opacity="1" stroke-width="1" stroke-linecap="square" stroke-linejoin="bevel" transform="matrix(0.75,0,0,0.75,0,269.643)"
font-family="MS Shell Dlg 2" font-size="10" font-weight="400" font-style="normal" 
>
</g>

<g fill="none" stroke="#000000" stroke-opacity="1" stroke-width="1" stroke-linecap="square" stroke-linejoin="bevel" transform="matrix(0.75,0,0,0.75,0,269.643)"
font-family="MS Shell Dlg 2" font-size="13" font-weight="400" font-style="normal" 
>
</g>

<g fill="none" stroke="#000000" stroke-opacity="1" stroke-width="1" stroke-linecap="square" stroke-linejoin="bevel" transform="matrix(0.75,0,0,0.75,0,269.643)"
font-family="MS Shell Dlg 2" font-size="13" font-weight="400" font-style="normal" 
>
<text fill="#000000" fill-opacity="1" stroke="none" xml:space="preserve" x="0" y="10" font-family="MS Shell Dlg 2" font-size="13" font-weight="400" font-style="normal" 
 >1 500</text>
</g>

<g fill="none" stroke="#000000" stroke-opacity="1" stroke-width="1" stroke-linecap="square" stroke-linejoin="bevel" transform="matrix(0.75,0,0,0.75,0,269.643)"
font-family="MS Shell Dlg 2" font-size="10" font-weight="400" font-style="normal" 
>
</g>

<g fill="none" stroke="#000000" stroke-opacity="1" stroke-width="1" stroke-linecap="square" stroke-linejoin="bevel" transform="matrix(0.75,0,0,0.75,0,269.643)"
font-family="MS Shell Dlg 2" font-size="10" font-weight="400" font-style="normal" 
>
</g>

<g fill="none" stroke="#000000" stroke-opacity="1" stroke-width="1" stroke-linecap="square" stroke-linejoin="bevel" transform="matrix(0.75,0,0,0.75,0,0)"
font-family="MS Shell Dlg 2" font-size="10" font-weight="400" font-style="normal" 
>
</g>

<g fill="none" stroke="#000000" stroke-opacity="1" stroke-width="1" stroke-linecap="square" stroke-linejoin="bevel" transform="matrix(0.75,0,0,0.75,0,215.714)"
font-family="MS Shell Dlg 2" font-size="10" font-weight="400" font-style="normal" 
>
</g>

<g fill="none" stroke="#000000" stroke-opacity="1" stroke-width="1" stroke-linecap="square" stroke-linejoin="bevel" transform="matrix(0.75,0,0,0.75,0,215.714)"
font-family="MS Shell Dlg 2" font-size="13" font-weight="400" font-style="normal" 
>
</g>

<g fill="none" stroke="#000000" stroke-opacity="1" stroke-width="1" stroke-linecap="square" stroke-linejoin="bevel" transform="matrix(0.75,0,0,0.75,0,215.714)"
font-family="MS Shell Dlg 2" font-size="13" font-weight="400" font-style="normal" 
>
<text fill="#000000" fill-opacity="1" stroke="none" xml:space="preserve" x="0" y="10" font-family="MS Shell Dlg 2" font-size="13" font-weight="400" font-style="normal" 
 >2 000</text>
</g>

<g fill="none" stroke="#000000" stroke-opacity="1" stroke-width="1" stroke-linecap="square" stroke-linejoin="bevel" transform="matrix(0.75,0,0,0.75,0,215.714)"
font-family="MS Shell Dlg 2" font-size="10" font-weight="400" font-style="normal" 
>
</g>

<g fill="none" stroke="#000000" stroke-opacity="1" stroke-width="1" stroke-linecap="square" stroke-linejoin="bevel" transform="matrix(0.75,0,0,0.75,0,215.714)"
font-family="MS Shell Dlg 2" font-size="10" font-weight="400" font-style="normal" 
>
</g>

<g fill="none" stroke="#000000" stroke-opacity="1" stroke-width="1" stroke-linecap="square" stroke-linejoin="bevel" transform="matrix(0.75,0,0,0.75,0,0)"
font-family="MS Shell Dlg 2" font-size="10" font-weight="400" font-style="normal" 
>
</g>

<g fill="none" stroke="#000000" stroke-opacity="1" stroke-width="1" stroke-linecap="square" stroke-linejoin="bevel" transform="matrix(0.75,0,0,0.75,0,161.786)"
font-family="MS Shell Dlg 2" font-size="10" font-weight="400" font-style="normal" 
>
</g>

<g fill="none" stroke="#000000" stroke-opacity="1" stroke-width="1" stroke-linecap="square" stroke-linejoin="bevel" transform="matrix(0.75,0,0,0.75,0,161.786)"
font-family="MS Shell Dlg 2" font-size="13" font-weight="400" font-style="normal" 
>
</g>

<g fill="none" stroke="#000000" stroke-opacity="1" stroke-width="1" stroke-linecap="square" stroke-linejoin="bevel" transform="matrix(0.75,0,0,0.75,0,161.786)"
font-family="MS Shell Dlg 2" font-size="13" font-weight="400" font-style="normal" 
>
<text fill="#000000" fill-opacity="1" stroke="none" xml:space="preserve" x="0" y="10" font-family="MS Shell Dlg 2" font-size="13" font-weight="400" font-style="normal" 
 >2 500</text>
</g>

<g fill="none" stroke="#000000" stroke-opacity="1" stroke-width="1" stroke-linecap="square" stroke-linejoin="bevel" transform="matrix(0.75,0,0,0.75,0,161.786)"
font-family="MS Shell Dlg 2" font-size="10" font-weight="400" font-style="normal" 
>
</g>

<g fill="none" stroke="#000000" stroke-opacity="1" stroke-width="1" stroke-linecap="square" stroke-linejoin="bevel" transform="matrix(0.75,0,0,0.75,0,161.786)"
font-family="MS Shell Dlg 2" font-size="10" font-weight="400" font-style="normal" 
>
</g>

<g fill="none" stroke="#000000" stroke-opacity="1" stroke-width="1" stroke-linecap="square" stroke-linejoin="bevel" transform="matrix(0.75,0,0,0.75,0,0)"
font-family="MS Shell Dlg 2" font-size="10" font-weight="400" font-style="normal" 
>
</g>

<g fill="none" stroke="#000000" stroke-opacity="1" stroke-width="1" stroke-linecap="square" stroke-linejoin="bevel" transform="matrix(0.75,0,0,0.75,0,107.857)"
font-family="MS Shell Dlg 2" font-size="10" font-weight="400" font-style="normal" 
>
</g>

<g fill="none" stroke="#000000" stroke-opacity="1" stroke-width="1" stroke-linecap="square" stroke-linejoin="bevel" transform="matrix(0.75,0,0,0.75,0,107.857)"
font-family="MS Shell Dlg 2" font-size="13" font-weight="400" font-style="normal" 
>
</g>

<g fill="none" stroke="#000000" stroke-opacity="1" stroke-width="1" stroke-linecap="square" stroke-linejoin="bevel" transform="matrix(0.75,0,0,0.75,0,107.857)"
font-family="MS Shell Dlg 2" font-size="13" font-weight="400" font-style="normal" 
>
<text fill="#000000" fill-opacity="1" stroke="none" xml:space="preserve" x="0" y="10" font-family="MS Shell Dlg 2" font-size="13" font-weight="400" font-style="normal" 
 >3 000</text>
</g>

<g fill="none" stroke="#000000" stroke-opacity="1" stroke-width="1" stroke-linecap="square" stroke-linejoin="bevel" transform="matrix(0.75,0,0,0.75,0,107.857)"
font-family="MS Shell Dlg 2" font-size="10" font-weight="400" font-style="normal" 
>
</g>

<g fill="none" stroke="#000000" stroke-opacity="1" stroke-width="1" stroke-linecap="square" stroke-linejoin="bevel" transform="matrix(0.75,0,0,0.75,0,107.857)"
font-family="MS Shell Dlg 2" font-size="10" font-weight="400" font-style="normal" 
>
</g>

<g fill="none" stroke="#000000" stroke-opacity="1" stroke-width="1" stroke-linecap="square" stroke-linejoin="bevel" transform="matrix(0.75,0,0,0.75,0,0)"
font-family="MS Shell Dlg 2" font-size="10" font-weight="400" font-style="normal" 
>
</g>

<g fill="none" stroke="#000000" stroke-opacity="1" stroke-width="1" stroke-linecap="square" stroke-linejoin="bevel" transform="matrix(0.75,0,0,0.75,0,53.9286)"
font-family="MS Shell Dlg 2" font-size="10" font-weight="400" font-style="normal" 
>
</g>

<g fill="none" stroke="#000000" stroke-opacity="1" stroke-width="1" stroke-linecap="square" stroke-linejoin="bevel" transform="matrix(0.75,0,0,0.75,0,53.9286)"
font-family="MS Shell Dlg 2" font-size="13" font-weight="400" font-style="normal" 
>
</g>

<g fill="none" stroke="#000000" stroke-opacity="1" stroke-width="1" stroke-linecap="square" stroke-linejoin="bevel" transform="matrix(0.75,0,0,0.75,0,53.9286)"
font-family="MS Shell Dlg 2" font-size="13" font-weight="400" font-style="normal" 
>
<text fill="#000000" fill-opacity="1" stroke="none" xml:space="preserve" x="0" y="10" font-family="MS Shell Dlg 2" font-size="13" font-weight="400" font-style="normal" 
 >3 500</text>
</g>

<g fill="none" stroke="#000000" stroke-opacity="1" stroke-width="1" stroke-linecap="square" stroke-linejoin="bevel" transform="matrix(0.75,0,0,0.75,0,53.9286)"
font-family="MS Shell Dlg 2" font-size="10" font-weight="400" font-style="normal" 
>
</g>

<g fill="none" stroke="#000000" stroke-opacity="1" stroke-width="1" stroke-linecap="square" stroke-linejoin="bevel" transform="matrix(0.75,0,0,0.75,0,53.9286)"
font-family="MS Shell Dlg 2" font-size="10" font-weight="400" font-style="normal" 
>
</g>

<g fill="none" stroke="#000000" stroke-opacity="1" stroke-width="1" stroke-linecap="square" stroke-linejoin="bevel" transform="matrix(0.75,0,0,0.75,0,0)"
font-family="MS Shell Dlg 2" font-size="10" font-weight="400" font-style="normal" 
>
</g>

<g fill="none" stroke="#000000" stroke-opacity="1" stroke-width="1" stroke-linecap="square" stroke-linejoin="bevel" transform="matrix(0.75,0,0,0.75,0,0)"
font-family="MS Shell Dlg 2" font-size="10" font-weight="400" font-style="normal" 
>
</g>

<g fill="none" stroke="#000000" stroke-opacity="1" stroke-width="1" stroke-linecap="square" stroke-linejoin="bevel" transform="matrix(0.75,0,0,0.75,0,0)"
font-family="MS Shell Dlg 2" font-size="13" font-weight="400" font-style="normal" 
>
</g>

<g fill="none" stroke="#000000" stroke-opacity="1" stroke-width="1" stroke-linecap="square" stroke-linejoin="bevel" transform="matrix(0.75,0,0,0.75,0,0)"
font-family="MS Shell Dlg 2" font-size="13" font-weight="400" font-style="normal" 
>
<text fill="#000000" fill-opacity="1" stroke="none" xml:space="preserve" x="0" y="10" font-family="MS Shell Dlg 2" font-size="13" font-weight="400" font-style="normal" 
 >4 000</text>
</g>

<g fill="none" stroke="#000000" stroke-opacity="1" stroke-width="1" stroke-linecap="square" stroke-linejoin="bevel" transform="matrix(0.75,0,0,0.75,0,0)"
font-family="MS Shell Dlg 2" font-size="10" font-weight="400" font-style="normal" 
>
</g>

<g fill="none" stroke="#000000" stroke-opacity="1" stroke-width="1" stroke-linecap="square" stroke-linejoin="bevel" transform="matrix(0.75,0,0,0.75,0,0)"
font-family="MS Shell Dlg 2" font-size="10" font-weight="400" font-style="normal" 
>
</g>

<g fill="none" stroke="#000000" stroke-opacity="1" stroke-width="1" stroke-linecap="square" stroke-linejoin="bevel" transform="matrix(0.75,0,0,0.75,0,0)"
font-family="MS Shell Dlg 2" font-size="10" font-weight="400" font-style="normal" 
>
</g>

<g fill="none" stroke="#000000" stroke-opacity="1" stroke-width="1" stroke-linecap="square" stroke-linejoin="bevel" transform="matrix(0.75,0,0,0.75,0,0)"
font-family="MS Shell Dlg 2" font-size="10" font-weight="400" font-style="normal" 
>
</g>

<g fill="none" stroke="#000000" stroke-opacity="1" stroke-width="1" stroke-linecap="butt" stroke-linejoin="bevel" transform="matrix(0.75,0,0,0.75,0,0)"
font-family="MS Shell Dlg 2" font-size="10" font-weight="400" font-style="normal" 
>
<polyline fill="none" vector-effect="non-scaling-stroke" points="45,493.952 41,493.952 " />
<polyline fill="none" vector-effect="non-scaling-stroke" points="45,479.571 41,479.571 " />
<polyline fill="none" vector-effect="non-scaling-stroke" points="45,465.19 41,465.19 " />
<polyline fill="none" vector-effect="non-scaling-stroke" points="45,450.81 41,450.81 " />
<polyline fill="none" vector-effect="non-scaling-stroke" points="45,422.048 41,422.048 " />
<polyline fill="none" vector-effect="non-scaling-stroke" points="45,407.667 41,407.667 " />
<polyline fill="none" vector-effect="non-scaling-stroke" points="45,393.286 41,393.286 " />
<polyline fill="none" vector-effect="non-scaling-stroke" points="45,378.905 41,378.905 " />
<polyline fill="none" vector-effect="non-scaling-stroke" points="45,350.143 41,350.143 " />
<polyline fill="none" vector-effect="non-scaling-stroke" points="45,335.762 41,335.762 " />
<polyline fill="none" vector-effect="non-scaling-stroke" points="45,321.381 41,321.381 " />
<polyline fill="none" vector-effect="non-scaling-stroke" points="45,307 41,307 " />
<polyline fill="none" vector-effect="non-scaling-stroke" points="45,278.238 41,278.238 " />
<polyline fill="none" vector-effect="non-scaling-stroke" points="45,263.857 41,263.857 " />
<polyline fill="none" vector-effect="non-scaling-stroke" points="45,249.476 41,249.476 " />
<polyline fill="none" vector-effect="non-scaling-stroke" points="45,235.095 41,235.095 " />
<polyline fill="none" vector-effect="non-scaling-stroke" points="45,206.333 41,206.333 " />
<polyline fill="none" vector-effect="non-scaling-stroke" points="45,191.952 41,191.952 " />
<polyline fill="none" vector-effect="non-scaling-stroke" points="45,177.571 41,177.571 " />
<polyline fill="none" vector-effect="non-scaling-stroke" points="45,163.19 41,163.19 " />
<polyline fill="none" vector-effect="non-scaling-stroke" points="45,134.429 41,134.429 " />
<polyline fill="none" vector-effect="non-scaling-stroke" points="45,120.048 41,120.048 " />
<polyline fill="none" vector-effect="non-scaling-stroke" points="45,105.667 41,105.667 " />
<polyline fill="none" vector-effect="non-scaling-stroke" points="45,91.2857 41,91.2857 " />
<polyline fill="none" vector-effect="non-scaling-stroke" points="45,62.5238 41,62.5238 " />
<polyline fill="none" vector-effect="non-scaling-stroke" points="45,48.1429 41,48.1429 " />
<polyline fill="none" vector-effect="non-scaling-stroke" points="45,33.7619 41,33.7619 " />
<polyline fill="none" vector-effect="non-scaling-stroke" points="45,19.381 41,19.381 " />
<polyline fill="none" vector-effect="non-scaling-stroke" points="45,508.333 37,508.333 " />
<polyline fill="none" vector-effect="non-scaling-stroke" points="45,436.429 37,436.429 " />
<polyline fill="none" vector-effect="non-scaling-stroke" points="45,364.524 37,364.524 " />
<polyline fill="none" vector-effect="non-scaling-stroke" points="45,292.619 37,292.619 " />
<polyline fill="none" vector-effect="non-scaling-stroke" points="45,220.714 37,220.714 " />
<polyline fill="none" vector-effect="non-scaling-stroke" points="45,148.81 37,148.81 " />
<polyline fill="none" vector-effect="non-scaling-stroke" points="45,76.9048 37,76.9048 " />
<polyline fill="none" vector-effect="non-scaling-stroke" points="45,5 37,5 " />
</g>

<g fill="none" stroke="#000000" stroke-opacity="1" stroke-width="1" stroke-linecap="square" stroke-linejoin="bevel" transform="matrix(0.75,0,0,0.75,0,0)"
font-family="MS Shell Dlg 2" font-size="10" font-weight="400" font-style="normal" 
>
</g>

<g fill="none" stroke="#000000" stroke-opacity="1" stroke-width="1" stroke-linecap="butt" stroke-linejoin="bevel" transform="matrix(0.75,0,0,0.75,0,0)"
font-family="MS Shell Dlg 2" font-size="10" font-weight="400" font-style="normal" 
>
<polyline fill="none" vector-effect="non-scaling-stroke" points="45,5 45,508.333 " />
</g>

<g fill="none" stroke="#000000" stroke-opacity="1" stroke-width="1" stroke-linecap="square" stroke-linejoin="bevel" transform="matrix(0.75,0,0,0.75,0,0)"
font-family="MS Shell Dlg 2" font-size="10" font-weight="400" font-style="normal" 
>
</g>

<g fill="none" stroke="#000000" stroke-opacity="1" stroke-width="1" stroke-linecap="square" stroke-linejoin="bevel" transform="matrix(0.75,0,0,0.75,0,0)"
font-family="MS Shell Dlg 2" font-size="10" font-weight="400" font-style="normal" 
>
</g>

<g fill="none" stroke="#000000" stroke-opacity="1" stroke-width="1" stroke-linecap="square" stroke-linejoin="bevel" transform="matrix(0.75,0,0,0.75,0,0)"
font-family="MS Shell Dlg 2" font-size="8.25" font-weight="400" font-style="normal" 
>
</g>

<g fill="none" stroke="#000000" stroke-opacity="1" stroke-width="1" stroke-linecap="square" stroke-linejoin="bevel" transform="matrix(0.75,0,0,0.75,37.5,406.75)"
font-family="MS Shell Dlg 2" font-size="10" font-weight="400" font-style="normal" 
>
</g>

<g fill="none" stroke="#000000" stroke-opacity="1" stroke-width="1" stroke-linecap="square" stroke-linejoin="bevel" transform="matrix(0.75,0,0,0.75,37.5,406.75)"
font-family="MS Shell Dlg 2" font-size="12" font-weight="700" font-style="normal" 
>
</g>

<g fill="none" stroke="#000000" stroke-opacity="1" stroke-width="1" stroke-linecap="square" stroke-linejoin="bevel" transform="matrix(0.75,0,0,0.75,37.5,406.75)"
font-family="MS Shell Dlg 2" font-size="12" font-weight="700" font-style="normal" 
>
</g>

<g fill="none" stroke="#000000" stroke-opacity="1" stroke-width="1" stroke-linecap="square" stroke-linejoin="bevel" transform="matrix(0.75,0,0,0.75,37.5,406.75)"
font-family="MS Shell Dlg 2" font-size="10" font-weight="400" font-style="normal" 
>
</g>

<g fill="none" stroke="#000000" stroke-opacity="1" stroke-width="1" stroke-linecap="square" stroke-linejoin="bevel" transform="matrix(0.75,0,0,0.75,0,0)"
font-family="MS Shell Dlg 2" font-size="8.25" font-weight="400" font-style="normal" 
>
</g>

<g fill="none" stroke="#000000" stroke-opacity="1" stroke-width="1" stroke-linecap="square" stroke-linejoin="bevel" transform="matrix(0.75,0,0,0.75,0,0)"
font-family="MS Shell Dlg 2" font-size="10" font-weight="400" font-style="normal" 
>
</g>

<g fill="none" stroke="#000000" stroke-opacity="1" stroke-width="1" stroke-linecap="square" stroke-linejoin="bevel" transform="matrix(0.75,0,0,0.75,0,0)"
font-family="MS Shell Dlg 2" font-size="10" font-weight="400" font-style="normal" 
>
</g>

<g fill="none" stroke="#000000" stroke-opacity="1" stroke-width="1" stroke-linecap="square" stroke-linejoin="bevel" transform="matrix(0.75,0,0,0.75,0,0)"
font-family="MS Shell Dlg 2" font-size="10" font-weight="400" font-style="normal" 
>
</g>

<g fill="none" stroke="#000000" stroke-opacity="1" stroke-width="1" stroke-linecap="square" stroke-linejoin="bevel" transform="matrix(0.75,0,0,0.75,37.875,397.75)"
font-family="MS Shell Dlg 2" font-size="10" font-weight="400" font-style="normal" 
>
</g>

<g fill="none" stroke="#000000" stroke-opacity="1" stroke-width="1" stroke-linecap="square" stroke-linejoin="bevel" transform="matrix(0.75,0,0,0.75,37.875,397.75)"
font-family="MS Shell Dlg 2" font-size="13" font-weight="400" font-style="normal" 
>
</g>

<g fill="none" stroke="#000000" stroke-opacity="1" stroke-width="1" stroke-linecap="square" stroke-linejoin="bevel" transform="matrix(0.75,0,0,0.75,37.875,397.75)"
font-family="MS Shell Dlg 2" font-size="13" font-weight="400" font-style="normal" 
>
<text fill="#000000" fill-opacity="1" stroke="none" xml:space="preserve" x="0" y="10" font-family="MS Shell Dlg 2" font-size="13" font-weight="400" font-style="normal" 
 >0</text>
</g>

<g fill="none" stroke="#000000" stroke-opacity="1" stroke-width="1" stroke-linecap="square" stroke-linejoin="bevel" transform="matrix(0.75,0,0,0.75,37.875,397.75)"
font-family="MS Shell Dlg 2" font-size="10" font-weight="400" font-style="normal" 
>
</g>

<g fill="none" stroke="#000000" stroke-opacity="1" stroke-width="1" stroke-linecap="square" stroke-linejoin="bevel" transform="matrix(0.75,0,0,0.75,37.875,397.75)"
font-family="MS Shell Dlg 2" font-size="10" font-weight="400" font-style="normal" 
>
</g>

<g fill="none" stroke="#000000" stroke-opacity="1" stroke-width="1" stroke-linecap="square" stroke-linejoin="bevel" transform="matrix(0.75,0,0,0.75,0,0)"
font-family="MS Shell Dlg 2" font-size="10" font-weight="400" font-style="normal" 
>
</g>

<g fill="none" stroke="#000000" stroke-opacity="1" stroke-width="1" stroke-linecap="square" stroke-linejoin="bevel" transform="matrix(0.75,0,0,0.75,126.525,397.75)"
font-family="MS Shell Dlg 2" font-size="10" font-weight="400" font-style="normal" 
>
</g>

<g fill="none" stroke="#000000" stroke-opacity="1" stroke-width="1" stroke-linecap="square" stroke-linejoin="bevel" transform="matrix(0.75,0,0,0.75,126.525,397.75)"
font-family="MS Shell Dlg 2" font-size="13" font-weight="400" font-style="normal" 
>
</g>

<g fill="none" stroke="#000000" stroke-opacity="1" stroke-width="1" stroke-linecap="square" stroke-linejoin="bevel" transform="matrix(0.75,0,0,0.75,126.525,397.75)"
font-family="MS Shell Dlg 2" font-size="13" font-weight="400" font-style="normal" 
>
<text fill="#000000" fill-opacity="1" stroke="none" xml:space="preserve" x="0" y="10" font-family="MS Shell Dlg 2" font-size="13" font-weight="400" font-style="normal" 
 >200</text>
</g>

<g fill="none" stroke="#000000" stroke-opacity="1" stroke-width="1" stroke-linecap="square" stroke-linejoin="bevel" transform="matrix(0.75,0,0,0.75,126.525,397.75)"
font-family="MS Shell Dlg 2" font-size="10" font-weight="400" font-style="normal" 
>
</g>

<g fill="none" stroke="#000000" stroke-opacity="1" stroke-width="1" stroke-linecap="square" stroke-linejoin="bevel" transform="matrix(0.75,0,0,0.75,126.525,397.75)"
font-family="MS Shell Dlg 2" font-size="10" font-weight="400" font-style="normal" 
>
</g>

<g fill="none" stroke="#000000" stroke-opacity="1" stroke-width="1" stroke-linecap="square" stroke-linejoin="bevel" transform="matrix(0.75,0,0,0.75,0,0)"
font-family="MS Shell Dlg 2" font-size="10" font-weight="400" font-style="normal" 
>
</g>

<g fill="none" stroke="#000000" stroke-opacity="1" stroke-width="1" stroke-linecap="square" stroke-linejoin="bevel" transform="matrix(0.75,0,0,0.75,220.425,397.75)"
font-family="MS Shell Dlg 2" font-size="10" font-weight="400" font-style="normal" 
>
</g>

<g fill="none" stroke="#000000" stroke-opacity="1" stroke-width="1" stroke-linecap="square" stroke-linejoin="bevel" transform="matrix(0.75,0,0,0.75,220.425,397.75)"
font-family="MS Shell Dlg 2" font-size="13" font-weight="400" font-style="normal" 
>
</g>

<g fill="none" stroke="#000000" stroke-opacity="1" stroke-width="1" stroke-linecap="square" stroke-linejoin="bevel" transform="matrix(0.75,0,0,0.75,220.425,397.75)"
font-family="MS Shell Dlg 2" font-size="13" font-weight="400" font-style="normal" 
>
<text fill="#000000" fill-opacity="1" stroke="none" xml:space="preserve" x="0" y="10" font-family="MS Shell Dlg 2" font-size="13" font-weight="400" font-style="normal" 
 >400</text>
</g>

<g fill="none" stroke="#000000" stroke-opacity="1" stroke-width="1" stroke-linecap="square" stroke-linejoin="bevel" transform="matrix(0.75,0,0,0.75,220.425,397.75)"
font-family="MS Shell Dlg 2" font-size="10" font-weight="400" font-style="normal" 
>
</g>

<g fill="none" stroke="#000000" stroke-opacity="1" stroke-width="1" stroke-linecap="square" stroke-linejoin="bevel" transform="matrix(0.75,0,0,0.75,220.425,397.75)"
font-family="MS Shell Dlg 2" font-size="10" font-weight="400" font-style="normal" 
>
</g>

<g fill="none" stroke="#000000" stroke-opacity="1" stroke-width="1" stroke-linecap="square" stroke-linejoin="bevel" transform="matrix(0.75,0,0,0.75,0,0)"
font-family="MS Shell Dlg 2" font-size="10" font-weight="400" font-style="normal" 
>
</g>

<g fill="none" stroke="#000000" stroke-opacity="1" stroke-width="1" stroke-linecap="square" stroke-linejoin="bevel" transform="matrix(0.75,0,0,0.75,314.325,397.75)"
font-family="MS Shell Dlg 2" font-size="10" font-weight="400" font-style="normal" 
>
</g>

<g fill="none" stroke="#000000" stroke-opacity="1" stroke-width="1" stroke-linecap="square" stroke-linejoin="bevel" transform="matrix(0.75,0,0,0.75,314.325,397.75)"
font-family="MS Shell Dlg 2" font-size="13" font-weight="400" font-style="normal" 
>
</g>

<g fill="none" stroke="#000000" stroke-opacity="1" stroke-width="1" stroke-linecap="square" stroke-linejoin="bevel" transform="matrix(0.75,0,0,0.75,314.325,397.75)"
font-family="MS Shell Dlg 2" font-size="13" font-weight="400" font-style="normal" 
>
<text fill="#000000" fill-opacity="1" stroke="none" xml:space="preserve" x="0" y="10" font-family="MS Shell Dlg 2" font-size="13" font-weight="400" font-style="normal" 
 >600</text>
</g>

<g fill="none" stroke="#000000" stroke-opacity="1" stroke-width="1" stroke-linecap="square" stroke-linejoin="bevel" transform="matrix(0.75,0,0,0.75,314.325,397.75)"
font-family="MS Shell Dlg 2" font-size="10" font-weight="400" font-style="normal" 
>
</g>

<g fill="none" stroke="#000000" stroke-opacity="1" stroke-width="1" stroke-linecap="square" stroke-linejoin="bevel" transform="matrix(0.75,0,0,0.75,314.325,397.75)"
font-family="MS Shell Dlg 2" font-size="10" font-weight="400" font-style="normal" 
>
</g>

<g fill="none" stroke="#000000" stroke-opacity="1" stroke-width="1" stroke-linecap="square" stroke-linejoin="bevel" transform="matrix(0.75,0,0,0.75,0,0)"
font-family="MS Shell Dlg 2" font-size="10" font-weight="400" font-style="normal" 
>
</g>

<g fill="none" stroke="#000000" stroke-opacity="1" stroke-width="1" stroke-linecap="square" stroke-linejoin="bevel" transform="matrix(0.75,0,0,0.75,408.225,397.75)"
font-family="MS Shell Dlg 2" font-size="10" font-weight="400" font-style="normal" 
>
</g>

<g fill="none" stroke="#000000" stroke-opacity="1" stroke-width="1" stroke-linecap="square" stroke-linejoin="bevel" transform="matrix(0.75,0,0,0.75,408.225,397.75)"
font-family="MS Shell Dlg 2" font-size="13" font-weight="400" font-style="normal" 
>
</g>

<g fill="none" stroke="#000000" stroke-opacity="1" stroke-width="1" stroke-linecap="square" stroke-linejoin="bevel" transform="matrix(0.75,0,0,0.75,408.225,397.75)"
font-family="MS Shell Dlg 2" font-size="13" font-weight="400" font-style="normal" 
>
<text fill="#000000" fill-opacity="1" stroke="none" xml:space="preserve" x="0" y="10" font-family="MS Shell Dlg 2" font-size="13" font-weight="400" font-style="normal" 
 >800</text>
</g>

<g fill="none" stroke="#000000" stroke-opacity="1" stroke-width="1" stroke-linecap="square" stroke-linejoin="bevel" transform="matrix(0.75,0,0,0.75,408.225,397.75)"
font-family="MS Shell Dlg 2" font-size="10" font-weight="400" font-style="normal" 
>
</g>

<g fill="none" stroke="#000000" stroke-opacity="1" stroke-width="1" stroke-linecap="square" stroke-linejoin="bevel" transform="matrix(0.75,0,0,0.75,408.225,397.75)"
font-family="MS Shell Dlg 2" font-size="10" font-weight="400" font-style="normal" 
>
</g>

<g fill="none" stroke="#000000" stroke-opacity="1" stroke-width="1" stroke-linecap="square" stroke-linejoin="bevel" transform="matrix(0.75,0,0,0.75,0,0)"
font-family="MS Shell Dlg 2" font-size="10" font-weight="400" font-style="normal" 
>
</g>

<g fill="none" stroke="#000000" stroke-opacity="1" stroke-width="1" stroke-linecap="square" stroke-linejoin="bevel" transform="matrix(0.75,0,0,0.75,498,397.75)"
font-family="MS Shell Dlg 2" font-size="10" font-weight="400" font-style="normal" 
>
</g>

<g fill="none" stroke="#000000" stroke-opacity="1" stroke-width="1" stroke-linecap="square" stroke-linejoin="bevel" transform="matrix(0.75,0,0,0.75,498,397.75)"
font-family="MS Shell Dlg 2" font-size="13" font-weight="400" font-style="normal" 
>
</g>

<g fill="none" stroke="#000000" stroke-opacity="1" stroke-width="1" stroke-linecap="square" stroke-linejoin="bevel" transform="matrix(0.75,0,0,0.75,498,397.75)"
font-family="MS Shell Dlg 2" font-size="13" font-weight="400" font-style="normal" 
>
<text fill="#000000" fill-opacity="1" stroke="none" xml:space="preserve" x="0" y="10" font-family="MS Shell Dlg 2" font-size="13" font-weight="400" font-style="normal" 
 >1 000</text>
</g>

<g fill="none" stroke="#000000" stroke-opacity="1" stroke-width="1" stroke-linecap="square" stroke-linejoin="bevel" transform="matrix(0.75,0,0,0.75,498,397.75)"
font-family="MS Shell Dlg 2" font-size="10" font-weight="400" font-style="normal" 
>
</g>

<g fill="none" stroke="#000000" stroke-opacity="1" stroke-width="1" stroke-linecap="square" stroke-linejoin="bevel" transform="matrix(0.75,0,0,0.75,498,397.75)"
font-family="MS Shell Dlg 2" font-size="10" font-weight="400" font-style="normal" 
>
</g>

<g fill="none" stroke="#000000" stroke-opacity="1" stroke-width="1" stroke-linecap="square" stroke-linejoin="bevel" transform="matrix(0.75,0,0,0.75,0,0)"
font-family="MS Shell Dlg 2" font-size="10" font-weight="400" font-style="normal" 
>
</g>

<g fill="none" stroke="#000000" stroke-opacity="1" stroke-width="1" stroke-linecap="square" stroke-linejoin="bevel" transform="matrix(0.75,0,0,0.75,0,0)"
font-family="MS Shell Dlg 2" font-size="10" font-weight="400" font-style="normal" 
>
</g>

<g fill="none" stroke="#000000" stroke-opacity="1" stroke-width="1" stroke-linecap="butt" stroke-linejoin="bevel" transform="matrix(0.75,0,0,0.75,0,0)"
font-family="MS Shell Dlg 2" font-size="10" font-weight="400" font-style="normal" 
>
<polyline fill="none" vector-effect="non-scaling-stroke" points="85.3,517.333 85.3,521.333 " />
<polyline fill="none" vector-effect="non-scaling-stroke" points="147.9,517.333 147.9,521.333 " />
<polyline fill="none" vector-effect="non-scaling-stroke" points="210.5,517.333 210.5,521.333 " />
<polyline fill="none" vector-effect="non-scaling-stroke" points="273.1,517.333 273.1,521.333 " />
<polyline fill="none" vector-effect="non-scaling-stroke" points="335.7,517.333 335.7,521.333 " />
<polyline fill="none" vector-effect="non-scaling-stroke" points="398.3,517.333 398.3,521.333 " />
<polyline fill="none" vector-effect="non-scaling-stroke" points="460.9,517.333 460.9,521.333 " />
<polyline fill="none" vector-effect="non-scaling-stroke" points="523.5,517.333 523.5,521.333 " />
<polyline fill="none" vector-effect="non-scaling-stroke" points="586.1,517.333 586.1,521.333 " />
<polyline fill="none" vector-effect="non-scaling-stroke" points="648.7,517.333 648.7,521.333 " />
<polyline fill="none" vector-effect="non-scaling-stroke" points="116.6,517.333 116.6,523.333 " />
<polyline fill="none" vector-effect="non-scaling-stroke" points="241.8,517.333 241.8,523.333 " />
<polyline fill="none" vector-effect="non-scaling-stroke" points="367,517.333 367,523.333 " />
<polyline fill="none" vector-effect="non-scaling-stroke" points="492.2,517.333 492.2,523.333 " />
<polyline fill="none" vector-effect="non-scaling-stroke" points="617.4,517.333 617.4,523.333 " />
<polyline fill="none" vector-effect="non-scaling-stroke" points="54,517.333 54,525.333 " />
<polyline fill="none" vector-effect="non-scaling-stroke" points="179.2,517.333 179.2,525.333 " />
<polyline fill="none" vector-effect="non-scaling-stroke" points="304.4,517.333 304.4,525.333 " />
<polyline fill="none" vector-effect="non-scaling-stroke" points="429.6,517.333 429.6,525.333 " />
<polyline fill="none" vector-effect="non-scaling-stroke" points="554.8,517.333 554.8,525.333 " />
<polyline fill="none" vector-effect="non-scaling-stroke" points="680,517.333 680,525.333 " />
</g>

<g fill="none" stroke="#000000" stroke-opacity="1" stroke-width="1" stroke-linecap="square" stroke-linejoin="bevel" transform="matrix(0.75,0,0,0.75,0,0)"
font-family="MS Shell Dlg 2" font-size="10" font-weight="400" font-style="normal" 
>
</g>

<g fill="none" stroke="#000000" stroke-opacity="1" stroke-width="1" stroke-linecap="butt" stroke-linejoin="bevel" transform="matrix(0.75,0,0,0.75,0,0)"
font-family="MS Shell Dlg 2" font-size="10" font-weight="400" font-style="normal" 
>
<polyline fill="none" vector-effect="non-scaling-stroke" points="54,517.333 680,517.333 " />
</g>

<g fill="none" stroke="#000000" stroke-opacity="1" stroke-width="1" stroke-linecap="square" stroke-linejoin="bevel" transform="matrix(0.75,0,0,0.75,0,0)"
font-family="MS Shell Dlg 2" font-size="10" font-weight="400" font-style="normal" 
>
</g>

<g fill="none" stroke="#000000" stroke-opacity="1" stroke-width="1" stroke-linecap="square" stroke-linejoin="bevel" transform="matrix(0.75,0,0,0.75,0,0)"
font-family="MS Shell Dlg 2" font-size="10" font-weight="400" font-style="normal" 
>
</g>

<g fill="none" stroke="#000000" stroke-opacity="1" stroke-width="1" stroke-linecap="square" stroke-linejoin="bevel" transform="matrix(0.75,0,0,0.75,0,0)"
font-family="MS Shell Dlg 2" font-size="8.25" font-weight="400" font-style="normal" 
>
</g>

<g fill="none" stroke="#000000" stroke-opacity="1" stroke-width="1" stroke-linecap="square" stroke-linejoin="bevel" transform="matrix(1,0,0,1,0,0)"
font-family="MS Shell Dlg 2" font-size="8.25" font-weight="400" font-style="normal" 
>
</g>
</g>
</svg>
