G04 #@! TF.FileFunction,Copper,L2,Bot,Signal*
%FSLAX46Y46*%
G04 Gerber Fmt 4.6, Leading zero omitted, Abs format (unit mm)*
G04 Created by KiCad (PCBNEW 4.0.7) date 11/23/17 22:00:10*
%MOMM*%
%LPD*%
G01*
G04 APERTURE LIST*
%ADD10C,0.100000*%
%ADD11C,1.500000*%
%ADD12R,3.000000X3.000000*%
%ADD13C,3.000000*%
%ADD14R,1.250000X1.500000*%
%ADD15R,1.700000X1.700000*%
%ADD16O,1.700000X1.700000*%
%ADD17R,1.500000X1.300000*%
%ADD18O,2.000000X1.724000*%
%ADD19C,2.100000*%
%ADD20C,0.600000*%
%ADD21C,0.800000*%
%ADD22C,0.250000*%
%ADD23C,0.254000*%
G04 APERTURE END LIST*
D10*
D11*
X179600000Y-133800000D03*
X179600000Y-128920000D03*
D12*
X183900000Y-159000000D03*
D13*
X139200000Y-159000000D03*
D12*
X139200000Y-98200000D03*
D13*
X183900000Y-98200000D03*
D14*
X179600000Y-123500000D03*
X179600000Y-121000000D03*
X179600000Y-138900000D03*
X179600000Y-141400000D03*
D15*
X138000000Y-128580000D03*
D16*
X138000000Y-131120000D03*
X138000000Y-133660000D03*
X138000000Y-136200000D03*
D15*
X142200000Y-128580000D03*
D16*
X142200000Y-131120000D03*
X142200000Y-133660000D03*
X142200000Y-136200000D03*
D15*
X140200000Y-145000000D03*
D16*
X137660000Y-145000000D03*
D15*
X137800000Y-111000000D03*
D16*
X140340000Y-111000000D03*
D15*
X137660000Y-148800000D03*
D16*
X140200000Y-148800000D03*
D15*
X140540000Y-120800000D03*
D16*
X138000000Y-120800000D03*
D15*
X140540000Y-117000000D03*
D16*
X138000000Y-117000000D03*
D17*
X180950000Y-110200000D03*
X178250000Y-110200000D03*
X187200000Y-113800000D03*
X184500000Y-113800000D03*
X186500000Y-140800000D03*
X183800000Y-140800000D03*
X186500000Y-146000000D03*
X183800000Y-146000000D03*
D15*
X191400000Y-155460000D03*
D16*
X191400000Y-158000000D03*
X191400000Y-160540000D03*
D18*
X186600000Y-118370000D03*
X186600000Y-120910000D03*
X186600000Y-123450000D03*
X186600000Y-125990000D03*
X186600000Y-128530000D03*
X186600000Y-131070000D03*
X186600000Y-133610000D03*
X186600000Y-136150000D03*
D19*
X186600000Y-107702000D03*
X186600000Y-149358000D03*
X146976000Y-149358000D03*
X146976000Y-107702000D03*
D20*
X183050000Y-132800000D03*
X161000000Y-138200000D03*
X167400000Y-143750000D03*
X171400000Y-148300000D03*
X170591650Y-140307752D03*
X170574990Y-133800000D03*
X168739845Y-123739846D03*
X164800000Y-123400000D03*
X150000000Y-138000000D03*
X168800000Y-128200000D03*
X169800000Y-138200000D03*
X169339844Y-123139847D03*
X172800000Y-121200000D03*
X163200000Y-131600000D03*
X186000000Y-110800000D03*
X162800000Y-132400000D03*
X188400000Y-115800000D03*
X166200000Y-136925011D03*
X193800000Y-138400000D03*
X167200000Y-136600000D03*
X187200000Y-143800000D03*
D21*
X186600000Y-138000000D02*
X186600000Y-136350000D01*
X186600000Y-136350000D02*
X183050000Y-132800000D01*
X190750000Y-116700000D02*
X190750000Y-105050000D01*
X190750000Y-105050000D02*
X183900000Y-98200000D01*
X189400000Y-118050000D02*
X190750000Y-116700000D01*
X188200010Y-118050000D02*
X188200010Y-117400010D01*
X188200010Y-134717990D02*
X188200010Y-118050000D01*
X188200010Y-118050000D02*
X189400000Y-118050000D01*
D22*
X161000000Y-138200000D02*
X154200000Y-145000000D01*
X154200000Y-145000000D02*
X140200000Y-145000000D01*
D21*
X138000000Y-120800000D02*
X138849999Y-121649999D01*
X138849999Y-121649999D02*
X138849999Y-122449997D01*
X138849999Y-122449997D02*
X140200000Y-123799998D01*
X140200000Y-123799998D02*
X140200000Y-143350000D01*
X140200000Y-143350000D02*
X140200000Y-145000000D01*
X184500000Y-113800000D02*
X182950000Y-113800000D01*
X182950000Y-113800000D02*
X179600000Y-117150000D01*
X179600000Y-117150000D02*
X179600000Y-119450000D01*
X179600000Y-119450000D02*
X179600000Y-121000000D01*
X186600000Y-136180000D02*
X186738000Y-136180000D01*
X186738000Y-136180000D02*
X188200010Y-134717990D01*
X188200010Y-117400010D02*
X184600000Y-113800000D01*
X184600000Y-113800000D02*
X184500000Y-113800000D01*
X184500000Y-113800000D02*
X180400000Y-113800000D01*
X180400000Y-113800000D02*
X178250000Y-111650000D01*
X178250000Y-111650000D02*
X178250000Y-110200000D01*
X183800000Y-140800000D02*
X180200000Y-140800000D01*
X183800000Y-140800000D02*
X183800000Y-146000000D01*
X186600000Y-138000000D02*
X183800000Y-140800000D01*
X186600000Y-136180000D02*
X186600000Y-138000000D01*
X180200000Y-140800000D02*
X179600000Y-141400000D01*
X179600000Y-128920000D02*
X179600000Y-123500000D01*
X179600000Y-133800000D02*
X179600000Y-138900000D01*
X171400000Y-148300000D02*
X171400000Y-147750000D01*
X171400000Y-147750000D02*
X167400000Y-143750000D01*
D22*
X170574990Y-133800000D02*
X170574990Y-140291092D01*
X170574990Y-140291092D02*
X170591650Y-140307752D01*
X164800000Y-123400000D02*
X168399999Y-123400000D01*
X168399999Y-123400000D02*
X168439846Y-123439847D01*
X168439846Y-123439847D02*
X168739845Y-123739846D01*
X167424264Y-135400000D02*
X152600000Y-135400000D01*
X152600000Y-135400000D02*
X150000000Y-138000000D01*
X169800000Y-138200000D02*
X169800000Y-137775736D01*
X169800000Y-137775736D02*
X167424264Y-135400000D01*
X169800000Y-138200000D02*
X169800000Y-129200000D01*
X169800000Y-129200000D02*
X168800000Y-128200000D01*
X169039845Y-122839848D02*
X169339844Y-123139847D01*
X140540000Y-120800000D02*
X166999997Y-120800000D01*
X166999997Y-120800000D02*
X169039845Y-122839848D01*
X172800000Y-121200000D02*
X163200000Y-130800000D01*
X163200000Y-130800000D02*
X163200000Y-131600000D01*
D21*
X186000000Y-110800000D02*
X181550000Y-110800000D01*
X181550000Y-110800000D02*
X180950000Y-110200000D01*
D22*
X162500001Y-132100001D02*
X162800000Y-132400000D01*
X177239999Y-109224999D02*
X171400000Y-115064998D01*
X171400000Y-121963590D02*
X162500001Y-130863589D01*
X185450317Y-109224999D02*
X177239999Y-109224999D01*
X187200000Y-113800000D02*
X187200000Y-110974682D01*
X171400000Y-115064998D02*
X171400000Y-121963590D01*
X162500001Y-130863589D02*
X162500001Y-132100001D01*
X187200000Y-110974682D02*
X185450317Y-109224999D01*
D21*
X188400000Y-115800000D02*
X188400000Y-115000000D01*
X188400000Y-115000000D02*
X187200000Y-113800000D01*
D22*
X176249990Y-146975001D02*
X166499999Y-137225010D01*
X184810001Y-146975001D02*
X176249990Y-146975001D01*
X185424999Y-146360003D02*
X184810001Y-146975001D01*
X185424999Y-142775001D02*
X185424999Y-146360003D01*
X166499999Y-137225010D02*
X166200000Y-136925011D01*
X186500000Y-140800000D02*
X186500000Y-141700000D01*
X186500000Y-141700000D02*
X185424999Y-142775001D01*
D21*
X193800000Y-138400000D02*
X191400000Y-140800000D01*
X191400000Y-140800000D02*
X186500000Y-140800000D01*
D22*
X165200000Y-137400000D02*
X175225012Y-147425012D01*
X175225012Y-147425012D02*
X185974988Y-147425012D01*
X185974988Y-147425012D02*
X186500000Y-146900000D01*
X186500000Y-146900000D02*
X186500000Y-146000000D01*
X165200000Y-136600000D02*
X165200000Y-137400000D01*
X165499999Y-136300001D02*
X165200000Y-136600000D01*
X166900001Y-136300001D02*
X165499999Y-136300001D01*
X167200000Y-136600000D02*
X166900001Y-136300001D01*
D21*
X187200000Y-143800000D02*
X187200000Y-145300000D01*
X187200000Y-145300000D02*
X186500000Y-146000000D01*
D23*
G36*
X198890000Y-165940000D02*
X136360000Y-165940000D01*
X136360000Y-159363403D01*
X137364682Y-159363403D01*
X137643455Y-160038086D01*
X138159199Y-160554730D01*
X138833395Y-160834681D01*
X139563403Y-160835318D01*
X140238086Y-160556545D01*
X140754730Y-160040801D01*
X141034681Y-159366605D01*
X141035318Y-158636597D01*
X140756545Y-157961914D01*
X140295436Y-157500000D01*
X182058437Y-157500000D01*
X182058437Y-160500000D01*
X182081796Y-160624144D01*
X182155165Y-160738162D01*
X182267113Y-160814653D01*
X182400000Y-160841563D01*
X185400000Y-160841563D01*
X185524144Y-160818204D01*
X185638162Y-160744835D01*
X185714653Y-160632887D01*
X185733462Y-160540000D01*
X190191784Y-160540000D01*
X190281987Y-160993480D01*
X190538862Y-161377922D01*
X190923304Y-161634797D01*
X191376784Y-161725000D01*
X191423216Y-161725000D01*
X191876696Y-161634797D01*
X192261138Y-161377922D01*
X192518013Y-160993480D01*
X192608216Y-160540000D01*
X192518013Y-160086520D01*
X192261138Y-159702078D01*
X191876696Y-159445203D01*
X191423216Y-159355000D01*
X191376784Y-159355000D01*
X190923304Y-159445203D01*
X190538862Y-159702078D01*
X190281987Y-160086520D01*
X190191784Y-160540000D01*
X185733462Y-160540000D01*
X185741563Y-160500000D01*
X185741563Y-158000000D01*
X190191784Y-158000000D01*
X190281987Y-158453480D01*
X190538862Y-158837922D01*
X190923304Y-159094797D01*
X191376784Y-159185000D01*
X191423216Y-159185000D01*
X191876696Y-159094797D01*
X192261138Y-158837922D01*
X192518013Y-158453480D01*
X192608216Y-158000000D01*
X192518013Y-157546520D01*
X192261138Y-157162078D01*
X191876696Y-156905203D01*
X191423216Y-156815000D01*
X191376784Y-156815000D01*
X190923304Y-156905203D01*
X190538862Y-157162078D01*
X190281987Y-157546520D01*
X190191784Y-158000000D01*
X185741563Y-158000000D01*
X185741563Y-157500000D01*
X185718204Y-157375856D01*
X185644835Y-157261838D01*
X185532887Y-157185347D01*
X185400000Y-157158437D01*
X182400000Y-157158437D01*
X182275856Y-157181796D01*
X182161838Y-157255165D01*
X182085347Y-157367113D01*
X182058437Y-157500000D01*
X140295436Y-157500000D01*
X140240801Y-157445270D01*
X139566605Y-157165319D01*
X138836597Y-157164682D01*
X138161914Y-157443455D01*
X137645270Y-157959199D01*
X137365319Y-158633395D01*
X137364682Y-159363403D01*
X136360000Y-159363403D01*
X136360000Y-154610000D01*
X190208437Y-154610000D01*
X190208437Y-156310000D01*
X190231796Y-156434144D01*
X190305165Y-156548162D01*
X190417113Y-156624653D01*
X190550000Y-156651563D01*
X192250000Y-156651563D01*
X192374144Y-156628204D01*
X192488162Y-156554835D01*
X192564653Y-156442887D01*
X192591563Y-156310000D01*
X192591563Y-154610000D01*
X192568204Y-154485856D01*
X192494835Y-154371838D01*
X192382887Y-154295347D01*
X192250000Y-154268437D01*
X190550000Y-154268437D01*
X190425856Y-154291796D01*
X190311838Y-154365165D01*
X190235347Y-154477113D01*
X190208437Y-154610000D01*
X136360000Y-154610000D01*
X136360000Y-147950000D01*
X136468437Y-147950000D01*
X136468437Y-149650000D01*
X136491796Y-149774144D01*
X136565165Y-149888162D01*
X136677113Y-149964653D01*
X136810000Y-149991563D01*
X138510000Y-149991563D01*
X138634144Y-149968204D01*
X138748162Y-149894835D01*
X138824653Y-149782887D01*
X138851563Y-149650000D01*
X138851563Y-149109745D01*
X139056186Y-149109745D01*
X139261788Y-149523886D01*
X139610224Y-149827822D01*
X139890256Y-149943803D01*
X140073000Y-149893902D01*
X140073000Y-148927000D01*
X140327000Y-148927000D01*
X140327000Y-149893902D01*
X140509744Y-149943803D01*
X140789776Y-149827822D01*
X141013942Y-149632285D01*
X145590760Y-149632285D01*
X145801169Y-150141515D01*
X146190436Y-150531461D01*
X146699298Y-150742759D01*
X147250285Y-150743240D01*
X147759515Y-150532831D01*
X148149461Y-150143564D01*
X148360759Y-149634702D01*
X148360761Y-149632285D01*
X185214760Y-149632285D01*
X185425169Y-150141515D01*
X185814436Y-150531461D01*
X186323298Y-150742759D01*
X186874285Y-150743240D01*
X187383515Y-150532831D01*
X187773461Y-150143564D01*
X187984759Y-149634702D01*
X187985240Y-149083715D01*
X187774831Y-148574485D01*
X187385564Y-148184539D01*
X186876702Y-147973241D01*
X186325715Y-147972760D01*
X185816485Y-148183169D01*
X185426539Y-148572436D01*
X185215241Y-149081298D01*
X185214760Y-149632285D01*
X148360761Y-149632285D01*
X148361240Y-149083715D01*
X148150831Y-148574485D01*
X147761564Y-148184539D01*
X147252702Y-147973241D01*
X146701715Y-147972760D01*
X146192485Y-148183169D01*
X145802539Y-148572436D01*
X145591241Y-149081298D01*
X145590760Y-149632285D01*
X141013942Y-149632285D01*
X141138212Y-149523886D01*
X141343814Y-149109745D01*
X141294437Y-148927000D01*
X140327000Y-148927000D01*
X140073000Y-148927000D01*
X139105563Y-148927000D01*
X139056186Y-149109745D01*
X138851563Y-149109745D01*
X138851563Y-148490255D01*
X139056186Y-148490255D01*
X139105563Y-148673000D01*
X140073000Y-148673000D01*
X140073000Y-147706098D01*
X140327000Y-147706098D01*
X140327000Y-148673000D01*
X141294437Y-148673000D01*
X141343814Y-148490255D01*
X141138212Y-148076114D01*
X140789776Y-147772178D01*
X140509744Y-147656197D01*
X140327000Y-147706098D01*
X140073000Y-147706098D01*
X139890256Y-147656197D01*
X139610224Y-147772178D01*
X139261788Y-148076114D01*
X139056186Y-148490255D01*
X138851563Y-148490255D01*
X138851563Y-147950000D01*
X138828204Y-147825856D01*
X138754835Y-147711838D01*
X138642887Y-147635347D01*
X138510000Y-147608437D01*
X136810000Y-147608437D01*
X136685856Y-147631796D01*
X136571838Y-147705165D01*
X136495347Y-147817113D01*
X136468437Y-147950000D01*
X136360000Y-147950000D01*
X136360000Y-144976784D01*
X136475000Y-144976784D01*
X136475000Y-145023216D01*
X136565203Y-145476696D01*
X136822078Y-145861138D01*
X137206520Y-146118013D01*
X137660000Y-146208216D01*
X138113480Y-146118013D01*
X138497922Y-145861138D01*
X138754797Y-145476696D01*
X138807697Y-145210750D01*
X139015000Y-145210750D01*
X139015000Y-145916636D01*
X139066001Y-146039763D01*
X139160238Y-146134000D01*
X139283365Y-146185000D01*
X139989250Y-146185000D01*
X140073000Y-146101250D01*
X140073000Y-145127000D01*
X140327000Y-145127000D01*
X140327000Y-146101250D01*
X140410750Y-146185000D01*
X141116635Y-146185000D01*
X141239762Y-146134000D01*
X141333999Y-146039763D01*
X141385000Y-145916636D01*
X141385000Y-145210750D01*
X141301250Y-145127000D01*
X140327000Y-145127000D01*
X140073000Y-145127000D01*
X139098750Y-145127000D01*
X139015000Y-145210750D01*
X138807697Y-145210750D01*
X138845000Y-145023216D01*
X138845000Y-144976784D01*
X138754797Y-144523304D01*
X138497922Y-144138862D01*
X138414864Y-144083364D01*
X139015000Y-144083364D01*
X139015000Y-144789250D01*
X139098750Y-144873000D01*
X140073000Y-144873000D01*
X140073000Y-143898750D01*
X140327000Y-143898750D01*
X140327000Y-144873000D01*
X141301250Y-144873000D01*
X141385000Y-144789250D01*
X141385000Y-144083364D01*
X141333999Y-143960237D01*
X141239762Y-143866000D01*
X141116635Y-143815000D01*
X140410750Y-143815000D01*
X140327000Y-143898750D01*
X140073000Y-143898750D01*
X139989250Y-143815000D01*
X139283365Y-143815000D01*
X139160238Y-143866000D01*
X139066001Y-143960237D01*
X139015000Y-144083364D01*
X138414864Y-144083364D01*
X138113480Y-143881987D01*
X137660000Y-143791784D01*
X137206520Y-143881987D01*
X136822078Y-144138862D01*
X136565203Y-144523304D01*
X136475000Y-144976784D01*
X136360000Y-144976784D01*
X136360000Y-143750000D01*
X166665001Y-143750000D01*
X166720949Y-144031272D01*
X166880277Y-144269723D01*
X170665000Y-148054447D01*
X170665000Y-148300000D01*
X170720949Y-148581272D01*
X170880277Y-148819723D01*
X171118728Y-148979051D01*
X171400000Y-149035000D01*
X171681272Y-148979051D01*
X171919723Y-148819723D01*
X172079051Y-148581272D01*
X172135000Y-148300000D01*
X172135000Y-147750000D01*
X172079051Y-147468728D01*
X172033119Y-147399986D01*
X171919723Y-147230276D01*
X167919723Y-143230277D01*
X167681272Y-143070949D01*
X167400000Y-143015001D01*
X167118728Y-143070949D01*
X166880277Y-143230277D01*
X166720949Y-143468728D01*
X166665001Y-143750000D01*
X136360000Y-143750000D01*
X136360000Y-138125755D01*
X149364890Y-138125755D01*
X149461360Y-138359228D01*
X149639832Y-138538013D01*
X149873137Y-138634889D01*
X150125755Y-138635110D01*
X150359228Y-138538640D01*
X150538013Y-138360168D01*
X150634889Y-138126863D01*
X150634986Y-138015552D01*
X152790538Y-135860000D01*
X165399456Y-135860000D01*
X165323964Y-135875016D01*
X165174730Y-135974732D01*
X164874731Y-136274731D01*
X164775015Y-136423965D01*
X164775015Y-136423966D01*
X164740000Y-136600000D01*
X164740000Y-137400000D01*
X164775015Y-137576035D01*
X164874731Y-137725269D01*
X174899743Y-147750281D01*
X175048977Y-147849997D01*
X175225012Y-147885012D01*
X185974988Y-147885012D01*
X186151023Y-147849997D01*
X186300257Y-147750281D01*
X186825269Y-147225269D01*
X186924985Y-147076035D01*
X186941787Y-146991563D01*
X187250000Y-146991563D01*
X187374144Y-146968204D01*
X187488162Y-146894835D01*
X187564653Y-146782887D01*
X187591563Y-146650000D01*
X187591563Y-145947884D01*
X187719723Y-145819724D01*
X187879051Y-145581273D01*
X187899140Y-145480277D01*
X187935000Y-145300000D01*
X187935000Y-143800000D01*
X187879051Y-143518728D01*
X187719723Y-143280277D01*
X187481272Y-143120949D01*
X187200000Y-143065000D01*
X186918728Y-143120949D01*
X186680277Y-143280277D01*
X186520949Y-143518728D01*
X186465000Y-143800000D01*
X186465000Y-144995553D01*
X186452116Y-145008437D01*
X185884999Y-145008437D01*
X185884999Y-142965539D01*
X186825269Y-142025269D01*
X186924985Y-141876035D01*
X186941787Y-141791563D01*
X187250000Y-141791563D01*
X187374144Y-141768204D01*
X187488162Y-141694835D01*
X187564653Y-141582887D01*
X187574350Y-141535000D01*
X191400000Y-141535000D01*
X191681272Y-141479051D01*
X191919723Y-141319723D01*
X194319724Y-138919723D01*
X194479051Y-138681272D01*
X194535000Y-138400000D01*
X194479051Y-138118727D01*
X194319724Y-137880276D01*
X194081273Y-137720949D01*
X193800000Y-137665000D01*
X193518728Y-137720949D01*
X193280277Y-137880276D01*
X191095554Y-140065000D01*
X187575569Y-140065000D01*
X187568204Y-140025856D01*
X187494835Y-139911838D01*
X187382887Y-139835347D01*
X187250000Y-139808437D01*
X185750000Y-139808437D01*
X185625856Y-139831796D01*
X185511838Y-139905165D01*
X185435347Y-140017113D01*
X185408437Y-140150000D01*
X185408437Y-141450000D01*
X185431796Y-141574144D01*
X185505165Y-141688162D01*
X185617113Y-141764653D01*
X185750000Y-141791563D01*
X185757899Y-141791563D01*
X185099730Y-142449732D01*
X185000014Y-142598966D01*
X185000014Y-142598967D01*
X184964999Y-142775001D01*
X184964999Y-146169465D01*
X184885000Y-146249464D01*
X184885000Y-146210750D01*
X184801250Y-146127000D01*
X183927000Y-146127000D01*
X183927000Y-146147000D01*
X183673000Y-146147000D01*
X183673000Y-146127000D01*
X182798750Y-146127000D01*
X182715000Y-146210750D01*
X182715000Y-146515001D01*
X176440528Y-146515001D01*
X175208892Y-145283365D01*
X182715000Y-145283365D01*
X182715000Y-145789250D01*
X182798750Y-145873000D01*
X183673000Y-145873000D01*
X183673000Y-145098750D01*
X183927000Y-145098750D01*
X183927000Y-145873000D01*
X184801250Y-145873000D01*
X184885000Y-145789250D01*
X184885000Y-145283365D01*
X184834000Y-145160238D01*
X184739763Y-145066001D01*
X184616636Y-145015000D01*
X184010750Y-145015000D01*
X183927000Y-145098750D01*
X183673000Y-145098750D01*
X183589250Y-145015000D01*
X182983364Y-145015000D01*
X182860237Y-145066001D01*
X182766000Y-145160238D01*
X182715000Y-145283365D01*
X175208892Y-145283365D01*
X171536277Y-141610750D01*
X178640000Y-141610750D01*
X178640000Y-142216636D01*
X178691001Y-142339763D01*
X178785238Y-142434000D01*
X178908365Y-142485000D01*
X179389250Y-142485000D01*
X179473000Y-142401250D01*
X179473000Y-141527000D01*
X179727000Y-141527000D01*
X179727000Y-142401250D01*
X179810750Y-142485000D01*
X180291635Y-142485000D01*
X180414762Y-142434000D01*
X180508999Y-142339763D01*
X180560000Y-142216636D01*
X180560000Y-141610750D01*
X180476250Y-141527000D01*
X179727000Y-141527000D01*
X179473000Y-141527000D01*
X178723750Y-141527000D01*
X178640000Y-141610750D01*
X171536277Y-141610750D01*
X170824244Y-140898717D01*
X170950878Y-140846392D01*
X171129663Y-140667920D01*
X171164773Y-140583364D01*
X178640000Y-140583364D01*
X178640000Y-141189250D01*
X178723750Y-141273000D01*
X179473000Y-141273000D01*
X179473000Y-140398750D01*
X179727000Y-140398750D01*
X179727000Y-141273000D01*
X180476250Y-141273000D01*
X180560000Y-141189250D01*
X180560000Y-141010750D01*
X182715000Y-141010750D01*
X182715000Y-141516635D01*
X182766000Y-141639762D01*
X182860237Y-141733999D01*
X182983364Y-141785000D01*
X183589250Y-141785000D01*
X183673000Y-141701250D01*
X183673000Y-140927000D01*
X183927000Y-140927000D01*
X183927000Y-141701250D01*
X184010750Y-141785000D01*
X184616636Y-141785000D01*
X184739763Y-141733999D01*
X184834000Y-141639762D01*
X184885000Y-141516635D01*
X184885000Y-141010750D01*
X184801250Y-140927000D01*
X183927000Y-140927000D01*
X183673000Y-140927000D01*
X182798750Y-140927000D01*
X182715000Y-141010750D01*
X180560000Y-141010750D01*
X180560000Y-140583364D01*
X180508999Y-140460237D01*
X180414762Y-140366000D01*
X180291635Y-140315000D01*
X179810750Y-140315000D01*
X179727000Y-140398750D01*
X179473000Y-140398750D01*
X179389250Y-140315000D01*
X178908365Y-140315000D01*
X178785238Y-140366000D01*
X178691001Y-140460237D01*
X178640000Y-140583364D01*
X171164773Y-140583364D01*
X171226539Y-140434615D01*
X171226760Y-140181997D01*
X171186006Y-140083365D01*
X182715000Y-140083365D01*
X182715000Y-140589250D01*
X182798750Y-140673000D01*
X183673000Y-140673000D01*
X183673000Y-139898750D01*
X183927000Y-139898750D01*
X183927000Y-140673000D01*
X184801250Y-140673000D01*
X184885000Y-140589250D01*
X184885000Y-140083365D01*
X184834000Y-139960238D01*
X184739763Y-139866001D01*
X184616636Y-139815000D01*
X184010750Y-139815000D01*
X183927000Y-139898750D01*
X183673000Y-139898750D01*
X183589250Y-139815000D01*
X182983364Y-139815000D01*
X182860237Y-139866001D01*
X182766000Y-139960238D01*
X182715000Y-140083365D01*
X171186006Y-140083365D01*
X171130290Y-139948524D01*
X171034990Y-139853057D01*
X171034990Y-134238044D01*
X171113003Y-134160168D01*
X171173334Y-134014873D01*
X178514812Y-134014873D01*
X178679646Y-134413800D01*
X178865000Y-134599478D01*
X178865000Y-137829135D01*
X178850856Y-137831796D01*
X178736838Y-137905165D01*
X178660347Y-138017113D01*
X178633437Y-138150000D01*
X178633437Y-139650000D01*
X178656796Y-139774144D01*
X178730165Y-139888162D01*
X178842113Y-139964653D01*
X178975000Y-139991563D01*
X180225000Y-139991563D01*
X180349144Y-139968204D01*
X180463162Y-139894835D01*
X180539653Y-139782887D01*
X180566563Y-139650000D01*
X180566563Y-138150000D01*
X180543204Y-138025856D01*
X180469835Y-137911838D01*
X180357887Y-137835347D01*
X180335000Y-137830712D01*
X180335000Y-136461632D01*
X185306277Y-136461632D01*
X185499601Y-136862820D01*
X185845644Y-137176854D01*
X186285521Y-137334559D01*
X186473000Y-137263832D01*
X186473000Y-136277000D01*
X186727000Y-136277000D01*
X186727000Y-137263832D01*
X186914479Y-137334559D01*
X187354356Y-137176854D01*
X187700399Y-136862820D01*
X187893723Y-136461632D01*
X187843982Y-136277000D01*
X186727000Y-136277000D01*
X186473000Y-136277000D01*
X185356018Y-136277000D01*
X185306277Y-136461632D01*
X180335000Y-136461632D01*
X180335000Y-135838368D01*
X185306277Y-135838368D01*
X185356018Y-136023000D01*
X186473000Y-136023000D01*
X186473000Y-135036168D01*
X186727000Y-135036168D01*
X186727000Y-136023000D01*
X187843982Y-136023000D01*
X187893723Y-135838368D01*
X187700399Y-135437180D01*
X187354356Y-135123146D01*
X186914479Y-134965441D01*
X186727000Y-135036168D01*
X186473000Y-135036168D01*
X186285521Y-134965441D01*
X185845644Y-135123146D01*
X185499601Y-135437180D01*
X185306277Y-135838368D01*
X180335000Y-135838368D01*
X180335000Y-134599365D01*
X180519282Y-134415405D01*
X180684811Y-134016767D01*
X180685166Y-133610000D01*
X185238846Y-133610000D01*
X185329962Y-134068072D01*
X185589439Y-134456407D01*
X185977774Y-134715884D01*
X186435846Y-134807000D01*
X186764154Y-134807000D01*
X187222226Y-134715884D01*
X187610561Y-134456407D01*
X187870038Y-134068072D01*
X187961154Y-133610000D01*
X187870038Y-133151928D01*
X187610561Y-132763593D01*
X187222226Y-132504116D01*
X186764154Y-132413000D01*
X186435846Y-132413000D01*
X185977774Y-132504116D01*
X185589439Y-132763593D01*
X185329962Y-133151928D01*
X185238846Y-133610000D01*
X180685166Y-133610000D01*
X180685188Y-133585127D01*
X180520354Y-133186200D01*
X180215405Y-132880718D01*
X179816767Y-132715189D01*
X179385127Y-132714812D01*
X178986200Y-132879646D01*
X178680718Y-133184595D01*
X178515189Y-133583233D01*
X178514812Y-134014873D01*
X171173334Y-134014873D01*
X171209879Y-133926863D01*
X171210100Y-133674245D01*
X171113630Y-133440772D01*
X170935158Y-133261987D01*
X170701853Y-133165111D01*
X170449235Y-133164890D01*
X170260000Y-133243081D01*
X170260000Y-131070000D01*
X185238846Y-131070000D01*
X185329962Y-131528072D01*
X185589439Y-131916407D01*
X185977774Y-132175884D01*
X186435846Y-132267000D01*
X186764154Y-132267000D01*
X187222226Y-132175884D01*
X187610561Y-131916407D01*
X187870038Y-131528072D01*
X187961154Y-131070000D01*
X187870038Y-130611928D01*
X187610561Y-130223593D01*
X187222226Y-129964116D01*
X186764154Y-129873000D01*
X186435846Y-129873000D01*
X185977774Y-129964116D01*
X185589439Y-130223593D01*
X185329962Y-130611928D01*
X185238846Y-131070000D01*
X170260000Y-131070000D01*
X170260000Y-129200000D01*
X170247046Y-129134873D01*
X178514812Y-129134873D01*
X178679646Y-129533800D01*
X178984595Y-129839282D01*
X179383233Y-130004811D01*
X179814873Y-130005188D01*
X180213800Y-129840354D01*
X180519282Y-129535405D01*
X180684811Y-129136767D01*
X180685188Y-128705127D01*
X180612827Y-128530000D01*
X185238846Y-128530000D01*
X185329962Y-128988072D01*
X185589439Y-129376407D01*
X185977774Y-129635884D01*
X186435846Y-129727000D01*
X186764154Y-129727000D01*
X187222226Y-129635884D01*
X187610561Y-129376407D01*
X187870038Y-128988072D01*
X187961154Y-128530000D01*
X187870038Y-128071928D01*
X187610561Y-127683593D01*
X187222226Y-127424116D01*
X186764154Y-127333000D01*
X186435846Y-127333000D01*
X185977774Y-127424116D01*
X185589439Y-127683593D01*
X185329962Y-128071928D01*
X185238846Y-128530000D01*
X180612827Y-128530000D01*
X180520354Y-128306200D01*
X180335000Y-128120522D01*
X180335000Y-125990000D01*
X185238846Y-125990000D01*
X185329962Y-126448072D01*
X185589439Y-126836407D01*
X185977774Y-127095884D01*
X186435846Y-127187000D01*
X186764154Y-127187000D01*
X187222226Y-127095884D01*
X187610561Y-126836407D01*
X187870038Y-126448072D01*
X187961154Y-125990000D01*
X187870038Y-125531928D01*
X187610561Y-125143593D01*
X187222226Y-124884116D01*
X186764154Y-124793000D01*
X186435846Y-124793000D01*
X185977774Y-124884116D01*
X185589439Y-125143593D01*
X185329962Y-125531928D01*
X185238846Y-125990000D01*
X180335000Y-125990000D01*
X180335000Y-124570865D01*
X180349144Y-124568204D01*
X180463162Y-124494835D01*
X180539653Y-124382887D01*
X180566563Y-124250000D01*
X180566563Y-123450000D01*
X185238846Y-123450000D01*
X185329962Y-123908072D01*
X185589439Y-124296407D01*
X185977774Y-124555884D01*
X186435846Y-124647000D01*
X186764154Y-124647000D01*
X187222226Y-124555884D01*
X187610561Y-124296407D01*
X187870038Y-123908072D01*
X187961154Y-123450000D01*
X187870038Y-122991928D01*
X187610561Y-122603593D01*
X187222226Y-122344116D01*
X186764154Y-122253000D01*
X186435846Y-122253000D01*
X185977774Y-122344116D01*
X185589439Y-122603593D01*
X185329962Y-122991928D01*
X185238846Y-123450000D01*
X180566563Y-123450000D01*
X180566563Y-122750000D01*
X180543204Y-122625856D01*
X180469835Y-122511838D01*
X180357887Y-122435347D01*
X180225000Y-122408437D01*
X178975000Y-122408437D01*
X178850856Y-122431796D01*
X178736838Y-122505165D01*
X178660347Y-122617113D01*
X178633437Y-122750000D01*
X178633437Y-124250000D01*
X178656796Y-124374144D01*
X178730165Y-124488162D01*
X178842113Y-124564653D01*
X178865000Y-124569288D01*
X178865000Y-128120635D01*
X178680718Y-128304595D01*
X178515189Y-128703233D01*
X178514812Y-129134873D01*
X170247046Y-129134873D01*
X170224985Y-129023966D01*
X170224985Y-129023965D01*
X170125269Y-128874731D01*
X169435014Y-128184476D01*
X169435110Y-128074245D01*
X169338640Y-127840772D01*
X169160168Y-127661987D01*
X168926863Y-127565111D01*
X168674245Y-127564890D01*
X168440772Y-127661360D01*
X168261987Y-127839832D01*
X168165111Y-128073137D01*
X168164890Y-128325755D01*
X168261360Y-128559228D01*
X168439832Y-128738013D01*
X168673137Y-128834889D01*
X168784448Y-128834986D01*
X169340000Y-129390538D01*
X169340000Y-136665198D01*
X167749533Y-135074731D01*
X167600299Y-134975015D01*
X167424264Y-134940000D01*
X152600000Y-134940000D01*
X152423966Y-134975015D01*
X152274731Y-135074731D01*
X149984476Y-137364986D01*
X149874245Y-137364890D01*
X149640772Y-137461360D01*
X149461987Y-137639832D01*
X149365111Y-137873137D01*
X149364890Y-138125755D01*
X136360000Y-138125755D01*
X136360000Y-136200000D01*
X136791784Y-136200000D01*
X136881987Y-136653480D01*
X137138862Y-137037922D01*
X137523304Y-137294797D01*
X137976784Y-137385000D01*
X138023216Y-137385000D01*
X138476696Y-137294797D01*
X138861138Y-137037922D01*
X139118013Y-136653480D01*
X139208216Y-136200000D01*
X140991784Y-136200000D01*
X141081987Y-136653480D01*
X141338862Y-137037922D01*
X141723304Y-137294797D01*
X142176784Y-137385000D01*
X142223216Y-137385000D01*
X142676696Y-137294797D01*
X143061138Y-137037922D01*
X143318013Y-136653480D01*
X143408216Y-136200000D01*
X143318013Y-135746520D01*
X143061138Y-135362078D01*
X142676696Y-135105203D01*
X142223216Y-135015000D01*
X142176784Y-135015000D01*
X141723304Y-135105203D01*
X141338862Y-135362078D01*
X141081987Y-135746520D01*
X140991784Y-136200000D01*
X139208216Y-136200000D01*
X139118013Y-135746520D01*
X138861138Y-135362078D01*
X138476696Y-135105203D01*
X138023216Y-135015000D01*
X137976784Y-135015000D01*
X137523304Y-135105203D01*
X137138862Y-135362078D01*
X136881987Y-135746520D01*
X136791784Y-136200000D01*
X136360000Y-136200000D01*
X136360000Y-133660000D01*
X136791784Y-133660000D01*
X136881987Y-134113480D01*
X137138862Y-134497922D01*
X137523304Y-134754797D01*
X137976784Y-134845000D01*
X138023216Y-134845000D01*
X138476696Y-134754797D01*
X138861138Y-134497922D01*
X139118013Y-134113480D01*
X139208216Y-133660000D01*
X140991784Y-133660000D01*
X141081987Y-134113480D01*
X141338862Y-134497922D01*
X141723304Y-134754797D01*
X142176784Y-134845000D01*
X142223216Y-134845000D01*
X142676696Y-134754797D01*
X143061138Y-134497922D01*
X143318013Y-134113480D01*
X143408216Y-133660000D01*
X143318013Y-133206520D01*
X143061138Y-132822078D01*
X142676696Y-132565203D01*
X142223216Y-132475000D01*
X142176784Y-132475000D01*
X141723304Y-132565203D01*
X141338862Y-132822078D01*
X141081987Y-133206520D01*
X140991784Y-133660000D01*
X139208216Y-133660000D01*
X139118013Y-133206520D01*
X138861138Y-132822078D01*
X138476696Y-132565203D01*
X138023216Y-132475000D01*
X137976784Y-132475000D01*
X137523304Y-132565203D01*
X137138862Y-132822078D01*
X136881987Y-133206520D01*
X136791784Y-133660000D01*
X136360000Y-133660000D01*
X136360000Y-131120000D01*
X136791784Y-131120000D01*
X136881987Y-131573480D01*
X137138862Y-131957922D01*
X137523304Y-132214797D01*
X137976784Y-132305000D01*
X138023216Y-132305000D01*
X138476696Y-132214797D01*
X138861138Y-131957922D01*
X139118013Y-131573480D01*
X139208216Y-131120000D01*
X140991784Y-131120000D01*
X141081987Y-131573480D01*
X141338862Y-131957922D01*
X141723304Y-132214797D01*
X142176784Y-132305000D01*
X142223216Y-132305000D01*
X142676696Y-132214797D01*
X143061138Y-131957922D01*
X143318013Y-131573480D01*
X143408216Y-131120000D01*
X143318013Y-130666520D01*
X143061138Y-130282078D01*
X142676696Y-130025203D01*
X142223216Y-129935000D01*
X142176784Y-129935000D01*
X141723304Y-130025203D01*
X141338862Y-130282078D01*
X141081987Y-130666520D01*
X140991784Y-131120000D01*
X139208216Y-131120000D01*
X139118013Y-130666520D01*
X138861138Y-130282078D01*
X138476696Y-130025203D01*
X138023216Y-129935000D01*
X137976784Y-129935000D01*
X137523304Y-130025203D01*
X137138862Y-130282078D01*
X136881987Y-130666520D01*
X136791784Y-131120000D01*
X136360000Y-131120000D01*
X136360000Y-127730000D01*
X136808437Y-127730000D01*
X136808437Y-129430000D01*
X136831796Y-129554144D01*
X136905165Y-129668162D01*
X137017113Y-129744653D01*
X137150000Y-129771563D01*
X138850000Y-129771563D01*
X138974144Y-129748204D01*
X139088162Y-129674835D01*
X139164653Y-129562887D01*
X139191563Y-129430000D01*
X139191563Y-127730000D01*
X141008437Y-127730000D01*
X141008437Y-129430000D01*
X141031796Y-129554144D01*
X141105165Y-129668162D01*
X141217113Y-129744653D01*
X141350000Y-129771563D01*
X143050000Y-129771563D01*
X143174144Y-129748204D01*
X143288162Y-129674835D01*
X143364653Y-129562887D01*
X143391563Y-129430000D01*
X143391563Y-127730000D01*
X143368204Y-127605856D01*
X143294835Y-127491838D01*
X143182887Y-127415347D01*
X143050000Y-127388437D01*
X141350000Y-127388437D01*
X141225856Y-127411796D01*
X141111838Y-127485165D01*
X141035347Y-127597113D01*
X141008437Y-127730000D01*
X139191563Y-127730000D01*
X139168204Y-127605856D01*
X139094835Y-127491838D01*
X138982887Y-127415347D01*
X138850000Y-127388437D01*
X137150000Y-127388437D01*
X137025856Y-127411796D01*
X136911838Y-127485165D01*
X136835347Y-127597113D01*
X136808437Y-127730000D01*
X136360000Y-127730000D01*
X136360000Y-121109745D01*
X136856186Y-121109745D01*
X137061788Y-121523886D01*
X137410224Y-121827822D01*
X137690256Y-121943803D01*
X137873000Y-121893902D01*
X137873000Y-120927000D01*
X138127000Y-120927000D01*
X138127000Y-121893902D01*
X138309744Y-121943803D01*
X138589776Y-121827822D01*
X138938212Y-121523886D01*
X139143814Y-121109745D01*
X139094437Y-120927000D01*
X138127000Y-120927000D01*
X137873000Y-120927000D01*
X136905563Y-120927000D01*
X136856186Y-121109745D01*
X136360000Y-121109745D01*
X136360000Y-120490255D01*
X136856186Y-120490255D01*
X136905563Y-120673000D01*
X137873000Y-120673000D01*
X137873000Y-119706098D01*
X138127000Y-119706098D01*
X138127000Y-120673000D01*
X139094437Y-120673000D01*
X139143814Y-120490255D01*
X138938212Y-120076114D01*
X138793634Y-119950000D01*
X139348437Y-119950000D01*
X139348437Y-121650000D01*
X139371796Y-121774144D01*
X139445165Y-121888162D01*
X139557113Y-121964653D01*
X139690000Y-121991563D01*
X141390000Y-121991563D01*
X141514144Y-121968204D01*
X141628162Y-121894835D01*
X141704653Y-121782887D01*
X141731563Y-121650000D01*
X141731563Y-121260000D01*
X166809459Y-121260000D01*
X168511672Y-122962213D01*
X168399999Y-122940000D01*
X165238044Y-122940000D01*
X165160168Y-122861987D01*
X164926863Y-122765111D01*
X164674245Y-122764890D01*
X164440772Y-122861360D01*
X164261987Y-123039832D01*
X164165111Y-123273137D01*
X164164890Y-123525755D01*
X164261360Y-123759228D01*
X164439832Y-123938013D01*
X164673137Y-124034889D01*
X164925755Y-124035110D01*
X165159228Y-123938640D01*
X165238006Y-123860000D01*
X168104740Y-123860000D01*
X168104735Y-123865601D01*
X168201205Y-124099074D01*
X168379677Y-124277859D01*
X168418904Y-124294148D01*
X162174732Y-130538320D01*
X162075016Y-130687554D01*
X162040001Y-130863589D01*
X162040001Y-132100001D01*
X162075016Y-132276036D01*
X162164991Y-132410691D01*
X162164890Y-132525755D01*
X162261360Y-132759228D01*
X162439832Y-132938013D01*
X162673137Y-133034889D01*
X162925755Y-133035110D01*
X163159228Y-132938640D01*
X163338013Y-132760168D01*
X163434889Y-132526863D01*
X163435110Y-132274245D01*
X163405350Y-132202222D01*
X163559228Y-132138640D01*
X163738013Y-131960168D01*
X163834889Y-131726863D01*
X163835110Y-131474245D01*
X163738640Y-131240772D01*
X163660000Y-131161994D01*
X163660000Y-130990538D01*
X172815524Y-121835014D01*
X172925755Y-121835110D01*
X173159228Y-121738640D01*
X173338013Y-121560168D01*
X173434889Y-121326863D01*
X173434990Y-121210750D01*
X178640000Y-121210750D01*
X178640000Y-121816636D01*
X178691001Y-121939763D01*
X178785238Y-122034000D01*
X178908365Y-122085000D01*
X179389250Y-122085000D01*
X179473000Y-122001250D01*
X179473000Y-121127000D01*
X179727000Y-121127000D01*
X179727000Y-122001250D01*
X179810750Y-122085000D01*
X180291635Y-122085000D01*
X180414762Y-122034000D01*
X180508999Y-121939763D01*
X180560000Y-121816636D01*
X180560000Y-121210750D01*
X180476250Y-121127000D01*
X179727000Y-121127000D01*
X179473000Y-121127000D01*
X178723750Y-121127000D01*
X178640000Y-121210750D01*
X173434990Y-121210750D01*
X173435110Y-121074245D01*
X173367245Y-120910000D01*
X185238846Y-120910000D01*
X185329962Y-121368072D01*
X185589439Y-121756407D01*
X185977774Y-122015884D01*
X186435846Y-122107000D01*
X186764154Y-122107000D01*
X187222226Y-122015884D01*
X187610561Y-121756407D01*
X187870038Y-121368072D01*
X187961154Y-120910000D01*
X187870038Y-120451928D01*
X187610561Y-120063593D01*
X187222226Y-119804116D01*
X186764154Y-119713000D01*
X186435846Y-119713000D01*
X185977774Y-119804116D01*
X185589439Y-120063593D01*
X185329962Y-120451928D01*
X185238846Y-120910000D01*
X173367245Y-120910000D01*
X173338640Y-120840772D01*
X173160168Y-120661987D01*
X172926863Y-120565111D01*
X172674245Y-120564890D01*
X172440772Y-120661360D01*
X172261987Y-120839832D01*
X172165111Y-121073137D01*
X172165014Y-121184448D01*
X171860000Y-121489462D01*
X171860000Y-120183364D01*
X178640000Y-120183364D01*
X178640000Y-120789250D01*
X178723750Y-120873000D01*
X179473000Y-120873000D01*
X179473000Y-119998750D01*
X179727000Y-119998750D01*
X179727000Y-120873000D01*
X180476250Y-120873000D01*
X180560000Y-120789250D01*
X180560000Y-120183364D01*
X180508999Y-120060237D01*
X180414762Y-119966000D01*
X180291635Y-119915000D01*
X179810750Y-119915000D01*
X179727000Y-119998750D01*
X179473000Y-119998750D01*
X179389250Y-119915000D01*
X178908365Y-119915000D01*
X178785238Y-119966000D01*
X178691001Y-120060237D01*
X178640000Y-120183364D01*
X171860000Y-120183364D01*
X171860000Y-118370000D01*
X185238846Y-118370000D01*
X185329962Y-118828072D01*
X185589439Y-119216407D01*
X185977774Y-119475884D01*
X186435846Y-119567000D01*
X186764154Y-119567000D01*
X187222226Y-119475884D01*
X187610561Y-119216407D01*
X187870038Y-118828072D01*
X187961154Y-118370000D01*
X187870038Y-117911928D01*
X187610561Y-117523593D01*
X187222226Y-117264116D01*
X186764154Y-117173000D01*
X186435846Y-117173000D01*
X185977774Y-117264116D01*
X185589439Y-117523593D01*
X185329962Y-117911928D01*
X185238846Y-118370000D01*
X171860000Y-118370000D01*
X171860000Y-115255536D01*
X173104786Y-114010750D01*
X183415000Y-114010750D01*
X183415000Y-114516635D01*
X183466000Y-114639762D01*
X183560237Y-114733999D01*
X183683364Y-114785000D01*
X184289250Y-114785000D01*
X184373000Y-114701250D01*
X184373000Y-113927000D01*
X184627000Y-113927000D01*
X184627000Y-114701250D01*
X184710750Y-114785000D01*
X185316636Y-114785000D01*
X185439763Y-114733999D01*
X185534000Y-114639762D01*
X185585000Y-114516635D01*
X185585000Y-114010750D01*
X185501250Y-113927000D01*
X184627000Y-113927000D01*
X184373000Y-113927000D01*
X183498750Y-113927000D01*
X183415000Y-114010750D01*
X173104786Y-114010750D01*
X174032171Y-113083365D01*
X183415000Y-113083365D01*
X183415000Y-113589250D01*
X183498750Y-113673000D01*
X184373000Y-113673000D01*
X184373000Y-112898750D01*
X184627000Y-112898750D01*
X184627000Y-113673000D01*
X185501250Y-113673000D01*
X185585000Y-113589250D01*
X185585000Y-113083365D01*
X185534000Y-112960238D01*
X185439763Y-112866001D01*
X185316636Y-112815000D01*
X184710750Y-112815000D01*
X184627000Y-112898750D01*
X184373000Y-112898750D01*
X184289250Y-112815000D01*
X183683364Y-112815000D01*
X183560237Y-112866001D01*
X183466000Y-112960238D01*
X183415000Y-113083365D01*
X174032171Y-113083365D01*
X176704786Y-110410750D01*
X177165000Y-110410750D01*
X177165000Y-110916635D01*
X177216000Y-111039762D01*
X177310237Y-111133999D01*
X177433364Y-111185000D01*
X178039250Y-111185000D01*
X178123000Y-111101250D01*
X178123000Y-110327000D01*
X178377000Y-110327000D01*
X178377000Y-111101250D01*
X178460750Y-111185000D01*
X179066636Y-111185000D01*
X179189763Y-111133999D01*
X179284000Y-111039762D01*
X179335000Y-110916635D01*
X179335000Y-110410750D01*
X179251250Y-110327000D01*
X178377000Y-110327000D01*
X178123000Y-110327000D01*
X177248750Y-110327000D01*
X177165000Y-110410750D01*
X176704786Y-110410750D01*
X177165000Y-109950536D01*
X177165000Y-109989250D01*
X177248750Y-110073000D01*
X178123000Y-110073000D01*
X178123000Y-110053000D01*
X178377000Y-110053000D01*
X178377000Y-110073000D01*
X179251250Y-110073000D01*
X179335000Y-109989250D01*
X179335000Y-109684999D01*
X179858437Y-109684999D01*
X179858437Y-110850000D01*
X179881796Y-110974144D01*
X179955165Y-111088162D01*
X180067113Y-111164653D01*
X180200000Y-111191563D01*
X180902116Y-111191563D01*
X181030276Y-111319723D01*
X181265203Y-111476696D01*
X181268728Y-111479051D01*
X181550000Y-111535000D01*
X186000000Y-111535000D01*
X186281272Y-111479051D01*
X186519723Y-111319723D01*
X186669839Y-111095059D01*
X186740000Y-111165220D01*
X186740000Y-112808437D01*
X186450000Y-112808437D01*
X186325856Y-112831796D01*
X186211838Y-112905165D01*
X186135347Y-113017113D01*
X186108437Y-113150000D01*
X186108437Y-114450000D01*
X186131796Y-114574144D01*
X186205165Y-114688162D01*
X186317113Y-114764653D01*
X186450000Y-114791563D01*
X187152117Y-114791563D01*
X187665000Y-115304447D01*
X187665000Y-115800000D01*
X187720949Y-116081272D01*
X187880277Y-116319723D01*
X188118728Y-116479051D01*
X188400000Y-116535000D01*
X188681272Y-116479051D01*
X188919723Y-116319723D01*
X189079051Y-116081272D01*
X189135000Y-115800000D01*
X189135000Y-115000000D01*
X189079051Y-114718728D01*
X189063086Y-114694835D01*
X188919723Y-114480276D01*
X188291563Y-113852117D01*
X188291563Y-113150000D01*
X188268204Y-113025856D01*
X188194835Y-112911838D01*
X188082887Y-112835347D01*
X187950000Y-112808437D01*
X187660000Y-112808437D01*
X187660000Y-110974682D01*
X187624985Y-110798648D01*
X187525269Y-110649413D01*
X185775586Y-108899730D01*
X185626352Y-108800014D01*
X185450317Y-108764999D01*
X177239999Y-108764999D01*
X177063964Y-108800014D01*
X176914730Y-108899730D01*
X171074731Y-114739729D01*
X170975015Y-114888963D01*
X170975015Y-114888964D01*
X170940000Y-115064998D01*
X170940000Y-121773052D01*
X169894258Y-122818794D01*
X169878484Y-122780619D01*
X169700012Y-122601834D01*
X169466707Y-122504958D01*
X169355396Y-122504861D01*
X167325266Y-120474731D01*
X167176032Y-120375015D01*
X166999997Y-120340000D01*
X141731563Y-120340000D01*
X141731563Y-119950000D01*
X141708204Y-119825856D01*
X141634835Y-119711838D01*
X141522887Y-119635347D01*
X141390000Y-119608437D01*
X139690000Y-119608437D01*
X139565856Y-119631796D01*
X139451838Y-119705165D01*
X139375347Y-119817113D01*
X139348437Y-119950000D01*
X138793634Y-119950000D01*
X138589776Y-119772178D01*
X138309744Y-119656197D01*
X138127000Y-119706098D01*
X137873000Y-119706098D01*
X137690256Y-119656197D01*
X137410224Y-119772178D01*
X137061788Y-120076114D01*
X136856186Y-120490255D01*
X136360000Y-120490255D01*
X136360000Y-117309745D01*
X136856186Y-117309745D01*
X137061788Y-117723886D01*
X137410224Y-118027822D01*
X137690256Y-118143803D01*
X137873000Y-118093902D01*
X137873000Y-117127000D01*
X138127000Y-117127000D01*
X138127000Y-118093902D01*
X138309744Y-118143803D01*
X138589776Y-118027822D01*
X138938212Y-117723886D01*
X139143814Y-117309745D01*
X139094437Y-117127000D01*
X138127000Y-117127000D01*
X137873000Y-117127000D01*
X136905563Y-117127000D01*
X136856186Y-117309745D01*
X136360000Y-117309745D01*
X136360000Y-116690255D01*
X136856186Y-116690255D01*
X136905563Y-116873000D01*
X137873000Y-116873000D01*
X137873000Y-115906098D01*
X138127000Y-115906098D01*
X138127000Y-116873000D01*
X139094437Y-116873000D01*
X139143814Y-116690255D01*
X138938212Y-116276114D01*
X138793634Y-116150000D01*
X139348437Y-116150000D01*
X139348437Y-117850000D01*
X139371796Y-117974144D01*
X139445165Y-118088162D01*
X139557113Y-118164653D01*
X139690000Y-118191563D01*
X141390000Y-118191563D01*
X141514144Y-118168204D01*
X141628162Y-118094835D01*
X141704653Y-117982887D01*
X141731563Y-117850000D01*
X141731563Y-116150000D01*
X141708204Y-116025856D01*
X141634835Y-115911838D01*
X141522887Y-115835347D01*
X141390000Y-115808437D01*
X139690000Y-115808437D01*
X139565856Y-115831796D01*
X139451838Y-115905165D01*
X139375347Y-116017113D01*
X139348437Y-116150000D01*
X138793634Y-116150000D01*
X138589776Y-115972178D01*
X138309744Y-115856197D01*
X138127000Y-115906098D01*
X137873000Y-115906098D01*
X137690256Y-115856197D01*
X137410224Y-115972178D01*
X137061788Y-116276114D01*
X136856186Y-116690255D01*
X136360000Y-116690255D01*
X136360000Y-110150000D01*
X136608437Y-110150000D01*
X136608437Y-111850000D01*
X136631796Y-111974144D01*
X136705165Y-112088162D01*
X136817113Y-112164653D01*
X136950000Y-112191563D01*
X138650000Y-112191563D01*
X138774144Y-112168204D01*
X138888162Y-112094835D01*
X138964653Y-111982887D01*
X138991563Y-111850000D01*
X138991563Y-110976784D01*
X139155000Y-110976784D01*
X139155000Y-111023216D01*
X139245203Y-111476696D01*
X139502078Y-111861138D01*
X139886520Y-112118013D01*
X140340000Y-112208216D01*
X140793480Y-112118013D01*
X141177922Y-111861138D01*
X141434797Y-111476696D01*
X141525000Y-111023216D01*
X141525000Y-110976784D01*
X141434797Y-110523304D01*
X141177922Y-110138862D01*
X140793480Y-109881987D01*
X140340000Y-109791784D01*
X139886520Y-109881987D01*
X139502078Y-110138862D01*
X139245203Y-110523304D01*
X139155000Y-110976784D01*
X138991563Y-110976784D01*
X138991563Y-110150000D01*
X138968204Y-110025856D01*
X138894835Y-109911838D01*
X138782887Y-109835347D01*
X138650000Y-109808437D01*
X136950000Y-109808437D01*
X136825856Y-109831796D01*
X136711838Y-109905165D01*
X136635347Y-110017113D01*
X136608437Y-110150000D01*
X136360000Y-110150000D01*
X136360000Y-107976285D01*
X145590760Y-107976285D01*
X145801169Y-108485515D01*
X146190436Y-108875461D01*
X146699298Y-109086759D01*
X147250285Y-109087240D01*
X147759515Y-108876831D01*
X148149461Y-108487564D01*
X148360759Y-107978702D01*
X148360761Y-107976285D01*
X185214760Y-107976285D01*
X185425169Y-108485515D01*
X185814436Y-108875461D01*
X186323298Y-109086759D01*
X186874285Y-109087240D01*
X187383515Y-108876831D01*
X187773461Y-108487564D01*
X187984759Y-107978702D01*
X187985240Y-107427715D01*
X187774831Y-106918485D01*
X187385564Y-106528539D01*
X186876702Y-106317241D01*
X186325715Y-106316760D01*
X185816485Y-106527169D01*
X185426539Y-106916436D01*
X185215241Y-107425298D01*
X185214760Y-107976285D01*
X148360761Y-107976285D01*
X148361240Y-107427715D01*
X148150831Y-106918485D01*
X147761564Y-106528539D01*
X147252702Y-106317241D01*
X146701715Y-106316760D01*
X146192485Y-106527169D01*
X145802539Y-106916436D01*
X145591241Y-107425298D01*
X145590760Y-107976285D01*
X136360000Y-107976285D01*
X136360000Y-96700000D01*
X137358437Y-96700000D01*
X137358437Y-99700000D01*
X137381796Y-99824144D01*
X137455165Y-99938162D01*
X137567113Y-100014653D01*
X137700000Y-100041563D01*
X140700000Y-100041563D01*
X140824144Y-100018204D01*
X140938162Y-99944835D01*
X141014653Y-99832887D01*
X141041563Y-99700000D01*
X141041563Y-99550349D01*
X182729256Y-99550349D01*
X182905565Y-99784788D01*
X183587734Y-100044707D01*
X184317443Y-100023786D01*
X184894435Y-99784788D01*
X185070744Y-99550349D01*
X183900000Y-98379605D01*
X182729256Y-99550349D01*
X141041563Y-99550349D01*
X141041563Y-97887734D01*
X182055293Y-97887734D01*
X182076214Y-98617443D01*
X182315212Y-99194435D01*
X182549651Y-99370744D01*
X183720395Y-98200000D01*
X184079605Y-98200000D01*
X185250349Y-99370744D01*
X185484788Y-99194435D01*
X185744707Y-98512266D01*
X185723786Y-97782557D01*
X185484788Y-97205565D01*
X185250349Y-97029256D01*
X184079605Y-98200000D01*
X183720395Y-98200000D01*
X182549651Y-97029256D01*
X182315212Y-97205565D01*
X182055293Y-97887734D01*
X141041563Y-97887734D01*
X141041563Y-96849651D01*
X182729256Y-96849651D01*
X183900000Y-98020395D01*
X185070744Y-96849651D01*
X184894435Y-96615212D01*
X184212266Y-96355293D01*
X183482557Y-96376214D01*
X182905565Y-96615212D01*
X182729256Y-96849651D01*
X141041563Y-96849651D01*
X141041563Y-96700000D01*
X141018204Y-96575856D01*
X140944835Y-96461838D01*
X140832887Y-96385347D01*
X140700000Y-96358437D01*
X137700000Y-96358437D01*
X137575856Y-96381796D01*
X137461838Y-96455165D01*
X137385347Y-96567113D01*
X137358437Y-96700000D01*
X136360000Y-96700000D01*
X136360000Y-91260000D01*
X198890000Y-91260000D01*
X198890000Y-165940000D01*
X198890000Y-165940000D01*
G37*
X198890000Y-165940000D02*
X136360000Y-165940000D01*
X136360000Y-159363403D01*
X137364682Y-159363403D01*
X137643455Y-160038086D01*
X138159199Y-160554730D01*
X138833395Y-160834681D01*
X139563403Y-160835318D01*
X140238086Y-160556545D01*
X140754730Y-160040801D01*
X141034681Y-159366605D01*
X141035318Y-158636597D01*
X140756545Y-157961914D01*
X140295436Y-157500000D01*
X182058437Y-157500000D01*
X182058437Y-160500000D01*
X182081796Y-160624144D01*
X182155165Y-160738162D01*
X182267113Y-160814653D01*
X182400000Y-160841563D01*
X185400000Y-160841563D01*
X185524144Y-160818204D01*
X185638162Y-160744835D01*
X185714653Y-160632887D01*
X185733462Y-160540000D01*
X190191784Y-160540000D01*
X190281987Y-160993480D01*
X190538862Y-161377922D01*
X190923304Y-161634797D01*
X191376784Y-161725000D01*
X191423216Y-161725000D01*
X191876696Y-161634797D01*
X192261138Y-161377922D01*
X192518013Y-160993480D01*
X192608216Y-160540000D01*
X192518013Y-160086520D01*
X192261138Y-159702078D01*
X191876696Y-159445203D01*
X191423216Y-159355000D01*
X191376784Y-159355000D01*
X190923304Y-159445203D01*
X190538862Y-159702078D01*
X190281987Y-160086520D01*
X190191784Y-160540000D01*
X185733462Y-160540000D01*
X185741563Y-160500000D01*
X185741563Y-158000000D01*
X190191784Y-158000000D01*
X190281987Y-158453480D01*
X190538862Y-158837922D01*
X190923304Y-159094797D01*
X191376784Y-159185000D01*
X191423216Y-159185000D01*
X191876696Y-159094797D01*
X192261138Y-158837922D01*
X192518013Y-158453480D01*
X192608216Y-158000000D01*
X192518013Y-157546520D01*
X192261138Y-157162078D01*
X191876696Y-156905203D01*
X191423216Y-156815000D01*
X191376784Y-156815000D01*
X190923304Y-156905203D01*
X190538862Y-157162078D01*
X190281987Y-157546520D01*
X190191784Y-158000000D01*
X185741563Y-158000000D01*
X185741563Y-157500000D01*
X185718204Y-157375856D01*
X185644835Y-157261838D01*
X185532887Y-157185347D01*
X185400000Y-157158437D01*
X182400000Y-157158437D01*
X182275856Y-157181796D01*
X182161838Y-157255165D01*
X182085347Y-157367113D01*
X182058437Y-157500000D01*
X140295436Y-157500000D01*
X140240801Y-157445270D01*
X139566605Y-157165319D01*
X138836597Y-157164682D01*
X138161914Y-157443455D01*
X137645270Y-157959199D01*
X137365319Y-158633395D01*
X137364682Y-159363403D01*
X136360000Y-159363403D01*
X136360000Y-154610000D01*
X190208437Y-154610000D01*
X190208437Y-156310000D01*
X190231796Y-156434144D01*
X190305165Y-156548162D01*
X190417113Y-156624653D01*
X190550000Y-156651563D01*
X192250000Y-156651563D01*
X192374144Y-156628204D01*
X192488162Y-156554835D01*
X192564653Y-156442887D01*
X192591563Y-156310000D01*
X192591563Y-154610000D01*
X192568204Y-154485856D01*
X192494835Y-154371838D01*
X192382887Y-154295347D01*
X192250000Y-154268437D01*
X190550000Y-154268437D01*
X190425856Y-154291796D01*
X190311838Y-154365165D01*
X190235347Y-154477113D01*
X190208437Y-154610000D01*
X136360000Y-154610000D01*
X136360000Y-147950000D01*
X136468437Y-147950000D01*
X136468437Y-149650000D01*
X136491796Y-149774144D01*
X136565165Y-149888162D01*
X136677113Y-149964653D01*
X136810000Y-149991563D01*
X138510000Y-149991563D01*
X138634144Y-149968204D01*
X138748162Y-149894835D01*
X138824653Y-149782887D01*
X138851563Y-149650000D01*
X138851563Y-149109745D01*
X139056186Y-149109745D01*
X139261788Y-149523886D01*
X139610224Y-149827822D01*
X139890256Y-149943803D01*
X140073000Y-149893902D01*
X140073000Y-148927000D01*
X140327000Y-148927000D01*
X140327000Y-149893902D01*
X140509744Y-149943803D01*
X140789776Y-149827822D01*
X141013942Y-149632285D01*
X145590760Y-149632285D01*
X145801169Y-150141515D01*
X146190436Y-150531461D01*
X146699298Y-150742759D01*
X147250285Y-150743240D01*
X147759515Y-150532831D01*
X148149461Y-150143564D01*
X148360759Y-149634702D01*
X148360761Y-149632285D01*
X185214760Y-149632285D01*
X185425169Y-150141515D01*
X185814436Y-150531461D01*
X186323298Y-150742759D01*
X186874285Y-150743240D01*
X187383515Y-150532831D01*
X187773461Y-150143564D01*
X187984759Y-149634702D01*
X187985240Y-149083715D01*
X187774831Y-148574485D01*
X187385564Y-148184539D01*
X186876702Y-147973241D01*
X186325715Y-147972760D01*
X185816485Y-148183169D01*
X185426539Y-148572436D01*
X185215241Y-149081298D01*
X185214760Y-149632285D01*
X148360761Y-149632285D01*
X148361240Y-149083715D01*
X148150831Y-148574485D01*
X147761564Y-148184539D01*
X147252702Y-147973241D01*
X146701715Y-147972760D01*
X146192485Y-148183169D01*
X145802539Y-148572436D01*
X145591241Y-149081298D01*
X145590760Y-149632285D01*
X141013942Y-149632285D01*
X141138212Y-149523886D01*
X141343814Y-149109745D01*
X141294437Y-148927000D01*
X140327000Y-148927000D01*
X140073000Y-148927000D01*
X139105563Y-148927000D01*
X139056186Y-149109745D01*
X138851563Y-149109745D01*
X138851563Y-148490255D01*
X139056186Y-148490255D01*
X139105563Y-148673000D01*
X140073000Y-148673000D01*
X140073000Y-147706098D01*
X140327000Y-147706098D01*
X140327000Y-148673000D01*
X141294437Y-148673000D01*
X141343814Y-148490255D01*
X141138212Y-148076114D01*
X140789776Y-147772178D01*
X140509744Y-147656197D01*
X140327000Y-147706098D01*
X140073000Y-147706098D01*
X139890256Y-147656197D01*
X139610224Y-147772178D01*
X139261788Y-148076114D01*
X139056186Y-148490255D01*
X138851563Y-148490255D01*
X138851563Y-147950000D01*
X138828204Y-147825856D01*
X138754835Y-147711838D01*
X138642887Y-147635347D01*
X138510000Y-147608437D01*
X136810000Y-147608437D01*
X136685856Y-147631796D01*
X136571838Y-147705165D01*
X136495347Y-147817113D01*
X136468437Y-147950000D01*
X136360000Y-147950000D01*
X136360000Y-144976784D01*
X136475000Y-144976784D01*
X136475000Y-145023216D01*
X136565203Y-145476696D01*
X136822078Y-145861138D01*
X137206520Y-146118013D01*
X137660000Y-146208216D01*
X138113480Y-146118013D01*
X138497922Y-145861138D01*
X138754797Y-145476696D01*
X138807697Y-145210750D01*
X139015000Y-145210750D01*
X139015000Y-145916636D01*
X139066001Y-146039763D01*
X139160238Y-146134000D01*
X139283365Y-146185000D01*
X139989250Y-146185000D01*
X140073000Y-146101250D01*
X140073000Y-145127000D01*
X140327000Y-145127000D01*
X140327000Y-146101250D01*
X140410750Y-146185000D01*
X141116635Y-146185000D01*
X141239762Y-146134000D01*
X141333999Y-146039763D01*
X141385000Y-145916636D01*
X141385000Y-145210750D01*
X141301250Y-145127000D01*
X140327000Y-145127000D01*
X140073000Y-145127000D01*
X139098750Y-145127000D01*
X139015000Y-145210750D01*
X138807697Y-145210750D01*
X138845000Y-145023216D01*
X138845000Y-144976784D01*
X138754797Y-144523304D01*
X138497922Y-144138862D01*
X138414864Y-144083364D01*
X139015000Y-144083364D01*
X139015000Y-144789250D01*
X139098750Y-144873000D01*
X140073000Y-144873000D01*
X140073000Y-143898750D01*
X140327000Y-143898750D01*
X140327000Y-144873000D01*
X141301250Y-144873000D01*
X141385000Y-144789250D01*
X141385000Y-144083364D01*
X141333999Y-143960237D01*
X141239762Y-143866000D01*
X141116635Y-143815000D01*
X140410750Y-143815000D01*
X140327000Y-143898750D01*
X140073000Y-143898750D01*
X139989250Y-143815000D01*
X139283365Y-143815000D01*
X139160238Y-143866000D01*
X139066001Y-143960237D01*
X139015000Y-144083364D01*
X138414864Y-144083364D01*
X138113480Y-143881987D01*
X137660000Y-143791784D01*
X137206520Y-143881987D01*
X136822078Y-144138862D01*
X136565203Y-144523304D01*
X136475000Y-144976784D01*
X136360000Y-144976784D01*
X136360000Y-143750000D01*
X166665001Y-143750000D01*
X166720949Y-144031272D01*
X166880277Y-144269723D01*
X170665000Y-148054447D01*
X170665000Y-148300000D01*
X170720949Y-148581272D01*
X170880277Y-148819723D01*
X171118728Y-148979051D01*
X171400000Y-149035000D01*
X171681272Y-148979051D01*
X171919723Y-148819723D01*
X172079051Y-148581272D01*
X172135000Y-148300000D01*
X172135000Y-147750000D01*
X172079051Y-147468728D01*
X172033119Y-147399986D01*
X171919723Y-147230276D01*
X167919723Y-143230277D01*
X167681272Y-143070949D01*
X167400000Y-143015001D01*
X167118728Y-143070949D01*
X166880277Y-143230277D01*
X166720949Y-143468728D01*
X166665001Y-143750000D01*
X136360000Y-143750000D01*
X136360000Y-138125755D01*
X149364890Y-138125755D01*
X149461360Y-138359228D01*
X149639832Y-138538013D01*
X149873137Y-138634889D01*
X150125755Y-138635110D01*
X150359228Y-138538640D01*
X150538013Y-138360168D01*
X150634889Y-138126863D01*
X150634986Y-138015552D01*
X152790538Y-135860000D01*
X165399456Y-135860000D01*
X165323964Y-135875016D01*
X165174730Y-135974732D01*
X164874731Y-136274731D01*
X164775015Y-136423965D01*
X164775015Y-136423966D01*
X164740000Y-136600000D01*
X164740000Y-137400000D01*
X164775015Y-137576035D01*
X164874731Y-137725269D01*
X174899743Y-147750281D01*
X175048977Y-147849997D01*
X175225012Y-147885012D01*
X185974988Y-147885012D01*
X186151023Y-147849997D01*
X186300257Y-147750281D01*
X186825269Y-147225269D01*
X186924985Y-147076035D01*
X186941787Y-146991563D01*
X187250000Y-146991563D01*
X187374144Y-146968204D01*
X187488162Y-146894835D01*
X187564653Y-146782887D01*
X187591563Y-146650000D01*
X187591563Y-145947884D01*
X187719723Y-145819724D01*
X187879051Y-145581273D01*
X187899140Y-145480277D01*
X187935000Y-145300000D01*
X187935000Y-143800000D01*
X187879051Y-143518728D01*
X187719723Y-143280277D01*
X187481272Y-143120949D01*
X187200000Y-143065000D01*
X186918728Y-143120949D01*
X186680277Y-143280277D01*
X186520949Y-143518728D01*
X186465000Y-143800000D01*
X186465000Y-144995553D01*
X186452116Y-145008437D01*
X185884999Y-145008437D01*
X185884999Y-142965539D01*
X186825269Y-142025269D01*
X186924985Y-141876035D01*
X186941787Y-141791563D01*
X187250000Y-141791563D01*
X187374144Y-141768204D01*
X187488162Y-141694835D01*
X187564653Y-141582887D01*
X187574350Y-141535000D01*
X191400000Y-141535000D01*
X191681272Y-141479051D01*
X191919723Y-141319723D01*
X194319724Y-138919723D01*
X194479051Y-138681272D01*
X194535000Y-138400000D01*
X194479051Y-138118727D01*
X194319724Y-137880276D01*
X194081273Y-137720949D01*
X193800000Y-137665000D01*
X193518728Y-137720949D01*
X193280277Y-137880276D01*
X191095554Y-140065000D01*
X187575569Y-140065000D01*
X187568204Y-140025856D01*
X187494835Y-139911838D01*
X187382887Y-139835347D01*
X187250000Y-139808437D01*
X185750000Y-139808437D01*
X185625856Y-139831796D01*
X185511838Y-139905165D01*
X185435347Y-140017113D01*
X185408437Y-140150000D01*
X185408437Y-141450000D01*
X185431796Y-141574144D01*
X185505165Y-141688162D01*
X185617113Y-141764653D01*
X185750000Y-141791563D01*
X185757899Y-141791563D01*
X185099730Y-142449732D01*
X185000014Y-142598966D01*
X185000014Y-142598967D01*
X184964999Y-142775001D01*
X184964999Y-146169465D01*
X184885000Y-146249464D01*
X184885000Y-146210750D01*
X184801250Y-146127000D01*
X183927000Y-146127000D01*
X183927000Y-146147000D01*
X183673000Y-146147000D01*
X183673000Y-146127000D01*
X182798750Y-146127000D01*
X182715000Y-146210750D01*
X182715000Y-146515001D01*
X176440528Y-146515001D01*
X175208892Y-145283365D01*
X182715000Y-145283365D01*
X182715000Y-145789250D01*
X182798750Y-145873000D01*
X183673000Y-145873000D01*
X183673000Y-145098750D01*
X183927000Y-145098750D01*
X183927000Y-145873000D01*
X184801250Y-145873000D01*
X184885000Y-145789250D01*
X184885000Y-145283365D01*
X184834000Y-145160238D01*
X184739763Y-145066001D01*
X184616636Y-145015000D01*
X184010750Y-145015000D01*
X183927000Y-145098750D01*
X183673000Y-145098750D01*
X183589250Y-145015000D01*
X182983364Y-145015000D01*
X182860237Y-145066001D01*
X182766000Y-145160238D01*
X182715000Y-145283365D01*
X175208892Y-145283365D01*
X171536277Y-141610750D01*
X178640000Y-141610750D01*
X178640000Y-142216636D01*
X178691001Y-142339763D01*
X178785238Y-142434000D01*
X178908365Y-142485000D01*
X179389250Y-142485000D01*
X179473000Y-142401250D01*
X179473000Y-141527000D01*
X179727000Y-141527000D01*
X179727000Y-142401250D01*
X179810750Y-142485000D01*
X180291635Y-142485000D01*
X180414762Y-142434000D01*
X180508999Y-142339763D01*
X180560000Y-142216636D01*
X180560000Y-141610750D01*
X180476250Y-141527000D01*
X179727000Y-141527000D01*
X179473000Y-141527000D01*
X178723750Y-141527000D01*
X178640000Y-141610750D01*
X171536277Y-141610750D01*
X170824244Y-140898717D01*
X170950878Y-140846392D01*
X171129663Y-140667920D01*
X171164773Y-140583364D01*
X178640000Y-140583364D01*
X178640000Y-141189250D01*
X178723750Y-141273000D01*
X179473000Y-141273000D01*
X179473000Y-140398750D01*
X179727000Y-140398750D01*
X179727000Y-141273000D01*
X180476250Y-141273000D01*
X180560000Y-141189250D01*
X180560000Y-141010750D01*
X182715000Y-141010750D01*
X182715000Y-141516635D01*
X182766000Y-141639762D01*
X182860237Y-141733999D01*
X182983364Y-141785000D01*
X183589250Y-141785000D01*
X183673000Y-141701250D01*
X183673000Y-140927000D01*
X183927000Y-140927000D01*
X183927000Y-141701250D01*
X184010750Y-141785000D01*
X184616636Y-141785000D01*
X184739763Y-141733999D01*
X184834000Y-141639762D01*
X184885000Y-141516635D01*
X184885000Y-141010750D01*
X184801250Y-140927000D01*
X183927000Y-140927000D01*
X183673000Y-140927000D01*
X182798750Y-140927000D01*
X182715000Y-141010750D01*
X180560000Y-141010750D01*
X180560000Y-140583364D01*
X180508999Y-140460237D01*
X180414762Y-140366000D01*
X180291635Y-140315000D01*
X179810750Y-140315000D01*
X179727000Y-140398750D01*
X179473000Y-140398750D01*
X179389250Y-140315000D01*
X178908365Y-140315000D01*
X178785238Y-140366000D01*
X178691001Y-140460237D01*
X178640000Y-140583364D01*
X171164773Y-140583364D01*
X171226539Y-140434615D01*
X171226760Y-140181997D01*
X171186006Y-140083365D01*
X182715000Y-140083365D01*
X182715000Y-140589250D01*
X182798750Y-140673000D01*
X183673000Y-140673000D01*
X183673000Y-139898750D01*
X183927000Y-139898750D01*
X183927000Y-140673000D01*
X184801250Y-140673000D01*
X184885000Y-140589250D01*
X184885000Y-140083365D01*
X184834000Y-139960238D01*
X184739763Y-139866001D01*
X184616636Y-139815000D01*
X184010750Y-139815000D01*
X183927000Y-139898750D01*
X183673000Y-139898750D01*
X183589250Y-139815000D01*
X182983364Y-139815000D01*
X182860237Y-139866001D01*
X182766000Y-139960238D01*
X182715000Y-140083365D01*
X171186006Y-140083365D01*
X171130290Y-139948524D01*
X171034990Y-139853057D01*
X171034990Y-134238044D01*
X171113003Y-134160168D01*
X171173334Y-134014873D01*
X178514812Y-134014873D01*
X178679646Y-134413800D01*
X178865000Y-134599478D01*
X178865000Y-137829135D01*
X178850856Y-137831796D01*
X178736838Y-137905165D01*
X178660347Y-138017113D01*
X178633437Y-138150000D01*
X178633437Y-139650000D01*
X178656796Y-139774144D01*
X178730165Y-139888162D01*
X178842113Y-139964653D01*
X178975000Y-139991563D01*
X180225000Y-139991563D01*
X180349144Y-139968204D01*
X180463162Y-139894835D01*
X180539653Y-139782887D01*
X180566563Y-139650000D01*
X180566563Y-138150000D01*
X180543204Y-138025856D01*
X180469835Y-137911838D01*
X180357887Y-137835347D01*
X180335000Y-137830712D01*
X180335000Y-136461632D01*
X185306277Y-136461632D01*
X185499601Y-136862820D01*
X185845644Y-137176854D01*
X186285521Y-137334559D01*
X186473000Y-137263832D01*
X186473000Y-136277000D01*
X186727000Y-136277000D01*
X186727000Y-137263832D01*
X186914479Y-137334559D01*
X187354356Y-137176854D01*
X187700399Y-136862820D01*
X187893723Y-136461632D01*
X187843982Y-136277000D01*
X186727000Y-136277000D01*
X186473000Y-136277000D01*
X185356018Y-136277000D01*
X185306277Y-136461632D01*
X180335000Y-136461632D01*
X180335000Y-135838368D01*
X185306277Y-135838368D01*
X185356018Y-136023000D01*
X186473000Y-136023000D01*
X186473000Y-135036168D01*
X186727000Y-135036168D01*
X186727000Y-136023000D01*
X187843982Y-136023000D01*
X187893723Y-135838368D01*
X187700399Y-135437180D01*
X187354356Y-135123146D01*
X186914479Y-134965441D01*
X186727000Y-135036168D01*
X186473000Y-135036168D01*
X186285521Y-134965441D01*
X185845644Y-135123146D01*
X185499601Y-135437180D01*
X185306277Y-135838368D01*
X180335000Y-135838368D01*
X180335000Y-134599365D01*
X180519282Y-134415405D01*
X180684811Y-134016767D01*
X180685166Y-133610000D01*
X185238846Y-133610000D01*
X185329962Y-134068072D01*
X185589439Y-134456407D01*
X185977774Y-134715884D01*
X186435846Y-134807000D01*
X186764154Y-134807000D01*
X187222226Y-134715884D01*
X187610561Y-134456407D01*
X187870038Y-134068072D01*
X187961154Y-133610000D01*
X187870038Y-133151928D01*
X187610561Y-132763593D01*
X187222226Y-132504116D01*
X186764154Y-132413000D01*
X186435846Y-132413000D01*
X185977774Y-132504116D01*
X185589439Y-132763593D01*
X185329962Y-133151928D01*
X185238846Y-133610000D01*
X180685166Y-133610000D01*
X180685188Y-133585127D01*
X180520354Y-133186200D01*
X180215405Y-132880718D01*
X179816767Y-132715189D01*
X179385127Y-132714812D01*
X178986200Y-132879646D01*
X178680718Y-133184595D01*
X178515189Y-133583233D01*
X178514812Y-134014873D01*
X171173334Y-134014873D01*
X171209879Y-133926863D01*
X171210100Y-133674245D01*
X171113630Y-133440772D01*
X170935158Y-133261987D01*
X170701853Y-133165111D01*
X170449235Y-133164890D01*
X170260000Y-133243081D01*
X170260000Y-131070000D01*
X185238846Y-131070000D01*
X185329962Y-131528072D01*
X185589439Y-131916407D01*
X185977774Y-132175884D01*
X186435846Y-132267000D01*
X186764154Y-132267000D01*
X187222226Y-132175884D01*
X187610561Y-131916407D01*
X187870038Y-131528072D01*
X187961154Y-131070000D01*
X187870038Y-130611928D01*
X187610561Y-130223593D01*
X187222226Y-129964116D01*
X186764154Y-129873000D01*
X186435846Y-129873000D01*
X185977774Y-129964116D01*
X185589439Y-130223593D01*
X185329962Y-130611928D01*
X185238846Y-131070000D01*
X170260000Y-131070000D01*
X170260000Y-129200000D01*
X170247046Y-129134873D01*
X178514812Y-129134873D01*
X178679646Y-129533800D01*
X178984595Y-129839282D01*
X179383233Y-130004811D01*
X179814873Y-130005188D01*
X180213800Y-129840354D01*
X180519282Y-129535405D01*
X180684811Y-129136767D01*
X180685188Y-128705127D01*
X180612827Y-128530000D01*
X185238846Y-128530000D01*
X185329962Y-128988072D01*
X185589439Y-129376407D01*
X185977774Y-129635884D01*
X186435846Y-129727000D01*
X186764154Y-129727000D01*
X187222226Y-129635884D01*
X187610561Y-129376407D01*
X187870038Y-128988072D01*
X187961154Y-128530000D01*
X187870038Y-128071928D01*
X187610561Y-127683593D01*
X187222226Y-127424116D01*
X186764154Y-127333000D01*
X186435846Y-127333000D01*
X185977774Y-127424116D01*
X185589439Y-127683593D01*
X185329962Y-128071928D01*
X185238846Y-128530000D01*
X180612827Y-128530000D01*
X180520354Y-128306200D01*
X180335000Y-128120522D01*
X180335000Y-125990000D01*
X185238846Y-125990000D01*
X185329962Y-126448072D01*
X185589439Y-126836407D01*
X185977774Y-127095884D01*
X186435846Y-127187000D01*
X186764154Y-127187000D01*
X187222226Y-127095884D01*
X187610561Y-126836407D01*
X187870038Y-126448072D01*
X187961154Y-125990000D01*
X187870038Y-125531928D01*
X187610561Y-125143593D01*
X187222226Y-124884116D01*
X186764154Y-124793000D01*
X186435846Y-124793000D01*
X185977774Y-124884116D01*
X185589439Y-125143593D01*
X185329962Y-125531928D01*
X185238846Y-125990000D01*
X180335000Y-125990000D01*
X180335000Y-124570865D01*
X180349144Y-124568204D01*
X180463162Y-124494835D01*
X180539653Y-124382887D01*
X180566563Y-124250000D01*
X180566563Y-123450000D01*
X185238846Y-123450000D01*
X185329962Y-123908072D01*
X185589439Y-124296407D01*
X185977774Y-124555884D01*
X186435846Y-124647000D01*
X186764154Y-124647000D01*
X187222226Y-124555884D01*
X187610561Y-124296407D01*
X187870038Y-123908072D01*
X187961154Y-123450000D01*
X187870038Y-122991928D01*
X187610561Y-122603593D01*
X187222226Y-122344116D01*
X186764154Y-122253000D01*
X186435846Y-122253000D01*
X185977774Y-122344116D01*
X185589439Y-122603593D01*
X185329962Y-122991928D01*
X185238846Y-123450000D01*
X180566563Y-123450000D01*
X180566563Y-122750000D01*
X180543204Y-122625856D01*
X180469835Y-122511838D01*
X180357887Y-122435347D01*
X180225000Y-122408437D01*
X178975000Y-122408437D01*
X178850856Y-122431796D01*
X178736838Y-122505165D01*
X178660347Y-122617113D01*
X178633437Y-122750000D01*
X178633437Y-124250000D01*
X178656796Y-124374144D01*
X178730165Y-124488162D01*
X178842113Y-124564653D01*
X178865000Y-124569288D01*
X178865000Y-128120635D01*
X178680718Y-128304595D01*
X178515189Y-128703233D01*
X178514812Y-129134873D01*
X170247046Y-129134873D01*
X170224985Y-129023966D01*
X170224985Y-129023965D01*
X170125269Y-128874731D01*
X169435014Y-128184476D01*
X169435110Y-128074245D01*
X169338640Y-127840772D01*
X169160168Y-127661987D01*
X168926863Y-127565111D01*
X168674245Y-127564890D01*
X168440772Y-127661360D01*
X168261987Y-127839832D01*
X168165111Y-128073137D01*
X168164890Y-128325755D01*
X168261360Y-128559228D01*
X168439832Y-128738013D01*
X168673137Y-128834889D01*
X168784448Y-128834986D01*
X169340000Y-129390538D01*
X169340000Y-136665198D01*
X167749533Y-135074731D01*
X167600299Y-134975015D01*
X167424264Y-134940000D01*
X152600000Y-134940000D01*
X152423966Y-134975015D01*
X152274731Y-135074731D01*
X149984476Y-137364986D01*
X149874245Y-137364890D01*
X149640772Y-137461360D01*
X149461987Y-137639832D01*
X149365111Y-137873137D01*
X149364890Y-138125755D01*
X136360000Y-138125755D01*
X136360000Y-136200000D01*
X136791784Y-136200000D01*
X136881987Y-136653480D01*
X137138862Y-137037922D01*
X137523304Y-137294797D01*
X137976784Y-137385000D01*
X138023216Y-137385000D01*
X138476696Y-137294797D01*
X138861138Y-137037922D01*
X139118013Y-136653480D01*
X139208216Y-136200000D01*
X140991784Y-136200000D01*
X141081987Y-136653480D01*
X141338862Y-137037922D01*
X141723304Y-137294797D01*
X142176784Y-137385000D01*
X142223216Y-137385000D01*
X142676696Y-137294797D01*
X143061138Y-137037922D01*
X143318013Y-136653480D01*
X143408216Y-136200000D01*
X143318013Y-135746520D01*
X143061138Y-135362078D01*
X142676696Y-135105203D01*
X142223216Y-135015000D01*
X142176784Y-135015000D01*
X141723304Y-135105203D01*
X141338862Y-135362078D01*
X141081987Y-135746520D01*
X140991784Y-136200000D01*
X139208216Y-136200000D01*
X139118013Y-135746520D01*
X138861138Y-135362078D01*
X138476696Y-135105203D01*
X138023216Y-135015000D01*
X137976784Y-135015000D01*
X137523304Y-135105203D01*
X137138862Y-135362078D01*
X136881987Y-135746520D01*
X136791784Y-136200000D01*
X136360000Y-136200000D01*
X136360000Y-133660000D01*
X136791784Y-133660000D01*
X136881987Y-134113480D01*
X137138862Y-134497922D01*
X137523304Y-134754797D01*
X137976784Y-134845000D01*
X138023216Y-134845000D01*
X138476696Y-134754797D01*
X138861138Y-134497922D01*
X139118013Y-134113480D01*
X139208216Y-133660000D01*
X140991784Y-133660000D01*
X141081987Y-134113480D01*
X141338862Y-134497922D01*
X141723304Y-134754797D01*
X142176784Y-134845000D01*
X142223216Y-134845000D01*
X142676696Y-134754797D01*
X143061138Y-134497922D01*
X143318013Y-134113480D01*
X143408216Y-133660000D01*
X143318013Y-133206520D01*
X143061138Y-132822078D01*
X142676696Y-132565203D01*
X142223216Y-132475000D01*
X142176784Y-132475000D01*
X141723304Y-132565203D01*
X141338862Y-132822078D01*
X141081987Y-133206520D01*
X140991784Y-133660000D01*
X139208216Y-133660000D01*
X139118013Y-133206520D01*
X138861138Y-132822078D01*
X138476696Y-132565203D01*
X138023216Y-132475000D01*
X137976784Y-132475000D01*
X137523304Y-132565203D01*
X137138862Y-132822078D01*
X136881987Y-133206520D01*
X136791784Y-133660000D01*
X136360000Y-133660000D01*
X136360000Y-131120000D01*
X136791784Y-131120000D01*
X136881987Y-131573480D01*
X137138862Y-131957922D01*
X137523304Y-132214797D01*
X137976784Y-132305000D01*
X138023216Y-132305000D01*
X138476696Y-132214797D01*
X138861138Y-131957922D01*
X139118013Y-131573480D01*
X139208216Y-131120000D01*
X140991784Y-131120000D01*
X141081987Y-131573480D01*
X141338862Y-131957922D01*
X141723304Y-132214797D01*
X142176784Y-132305000D01*
X142223216Y-132305000D01*
X142676696Y-132214797D01*
X143061138Y-131957922D01*
X143318013Y-131573480D01*
X143408216Y-131120000D01*
X143318013Y-130666520D01*
X143061138Y-130282078D01*
X142676696Y-130025203D01*
X142223216Y-129935000D01*
X142176784Y-129935000D01*
X141723304Y-130025203D01*
X141338862Y-130282078D01*
X141081987Y-130666520D01*
X140991784Y-131120000D01*
X139208216Y-131120000D01*
X139118013Y-130666520D01*
X138861138Y-130282078D01*
X138476696Y-130025203D01*
X138023216Y-129935000D01*
X137976784Y-129935000D01*
X137523304Y-130025203D01*
X137138862Y-130282078D01*
X136881987Y-130666520D01*
X136791784Y-131120000D01*
X136360000Y-131120000D01*
X136360000Y-127730000D01*
X136808437Y-127730000D01*
X136808437Y-129430000D01*
X136831796Y-129554144D01*
X136905165Y-129668162D01*
X137017113Y-129744653D01*
X137150000Y-129771563D01*
X138850000Y-129771563D01*
X138974144Y-129748204D01*
X139088162Y-129674835D01*
X139164653Y-129562887D01*
X139191563Y-129430000D01*
X139191563Y-127730000D01*
X141008437Y-127730000D01*
X141008437Y-129430000D01*
X141031796Y-129554144D01*
X141105165Y-129668162D01*
X141217113Y-129744653D01*
X141350000Y-129771563D01*
X143050000Y-129771563D01*
X143174144Y-129748204D01*
X143288162Y-129674835D01*
X143364653Y-129562887D01*
X143391563Y-129430000D01*
X143391563Y-127730000D01*
X143368204Y-127605856D01*
X143294835Y-127491838D01*
X143182887Y-127415347D01*
X143050000Y-127388437D01*
X141350000Y-127388437D01*
X141225856Y-127411796D01*
X141111838Y-127485165D01*
X141035347Y-127597113D01*
X141008437Y-127730000D01*
X139191563Y-127730000D01*
X139168204Y-127605856D01*
X139094835Y-127491838D01*
X138982887Y-127415347D01*
X138850000Y-127388437D01*
X137150000Y-127388437D01*
X137025856Y-127411796D01*
X136911838Y-127485165D01*
X136835347Y-127597113D01*
X136808437Y-127730000D01*
X136360000Y-127730000D01*
X136360000Y-121109745D01*
X136856186Y-121109745D01*
X137061788Y-121523886D01*
X137410224Y-121827822D01*
X137690256Y-121943803D01*
X137873000Y-121893902D01*
X137873000Y-120927000D01*
X138127000Y-120927000D01*
X138127000Y-121893902D01*
X138309744Y-121943803D01*
X138589776Y-121827822D01*
X138938212Y-121523886D01*
X139143814Y-121109745D01*
X139094437Y-120927000D01*
X138127000Y-120927000D01*
X137873000Y-120927000D01*
X136905563Y-120927000D01*
X136856186Y-121109745D01*
X136360000Y-121109745D01*
X136360000Y-120490255D01*
X136856186Y-120490255D01*
X136905563Y-120673000D01*
X137873000Y-120673000D01*
X137873000Y-119706098D01*
X138127000Y-119706098D01*
X138127000Y-120673000D01*
X139094437Y-120673000D01*
X139143814Y-120490255D01*
X138938212Y-120076114D01*
X138793634Y-119950000D01*
X139348437Y-119950000D01*
X139348437Y-121650000D01*
X139371796Y-121774144D01*
X139445165Y-121888162D01*
X139557113Y-121964653D01*
X139690000Y-121991563D01*
X141390000Y-121991563D01*
X141514144Y-121968204D01*
X141628162Y-121894835D01*
X141704653Y-121782887D01*
X141731563Y-121650000D01*
X141731563Y-121260000D01*
X166809459Y-121260000D01*
X168511672Y-122962213D01*
X168399999Y-122940000D01*
X165238044Y-122940000D01*
X165160168Y-122861987D01*
X164926863Y-122765111D01*
X164674245Y-122764890D01*
X164440772Y-122861360D01*
X164261987Y-123039832D01*
X164165111Y-123273137D01*
X164164890Y-123525755D01*
X164261360Y-123759228D01*
X164439832Y-123938013D01*
X164673137Y-124034889D01*
X164925755Y-124035110D01*
X165159228Y-123938640D01*
X165238006Y-123860000D01*
X168104740Y-123860000D01*
X168104735Y-123865601D01*
X168201205Y-124099074D01*
X168379677Y-124277859D01*
X168418904Y-124294148D01*
X162174732Y-130538320D01*
X162075016Y-130687554D01*
X162040001Y-130863589D01*
X162040001Y-132100001D01*
X162075016Y-132276036D01*
X162164991Y-132410691D01*
X162164890Y-132525755D01*
X162261360Y-132759228D01*
X162439832Y-132938013D01*
X162673137Y-133034889D01*
X162925755Y-133035110D01*
X163159228Y-132938640D01*
X163338013Y-132760168D01*
X163434889Y-132526863D01*
X163435110Y-132274245D01*
X163405350Y-132202222D01*
X163559228Y-132138640D01*
X163738013Y-131960168D01*
X163834889Y-131726863D01*
X163835110Y-131474245D01*
X163738640Y-131240772D01*
X163660000Y-131161994D01*
X163660000Y-130990538D01*
X172815524Y-121835014D01*
X172925755Y-121835110D01*
X173159228Y-121738640D01*
X173338013Y-121560168D01*
X173434889Y-121326863D01*
X173434990Y-121210750D01*
X178640000Y-121210750D01*
X178640000Y-121816636D01*
X178691001Y-121939763D01*
X178785238Y-122034000D01*
X178908365Y-122085000D01*
X179389250Y-122085000D01*
X179473000Y-122001250D01*
X179473000Y-121127000D01*
X179727000Y-121127000D01*
X179727000Y-122001250D01*
X179810750Y-122085000D01*
X180291635Y-122085000D01*
X180414762Y-122034000D01*
X180508999Y-121939763D01*
X180560000Y-121816636D01*
X180560000Y-121210750D01*
X180476250Y-121127000D01*
X179727000Y-121127000D01*
X179473000Y-121127000D01*
X178723750Y-121127000D01*
X178640000Y-121210750D01*
X173434990Y-121210750D01*
X173435110Y-121074245D01*
X173367245Y-120910000D01*
X185238846Y-120910000D01*
X185329962Y-121368072D01*
X185589439Y-121756407D01*
X185977774Y-122015884D01*
X186435846Y-122107000D01*
X186764154Y-122107000D01*
X187222226Y-122015884D01*
X187610561Y-121756407D01*
X187870038Y-121368072D01*
X187961154Y-120910000D01*
X187870038Y-120451928D01*
X187610561Y-120063593D01*
X187222226Y-119804116D01*
X186764154Y-119713000D01*
X186435846Y-119713000D01*
X185977774Y-119804116D01*
X185589439Y-120063593D01*
X185329962Y-120451928D01*
X185238846Y-120910000D01*
X173367245Y-120910000D01*
X173338640Y-120840772D01*
X173160168Y-120661987D01*
X172926863Y-120565111D01*
X172674245Y-120564890D01*
X172440772Y-120661360D01*
X172261987Y-120839832D01*
X172165111Y-121073137D01*
X172165014Y-121184448D01*
X171860000Y-121489462D01*
X171860000Y-120183364D01*
X178640000Y-120183364D01*
X178640000Y-120789250D01*
X178723750Y-120873000D01*
X179473000Y-120873000D01*
X179473000Y-119998750D01*
X179727000Y-119998750D01*
X179727000Y-120873000D01*
X180476250Y-120873000D01*
X180560000Y-120789250D01*
X180560000Y-120183364D01*
X180508999Y-120060237D01*
X180414762Y-119966000D01*
X180291635Y-119915000D01*
X179810750Y-119915000D01*
X179727000Y-119998750D01*
X179473000Y-119998750D01*
X179389250Y-119915000D01*
X178908365Y-119915000D01*
X178785238Y-119966000D01*
X178691001Y-120060237D01*
X178640000Y-120183364D01*
X171860000Y-120183364D01*
X171860000Y-118370000D01*
X185238846Y-118370000D01*
X185329962Y-118828072D01*
X185589439Y-119216407D01*
X185977774Y-119475884D01*
X186435846Y-119567000D01*
X186764154Y-119567000D01*
X187222226Y-119475884D01*
X187610561Y-119216407D01*
X187870038Y-118828072D01*
X187961154Y-118370000D01*
X187870038Y-117911928D01*
X187610561Y-117523593D01*
X187222226Y-117264116D01*
X186764154Y-117173000D01*
X186435846Y-117173000D01*
X185977774Y-117264116D01*
X185589439Y-117523593D01*
X185329962Y-117911928D01*
X185238846Y-118370000D01*
X171860000Y-118370000D01*
X171860000Y-115255536D01*
X173104786Y-114010750D01*
X183415000Y-114010750D01*
X183415000Y-114516635D01*
X183466000Y-114639762D01*
X183560237Y-114733999D01*
X183683364Y-114785000D01*
X184289250Y-114785000D01*
X184373000Y-114701250D01*
X184373000Y-113927000D01*
X184627000Y-113927000D01*
X184627000Y-114701250D01*
X184710750Y-114785000D01*
X185316636Y-114785000D01*
X185439763Y-114733999D01*
X185534000Y-114639762D01*
X185585000Y-114516635D01*
X185585000Y-114010750D01*
X185501250Y-113927000D01*
X184627000Y-113927000D01*
X184373000Y-113927000D01*
X183498750Y-113927000D01*
X183415000Y-114010750D01*
X173104786Y-114010750D01*
X174032171Y-113083365D01*
X183415000Y-113083365D01*
X183415000Y-113589250D01*
X183498750Y-113673000D01*
X184373000Y-113673000D01*
X184373000Y-112898750D01*
X184627000Y-112898750D01*
X184627000Y-113673000D01*
X185501250Y-113673000D01*
X185585000Y-113589250D01*
X185585000Y-113083365D01*
X185534000Y-112960238D01*
X185439763Y-112866001D01*
X185316636Y-112815000D01*
X184710750Y-112815000D01*
X184627000Y-112898750D01*
X184373000Y-112898750D01*
X184289250Y-112815000D01*
X183683364Y-112815000D01*
X183560237Y-112866001D01*
X183466000Y-112960238D01*
X183415000Y-113083365D01*
X174032171Y-113083365D01*
X176704786Y-110410750D01*
X177165000Y-110410750D01*
X177165000Y-110916635D01*
X177216000Y-111039762D01*
X177310237Y-111133999D01*
X177433364Y-111185000D01*
X178039250Y-111185000D01*
X178123000Y-111101250D01*
X178123000Y-110327000D01*
X178377000Y-110327000D01*
X178377000Y-111101250D01*
X178460750Y-111185000D01*
X179066636Y-111185000D01*
X179189763Y-111133999D01*
X179284000Y-111039762D01*
X179335000Y-110916635D01*
X179335000Y-110410750D01*
X179251250Y-110327000D01*
X178377000Y-110327000D01*
X178123000Y-110327000D01*
X177248750Y-110327000D01*
X177165000Y-110410750D01*
X176704786Y-110410750D01*
X177165000Y-109950536D01*
X177165000Y-109989250D01*
X177248750Y-110073000D01*
X178123000Y-110073000D01*
X178123000Y-110053000D01*
X178377000Y-110053000D01*
X178377000Y-110073000D01*
X179251250Y-110073000D01*
X179335000Y-109989250D01*
X179335000Y-109684999D01*
X179858437Y-109684999D01*
X179858437Y-110850000D01*
X179881796Y-110974144D01*
X179955165Y-111088162D01*
X180067113Y-111164653D01*
X180200000Y-111191563D01*
X180902116Y-111191563D01*
X181030276Y-111319723D01*
X181265203Y-111476696D01*
X181268728Y-111479051D01*
X181550000Y-111535000D01*
X186000000Y-111535000D01*
X186281272Y-111479051D01*
X186519723Y-111319723D01*
X186669839Y-111095059D01*
X186740000Y-111165220D01*
X186740000Y-112808437D01*
X186450000Y-112808437D01*
X186325856Y-112831796D01*
X186211838Y-112905165D01*
X186135347Y-113017113D01*
X186108437Y-113150000D01*
X186108437Y-114450000D01*
X186131796Y-114574144D01*
X186205165Y-114688162D01*
X186317113Y-114764653D01*
X186450000Y-114791563D01*
X187152117Y-114791563D01*
X187665000Y-115304447D01*
X187665000Y-115800000D01*
X187720949Y-116081272D01*
X187880277Y-116319723D01*
X188118728Y-116479051D01*
X188400000Y-116535000D01*
X188681272Y-116479051D01*
X188919723Y-116319723D01*
X189079051Y-116081272D01*
X189135000Y-115800000D01*
X189135000Y-115000000D01*
X189079051Y-114718728D01*
X189063086Y-114694835D01*
X188919723Y-114480276D01*
X188291563Y-113852117D01*
X188291563Y-113150000D01*
X188268204Y-113025856D01*
X188194835Y-112911838D01*
X188082887Y-112835347D01*
X187950000Y-112808437D01*
X187660000Y-112808437D01*
X187660000Y-110974682D01*
X187624985Y-110798648D01*
X187525269Y-110649413D01*
X185775586Y-108899730D01*
X185626352Y-108800014D01*
X185450317Y-108764999D01*
X177239999Y-108764999D01*
X177063964Y-108800014D01*
X176914730Y-108899730D01*
X171074731Y-114739729D01*
X170975015Y-114888963D01*
X170975015Y-114888964D01*
X170940000Y-115064998D01*
X170940000Y-121773052D01*
X169894258Y-122818794D01*
X169878484Y-122780619D01*
X169700012Y-122601834D01*
X169466707Y-122504958D01*
X169355396Y-122504861D01*
X167325266Y-120474731D01*
X167176032Y-120375015D01*
X166999997Y-120340000D01*
X141731563Y-120340000D01*
X141731563Y-119950000D01*
X141708204Y-119825856D01*
X141634835Y-119711838D01*
X141522887Y-119635347D01*
X141390000Y-119608437D01*
X139690000Y-119608437D01*
X139565856Y-119631796D01*
X139451838Y-119705165D01*
X139375347Y-119817113D01*
X139348437Y-119950000D01*
X138793634Y-119950000D01*
X138589776Y-119772178D01*
X138309744Y-119656197D01*
X138127000Y-119706098D01*
X137873000Y-119706098D01*
X137690256Y-119656197D01*
X137410224Y-119772178D01*
X137061788Y-120076114D01*
X136856186Y-120490255D01*
X136360000Y-120490255D01*
X136360000Y-117309745D01*
X136856186Y-117309745D01*
X137061788Y-117723886D01*
X137410224Y-118027822D01*
X137690256Y-118143803D01*
X137873000Y-118093902D01*
X137873000Y-117127000D01*
X138127000Y-117127000D01*
X138127000Y-118093902D01*
X138309744Y-118143803D01*
X138589776Y-118027822D01*
X138938212Y-117723886D01*
X139143814Y-117309745D01*
X139094437Y-117127000D01*
X138127000Y-117127000D01*
X137873000Y-117127000D01*
X136905563Y-117127000D01*
X136856186Y-117309745D01*
X136360000Y-117309745D01*
X136360000Y-116690255D01*
X136856186Y-116690255D01*
X136905563Y-116873000D01*
X137873000Y-116873000D01*
X137873000Y-115906098D01*
X138127000Y-115906098D01*
X138127000Y-116873000D01*
X139094437Y-116873000D01*
X139143814Y-116690255D01*
X138938212Y-116276114D01*
X138793634Y-116150000D01*
X139348437Y-116150000D01*
X139348437Y-117850000D01*
X139371796Y-117974144D01*
X139445165Y-118088162D01*
X139557113Y-118164653D01*
X139690000Y-118191563D01*
X141390000Y-118191563D01*
X141514144Y-118168204D01*
X141628162Y-118094835D01*
X141704653Y-117982887D01*
X141731563Y-117850000D01*
X141731563Y-116150000D01*
X141708204Y-116025856D01*
X141634835Y-115911838D01*
X141522887Y-115835347D01*
X141390000Y-115808437D01*
X139690000Y-115808437D01*
X139565856Y-115831796D01*
X139451838Y-115905165D01*
X139375347Y-116017113D01*
X139348437Y-116150000D01*
X138793634Y-116150000D01*
X138589776Y-115972178D01*
X138309744Y-115856197D01*
X138127000Y-115906098D01*
X137873000Y-115906098D01*
X137690256Y-115856197D01*
X137410224Y-115972178D01*
X137061788Y-116276114D01*
X136856186Y-116690255D01*
X136360000Y-116690255D01*
X136360000Y-110150000D01*
X136608437Y-110150000D01*
X136608437Y-111850000D01*
X136631796Y-111974144D01*
X136705165Y-112088162D01*
X136817113Y-112164653D01*
X136950000Y-112191563D01*
X138650000Y-112191563D01*
X138774144Y-112168204D01*
X138888162Y-112094835D01*
X138964653Y-111982887D01*
X138991563Y-111850000D01*
X138991563Y-110976784D01*
X139155000Y-110976784D01*
X139155000Y-111023216D01*
X139245203Y-111476696D01*
X139502078Y-111861138D01*
X139886520Y-112118013D01*
X140340000Y-112208216D01*
X140793480Y-112118013D01*
X141177922Y-111861138D01*
X141434797Y-111476696D01*
X141525000Y-111023216D01*
X141525000Y-110976784D01*
X141434797Y-110523304D01*
X141177922Y-110138862D01*
X140793480Y-109881987D01*
X140340000Y-109791784D01*
X139886520Y-109881987D01*
X139502078Y-110138862D01*
X139245203Y-110523304D01*
X139155000Y-110976784D01*
X138991563Y-110976784D01*
X138991563Y-110150000D01*
X138968204Y-110025856D01*
X138894835Y-109911838D01*
X138782887Y-109835347D01*
X138650000Y-109808437D01*
X136950000Y-109808437D01*
X136825856Y-109831796D01*
X136711838Y-109905165D01*
X136635347Y-110017113D01*
X136608437Y-110150000D01*
X136360000Y-110150000D01*
X136360000Y-107976285D01*
X145590760Y-107976285D01*
X145801169Y-108485515D01*
X146190436Y-108875461D01*
X146699298Y-109086759D01*
X147250285Y-109087240D01*
X147759515Y-108876831D01*
X148149461Y-108487564D01*
X148360759Y-107978702D01*
X148360761Y-107976285D01*
X185214760Y-107976285D01*
X185425169Y-108485515D01*
X185814436Y-108875461D01*
X186323298Y-109086759D01*
X186874285Y-109087240D01*
X187383515Y-108876831D01*
X187773461Y-108487564D01*
X187984759Y-107978702D01*
X187985240Y-107427715D01*
X187774831Y-106918485D01*
X187385564Y-106528539D01*
X186876702Y-106317241D01*
X186325715Y-106316760D01*
X185816485Y-106527169D01*
X185426539Y-106916436D01*
X185215241Y-107425298D01*
X185214760Y-107976285D01*
X148360761Y-107976285D01*
X148361240Y-107427715D01*
X148150831Y-106918485D01*
X147761564Y-106528539D01*
X147252702Y-106317241D01*
X146701715Y-106316760D01*
X146192485Y-106527169D01*
X145802539Y-106916436D01*
X145591241Y-107425298D01*
X145590760Y-107976285D01*
X136360000Y-107976285D01*
X136360000Y-96700000D01*
X137358437Y-96700000D01*
X137358437Y-99700000D01*
X137381796Y-99824144D01*
X137455165Y-99938162D01*
X137567113Y-100014653D01*
X137700000Y-100041563D01*
X140700000Y-100041563D01*
X140824144Y-100018204D01*
X140938162Y-99944835D01*
X141014653Y-99832887D01*
X141041563Y-99700000D01*
X141041563Y-99550349D01*
X182729256Y-99550349D01*
X182905565Y-99784788D01*
X183587734Y-100044707D01*
X184317443Y-100023786D01*
X184894435Y-99784788D01*
X185070744Y-99550349D01*
X183900000Y-98379605D01*
X182729256Y-99550349D01*
X141041563Y-99550349D01*
X141041563Y-97887734D01*
X182055293Y-97887734D01*
X182076214Y-98617443D01*
X182315212Y-99194435D01*
X182549651Y-99370744D01*
X183720395Y-98200000D01*
X184079605Y-98200000D01*
X185250349Y-99370744D01*
X185484788Y-99194435D01*
X185744707Y-98512266D01*
X185723786Y-97782557D01*
X185484788Y-97205565D01*
X185250349Y-97029256D01*
X184079605Y-98200000D01*
X183720395Y-98200000D01*
X182549651Y-97029256D01*
X182315212Y-97205565D01*
X182055293Y-97887734D01*
X141041563Y-97887734D01*
X141041563Y-96849651D01*
X182729256Y-96849651D01*
X183900000Y-98020395D01*
X185070744Y-96849651D01*
X184894435Y-96615212D01*
X184212266Y-96355293D01*
X183482557Y-96376214D01*
X182905565Y-96615212D01*
X182729256Y-96849651D01*
X141041563Y-96849651D01*
X141041563Y-96700000D01*
X141018204Y-96575856D01*
X140944835Y-96461838D01*
X140832887Y-96385347D01*
X140700000Y-96358437D01*
X137700000Y-96358437D01*
X137575856Y-96381796D01*
X137461838Y-96455165D01*
X137385347Y-96567113D01*
X137358437Y-96700000D01*
X136360000Y-96700000D01*
X136360000Y-91260000D01*
X198890000Y-91260000D01*
X198890000Y-165940000D01*
M02*
