M48
;DRILL file {KiCad 4.0.7} date 11/23/17 22:01:37
;FORMAT={-:-/ absolute / metric / decimal}
FMAT,2
METRIC,TZ
T1C0.400
T2C0.800
T3C0.900
T4C1.000
T5C2.000
T6C2.000
%
G90
G05
M71
T1
X150.Y-138.
X161.Y-138.2
X162.8Y-132.4
X163.2Y-131.6
X164.8Y-123.4
X166.2Y-136.925
X167.2Y-136.6
X167.4Y-143.75
X168.74Y-123.74
X168.8Y-128.2
X169.34Y-123.14
X169.8Y-138.2
X170.575Y-133.8
X170.592Y-140.308
X171.4Y-148.3
X172.8Y-121.2
X183.05Y-132.8
X186.Y-110.8
X187.2Y-143.8
X188.4Y-115.8
X193.8Y-138.4
T2
X179.6Y-128.92
X179.6Y-133.8
T3
X186.6Y-118.37
X186.6Y-120.91
X186.6Y-123.45
X186.6Y-125.99
X186.6Y-128.53
X186.6Y-131.07
X186.6Y-133.61
X186.6Y-136.15
T4
X137.66Y-145.
X137.66Y-148.8
X137.8Y-111.
X138.Y-117.
X138.Y-120.8
X138.Y-128.58
X138.Y-131.12
X138.Y-133.66
X138.Y-136.2
X140.2Y-145.
X140.2Y-148.8
X140.34Y-111.
X140.54Y-117.
X140.54Y-120.8
X142.2Y-128.58
X142.2Y-131.12
X142.2Y-133.66
X142.2Y-136.2
X191.4Y-155.46
X191.4Y-158.
X191.4Y-160.54
T5
X139.2Y-98.2
X139.2Y-159.
X183.9Y-98.2
X183.9Y-159.
T6
X146.976Y-107.702
X146.976Y-149.358
X186.6Y-107.702
X186.6Y-149.358
T0
M30
