G04 #@! TF.FileFunction,Copper,L1,Top,Signal*
%FSLAX46Y46*%
G04 Gerber Fmt 4.6, Leading zero omitted, Abs format (unit mm)*
G04 Created by KiCad (PCBNEW 4.0.7) date 11/23/17 22:00:10*
%MOMM*%
%LPD*%
G01*
G04 APERTURE LIST*
%ADD10C,0.100000*%
%ADD11C,1.500000*%
%ADD12R,3.000000X3.000000*%
%ADD13C,3.000000*%
%ADD14R,1.500000X1.250000*%
%ADD15R,1.250000X1.500000*%
%ADD16R,1.700000X1.700000*%
%ADD17O,1.700000X1.700000*%
%ADD18R,1.500000X1.300000*%
%ADD19R,1.300000X1.500000*%
%ADD20R,2.000000X2.500000*%
%ADD21R,1.450000X0.450000*%
%ADD22R,1.300000X0.250000*%
%ADD23R,0.250000X1.300000*%
%ADD24O,2.000000X1.724000*%
%ADD25C,2.100000*%
%ADD26C,0.600000*%
%ADD27C,0.800000*%
%ADD28C,0.500000*%
%ADD29C,0.250000*%
%ADD30C,0.254000*%
G04 APERTURE END LIST*
D10*
D11*
X179600000Y-133800000D03*
X179600000Y-128920000D03*
D12*
X183900000Y-159000000D03*
D13*
X139200000Y-159000000D03*
D12*
X139200000Y-98200000D03*
D13*
X183900000Y-98200000D03*
D14*
X166100000Y-121400000D03*
X168600000Y-121400000D03*
D15*
X159600000Y-135650000D03*
X159600000Y-133150000D03*
D14*
X173500000Y-149800000D03*
X176000000Y-149800000D03*
D15*
X172000000Y-141700000D03*
X172000000Y-139200000D03*
X169800000Y-148400000D03*
X169800000Y-150900000D03*
D16*
X138000000Y-128580000D03*
D17*
X138000000Y-131120000D03*
X138000000Y-133660000D03*
X138000000Y-136200000D03*
D16*
X142200000Y-128580000D03*
D17*
X142200000Y-131120000D03*
X142200000Y-133660000D03*
X142200000Y-136200000D03*
D16*
X140200000Y-145000000D03*
D17*
X137660000Y-145000000D03*
D16*
X137800000Y-111000000D03*
D17*
X140340000Y-111000000D03*
D16*
X137660000Y-148800000D03*
D17*
X140200000Y-148800000D03*
D16*
X140540000Y-120800000D03*
D17*
X138000000Y-120800000D03*
D16*
X140540000Y-117000000D03*
D17*
X138000000Y-117000000D03*
D18*
X179800000Y-149800000D03*
X182500000Y-149800000D03*
X172500000Y-145400000D03*
X169800000Y-145400000D03*
D19*
X147400000Y-139100000D03*
X147400000Y-136400000D03*
X176000000Y-141700000D03*
X176000000Y-139000000D03*
D16*
X191400000Y-155460000D03*
D17*
X191400000Y-158000000D03*
X191400000Y-160540000D03*
D20*
X196600000Y-107720000D03*
X196600000Y-116280000D03*
X191200000Y-107720000D03*
X191200000Y-116280000D03*
X191800000Y-127840000D03*
X191800000Y-136400000D03*
X191800000Y-141120000D03*
X191800000Y-149680000D03*
D21*
X168350000Y-141175000D03*
X168350000Y-140525000D03*
X168350000Y-139875000D03*
X168350000Y-139225000D03*
X162450000Y-139225000D03*
X162450000Y-139875000D03*
X162450000Y-140525000D03*
X162450000Y-141175000D03*
D22*
X173350000Y-133750000D03*
X173350000Y-133250000D03*
X173350000Y-132750000D03*
X173350000Y-132250000D03*
X173350000Y-131750000D03*
X173350000Y-131250000D03*
X173350000Y-130750000D03*
X173350000Y-130250000D03*
X173350000Y-129750000D03*
X173350000Y-129250000D03*
X173350000Y-128750000D03*
X173350000Y-128250000D03*
D23*
X171750000Y-126650000D03*
X171250000Y-126650000D03*
X170750000Y-126650000D03*
X170250000Y-126650000D03*
X169750000Y-126650000D03*
X169250000Y-126650000D03*
X168750000Y-126650000D03*
X168250000Y-126650000D03*
X167750000Y-126650000D03*
X167250000Y-126650000D03*
X166750000Y-126650000D03*
X166250000Y-126650000D03*
D22*
X164650000Y-128250000D03*
X164650000Y-128750000D03*
X164650000Y-129250000D03*
X164650000Y-129750000D03*
X164650000Y-130250000D03*
X164650000Y-130750000D03*
X164650000Y-131250000D03*
X164650000Y-131750000D03*
X164650000Y-132250000D03*
X164650000Y-132750000D03*
X164650000Y-133250000D03*
X164650000Y-133750000D03*
D23*
X166250000Y-135350000D03*
X166750000Y-135350000D03*
X167250000Y-135350000D03*
X167750000Y-135350000D03*
X168250000Y-135350000D03*
X168750000Y-135350000D03*
X169250000Y-135350000D03*
X169750000Y-135350000D03*
X170250000Y-135350000D03*
X170750000Y-135350000D03*
X171250000Y-135350000D03*
X171750000Y-135350000D03*
D18*
X166900000Y-148200000D03*
X164200000Y-148200000D03*
X166900000Y-145600000D03*
X164200000Y-145600000D03*
D24*
X186600000Y-118370000D03*
X186600000Y-120910000D03*
X186600000Y-123450000D03*
X186600000Y-125990000D03*
X186600000Y-128530000D03*
X186600000Y-131070000D03*
X186600000Y-133610000D03*
X186600000Y-136150000D03*
D25*
X186600000Y-107702000D03*
X186600000Y-149358000D03*
X146976000Y-149358000D03*
X146976000Y-107702000D03*
D26*
X183050000Y-132800000D03*
X161000000Y-138200000D03*
X167400000Y-143750000D03*
X171400000Y-148300000D03*
X170591650Y-140307752D03*
X170574990Y-133800000D03*
X168739845Y-123739846D03*
X164800000Y-123400000D03*
X150000000Y-138000000D03*
X168800000Y-128200000D03*
X169800000Y-138200000D03*
X169339844Y-123139847D03*
X172800000Y-121200000D03*
X163200000Y-131600000D03*
X186000000Y-110800000D03*
X162800000Y-132400000D03*
X188400000Y-115800000D03*
X166200000Y-136925011D03*
X193800000Y-138400000D03*
X167200000Y-136600000D03*
X187200000Y-143800000D03*
D27*
X183900000Y-159000000D02*
X190400000Y-159000000D01*
X190400000Y-159000000D02*
X191400000Y-158000000D01*
D28*
X139200000Y-156878680D02*
X136359999Y-154038679D01*
X136359999Y-154038679D02*
X136359999Y-137840001D01*
X136359999Y-137840001D02*
X137150001Y-137049999D01*
X137150001Y-137049999D02*
X138000000Y-136200000D01*
D27*
X137800000Y-111000000D02*
X137800000Y-112650000D01*
X137800000Y-112650000D02*
X136549999Y-113900001D01*
X136549999Y-113900001D02*
X136549999Y-132209999D01*
X136549999Y-132209999D02*
X137150001Y-132810001D01*
X137150001Y-132810001D02*
X138000000Y-133660000D01*
X137800000Y-111000000D02*
X140340000Y-111000000D01*
X139200000Y-98200000D02*
X139200000Y-109600000D01*
X139200000Y-109600000D02*
X137800000Y-111000000D01*
X139200000Y-159000000D02*
X139200000Y-156878680D01*
X138000000Y-136340000D02*
X142140000Y-136340000D01*
X142140000Y-136340000D02*
X142200000Y-136280000D01*
X138000000Y-133800000D02*
X138000000Y-136340000D01*
X142200000Y-133740000D02*
X138060000Y-133740000D01*
X138060000Y-133740000D02*
X138000000Y-133800000D01*
X142200000Y-136280000D02*
X142200000Y-133740000D01*
X186600000Y-139325000D02*
X186525000Y-139400000D01*
X186525000Y-139400000D02*
X176125000Y-149800000D01*
X194250000Y-159836002D02*
X194250000Y-148799998D01*
X194250000Y-148799998D02*
X186525000Y-141074998D01*
X186525000Y-141074998D02*
X186525000Y-139400000D01*
X169800000Y-150900000D02*
X169800000Y-151025000D01*
X169800000Y-151025000D02*
X180765001Y-161990001D01*
X180765001Y-161990001D02*
X192096001Y-161990001D01*
X192096001Y-161990001D02*
X194250000Y-159836002D01*
D29*
X162450000Y-139225000D02*
X162025000Y-139225000D01*
X162025000Y-139225000D02*
X161000000Y-138200000D01*
X169750000Y-135350000D02*
X169750000Y-134450000D01*
X169750000Y-134450000D02*
X166750000Y-131450000D01*
X166750000Y-131450000D02*
X166750000Y-127550000D01*
X166750000Y-127550000D02*
X166750000Y-126650000D01*
X167600000Y-123275000D02*
X168600000Y-122275000D01*
X168600000Y-122275000D02*
X168600000Y-121400000D01*
X167600000Y-123525003D02*
X167600000Y-123275000D01*
X168250000Y-124175003D02*
X167600000Y-123525003D01*
X168250000Y-126650000D02*
X168250000Y-124175003D01*
X172353587Y-130250000D02*
X171250000Y-131353587D01*
X173350000Y-130250000D02*
X172353587Y-130250000D01*
X171250000Y-131353587D02*
X171250000Y-134450000D01*
X171250000Y-134450000D02*
X171250000Y-135350000D01*
D27*
X159600000Y-133150000D02*
X158175000Y-133150000D01*
X158175000Y-133150000D02*
X146325000Y-145000000D01*
X146325000Y-145000000D02*
X141850000Y-145000000D01*
X141850000Y-145000000D02*
X140200000Y-145000000D01*
X140200000Y-148800000D02*
X142438001Y-151038001D01*
X142438001Y-151038001D02*
X168236999Y-151038001D01*
X168236999Y-151038001D02*
X168375000Y-150900000D01*
X168375000Y-150900000D02*
X169800000Y-150900000D01*
D29*
X166750000Y-126650000D02*
X166750000Y-125750000D01*
X166750000Y-125750000D02*
X166825001Y-125674999D01*
X166825001Y-125674999D02*
X168174999Y-125674999D01*
X168174999Y-125674999D02*
X168250000Y-125750000D01*
X168250000Y-125750000D02*
X168250000Y-126650000D01*
D27*
X168600000Y-121400000D02*
X168600000Y-119975000D01*
X168600000Y-119975000D02*
X166578680Y-117953680D01*
X166578680Y-117953680D02*
X166578680Y-113400000D01*
D29*
X169750000Y-135350000D02*
X169750000Y-136250000D01*
X169750000Y-136250000D02*
X169825001Y-136325001D01*
X169825001Y-136325001D02*
X171174999Y-136325001D01*
X171174999Y-136325001D02*
X171250000Y-136250000D01*
X171250000Y-136250000D02*
X171250000Y-135350000D01*
X172000000Y-139200000D02*
X172000000Y-138200000D01*
X172000000Y-138200000D02*
X171250000Y-137450000D01*
X171250000Y-137450000D02*
X171250000Y-136250000D01*
X162450000Y-139875000D02*
X162450000Y-139225000D01*
D27*
X186600000Y-136180000D02*
X186600000Y-139325000D01*
X176125000Y-149800000D02*
X176000000Y-149800000D01*
X166578680Y-113400000D02*
X140397919Y-113400000D01*
X140397919Y-113400000D02*
X138000000Y-115797919D01*
X138000000Y-115797919D02*
X138000000Y-117000000D01*
X183900000Y-98200000D02*
X181778680Y-98200000D01*
X181778680Y-98200000D02*
X166578680Y-113400000D01*
X140200000Y-145000000D02*
X140200000Y-148800000D01*
D29*
X164650000Y-133250000D02*
X159700000Y-133250000D01*
X159700000Y-133250000D02*
X159600000Y-133150000D01*
D27*
X137800000Y-117000000D02*
X137800000Y-120740000D01*
X137800000Y-120740000D02*
X137860000Y-120800000D01*
D29*
X173350000Y-131250000D02*
X177270000Y-131250000D01*
X177270000Y-131250000D02*
X179600000Y-128920000D01*
X173350000Y-131750000D02*
X177550000Y-131750000D01*
X177550000Y-131750000D02*
X179600000Y-133800000D01*
D27*
X166900000Y-148200000D02*
X166800000Y-148200000D01*
X166800000Y-148200000D02*
X165549999Y-149450001D01*
X165549999Y-149450001D02*
X162969999Y-149450001D01*
X162969999Y-149450001D02*
X159600000Y-146080002D01*
X159600000Y-146080002D02*
X159600000Y-137200000D01*
X159600000Y-137200000D02*
X159600000Y-135650000D01*
X172500000Y-145400000D02*
X172500000Y-146600000D01*
X172500000Y-146600000D02*
X172500000Y-148800000D01*
X166900000Y-145600000D02*
X167000000Y-145600000D01*
X167000000Y-145600000D02*
X168050001Y-146650001D01*
X168050001Y-146650001D02*
X172449999Y-146650001D01*
X172449999Y-146650001D02*
X172500000Y-146600000D01*
X186600000Y-131100000D02*
X186600000Y-133640000D01*
D29*
X166250000Y-126650000D02*
X166250000Y-121550000D01*
X166250000Y-121550000D02*
X166100000Y-121400000D01*
D27*
X172000000Y-141700000D02*
X172000000Y-144900000D01*
X172000000Y-144900000D02*
X172500000Y-145400000D01*
X172500000Y-148800000D02*
X173500000Y-149800000D01*
D29*
X171750000Y-135350000D02*
X171750000Y-136250000D01*
X171750000Y-136250000D02*
X172950001Y-137450001D01*
X172950001Y-137450001D02*
X172950001Y-140624999D01*
X172950001Y-140624999D02*
X172000000Y-141575000D01*
X172000000Y-141575000D02*
X172000000Y-141700000D01*
D27*
X172000000Y-141700000D02*
X176000000Y-141700000D01*
X176000000Y-141700000D02*
X178540000Y-141700000D01*
X178540000Y-141700000D02*
X184800000Y-135440000D01*
X184800000Y-135440000D02*
X184800000Y-135302000D01*
X184800000Y-135302000D02*
X186462000Y-133640000D01*
X186462000Y-133640000D02*
X186600000Y-133640000D01*
X172000000Y-141700000D02*
X172000000Y-143200000D01*
D29*
X168350000Y-141175000D02*
X171475000Y-141175000D01*
X171475000Y-141175000D02*
X172000000Y-141700000D01*
D27*
X166900000Y-145600000D02*
X166900000Y-148200000D01*
X173500000Y-149800000D02*
X173500000Y-149500000D01*
X179800000Y-149800000D02*
X178250000Y-149800000D01*
X178250000Y-149800000D02*
X176825000Y-151225000D01*
X176825000Y-151225000D02*
X175050000Y-151225000D01*
X175050000Y-151225000D02*
X173625000Y-149800000D01*
X173625000Y-149800000D02*
X173500000Y-149800000D01*
X196600000Y-107720000D02*
X191200000Y-107720000D01*
X191800000Y-127840000D02*
X191800000Y-125790000D01*
X191800000Y-125790000D02*
X198200001Y-119389999D01*
X198200001Y-119389999D02*
X198200001Y-111370001D01*
X196600000Y-109770000D02*
X196600000Y-107720000D01*
X198200001Y-111370001D02*
X196600000Y-109770000D01*
X186600000Y-131100000D02*
X188540000Y-131100000D01*
X188540000Y-131100000D02*
X191800000Y-127840000D01*
X191800000Y-141120000D02*
X191800000Y-140870000D01*
X191800000Y-140870000D02*
X188400000Y-137470000D01*
X188400000Y-137470000D02*
X188400000Y-135302000D01*
X188400000Y-135302000D02*
X186738000Y-133640000D01*
X186738000Y-133640000D02*
X186600000Y-133640000D01*
D29*
X164650000Y-133750000D02*
X161375000Y-133750000D01*
X161375000Y-133750000D02*
X159600000Y-135525000D01*
X159600000Y-135525000D02*
X159600000Y-135650000D01*
X166250000Y-126650000D02*
X166250000Y-133050000D01*
X166250000Y-133050000D02*
X165550000Y-133750000D01*
X165550000Y-133750000D02*
X164650000Y-133750000D01*
D27*
X167400000Y-143750000D02*
X168150000Y-143750000D01*
X168150000Y-143750000D02*
X169800000Y-145400000D01*
X169800000Y-148400000D02*
X171300000Y-148400000D01*
X171300000Y-148400000D02*
X171400000Y-148300000D01*
D29*
X170374402Y-140525000D02*
X170591650Y-140307752D01*
X168350000Y-140525000D02*
X170374402Y-140525000D01*
X170574990Y-131392186D02*
X170574990Y-133375736D01*
X170574990Y-133375736D02*
X170574990Y-133800000D01*
X173350000Y-129750000D02*
X172217176Y-129750000D01*
X172217176Y-129750000D02*
X170574990Y-131392186D01*
X168350000Y-140525000D02*
X167375000Y-140525000D01*
X167375000Y-140525000D02*
X167299999Y-140600001D01*
X167299999Y-141999999D02*
X169800000Y-144500000D01*
X167299999Y-140600001D02*
X167299999Y-141999999D01*
X169800000Y-144500000D02*
X169800000Y-145400000D01*
X180100000Y-123600000D02*
X184068314Y-127568314D01*
X184068314Y-127568314D02*
X184068314Y-127844999D01*
X177625000Y-123600000D02*
X180100000Y-123600000D01*
X173350000Y-128250000D02*
X173350000Y-127875000D01*
X173350000Y-127875000D02*
X177625000Y-123600000D01*
X187229675Y-129747010D02*
X187925010Y-129051675D01*
X184068314Y-127844999D02*
X185970325Y-129747010D01*
X187925010Y-129051675D02*
X187925010Y-125331400D01*
X185970325Y-129747010D02*
X187229675Y-129747010D01*
X187925010Y-125331400D02*
X188375021Y-124881390D01*
X188375021Y-124881390D02*
X188375021Y-120037021D01*
X186738000Y-118400000D02*
X186600000Y-118400000D01*
X188375021Y-120037021D02*
X186738000Y-118400000D01*
X171250000Y-126650000D02*
X171250000Y-125750000D01*
X185350000Y-120940000D02*
X186600000Y-120940000D01*
X176060000Y-120940000D02*
X185350000Y-120940000D01*
X171250000Y-125750000D02*
X176060000Y-120940000D01*
X175525000Y-122350000D02*
X184250000Y-122350000D01*
X184250000Y-122350000D02*
X185350000Y-123450000D01*
X185350000Y-123450000D02*
X186600000Y-123450000D01*
X171750000Y-126650000D02*
X171750000Y-126125000D01*
X171750000Y-126125000D02*
X175525000Y-122350000D01*
X187925010Y-124694990D02*
X186600000Y-126020000D01*
X170250000Y-126650000D02*
X170250000Y-125750000D01*
X176247010Y-119752990D02*
X187229675Y-119752990D01*
X170250000Y-125750000D02*
X176247010Y-119752990D01*
X187229675Y-119752990D02*
X187925010Y-120448325D01*
X187925010Y-120448325D02*
X187925010Y-124694990D01*
X170750000Y-126650000D02*
X170750000Y-127550000D01*
X170750000Y-127550000D02*
X170825001Y-127625001D01*
X170825001Y-127625001D02*
X172135001Y-127625001D01*
X172135001Y-127625001D02*
X176810002Y-122950000D01*
X176810002Y-122950000D02*
X180882000Y-122950000D01*
X180882000Y-122950000D02*
X186462000Y-128530000D01*
X186462000Y-128530000D02*
X186600000Y-128530000D01*
X186462000Y-128560000D02*
X185296988Y-127394988D01*
X186600000Y-128560000D02*
X186462000Y-128560000D01*
X169039844Y-124039845D02*
X168739845Y-123739846D01*
X169250000Y-126650000D02*
X169250000Y-124250001D01*
X169250000Y-124250001D02*
X169039844Y-124039845D01*
X161300000Y-123400000D02*
X164800000Y-123400000D01*
X147400000Y-136400000D02*
X148300000Y-136400000D01*
X148300000Y-136400000D02*
X161300000Y-123400000D01*
D27*
X142200000Y-131120000D02*
X142200000Y-131200000D01*
X142200000Y-131200000D02*
X147400000Y-136400000D01*
X142200000Y-128580000D02*
X142200000Y-131120000D01*
X138000000Y-128580000D02*
X142200000Y-128580000D01*
X138000000Y-131120000D02*
X138000000Y-128580000D01*
X142200000Y-131120000D02*
X138000000Y-131120000D01*
D29*
X168750000Y-126650000D02*
X168750000Y-128150000D01*
X168750000Y-128150000D02*
X168800000Y-128200000D01*
X150000000Y-138000000D02*
X148900000Y-139100000D01*
X148900000Y-139100000D02*
X147400000Y-139100000D01*
X168350000Y-139875000D02*
X169325000Y-139875000D01*
X169325000Y-139875000D02*
X169800000Y-139400000D01*
X169800000Y-139400000D02*
X169800000Y-138200000D01*
D27*
X137660000Y-145000000D02*
X138509999Y-144150001D01*
X138509999Y-144150001D02*
X138509999Y-143909999D01*
X138509999Y-143909999D02*
X143319998Y-139100000D01*
X143319998Y-139100000D02*
X145950000Y-139100000D01*
X145950000Y-139100000D02*
X147400000Y-139100000D01*
X137660000Y-148800000D02*
X137660000Y-145000000D01*
D29*
X169750000Y-126650000D02*
X169750000Y-123550003D01*
X169750000Y-123550003D02*
X169639843Y-123439846D01*
X169639843Y-123439846D02*
X169339844Y-123139847D01*
D27*
X140400000Y-120800000D02*
X140400000Y-117060000D01*
X140400000Y-117060000D02*
X140340000Y-117000000D01*
D29*
X171700011Y-133460013D02*
X176000000Y-137760002D01*
X176000000Y-138000000D02*
X176000000Y-139000000D01*
X173350000Y-130750000D02*
X172489997Y-130750000D01*
X172489997Y-130750000D02*
X171700011Y-131539986D01*
X176000000Y-137760002D02*
X176000000Y-138000000D01*
X171700011Y-131539986D02*
X171700011Y-133460013D01*
X164650000Y-132250000D02*
X163850000Y-132250000D01*
X163850000Y-132250000D02*
X163200000Y-131600000D01*
X183200000Y-110800000D02*
X172800000Y-121200000D01*
X186000000Y-110800000D02*
X183200000Y-110800000D01*
D27*
X196600000Y-116280000D02*
X194800000Y-116280000D01*
X189320000Y-110800000D02*
X186000000Y-110800000D01*
X194800000Y-116280000D02*
X189320000Y-110800000D01*
D29*
X162800000Y-132400000D02*
X163150000Y-132750000D01*
X163150000Y-132750000D02*
X164650000Y-132750000D01*
D27*
X191200000Y-116280000D02*
X188880000Y-116280000D01*
X188880000Y-116280000D02*
X188400000Y-115800000D01*
D29*
X166250000Y-136875011D02*
X166200000Y-136925011D01*
X166250000Y-135350000D02*
X166250000Y-136875011D01*
D27*
X191800000Y-136400000D02*
X193800000Y-138400000D01*
D29*
X166750000Y-135350000D02*
X166750000Y-136150000D01*
X166750000Y-136150000D02*
X167200000Y-136600000D01*
D27*
X191800000Y-149680000D02*
X191800000Y-148400000D01*
X191800000Y-148400000D02*
X187200000Y-143800000D01*
D29*
X169250000Y-135350000D02*
X169250000Y-136789998D01*
X169250000Y-136789998D02*
X165275001Y-140764997D01*
X165275001Y-140764997D02*
X165275001Y-147224999D01*
X165275001Y-147224999D02*
X164300000Y-148200000D01*
X164300000Y-148200000D02*
X164200000Y-148200000D01*
X162450000Y-141175000D02*
X160625000Y-141175000D01*
X160400000Y-141400000D02*
X160400000Y-144500000D01*
X164100000Y-148200000D02*
X164200000Y-148200000D01*
X160400000Y-144500000D02*
X164100000Y-148200000D01*
X160625000Y-141175000D02*
X160400000Y-141400000D01*
X168750000Y-135350000D02*
X168750000Y-136250000D01*
X168750000Y-136250000D02*
X164475000Y-140525000D01*
X164475000Y-140525000D02*
X163425000Y-140525000D01*
X163425000Y-140525000D02*
X162450000Y-140525000D01*
X164200000Y-145600000D02*
X164200000Y-141300000D01*
X164200000Y-141300000D02*
X163425000Y-140525000D01*
D27*
X191400000Y-160540000D02*
X192850001Y-159089999D01*
X192850001Y-159089999D02*
X192850001Y-154129999D01*
X192850001Y-154129999D02*
X189758003Y-151038001D01*
X189758003Y-151038001D02*
X185288001Y-151038001D01*
X185288001Y-151038001D02*
X184050000Y-149800000D01*
X184050000Y-149800000D02*
X182500000Y-149800000D01*
D30*
G36*
X198890000Y-111143768D02*
X198879052Y-111088729D01*
X198804253Y-110976784D01*
X198719724Y-110850277D01*
X197335000Y-109465554D01*
X197335000Y-109311563D01*
X197600000Y-109311563D01*
X197724144Y-109288204D01*
X197838162Y-109214835D01*
X197914653Y-109102887D01*
X197941563Y-108970000D01*
X197941563Y-106470000D01*
X197918204Y-106345856D01*
X197844835Y-106231838D01*
X197732887Y-106155347D01*
X197600000Y-106128437D01*
X195600000Y-106128437D01*
X195475856Y-106151796D01*
X195361838Y-106225165D01*
X195285347Y-106337113D01*
X195258437Y-106470000D01*
X195258437Y-106985000D01*
X192541563Y-106985000D01*
X192541563Y-106470000D01*
X192518204Y-106345856D01*
X192444835Y-106231838D01*
X192332887Y-106155347D01*
X192200000Y-106128437D01*
X190200000Y-106128437D01*
X190075856Y-106151796D01*
X189961838Y-106225165D01*
X189885347Y-106337113D01*
X189858437Y-106470000D01*
X189858437Y-108970000D01*
X189881796Y-109094144D01*
X189955165Y-109208162D01*
X190067113Y-109284653D01*
X190200000Y-109311563D01*
X192200000Y-109311563D01*
X192324144Y-109288204D01*
X192438162Y-109214835D01*
X192514653Y-109102887D01*
X192541563Y-108970000D01*
X192541563Y-108455000D01*
X195258437Y-108455000D01*
X195258437Y-108970000D01*
X195281796Y-109094144D01*
X195355165Y-109208162D01*
X195467113Y-109284653D01*
X195600000Y-109311563D01*
X195865000Y-109311563D01*
X195865000Y-109770000D01*
X195893214Y-109911838D01*
X195920949Y-110051272D01*
X196080277Y-110289723D01*
X197465001Y-111674448D01*
X197465001Y-114688437D01*
X195600000Y-114688437D01*
X195475856Y-114711796D01*
X195361838Y-114785165D01*
X195285347Y-114897113D01*
X195258437Y-115030000D01*
X195258437Y-115545000D01*
X195104447Y-115545000D01*
X189839723Y-110280277D01*
X189601272Y-110120949D01*
X189320000Y-110065000D01*
X186000000Y-110065000D01*
X185718728Y-110120949D01*
X185480277Y-110280277D01*
X185440371Y-110340000D01*
X183200000Y-110340000D01*
X183023965Y-110375015D01*
X182874731Y-110474731D01*
X172784476Y-120564986D01*
X172674245Y-120564890D01*
X172440772Y-120661360D01*
X172261987Y-120839832D01*
X172165111Y-121073137D01*
X172164890Y-121325755D01*
X172261360Y-121559228D01*
X172439832Y-121738013D01*
X172673137Y-121834889D01*
X172925755Y-121835110D01*
X173159228Y-121738640D01*
X173338013Y-121560168D01*
X173434889Y-121326863D01*
X173434986Y-121215552D01*
X183390538Y-111260000D01*
X185440371Y-111260000D01*
X185480277Y-111319723D01*
X185718728Y-111479051D01*
X186000000Y-111535000D01*
X189015554Y-111535000D01*
X192168990Y-114688437D01*
X190200000Y-114688437D01*
X190075856Y-114711796D01*
X189961838Y-114785165D01*
X189885347Y-114897113D01*
X189858437Y-115030000D01*
X189858437Y-115545000D01*
X189184447Y-115545000D01*
X188919723Y-115280277D01*
X188681272Y-115120949D01*
X188400000Y-115065001D01*
X188118728Y-115120949D01*
X187880277Y-115280277D01*
X187720949Y-115518728D01*
X187665001Y-115800000D01*
X187720949Y-116081272D01*
X187880277Y-116319723D01*
X188360277Y-116799724D01*
X188598728Y-116959051D01*
X188880000Y-117015000D01*
X189858437Y-117015000D01*
X189858437Y-117530000D01*
X189881796Y-117654144D01*
X189955165Y-117768162D01*
X190067113Y-117844653D01*
X190200000Y-117871563D01*
X192200000Y-117871563D01*
X192324144Y-117848204D01*
X192438162Y-117774835D01*
X192514653Y-117662887D01*
X192541563Y-117530000D01*
X192541563Y-115061010D01*
X194280276Y-116799723D01*
X194518728Y-116959051D01*
X194800000Y-117015000D01*
X195258437Y-117015000D01*
X195258437Y-117530000D01*
X195281796Y-117654144D01*
X195355165Y-117768162D01*
X195467113Y-117844653D01*
X195600000Y-117871563D01*
X197465001Y-117871563D01*
X197465001Y-119085552D01*
X191280277Y-125270277D01*
X191120949Y-125508728D01*
X191065000Y-125790000D01*
X191065000Y-126248437D01*
X190800000Y-126248437D01*
X190675856Y-126271796D01*
X190561838Y-126345165D01*
X190485347Y-126457113D01*
X190458437Y-126590000D01*
X190458437Y-128142116D01*
X188235554Y-130365000D01*
X187705046Y-130365000D01*
X187610561Y-130223593D01*
X187469524Y-130129355D01*
X187554944Y-130072279D01*
X188250279Y-129376944D01*
X188294778Y-129310347D01*
X188349995Y-129227709D01*
X188385010Y-129051675D01*
X188385010Y-125521938D01*
X188700290Y-125206659D01*
X188734814Y-125154990D01*
X188800006Y-125057424D01*
X188835021Y-124881390D01*
X188835021Y-120037021D01*
X188800006Y-119860987D01*
X188700290Y-119711752D01*
X187848638Y-118860100D01*
X187870038Y-118828072D01*
X187961154Y-118370000D01*
X187870038Y-117911928D01*
X187610561Y-117523593D01*
X187222226Y-117264116D01*
X186764154Y-117173000D01*
X186435846Y-117173000D01*
X185977774Y-117264116D01*
X185589439Y-117523593D01*
X185329962Y-117911928D01*
X185238846Y-118370000D01*
X185329962Y-118828072D01*
X185589439Y-119216407D01*
X185704054Y-119292990D01*
X176247010Y-119292990D01*
X176070975Y-119328005D01*
X175921741Y-119427721D01*
X170210000Y-125139462D01*
X170210000Y-123550003D01*
X170184930Y-123423965D01*
X170174985Y-123373968D01*
X170075269Y-123224734D01*
X169974858Y-123124323D01*
X169974954Y-123014092D01*
X169878484Y-122780619D01*
X169700012Y-122601834D01*
X169466707Y-122504958D01*
X169214089Y-122504737D01*
X168980616Y-122601207D01*
X168801831Y-122779679D01*
X168704955Y-123012984D01*
X168704875Y-123104815D01*
X168614090Y-123104736D01*
X168380617Y-123201206D01*
X168201832Y-123379678D01*
X168104956Y-123612983D01*
X168104735Y-123865601D01*
X168201205Y-124099074D01*
X168379677Y-124277859D01*
X168612982Y-124374735D01*
X168724293Y-124374832D01*
X168790000Y-124440539D01*
X168790000Y-125658437D01*
X168625000Y-125658437D01*
X168500856Y-125681796D01*
X168493544Y-125686501D01*
X168441635Y-125665000D01*
X168396250Y-125665000D01*
X168312500Y-125748750D01*
X168312500Y-125863962D01*
X168310347Y-125867113D01*
X168283437Y-126000000D01*
X168283437Y-127300000D01*
X168290000Y-127334880D01*
X168290000Y-127811868D01*
X168261987Y-127839832D01*
X168165111Y-128073137D01*
X168164890Y-128325755D01*
X168261360Y-128559228D01*
X168439832Y-128738013D01*
X168673137Y-128834889D01*
X168925755Y-128835110D01*
X169159228Y-128738640D01*
X169338013Y-128560168D01*
X169434889Y-128326863D01*
X169435110Y-128074245D01*
X169338640Y-127840772D01*
X169210000Y-127711906D01*
X169210000Y-127641563D01*
X169375000Y-127641563D01*
X169499144Y-127618204D01*
X169501658Y-127616586D01*
X169625000Y-127641563D01*
X169875000Y-127641563D01*
X169999144Y-127618204D01*
X170001658Y-127616586D01*
X170125000Y-127641563D01*
X170308213Y-127641563D01*
X170325015Y-127726035D01*
X170424731Y-127875269D01*
X170499732Y-127950270D01*
X170648967Y-128049986D01*
X170825001Y-128085001D01*
X172135001Y-128085001D01*
X172311036Y-128049986D01*
X172383422Y-128001619D01*
X172358437Y-128125000D01*
X172358437Y-128375000D01*
X172381796Y-128499144D01*
X172383414Y-128501658D01*
X172358437Y-128625000D01*
X172358437Y-128875000D01*
X172381796Y-128999144D01*
X172383414Y-129001658D01*
X172358437Y-129125000D01*
X172358437Y-129290000D01*
X172217176Y-129290000D01*
X172041141Y-129325015D01*
X171891907Y-129424731D01*
X170249721Y-131066917D01*
X170150005Y-131216151D01*
X170150005Y-131216152D01*
X170114990Y-131392186D01*
X170114990Y-133361956D01*
X170036977Y-133439832D01*
X169940101Y-133673137D01*
X169939880Y-133925755D01*
X170036350Y-134159228D01*
X170214822Y-134338013D01*
X170264009Y-134358437D01*
X170125000Y-134358437D01*
X170000856Y-134381796D01*
X169993544Y-134386501D01*
X169941635Y-134365000D01*
X169896250Y-134365000D01*
X169812500Y-134448750D01*
X169812500Y-134563962D01*
X169810347Y-134567113D01*
X169783437Y-134700000D01*
X169783437Y-136000000D01*
X169806796Y-136124144D01*
X169812500Y-136133008D01*
X169812500Y-136251250D01*
X169896250Y-136335000D01*
X169941635Y-136335000D01*
X169991602Y-136314304D01*
X169992113Y-136314653D01*
X170125000Y-136341563D01*
X170375000Y-136341563D01*
X170499144Y-136318204D01*
X170501658Y-136316586D01*
X170625000Y-136341563D01*
X170875000Y-136341563D01*
X170999144Y-136318204D01*
X171006456Y-136313499D01*
X171058365Y-136335000D01*
X171103750Y-136335000D01*
X171187500Y-136251250D01*
X171187500Y-136136038D01*
X171189653Y-136132887D01*
X171216563Y-136000000D01*
X171216563Y-134700000D01*
X171193204Y-134575856D01*
X171187500Y-134566992D01*
X171187500Y-134448750D01*
X171103750Y-134365000D01*
X171058365Y-134365000D01*
X171008398Y-134385696D01*
X171007887Y-134385347D01*
X170882588Y-134359973D01*
X170934218Y-134338640D01*
X171113003Y-134160168D01*
X171209879Y-133926863D01*
X171210100Y-133674245D01*
X171113630Y-133440772D01*
X171034990Y-133361994D01*
X171034990Y-131582724D01*
X171317844Y-131299870D01*
X171275026Y-131363951D01*
X171252937Y-131475000D01*
X171240011Y-131539986D01*
X171240011Y-133460013D01*
X171275026Y-133636048D01*
X171374742Y-133785282D01*
X171966407Y-134376947D01*
X171875000Y-134358437D01*
X171625000Y-134358437D01*
X171500856Y-134381796D01*
X171493544Y-134386501D01*
X171441635Y-134365000D01*
X171396250Y-134365000D01*
X171312500Y-134448750D01*
X171312500Y-134563962D01*
X171310347Y-134567113D01*
X171283437Y-134700000D01*
X171283437Y-136000000D01*
X171290000Y-136034880D01*
X171290000Y-136250000D01*
X171325015Y-136426035D01*
X171424731Y-136575269D01*
X172490001Y-137640539D01*
X172490001Y-138115000D01*
X172210750Y-138115000D01*
X172127000Y-138198750D01*
X172127000Y-139073000D01*
X172147000Y-139073000D01*
X172147000Y-139327000D01*
X172127000Y-139327000D01*
X172127000Y-140201250D01*
X172210750Y-140285000D01*
X172490001Y-140285000D01*
X172490001Y-140434461D01*
X172316025Y-140608437D01*
X171375000Y-140608437D01*
X171250856Y-140631796D01*
X171136838Y-140705165D01*
X171130118Y-140715000D01*
X171082500Y-140715000D01*
X171129663Y-140667920D01*
X171226539Y-140434615D01*
X171226699Y-140251174D01*
X171308365Y-140285000D01*
X171789250Y-140285000D01*
X171873000Y-140201250D01*
X171873000Y-139327000D01*
X171123750Y-139327000D01*
X171040000Y-139410750D01*
X171040000Y-139858076D01*
X170951818Y-139769739D01*
X170718513Y-139672863D01*
X170465895Y-139672642D01*
X170232422Y-139769112D01*
X170053637Y-139947584D01*
X170004882Y-140065000D01*
X169785538Y-140065000D01*
X170125269Y-139725269D01*
X170187698Y-139631838D01*
X170224985Y-139576034D01*
X170260000Y-139400000D01*
X170260000Y-138638044D01*
X170338013Y-138560168D01*
X170411427Y-138383364D01*
X171040000Y-138383364D01*
X171040000Y-138989250D01*
X171123750Y-139073000D01*
X171873000Y-139073000D01*
X171873000Y-138198750D01*
X171789250Y-138115000D01*
X171308365Y-138115000D01*
X171185238Y-138166000D01*
X171091001Y-138260237D01*
X171040000Y-138383364D01*
X170411427Y-138383364D01*
X170434889Y-138326863D01*
X170435110Y-138074245D01*
X170338640Y-137840772D01*
X170160168Y-137661987D01*
X169926863Y-137565111D01*
X169674245Y-137564890D01*
X169440772Y-137661360D01*
X169261987Y-137839832D01*
X169165111Y-138073137D01*
X169164890Y-138325755D01*
X169261360Y-138559228D01*
X169340000Y-138638006D01*
X169340000Y-138793175D01*
X169319835Y-138761838D01*
X169207887Y-138685347D01*
X169075000Y-138658437D01*
X168032099Y-138658437D01*
X169575269Y-137115267D01*
X169635594Y-137024985D01*
X169674985Y-136966032D01*
X169710000Y-136789998D01*
X169710000Y-136032409D01*
X169716563Y-136000000D01*
X169716563Y-134700000D01*
X169693204Y-134575856D01*
X169687500Y-134566992D01*
X169687500Y-134448750D01*
X169603750Y-134365000D01*
X169558365Y-134365000D01*
X169508398Y-134385696D01*
X169507887Y-134385347D01*
X169375000Y-134358437D01*
X169125000Y-134358437D01*
X169000856Y-134381796D01*
X168998342Y-134383414D01*
X168875000Y-134358437D01*
X168625000Y-134358437D01*
X168500856Y-134381796D01*
X168498342Y-134383414D01*
X168375000Y-134358437D01*
X168125000Y-134358437D01*
X168000856Y-134381796D01*
X167998342Y-134383414D01*
X167875000Y-134358437D01*
X167625000Y-134358437D01*
X167500856Y-134381796D01*
X167498342Y-134383414D01*
X167375000Y-134358437D01*
X167125000Y-134358437D01*
X167000856Y-134381796D01*
X166998342Y-134383414D01*
X166875000Y-134358437D01*
X166625000Y-134358437D01*
X166500856Y-134381796D01*
X166498342Y-134383414D01*
X166375000Y-134358437D01*
X166125000Y-134358437D01*
X166000856Y-134381796D01*
X165886838Y-134455165D01*
X165810347Y-134567113D01*
X165783437Y-134700000D01*
X165783437Y-136000000D01*
X165790000Y-136034880D01*
X165790000Y-136437054D01*
X165661987Y-136564843D01*
X165565111Y-136798148D01*
X165564890Y-137050766D01*
X165661360Y-137284239D01*
X165839832Y-137463024D01*
X166073137Y-137559900D01*
X166325755Y-137560121D01*
X166559228Y-137463651D01*
X166738013Y-137285179D01*
X166811081Y-137109211D01*
X166839832Y-137138013D01*
X167073137Y-137234889D01*
X167114537Y-137234925D01*
X164284462Y-140065000D01*
X163503750Y-140065000D01*
X163426250Y-139987500D01*
X163311038Y-139987500D01*
X163307887Y-139985347D01*
X163175000Y-139958437D01*
X161725000Y-139958437D01*
X161600856Y-139981796D01*
X161591992Y-139987500D01*
X161473750Y-139987500D01*
X161390000Y-140071250D01*
X161390000Y-140166635D01*
X161403731Y-140199785D01*
X161383437Y-140300000D01*
X161383437Y-140715000D01*
X160625000Y-140715000D01*
X160448965Y-140750015D01*
X160335000Y-140826165D01*
X160335000Y-139421250D01*
X161390000Y-139421250D01*
X161390000Y-139516635D01*
X161403820Y-139550000D01*
X161390000Y-139583365D01*
X161390000Y-139678750D01*
X161473750Y-139762500D01*
X161604044Y-139762500D01*
X161658364Y-139785000D01*
X162239250Y-139785000D01*
X162261750Y-139762500D01*
X162323000Y-139762500D01*
X162323000Y-139337500D01*
X162577000Y-139337500D01*
X162577000Y-139762500D01*
X162638250Y-139762500D01*
X162660750Y-139785000D01*
X163241636Y-139785000D01*
X163295956Y-139762500D01*
X163426250Y-139762500D01*
X163510000Y-139678750D01*
X163510000Y-139583365D01*
X163496180Y-139550000D01*
X163510000Y-139516635D01*
X163510000Y-139421250D01*
X163426250Y-139337500D01*
X163295956Y-139337500D01*
X163241636Y-139315000D01*
X162660750Y-139315000D01*
X162638250Y-139337500D01*
X162577000Y-139337500D01*
X162323000Y-139337500D01*
X162261750Y-139337500D01*
X162239250Y-139315000D01*
X161658364Y-139315000D01*
X161604044Y-139337500D01*
X161473750Y-139337500D01*
X161390000Y-139421250D01*
X160335000Y-139421250D01*
X160335000Y-138933365D01*
X161390000Y-138933365D01*
X161390000Y-139028750D01*
X161473750Y-139112500D01*
X162323000Y-139112500D01*
X162323000Y-138748750D01*
X162577000Y-138748750D01*
X162577000Y-139112500D01*
X163426250Y-139112500D01*
X163510000Y-139028750D01*
X163510000Y-138933365D01*
X163459000Y-138810238D01*
X163364763Y-138716001D01*
X163241636Y-138665000D01*
X162660750Y-138665000D01*
X162577000Y-138748750D01*
X162323000Y-138748750D01*
X162239250Y-138665000D01*
X161658364Y-138665000D01*
X161535237Y-138716001D01*
X161441000Y-138810238D01*
X161390000Y-138933365D01*
X160335000Y-138933365D01*
X160335000Y-136720865D01*
X160349144Y-136718204D01*
X160463162Y-136644835D01*
X160539653Y-136532887D01*
X160566563Y-136400000D01*
X160566563Y-135208975D01*
X161565538Y-134210000D01*
X163967591Y-134210000D01*
X164000000Y-134216563D01*
X165300000Y-134216563D01*
X165334880Y-134210000D01*
X165550000Y-134210000D01*
X165726035Y-134174985D01*
X165875269Y-134075269D01*
X166575269Y-133375269D01*
X166674984Y-133226035D01*
X166674985Y-133226034D01*
X166710000Y-133050000D01*
X166710000Y-127332409D01*
X166716563Y-127300000D01*
X166716563Y-126000000D01*
X166783437Y-126000000D01*
X166783437Y-127300000D01*
X166806796Y-127424144D01*
X166812500Y-127433008D01*
X166812500Y-127551250D01*
X166896250Y-127635000D01*
X166941635Y-127635000D01*
X166991602Y-127614304D01*
X166992113Y-127614653D01*
X167125000Y-127641563D01*
X167375000Y-127641563D01*
X167499144Y-127618204D01*
X167501658Y-127616586D01*
X167625000Y-127641563D01*
X167875000Y-127641563D01*
X167999144Y-127618204D01*
X168006456Y-127613499D01*
X168058365Y-127635000D01*
X168103750Y-127635000D01*
X168187500Y-127551250D01*
X168187500Y-127436038D01*
X168189653Y-127432887D01*
X168216563Y-127300000D01*
X168216563Y-126000000D01*
X168193204Y-125875856D01*
X168187500Y-125866992D01*
X168187500Y-125748750D01*
X168103750Y-125665000D01*
X168058365Y-125665000D01*
X168008398Y-125685696D01*
X168007887Y-125685347D01*
X167875000Y-125658437D01*
X167625000Y-125658437D01*
X167500856Y-125681796D01*
X167498342Y-125683414D01*
X167375000Y-125658437D01*
X167125000Y-125658437D01*
X167000856Y-125681796D01*
X166993544Y-125686501D01*
X166941635Y-125665000D01*
X166896250Y-125665000D01*
X166812500Y-125748750D01*
X166812500Y-125863962D01*
X166810347Y-125867113D01*
X166783437Y-126000000D01*
X166716563Y-126000000D01*
X166710000Y-125965120D01*
X166710000Y-122366563D01*
X166850000Y-122366563D01*
X166974144Y-122343204D01*
X167088162Y-122269835D01*
X167164653Y-122157887D01*
X167191563Y-122025000D01*
X167191563Y-121610750D01*
X167515000Y-121610750D01*
X167515000Y-122091635D01*
X167566000Y-122214762D01*
X167660237Y-122308999D01*
X167783364Y-122360000D01*
X168389250Y-122360000D01*
X168473000Y-122276250D01*
X168473000Y-121527000D01*
X168727000Y-121527000D01*
X168727000Y-122276250D01*
X168810750Y-122360000D01*
X169416636Y-122360000D01*
X169539763Y-122308999D01*
X169634000Y-122214762D01*
X169685000Y-122091635D01*
X169685000Y-121610750D01*
X169601250Y-121527000D01*
X168727000Y-121527000D01*
X168473000Y-121527000D01*
X167598750Y-121527000D01*
X167515000Y-121610750D01*
X167191563Y-121610750D01*
X167191563Y-120775000D01*
X167179025Y-120708365D01*
X167515000Y-120708365D01*
X167515000Y-121189250D01*
X167598750Y-121273000D01*
X168473000Y-121273000D01*
X168473000Y-120523750D01*
X168727000Y-120523750D01*
X168727000Y-121273000D01*
X169601250Y-121273000D01*
X169685000Y-121189250D01*
X169685000Y-120708365D01*
X169634000Y-120585238D01*
X169539763Y-120491001D01*
X169416636Y-120440000D01*
X168810750Y-120440000D01*
X168727000Y-120523750D01*
X168473000Y-120523750D01*
X168389250Y-120440000D01*
X167783364Y-120440000D01*
X167660237Y-120491001D01*
X167566000Y-120585238D01*
X167515000Y-120708365D01*
X167179025Y-120708365D01*
X167168204Y-120650856D01*
X167094835Y-120536838D01*
X166982887Y-120460347D01*
X166850000Y-120433437D01*
X165350000Y-120433437D01*
X165225856Y-120456796D01*
X165111838Y-120530165D01*
X165035347Y-120642113D01*
X165008437Y-120775000D01*
X165008437Y-122025000D01*
X165031796Y-122149144D01*
X165105165Y-122263162D01*
X165217113Y-122339653D01*
X165350000Y-122366563D01*
X165790000Y-122366563D01*
X165790000Y-125967591D01*
X165783437Y-126000000D01*
X165783437Y-127300000D01*
X165790000Y-127334880D01*
X165790000Y-132859462D01*
X165622141Y-133027321D01*
X165614304Y-133008398D01*
X165614653Y-133007887D01*
X165641563Y-132875000D01*
X165641563Y-132625000D01*
X165618204Y-132500856D01*
X165616586Y-132498342D01*
X165641563Y-132375000D01*
X165641563Y-132125000D01*
X165618204Y-132000856D01*
X165616586Y-131998342D01*
X165641563Y-131875000D01*
X165641563Y-131625000D01*
X165618204Y-131500856D01*
X165616586Y-131498342D01*
X165641563Y-131375000D01*
X165641563Y-131125000D01*
X165618204Y-131000856D01*
X165616586Y-130998342D01*
X165641563Y-130875000D01*
X165641563Y-130625000D01*
X165618204Y-130500856D01*
X165616586Y-130498342D01*
X165641563Y-130375000D01*
X165641563Y-130125000D01*
X165618204Y-130000856D01*
X165616586Y-129998342D01*
X165641563Y-129875000D01*
X165641563Y-129625000D01*
X165618204Y-129500856D01*
X165616586Y-129498342D01*
X165641563Y-129375000D01*
X165641563Y-129125000D01*
X165618204Y-129000856D01*
X165616586Y-128998342D01*
X165641563Y-128875000D01*
X165641563Y-128625000D01*
X165618204Y-128500856D01*
X165616586Y-128498342D01*
X165641563Y-128375000D01*
X165641563Y-128125000D01*
X165618204Y-128000856D01*
X165544835Y-127886838D01*
X165432887Y-127810347D01*
X165300000Y-127783437D01*
X164000000Y-127783437D01*
X163875856Y-127806796D01*
X163761838Y-127880165D01*
X163685347Y-127992113D01*
X163658437Y-128125000D01*
X163658437Y-128375000D01*
X163681796Y-128499144D01*
X163683414Y-128501658D01*
X163658437Y-128625000D01*
X163658437Y-128875000D01*
X163681796Y-128999144D01*
X163683414Y-129001658D01*
X163658437Y-129125000D01*
X163658437Y-129375000D01*
X163681796Y-129499144D01*
X163683414Y-129501658D01*
X163658437Y-129625000D01*
X163658437Y-129875000D01*
X163681796Y-129999144D01*
X163683414Y-130001658D01*
X163658437Y-130125000D01*
X163658437Y-130375000D01*
X163681796Y-130499144D01*
X163683414Y-130501658D01*
X163658437Y-130625000D01*
X163658437Y-130875000D01*
X163681796Y-130999144D01*
X163683414Y-131001658D01*
X163658437Y-131125000D01*
X163658437Y-131160428D01*
X163560168Y-131061987D01*
X163326863Y-130965111D01*
X163074245Y-130964890D01*
X162840772Y-131061360D01*
X162661987Y-131239832D01*
X162565111Y-131473137D01*
X162564890Y-131725755D01*
X162594650Y-131797778D01*
X162440772Y-131861360D01*
X162261987Y-132039832D01*
X162165111Y-132273137D01*
X162164890Y-132525755D01*
X162261360Y-132759228D01*
X162439832Y-132938013D01*
X162673137Y-133034889D01*
X162784448Y-133034986D01*
X162824731Y-133075269D01*
X162973965Y-133174985D01*
X163150000Y-133210000D01*
X163967591Y-133210000D01*
X164000000Y-133216563D01*
X164797000Y-133216563D01*
X164797000Y-133283437D01*
X164000000Y-133283437D01*
X163965120Y-133290000D01*
X161375000Y-133290000D01*
X161198965Y-133325015D01*
X161049731Y-133424731D01*
X160560000Y-133914462D01*
X160560000Y-133360750D01*
X160476250Y-133277000D01*
X159727000Y-133277000D01*
X159727000Y-134151250D01*
X159810750Y-134235000D01*
X160239462Y-134235000D01*
X159916025Y-134558437D01*
X158975000Y-134558437D01*
X158850856Y-134581796D01*
X158736838Y-134655165D01*
X158660347Y-134767113D01*
X158633437Y-134900000D01*
X158633437Y-136400000D01*
X158656796Y-136524144D01*
X158730165Y-136638162D01*
X158842113Y-136714653D01*
X158865000Y-136719288D01*
X158865000Y-146080002D01*
X158912486Y-146318728D01*
X158920949Y-146361274D01*
X159080277Y-146599725D01*
X162450275Y-149969724D01*
X162620350Y-150083364D01*
X162688727Y-150129052D01*
X162969999Y-150185001D01*
X165549999Y-150185001D01*
X165831271Y-150129052D01*
X165899647Y-150083364D01*
X168840000Y-150083364D01*
X168840000Y-150689250D01*
X168923750Y-150773000D01*
X169673000Y-150773000D01*
X169673000Y-149898750D01*
X169927000Y-149898750D01*
X169927000Y-150773000D01*
X170676250Y-150773000D01*
X170760000Y-150689250D01*
X170760000Y-150083364D01*
X170708999Y-149960237D01*
X170614762Y-149866000D01*
X170491635Y-149815000D01*
X170010750Y-149815000D01*
X169927000Y-149898750D01*
X169673000Y-149898750D01*
X169589250Y-149815000D01*
X169108365Y-149815000D01*
X168985238Y-149866000D01*
X168891001Y-149960237D01*
X168840000Y-150083364D01*
X165899647Y-150083364D01*
X166069722Y-149969724D01*
X166847884Y-149191563D01*
X167650000Y-149191563D01*
X167774144Y-149168204D01*
X167888162Y-149094835D01*
X167964653Y-148982887D01*
X167991563Y-148850000D01*
X167991563Y-147550000D01*
X167968204Y-147425856D01*
X167926049Y-147360345D01*
X168050001Y-147385001D01*
X168968174Y-147385001D01*
X168936838Y-147405165D01*
X168860347Y-147517113D01*
X168833437Y-147650000D01*
X168833437Y-149150000D01*
X168856796Y-149274144D01*
X168930165Y-149388162D01*
X169042113Y-149464653D01*
X169175000Y-149491563D01*
X170425000Y-149491563D01*
X170549144Y-149468204D01*
X170663162Y-149394835D01*
X170739653Y-149282887D01*
X170766563Y-149150000D01*
X170766563Y-149135000D01*
X171300000Y-149135000D01*
X171581272Y-149079051D01*
X171792441Y-148937952D01*
X171820507Y-149079051D01*
X171820949Y-149081272D01*
X171980277Y-149319723D01*
X172408437Y-149747883D01*
X172408437Y-150425000D01*
X172431796Y-150549144D01*
X172505165Y-150663162D01*
X172617113Y-150739653D01*
X172750000Y-150766563D01*
X173552117Y-150766563D01*
X174530276Y-151744723D01*
X174672514Y-151839763D01*
X174768728Y-151904051D01*
X175050000Y-151960000D01*
X176825000Y-151960000D01*
X177106272Y-151904051D01*
X177344723Y-151744723D01*
X178554447Y-150535000D01*
X178724431Y-150535000D01*
X178731796Y-150574144D01*
X178805165Y-150688162D01*
X178917113Y-150764653D01*
X179050000Y-150791563D01*
X180550000Y-150791563D01*
X180674144Y-150768204D01*
X180788162Y-150694835D01*
X180864653Y-150582887D01*
X180891563Y-150450000D01*
X180891563Y-149150000D01*
X181408437Y-149150000D01*
X181408437Y-150450000D01*
X181431796Y-150574144D01*
X181505165Y-150688162D01*
X181617113Y-150764653D01*
X181750000Y-150791563D01*
X183250000Y-150791563D01*
X183374144Y-150768204D01*
X183488162Y-150694835D01*
X183564653Y-150582887D01*
X183574350Y-150535000D01*
X183745554Y-150535000D01*
X184768278Y-151557725D01*
X185006106Y-151716636D01*
X185006729Y-151717052D01*
X185288001Y-151773001D01*
X189453557Y-151773001D01*
X191948992Y-154268437D01*
X190550000Y-154268437D01*
X190425856Y-154291796D01*
X190311838Y-154365165D01*
X190235347Y-154477113D01*
X190208437Y-154610000D01*
X190208437Y-156310000D01*
X190231796Y-156434144D01*
X190305165Y-156548162D01*
X190417113Y-156624653D01*
X190550000Y-156651563D01*
X192115001Y-156651563D01*
X192115001Y-157064433D01*
X191876696Y-156905203D01*
X191423216Y-156815000D01*
X191376784Y-156815000D01*
X190923304Y-156905203D01*
X190538862Y-157162078D01*
X190281987Y-157546520D01*
X190191784Y-158000000D01*
X190219785Y-158140769D01*
X190095554Y-158265000D01*
X185741563Y-158265000D01*
X185741563Y-157500000D01*
X185718204Y-157375856D01*
X185644835Y-157261838D01*
X185532887Y-157185347D01*
X185400000Y-157158437D01*
X182400000Y-157158437D01*
X182275856Y-157181796D01*
X182161838Y-157255165D01*
X182085347Y-157367113D01*
X182058437Y-157500000D01*
X182058437Y-160500000D01*
X182081796Y-160624144D01*
X182155165Y-160738162D01*
X182267113Y-160814653D01*
X182400000Y-160841563D01*
X185400000Y-160841563D01*
X185524144Y-160818204D01*
X185638162Y-160744835D01*
X185714653Y-160632887D01*
X185741563Y-160500000D01*
X185741563Y-159735000D01*
X190400000Y-159735000D01*
X190534778Y-159708191D01*
X190281987Y-160086520D01*
X190191784Y-160540000D01*
X190281987Y-160993480D01*
X190538862Y-161377922D01*
X190923304Y-161634797D01*
X191376784Y-161725000D01*
X191423216Y-161725000D01*
X191876696Y-161634797D01*
X192261138Y-161377922D01*
X192518013Y-160993480D01*
X192608216Y-160540000D01*
X192580215Y-160399231D01*
X193369724Y-159609723D01*
X193529052Y-159371271D01*
X193530617Y-159363403D01*
X193585001Y-159089999D01*
X193585001Y-154129999D01*
X193529052Y-153848727D01*
X193369725Y-153610276D01*
X191031011Y-151271563D01*
X192800000Y-151271563D01*
X192924144Y-151248204D01*
X193038162Y-151174835D01*
X193114653Y-151062887D01*
X193141563Y-150930000D01*
X193141563Y-148430000D01*
X193118204Y-148305856D01*
X193044835Y-148191838D01*
X192932887Y-148115347D01*
X192800000Y-148088437D01*
X192458812Y-148088437D01*
X192319723Y-147880276D01*
X187719723Y-143280277D01*
X187481272Y-143120949D01*
X187200000Y-143065001D01*
X186918728Y-143120949D01*
X186680277Y-143280277D01*
X186520949Y-143518728D01*
X186465001Y-143800000D01*
X186520949Y-144081272D01*
X186680277Y-144319723D01*
X190555295Y-148194741D01*
X190485347Y-148297113D01*
X190458437Y-148430000D01*
X190458437Y-150698989D01*
X190277726Y-150518278D01*
X190039275Y-150358950D01*
X189758003Y-150303001D01*
X187613746Y-150303001D01*
X187773461Y-150143564D01*
X187984759Y-149634702D01*
X187985240Y-149083715D01*
X187774831Y-148574485D01*
X187385564Y-148184539D01*
X186876702Y-147973241D01*
X186325715Y-147972760D01*
X185816485Y-148183169D01*
X185426539Y-148572436D01*
X185215241Y-149081298D01*
X185214760Y-149632285D01*
X185421090Y-150131644D01*
X184569723Y-149280277D01*
X184331272Y-149120949D01*
X184050000Y-149065000D01*
X183575569Y-149065000D01*
X183568204Y-149025856D01*
X183494835Y-148911838D01*
X183382887Y-148835347D01*
X183250000Y-148808437D01*
X181750000Y-148808437D01*
X181625856Y-148831796D01*
X181511838Y-148905165D01*
X181435347Y-149017113D01*
X181408437Y-149150000D01*
X180891563Y-149150000D01*
X180868204Y-149025856D01*
X180794835Y-148911838D01*
X180682887Y-148835347D01*
X180550000Y-148808437D01*
X179050000Y-148808437D01*
X178925856Y-148831796D01*
X178811838Y-148905165D01*
X178735347Y-149017113D01*
X178725650Y-149065000D01*
X178250000Y-149065000D01*
X177968728Y-149120949D01*
X177730276Y-149280277D01*
X177042402Y-149968152D01*
X177001250Y-149927000D01*
X176127000Y-149927000D01*
X176127000Y-149947000D01*
X175873000Y-149947000D01*
X175873000Y-149927000D01*
X174998750Y-149927000D01*
X174915000Y-150010750D01*
X174915000Y-150050553D01*
X174591563Y-149727117D01*
X174591563Y-149175000D01*
X174579025Y-149108365D01*
X174915000Y-149108365D01*
X174915000Y-149589250D01*
X174998750Y-149673000D01*
X175873000Y-149673000D01*
X175873000Y-148923750D01*
X176127000Y-148923750D01*
X176127000Y-149673000D01*
X177001250Y-149673000D01*
X177085000Y-149589250D01*
X177085000Y-149108365D01*
X177034000Y-148985238D01*
X176939763Y-148891001D01*
X176816636Y-148840000D01*
X176210750Y-148840000D01*
X176127000Y-148923750D01*
X175873000Y-148923750D01*
X175789250Y-148840000D01*
X175183364Y-148840000D01*
X175060237Y-148891001D01*
X174966000Y-148985238D01*
X174915000Y-149108365D01*
X174579025Y-149108365D01*
X174568204Y-149050856D01*
X174494835Y-148936838D01*
X174382887Y-148860347D01*
X174250000Y-148833437D01*
X173799962Y-148833437D01*
X173781272Y-148820949D01*
X173505551Y-148766104D01*
X173235000Y-148495554D01*
X173235000Y-146391563D01*
X173250000Y-146391563D01*
X173374144Y-146368204D01*
X173488162Y-146294835D01*
X173564653Y-146182887D01*
X173591563Y-146050000D01*
X173591563Y-144750000D01*
X173568204Y-144625856D01*
X173494835Y-144511838D01*
X173382887Y-144435347D01*
X173250000Y-144408437D01*
X172735000Y-144408437D01*
X172735000Y-142770865D01*
X172749144Y-142768204D01*
X172863162Y-142694835D01*
X172939653Y-142582887D01*
X172966563Y-142450000D01*
X172966563Y-142435000D01*
X175008437Y-142435000D01*
X175008437Y-142450000D01*
X175031796Y-142574144D01*
X175105165Y-142688162D01*
X175217113Y-142764653D01*
X175350000Y-142791563D01*
X176650000Y-142791563D01*
X176774144Y-142768204D01*
X176888162Y-142694835D01*
X176964653Y-142582887D01*
X176991563Y-142450000D01*
X176991563Y-142435000D01*
X178540000Y-142435000D01*
X178821272Y-142379051D01*
X179059723Y-142219723D01*
X184817814Y-136461632D01*
X185306277Y-136461632D01*
X185499601Y-136862820D01*
X185845644Y-137176854D01*
X186285521Y-137334559D01*
X186473000Y-137263832D01*
X186473000Y-136277000D01*
X185356018Y-136277000D01*
X185306277Y-136461632D01*
X184817814Y-136461632D01*
X185319724Y-135959723D01*
X185333440Y-135939195D01*
X185356018Y-136023000D01*
X186473000Y-136023000D01*
X186473000Y-135036168D01*
X186285521Y-134965441D01*
X186114798Y-135026649D01*
X186351270Y-134790177D01*
X186435846Y-134807000D01*
X186764154Y-134807000D01*
X186848730Y-134790177D01*
X187085202Y-135026649D01*
X186914479Y-134965441D01*
X186727000Y-135036168D01*
X186727000Y-136023000D01*
X186747000Y-136023000D01*
X186747000Y-136277000D01*
X186727000Y-136277000D01*
X186727000Y-137263832D01*
X186914479Y-137334559D01*
X187354356Y-137176854D01*
X187665000Y-136894945D01*
X187665000Y-137470000D01*
X187716529Y-137729050D01*
X187720949Y-137751272D01*
X187880277Y-137989723D01*
X190458437Y-140567884D01*
X190458437Y-142370000D01*
X190481796Y-142494144D01*
X190555165Y-142608162D01*
X190667113Y-142684653D01*
X190800000Y-142711563D01*
X192800000Y-142711563D01*
X192924144Y-142688204D01*
X193038162Y-142614835D01*
X193114653Y-142502887D01*
X193141563Y-142370000D01*
X193141563Y-139870000D01*
X193118204Y-139745856D01*
X193044835Y-139631838D01*
X192932887Y-139555347D01*
X192800000Y-139528437D01*
X191497884Y-139528437D01*
X189135000Y-137165554D01*
X189135000Y-135302000D01*
X189104766Y-135150000D01*
X190458437Y-135150000D01*
X190458437Y-137650000D01*
X190481796Y-137774144D01*
X190555165Y-137888162D01*
X190667113Y-137964653D01*
X190800000Y-137991563D01*
X192352116Y-137991563D01*
X193280276Y-138919723D01*
X193518728Y-139079051D01*
X193800000Y-139134999D01*
X194081272Y-139079051D01*
X194319723Y-138919723D01*
X194479051Y-138681272D01*
X194534999Y-138400000D01*
X194479051Y-138118728D01*
X194319723Y-137880276D01*
X193141563Y-136702117D01*
X193141563Y-135150000D01*
X193118204Y-135025856D01*
X193044835Y-134911838D01*
X192932887Y-134835347D01*
X192800000Y-134808437D01*
X190800000Y-134808437D01*
X190675856Y-134831796D01*
X190561838Y-134905165D01*
X190485347Y-135017113D01*
X190458437Y-135150000D01*
X189104766Y-135150000D01*
X189079051Y-135020728D01*
X189045790Y-134970949D01*
X188919724Y-134782277D01*
X187925698Y-133788251D01*
X187961154Y-133610000D01*
X187870038Y-133151928D01*
X187610561Y-132763593D01*
X187335000Y-132579469D01*
X187335000Y-132100531D01*
X187610561Y-131916407D01*
X187664955Y-131835000D01*
X188540000Y-131835000D01*
X188821272Y-131779051D01*
X189059723Y-131619723D01*
X191247884Y-129431563D01*
X192800000Y-129431563D01*
X192924144Y-129408204D01*
X193038162Y-129334835D01*
X193114653Y-129222887D01*
X193141563Y-129090000D01*
X193141563Y-126590000D01*
X193118204Y-126465856D01*
X193044835Y-126351838D01*
X192932887Y-126275347D01*
X192800000Y-126248437D01*
X192535000Y-126248437D01*
X192535000Y-126094446D01*
X198719724Y-119909723D01*
X198879052Y-119671271D01*
X198886904Y-119631796D01*
X198890000Y-119616232D01*
X198890000Y-165940000D01*
X136360000Y-165940000D01*
X136360000Y-155078126D01*
X138465000Y-157183127D01*
X138465000Y-157318223D01*
X138161914Y-157443455D01*
X137645270Y-157959199D01*
X137365319Y-158633395D01*
X137364682Y-159363403D01*
X137643455Y-160038086D01*
X138159199Y-160554730D01*
X138833395Y-160834681D01*
X139563403Y-160835318D01*
X140238086Y-160556545D01*
X140754730Y-160040801D01*
X141034681Y-159366605D01*
X141035318Y-158636597D01*
X140756545Y-157961914D01*
X140240801Y-157445270D01*
X139935000Y-157318290D01*
X139935000Y-156878680D01*
X139879051Y-156597408D01*
X139846146Y-156548162D01*
X139719724Y-156358957D01*
X136944999Y-153584233D01*
X136944999Y-151110750D01*
X168840000Y-151110750D01*
X168840000Y-151716636D01*
X168891001Y-151839763D01*
X168985238Y-151934000D01*
X169108365Y-151985000D01*
X169589250Y-151985000D01*
X169673000Y-151901250D01*
X169673000Y-151027000D01*
X169927000Y-151027000D01*
X169927000Y-151901250D01*
X170010750Y-151985000D01*
X170491635Y-151985000D01*
X170614762Y-151934000D01*
X170708999Y-151839763D01*
X170760000Y-151716636D01*
X170760000Y-151110750D01*
X170676250Y-151027000D01*
X169927000Y-151027000D01*
X169673000Y-151027000D01*
X168923750Y-151027000D01*
X168840000Y-151110750D01*
X136944999Y-151110750D01*
X136944999Y-149991563D01*
X138510000Y-149991563D01*
X138634144Y-149968204D01*
X138748162Y-149894835D01*
X138824653Y-149782887D01*
X138851563Y-149650000D01*
X138851563Y-149109745D01*
X139056186Y-149109745D01*
X139261788Y-149523886D01*
X139610224Y-149827822D01*
X139890256Y-149943803D01*
X140073000Y-149893902D01*
X140073000Y-148927000D01*
X140327000Y-148927000D01*
X140327000Y-149893902D01*
X140509744Y-149943803D01*
X140789776Y-149827822D01*
X141013942Y-149632285D01*
X145590760Y-149632285D01*
X145801169Y-150141515D01*
X146190436Y-150531461D01*
X146699298Y-150742759D01*
X147250285Y-150743240D01*
X147759515Y-150532831D01*
X148149461Y-150143564D01*
X148360759Y-149634702D01*
X148361240Y-149083715D01*
X148150831Y-148574485D01*
X147761564Y-148184539D01*
X147252702Y-147973241D01*
X146701715Y-147972760D01*
X146192485Y-148183169D01*
X145802539Y-148572436D01*
X145591241Y-149081298D01*
X145590760Y-149632285D01*
X141013942Y-149632285D01*
X141138212Y-149523886D01*
X141343814Y-149109745D01*
X141294437Y-148927000D01*
X140327000Y-148927000D01*
X140073000Y-148927000D01*
X139105563Y-148927000D01*
X139056186Y-149109745D01*
X138851563Y-149109745D01*
X138851563Y-148490255D01*
X139056186Y-148490255D01*
X139105563Y-148673000D01*
X140073000Y-148673000D01*
X140073000Y-147706098D01*
X140327000Y-147706098D01*
X140327000Y-148673000D01*
X141294437Y-148673000D01*
X141343814Y-148490255D01*
X141138212Y-148076114D01*
X140789776Y-147772178D01*
X140509744Y-147656197D01*
X140327000Y-147706098D01*
X140073000Y-147706098D01*
X139890256Y-147656197D01*
X139610224Y-147772178D01*
X139261788Y-148076114D01*
X139056186Y-148490255D01*
X138851563Y-148490255D01*
X138851563Y-147950000D01*
X138828204Y-147825856D01*
X138754835Y-147711838D01*
X138642887Y-147635347D01*
X138510000Y-147608437D01*
X138395000Y-147608437D01*
X138395000Y-145929908D01*
X138497922Y-145861138D01*
X138754797Y-145476696D01*
X138807697Y-145210750D01*
X139015000Y-145210750D01*
X139015000Y-145916636D01*
X139066001Y-146039763D01*
X139160238Y-146134000D01*
X139283365Y-146185000D01*
X139989250Y-146185000D01*
X140073000Y-146101250D01*
X140073000Y-145127000D01*
X140327000Y-145127000D01*
X140327000Y-146101250D01*
X140410750Y-146185000D01*
X141116635Y-146185000D01*
X141239762Y-146134000D01*
X141333999Y-146039763D01*
X141385000Y-145916636D01*
X141385000Y-145210750D01*
X141301250Y-145127000D01*
X140327000Y-145127000D01*
X140073000Y-145127000D01*
X139098750Y-145127000D01*
X139015000Y-145210750D01*
X138807697Y-145210750D01*
X138845000Y-145023216D01*
X138845000Y-144976784D01*
X138824703Y-144874744D01*
X139015000Y-144684447D01*
X139015000Y-144789250D01*
X139098750Y-144873000D01*
X140073000Y-144873000D01*
X140073000Y-143898750D01*
X140327000Y-143898750D01*
X140327000Y-144873000D01*
X141301250Y-144873000D01*
X141385000Y-144789250D01*
X141385000Y-144083364D01*
X141333999Y-143960237D01*
X141239762Y-143866000D01*
X141116635Y-143815000D01*
X140410750Y-143815000D01*
X140327000Y-143898750D01*
X140073000Y-143898750D01*
X139989250Y-143815000D01*
X139644444Y-143815000D01*
X143624445Y-139835000D01*
X146408437Y-139835000D01*
X146408437Y-139850000D01*
X146431796Y-139974144D01*
X146505165Y-140088162D01*
X146617113Y-140164653D01*
X146750000Y-140191563D01*
X148050000Y-140191563D01*
X148174144Y-140168204D01*
X148288162Y-140094835D01*
X148364653Y-139982887D01*
X148391563Y-139850000D01*
X148391563Y-139560000D01*
X148900000Y-139560000D01*
X149076035Y-139524985D01*
X149225269Y-139425269D01*
X150015524Y-138635014D01*
X150125755Y-138635110D01*
X150359228Y-138538640D01*
X150538013Y-138360168D01*
X150634889Y-138126863D01*
X150635110Y-137874245D01*
X150538640Y-137640772D01*
X150360168Y-137461987D01*
X150126863Y-137365111D01*
X149874245Y-137364890D01*
X149640772Y-137461360D01*
X149461987Y-137639832D01*
X149365111Y-137873137D01*
X149365014Y-137984448D01*
X148709462Y-138640000D01*
X148391563Y-138640000D01*
X148391563Y-138350000D01*
X148368204Y-138225856D01*
X148294835Y-138111838D01*
X148182887Y-138035347D01*
X148050000Y-138008437D01*
X146750000Y-138008437D01*
X146625856Y-138031796D01*
X146511838Y-138105165D01*
X146435347Y-138217113D01*
X146408437Y-138350000D01*
X146408437Y-138365000D01*
X143319998Y-138365000D01*
X143038726Y-138420949D01*
X142800275Y-138580276D01*
X137990276Y-143390276D01*
X137830948Y-143628727D01*
X137793242Y-143818287D01*
X137660000Y-143791784D01*
X137206520Y-143881987D01*
X136944999Y-144056729D01*
X136944999Y-138294447D01*
X137669725Y-137569722D01*
X137669727Y-137569719D01*
X137874743Y-137364703D01*
X137976784Y-137385000D01*
X138023216Y-137385000D01*
X138476696Y-137294797D01*
X138805647Y-137075000D01*
X141394353Y-137075000D01*
X141723304Y-137294797D01*
X142176784Y-137385000D01*
X142223216Y-137385000D01*
X142676696Y-137294797D01*
X143061138Y-137037922D01*
X143318013Y-136653480D01*
X143408216Y-136200000D01*
X143318013Y-135746520D01*
X143061138Y-135362078D01*
X142935000Y-135277796D01*
X142935000Y-134582204D01*
X143061138Y-134497922D01*
X143318013Y-134113480D01*
X143408216Y-133660000D01*
X143355492Y-133394938D01*
X146408437Y-136447884D01*
X146408437Y-137150000D01*
X146431796Y-137274144D01*
X146505165Y-137388162D01*
X146617113Y-137464653D01*
X146750000Y-137491563D01*
X148050000Y-137491563D01*
X148174144Y-137468204D01*
X148288162Y-137394835D01*
X148364653Y-137282887D01*
X148391563Y-137150000D01*
X148391563Y-136841787D01*
X148476035Y-136824985D01*
X148625269Y-136725269D01*
X151989788Y-133360750D01*
X158640000Y-133360750D01*
X158640000Y-133966636D01*
X158691001Y-134089763D01*
X158785238Y-134184000D01*
X158908365Y-134235000D01*
X159389250Y-134235000D01*
X159473000Y-134151250D01*
X159473000Y-133277000D01*
X158723750Y-133277000D01*
X158640000Y-133360750D01*
X151989788Y-133360750D01*
X153017174Y-132333364D01*
X158640000Y-132333364D01*
X158640000Y-132939250D01*
X158723750Y-133023000D01*
X159473000Y-133023000D01*
X159473000Y-132148750D01*
X159727000Y-132148750D01*
X159727000Y-133023000D01*
X160476250Y-133023000D01*
X160560000Y-132939250D01*
X160560000Y-132333364D01*
X160508999Y-132210237D01*
X160414762Y-132116000D01*
X160291635Y-132065000D01*
X159810750Y-132065000D01*
X159727000Y-132148750D01*
X159473000Y-132148750D01*
X159389250Y-132065000D01*
X158908365Y-132065000D01*
X158785238Y-132116000D01*
X158691001Y-132210237D01*
X158640000Y-132333364D01*
X153017174Y-132333364D01*
X161490538Y-123860000D01*
X164361956Y-123860000D01*
X164439832Y-123938013D01*
X164673137Y-124034889D01*
X164925755Y-124035110D01*
X165159228Y-123938640D01*
X165338013Y-123760168D01*
X165434889Y-123526863D01*
X165435110Y-123274245D01*
X165338640Y-123040772D01*
X165160168Y-122861987D01*
X164926863Y-122765111D01*
X164674245Y-122764890D01*
X164440772Y-122861360D01*
X164361994Y-122940000D01*
X161300000Y-122940000D01*
X161123966Y-122975015D01*
X161049136Y-123025015D01*
X160974731Y-123074731D01*
X148391563Y-135657899D01*
X148391563Y-135650000D01*
X148368204Y-135525856D01*
X148294835Y-135411838D01*
X148182887Y-135335347D01*
X148050000Y-135308437D01*
X147347884Y-135308437D01*
X143366942Y-131327496D01*
X143408216Y-131120000D01*
X143318013Y-130666520D01*
X143061138Y-130282078D01*
X142935000Y-130197796D01*
X142935000Y-129771563D01*
X143050000Y-129771563D01*
X143174144Y-129748204D01*
X143288162Y-129674835D01*
X143364653Y-129562887D01*
X143391563Y-129430000D01*
X143391563Y-127730000D01*
X143368204Y-127605856D01*
X143294835Y-127491838D01*
X143182887Y-127415347D01*
X143050000Y-127388437D01*
X141350000Y-127388437D01*
X141225856Y-127411796D01*
X141111838Y-127485165D01*
X141035347Y-127597113D01*
X141008437Y-127730000D01*
X141008437Y-127845000D01*
X139191563Y-127845000D01*
X139191563Y-127730000D01*
X139168204Y-127605856D01*
X139094835Y-127491838D01*
X138982887Y-127415347D01*
X138850000Y-127388437D01*
X137284999Y-127388437D01*
X137284999Y-121718590D01*
X137410224Y-121827822D01*
X137690256Y-121943803D01*
X137873000Y-121893902D01*
X137873000Y-120927000D01*
X138127000Y-120927000D01*
X138127000Y-121893902D01*
X138309744Y-121943803D01*
X138589776Y-121827822D01*
X138938212Y-121523886D01*
X139143814Y-121109745D01*
X139094437Y-120927000D01*
X138127000Y-120927000D01*
X137873000Y-120927000D01*
X137853000Y-120927000D01*
X137853000Y-120673000D01*
X137873000Y-120673000D01*
X137873000Y-119706098D01*
X138127000Y-119706098D01*
X138127000Y-120673000D01*
X139094437Y-120673000D01*
X139143814Y-120490255D01*
X138938212Y-120076114D01*
X138589776Y-119772178D01*
X138309744Y-119656197D01*
X138127000Y-119706098D01*
X137873000Y-119706098D01*
X137690256Y-119656197D01*
X137410224Y-119772178D01*
X137284999Y-119881410D01*
X137284999Y-117918590D01*
X137410224Y-118027822D01*
X137690256Y-118143803D01*
X137873000Y-118093902D01*
X137873000Y-117127000D01*
X138127000Y-117127000D01*
X138127000Y-118093902D01*
X138309744Y-118143803D01*
X138589776Y-118027822D01*
X138938212Y-117723886D01*
X139143814Y-117309745D01*
X139094437Y-117127000D01*
X138127000Y-117127000D01*
X137873000Y-117127000D01*
X137853000Y-117127000D01*
X137853000Y-116873000D01*
X137873000Y-116873000D01*
X137873000Y-115906098D01*
X138127000Y-115906098D01*
X138127000Y-116873000D01*
X139094437Y-116873000D01*
X139143814Y-116690255D01*
X138938212Y-116276114D01*
X138793634Y-116150000D01*
X139348437Y-116150000D01*
X139348437Y-117850000D01*
X139371796Y-117974144D01*
X139445165Y-118088162D01*
X139557113Y-118164653D01*
X139665000Y-118186500D01*
X139665000Y-119613141D01*
X139565856Y-119631796D01*
X139451838Y-119705165D01*
X139375347Y-119817113D01*
X139348437Y-119950000D01*
X139348437Y-121650000D01*
X139371796Y-121774144D01*
X139445165Y-121888162D01*
X139557113Y-121964653D01*
X139690000Y-121991563D01*
X141390000Y-121991563D01*
X141514144Y-121968204D01*
X141628162Y-121894835D01*
X141704653Y-121782887D01*
X141731563Y-121650000D01*
X141731563Y-119950000D01*
X141708204Y-119825856D01*
X141634835Y-119711838D01*
X141522887Y-119635347D01*
X141390000Y-119608437D01*
X141135000Y-119608437D01*
X141135000Y-118191563D01*
X141390000Y-118191563D01*
X141514144Y-118168204D01*
X141628162Y-118094835D01*
X141704653Y-117982887D01*
X141731563Y-117850000D01*
X141731563Y-116150000D01*
X141708204Y-116025856D01*
X141634835Y-115911838D01*
X141522887Y-115835347D01*
X141390000Y-115808437D01*
X139690000Y-115808437D01*
X139565856Y-115831796D01*
X139451838Y-115905165D01*
X139375347Y-116017113D01*
X139348437Y-116150000D01*
X138793634Y-116150000D01*
X138589776Y-115972178D01*
X138309744Y-115856197D01*
X138127000Y-115906098D01*
X137873000Y-115906098D01*
X137690256Y-115856197D01*
X137410224Y-115972178D01*
X137284999Y-116081410D01*
X137284999Y-114204447D01*
X138319723Y-113169724D01*
X138479051Y-112931272D01*
X138535000Y-112650000D01*
X138535000Y-112191563D01*
X138650000Y-112191563D01*
X138774144Y-112168204D01*
X138888162Y-112094835D01*
X138964653Y-111982887D01*
X138991563Y-111850000D01*
X138991563Y-111735000D01*
X139417796Y-111735000D01*
X139502078Y-111861138D01*
X139886520Y-112118013D01*
X140340000Y-112208216D01*
X140793480Y-112118013D01*
X141177922Y-111861138D01*
X141434797Y-111476696D01*
X141525000Y-111023216D01*
X141525000Y-110976784D01*
X141434797Y-110523304D01*
X141177922Y-110138862D01*
X140793480Y-109881987D01*
X140340000Y-109791784D01*
X139886520Y-109881987D01*
X139872164Y-109891580D01*
X139879051Y-109881272D01*
X139896851Y-109791784D01*
X139935000Y-109600000D01*
X139935000Y-107976285D01*
X145590760Y-107976285D01*
X145801169Y-108485515D01*
X146190436Y-108875461D01*
X146699298Y-109086759D01*
X147250285Y-109087240D01*
X147759515Y-108876831D01*
X148149461Y-108487564D01*
X148360759Y-107978702D01*
X148360761Y-107976285D01*
X185214760Y-107976285D01*
X185425169Y-108485515D01*
X185814436Y-108875461D01*
X186323298Y-109086759D01*
X186874285Y-109087240D01*
X187383515Y-108876831D01*
X187773461Y-108487564D01*
X187984759Y-107978702D01*
X187985240Y-107427715D01*
X187774831Y-106918485D01*
X187385564Y-106528539D01*
X186876702Y-106317241D01*
X186325715Y-106316760D01*
X185816485Y-106527169D01*
X185426539Y-106916436D01*
X185215241Y-107425298D01*
X185214760Y-107976285D01*
X148360761Y-107976285D01*
X148361240Y-107427715D01*
X148150831Y-106918485D01*
X147761564Y-106528539D01*
X147252702Y-106317241D01*
X146701715Y-106316760D01*
X146192485Y-106527169D01*
X145802539Y-106916436D01*
X145591241Y-107425298D01*
X145590760Y-107976285D01*
X139935000Y-107976285D01*
X139935000Y-100041563D01*
X140700000Y-100041563D01*
X140824144Y-100018204D01*
X140938162Y-99944835D01*
X141014653Y-99832887D01*
X141041563Y-99700000D01*
X141041563Y-99550349D01*
X182729256Y-99550349D01*
X182905565Y-99784788D01*
X183587734Y-100044707D01*
X184317443Y-100023786D01*
X184894435Y-99784788D01*
X185070744Y-99550349D01*
X183900000Y-98379605D01*
X182729256Y-99550349D01*
X141041563Y-99550349D01*
X141041563Y-97887734D01*
X182055293Y-97887734D01*
X182076214Y-98617443D01*
X182315212Y-99194435D01*
X182549651Y-99370744D01*
X183720395Y-98200000D01*
X184079605Y-98200000D01*
X185250349Y-99370744D01*
X185484788Y-99194435D01*
X185744707Y-98512266D01*
X185723786Y-97782557D01*
X185484788Y-97205565D01*
X185250349Y-97029256D01*
X184079605Y-98200000D01*
X183720395Y-98200000D01*
X182549651Y-97029256D01*
X182315212Y-97205565D01*
X182055293Y-97887734D01*
X141041563Y-97887734D01*
X141041563Y-96849651D01*
X182729256Y-96849651D01*
X183900000Y-98020395D01*
X185070744Y-96849651D01*
X184894435Y-96615212D01*
X184212266Y-96355293D01*
X183482557Y-96376214D01*
X182905565Y-96615212D01*
X182729256Y-96849651D01*
X141041563Y-96849651D01*
X141041563Y-96700000D01*
X141018204Y-96575856D01*
X140944835Y-96461838D01*
X140832887Y-96385347D01*
X140700000Y-96358437D01*
X137700000Y-96358437D01*
X137575856Y-96381796D01*
X137461838Y-96455165D01*
X137385347Y-96567113D01*
X137358437Y-96700000D01*
X137358437Y-99700000D01*
X137381796Y-99824144D01*
X137455165Y-99938162D01*
X137567113Y-100014653D01*
X137700000Y-100041563D01*
X138465000Y-100041563D01*
X138465000Y-109295554D01*
X137952117Y-109808437D01*
X136950000Y-109808437D01*
X136825856Y-109831796D01*
X136711838Y-109905165D01*
X136635347Y-110017113D01*
X136608437Y-110150000D01*
X136608437Y-111850000D01*
X136631796Y-111974144D01*
X136705165Y-112088162D01*
X136817113Y-112164653D01*
X136950000Y-112191563D01*
X137065000Y-112191563D01*
X137065000Y-112345553D01*
X136360000Y-113050554D01*
X136360000Y-91260000D01*
X198890000Y-91260000D01*
X198890000Y-111143768D01*
X198890000Y-111143768D01*
G37*
X198890000Y-111143768D02*
X198879052Y-111088729D01*
X198804253Y-110976784D01*
X198719724Y-110850277D01*
X197335000Y-109465554D01*
X197335000Y-109311563D01*
X197600000Y-109311563D01*
X197724144Y-109288204D01*
X197838162Y-109214835D01*
X197914653Y-109102887D01*
X197941563Y-108970000D01*
X197941563Y-106470000D01*
X197918204Y-106345856D01*
X197844835Y-106231838D01*
X197732887Y-106155347D01*
X197600000Y-106128437D01*
X195600000Y-106128437D01*
X195475856Y-106151796D01*
X195361838Y-106225165D01*
X195285347Y-106337113D01*
X195258437Y-106470000D01*
X195258437Y-106985000D01*
X192541563Y-106985000D01*
X192541563Y-106470000D01*
X192518204Y-106345856D01*
X192444835Y-106231838D01*
X192332887Y-106155347D01*
X192200000Y-106128437D01*
X190200000Y-106128437D01*
X190075856Y-106151796D01*
X189961838Y-106225165D01*
X189885347Y-106337113D01*
X189858437Y-106470000D01*
X189858437Y-108970000D01*
X189881796Y-109094144D01*
X189955165Y-109208162D01*
X190067113Y-109284653D01*
X190200000Y-109311563D01*
X192200000Y-109311563D01*
X192324144Y-109288204D01*
X192438162Y-109214835D01*
X192514653Y-109102887D01*
X192541563Y-108970000D01*
X192541563Y-108455000D01*
X195258437Y-108455000D01*
X195258437Y-108970000D01*
X195281796Y-109094144D01*
X195355165Y-109208162D01*
X195467113Y-109284653D01*
X195600000Y-109311563D01*
X195865000Y-109311563D01*
X195865000Y-109770000D01*
X195893214Y-109911838D01*
X195920949Y-110051272D01*
X196080277Y-110289723D01*
X197465001Y-111674448D01*
X197465001Y-114688437D01*
X195600000Y-114688437D01*
X195475856Y-114711796D01*
X195361838Y-114785165D01*
X195285347Y-114897113D01*
X195258437Y-115030000D01*
X195258437Y-115545000D01*
X195104447Y-115545000D01*
X189839723Y-110280277D01*
X189601272Y-110120949D01*
X189320000Y-110065000D01*
X186000000Y-110065000D01*
X185718728Y-110120949D01*
X185480277Y-110280277D01*
X185440371Y-110340000D01*
X183200000Y-110340000D01*
X183023965Y-110375015D01*
X182874731Y-110474731D01*
X172784476Y-120564986D01*
X172674245Y-120564890D01*
X172440772Y-120661360D01*
X172261987Y-120839832D01*
X172165111Y-121073137D01*
X172164890Y-121325755D01*
X172261360Y-121559228D01*
X172439832Y-121738013D01*
X172673137Y-121834889D01*
X172925755Y-121835110D01*
X173159228Y-121738640D01*
X173338013Y-121560168D01*
X173434889Y-121326863D01*
X173434986Y-121215552D01*
X183390538Y-111260000D01*
X185440371Y-111260000D01*
X185480277Y-111319723D01*
X185718728Y-111479051D01*
X186000000Y-111535000D01*
X189015554Y-111535000D01*
X192168990Y-114688437D01*
X190200000Y-114688437D01*
X190075856Y-114711796D01*
X189961838Y-114785165D01*
X189885347Y-114897113D01*
X189858437Y-115030000D01*
X189858437Y-115545000D01*
X189184447Y-115545000D01*
X188919723Y-115280277D01*
X188681272Y-115120949D01*
X188400000Y-115065001D01*
X188118728Y-115120949D01*
X187880277Y-115280277D01*
X187720949Y-115518728D01*
X187665001Y-115800000D01*
X187720949Y-116081272D01*
X187880277Y-116319723D01*
X188360277Y-116799724D01*
X188598728Y-116959051D01*
X188880000Y-117015000D01*
X189858437Y-117015000D01*
X189858437Y-117530000D01*
X189881796Y-117654144D01*
X189955165Y-117768162D01*
X190067113Y-117844653D01*
X190200000Y-117871563D01*
X192200000Y-117871563D01*
X192324144Y-117848204D01*
X192438162Y-117774835D01*
X192514653Y-117662887D01*
X192541563Y-117530000D01*
X192541563Y-115061010D01*
X194280276Y-116799723D01*
X194518728Y-116959051D01*
X194800000Y-117015000D01*
X195258437Y-117015000D01*
X195258437Y-117530000D01*
X195281796Y-117654144D01*
X195355165Y-117768162D01*
X195467113Y-117844653D01*
X195600000Y-117871563D01*
X197465001Y-117871563D01*
X197465001Y-119085552D01*
X191280277Y-125270277D01*
X191120949Y-125508728D01*
X191065000Y-125790000D01*
X191065000Y-126248437D01*
X190800000Y-126248437D01*
X190675856Y-126271796D01*
X190561838Y-126345165D01*
X190485347Y-126457113D01*
X190458437Y-126590000D01*
X190458437Y-128142116D01*
X188235554Y-130365000D01*
X187705046Y-130365000D01*
X187610561Y-130223593D01*
X187469524Y-130129355D01*
X187554944Y-130072279D01*
X188250279Y-129376944D01*
X188294778Y-129310347D01*
X188349995Y-129227709D01*
X188385010Y-129051675D01*
X188385010Y-125521938D01*
X188700290Y-125206659D01*
X188734814Y-125154990D01*
X188800006Y-125057424D01*
X188835021Y-124881390D01*
X188835021Y-120037021D01*
X188800006Y-119860987D01*
X188700290Y-119711752D01*
X187848638Y-118860100D01*
X187870038Y-118828072D01*
X187961154Y-118370000D01*
X187870038Y-117911928D01*
X187610561Y-117523593D01*
X187222226Y-117264116D01*
X186764154Y-117173000D01*
X186435846Y-117173000D01*
X185977774Y-117264116D01*
X185589439Y-117523593D01*
X185329962Y-117911928D01*
X185238846Y-118370000D01*
X185329962Y-118828072D01*
X185589439Y-119216407D01*
X185704054Y-119292990D01*
X176247010Y-119292990D01*
X176070975Y-119328005D01*
X175921741Y-119427721D01*
X170210000Y-125139462D01*
X170210000Y-123550003D01*
X170184930Y-123423965D01*
X170174985Y-123373968D01*
X170075269Y-123224734D01*
X169974858Y-123124323D01*
X169974954Y-123014092D01*
X169878484Y-122780619D01*
X169700012Y-122601834D01*
X169466707Y-122504958D01*
X169214089Y-122504737D01*
X168980616Y-122601207D01*
X168801831Y-122779679D01*
X168704955Y-123012984D01*
X168704875Y-123104815D01*
X168614090Y-123104736D01*
X168380617Y-123201206D01*
X168201832Y-123379678D01*
X168104956Y-123612983D01*
X168104735Y-123865601D01*
X168201205Y-124099074D01*
X168379677Y-124277859D01*
X168612982Y-124374735D01*
X168724293Y-124374832D01*
X168790000Y-124440539D01*
X168790000Y-125658437D01*
X168625000Y-125658437D01*
X168500856Y-125681796D01*
X168493544Y-125686501D01*
X168441635Y-125665000D01*
X168396250Y-125665000D01*
X168312500Y-125748750D01*
X168312500Y-125863962D01*
X168310347Y-125867113D01*
X168283437Y-126000000D01*
X168283437Y-127300000D01*
X168290000Y-127334880D01*
X168290000Y-127811868D01*
X168261987Y-127839832D01*
X168165111Y-128073137D01*
X168164890Y-128325755D01*
X168261360Y-128559228D01*
X168439832Y-128738013D01*
X168673137Y-128834889D01*
X168925755Y-128835110D01*
X169159228Y-128738640D01*
X169338013Y-128560168D01*
X169434889Y-128326863D01*
X169435110Y-128074245D01*
X169338640Y-127840772D01*
X169210000Y-127711906D01*
X169210000Y-127641563D01*
X169375000Y-127641563D01*
X169499144Y-127618204D01*
X169501658Y-127616586D01*
X169625000Y-127641563D01*
X169875000Y-127641563D01*
X169999144Y-127618204D01*
X170001658Y-127616586D01*
X170125000Y-127641563D01*
X170308213Y-127641563D01*
X170325015Y-127726035D01*
X170424731Y-127875269D01*
X170499732Y-127950270D01*
X170648967Y-128049986D01*
X170825001Y-128085001D01*
X172135001Y-128085001D01*
X172311036Y-128049986D01*
X172383422Y-128001619D01*
X172358437Y-128125000D01*
X172358437Y-128375000D01*
X172381796Y-128499144D01*
X172383414Y-128501658D01*
X172358437Y-128625000D01*
X172358437Y-128875000D01*
X172381796Y-128999144D01*
X172383414Y-129001658D01*
X172358437Y-129125000D01*
X172358437Y-129290000D01*
X172217176Y-129290000D01*
X172041141Y-129325015D01*
X171891907Y-129424731D01*
X170249721Y-131066917D01*
X170150005Y-131216151D01*
X170150005Y-131216152D01*
X170114990Y-131392186D01*
X170114990Y-133361956D01*
X170036977Y-133439832D01*
X169940101Y-133673137D01*
X169939880Y-133925755D01*
X170036350Y-134159228D01*
X170214822Y-134338013D01*
X170264009Y-134358437D01*
X170125000Y-134358437D01*
X170000856Y-134381796D01*
X169993544Y-134386501D01*
X169941635Y-134365000D01*
X169896250Y-134365000D01*
X169812500Y-134448750D01*
X169812500Y-134563962D01*
X169810347Y-134567113D01*
X169783437Y-134700000D01*
X169783437Y-136000000D01*
X169806796Y-136124144D01*
X169812500Y-136133008D01*
X169812500Y-136251250D01*
X169896250Y-136335000D01*
X169941635Y-136335000D01*
X169991602Y-136314304D01*
X169992113Y-136314653D01*
X170125000Y-136341563D01*
X170375000Y-136341563D01*
X170499144Y-136318204D01*
X170501658Y-136316586D01*
X170625000Y-136341563D01*
X170875000Y-136341563D01*
X170999144Y-136318204D01*
X171006456Y-136313499D01*
X171058365Y-136335000D01*
X171103750Y-136335000D01*
X171187500Y-136251250D01*
X171187500Y-136136038D01*
X171189653Y-136132887D01*
X171216563Y-136000000D01*
X171216563Y-134700000D01*
X171193204Y-134575856D01*
X171187500Y-134566992D01*
X171187500Y-134448750D01*
X171103750Y-134365000D01*
X171058365Y-134365000D01*
X171008398Y-134385696D01*
X171007887Y-134385347D01*
X170882588Y-134359973D01*
X170934218Y-134338640D01*
X171113003Y-134160168D01*
X171209879Y-133926863D01*
X171210100Y-133674245D01*
X171113630Y-133440772D01*
X171034990Y-133361994D01*
X171034990Y-131582724D01*
X171317844Y-131299870D01*
X171275026Y-131363951D01*
X171252937Y-131475000D01*
X171240011Y-131539986D01*
X171240011Y-133460013D01*
X171275026Y-133636048D01*
X171374742Y-133785282D01*
X171966407Y-134376947D01*
X171875000Y-134358437D01*
X171625000Y-134358437D01*
X171500856Y-134381796D01*
X171493544Y-134386501D01*
X171441635Y-134365000D01*
X171396250Y-134365000D01*
X171312500Y-134448750D01*
X171312500Y-134563962D01*
X171310347Y-134567113D01*
X171283437Y-134700000D01*
X171283437Y-136000000D01*
X171290000Y-136034880D01*
X171290000Y-136250000D01*
X171325015Y-136426035D01*
X171424731Y-136575269D01*
X172490001Y-137640539D01*
X172490001Y-138115000D01*
X172210750Y-138115000D01*
X172127000Y-138198750D01*
X172127000Y-139073000D01*
X172147000Y-139073000D01*
X172147000Y-139327000D01*
X172127000Y-139327000D01*
X172127000Y-140201250D01*
X172210750Y-140285000D01*
X172490001Y-140285000D01*
X172490001Y-140434461D01*
X172316025Y-140608437D01*
X171375000Y-140608437D01*
X171250856Y-140631796D01*
X171136838Y-140705165D01*
X171130118Y-140715000D01*
X171082500Y-140715000D01*
X171129663Y-140667920D01*
X171226539Y-140434615D01*
X171226699Y-140251174D01*
X171308365Y-140285000D01*
X171789250Y-140285000D01*
X171873000Y-140201250D01*
X171873000Y-139327000D01*
X171123750Y-139327000D01*
X171040000Y-139410750D01*
X171040000Y-139858076D01*
X170951818Y-139769739D01*
X170718513Y-139672863D01*
X170465895Y-139672642D01*
X170232422Y-139769112D01*
X170053637Y-139947584D01*
X170004882Y-140065000D01*
X169785538Y-140065000D01*
X170125269Y-139725269D01*
X170187698Y-139631838D01*
X170224985Y-139576034D01*
X170260000Y-139400000D01*
X170260000Y-138638044D01*
X170338013Y-138560168D01*
X170411427Y-138383364D01*
X171040000Y-138383364D01*
X171040000Y-138989250D01*
X171123750Y-139073000D01*
X171873000Y-139073000D01*
X171873000Y-138198750D01*
X171789250Y-138115000D01*
X171308365Y-138115000D01*
X171185238Y-138166000D01*
X171091001Y-138260237D01*
X171040000Y-138383364D01*
X170411427Y-138383364D01*
X170434889Y-138326863D01*
X170435110Y-138074245D01*
X170338640Y-137840772D01*
X170160168Y-137661987D01*
X169926863Y-137565111D01*
X169674245Y-137564890D01*
X169440772Y-137661360D01*
X169261987Y-137839832D01*
X169165111Y-138073137D01*
X169164890Y-138325755D01*
X169261360Y-138559228D01*
X169340000Y-138638006D01*
X169340000Y-138793175D01*
X169319835Y-138761838D01*
X169207887Y-138685347D01*
X169075000Y-138658437D01*
X168032099Y-138658437D01*
X169575269Y-137115267D01*
X169635594Y-137024985D01*
X169674985Y-136966032D01*
X169710000Y-136789998D01*
X169710000Y-136032409D01*
X169716563Y-136000000D01*
X169716563Y-134700000D01*
X169693204Y-134575856D01*
X169687500Y-134566992D01*
X169687500Y-134448750D01*
X169603750Y-134365000D01*
X169558365Y-134365000D01*
X169508398Y-134385696D01*
X169507887Y-134385347D01*
X169375000Y-134358437D01*
X169125000Y-134358437D01*
X169000856Y-134381796D01*
X168998342Y-134383414D01*
X168875000Y-134358437D01*
X168625000Y-134358437D01*
X168500856Y-134381796D01*
X168498342Y-134383414D01*
X168375000Y-134358437D01*
X168125000Y-134358437D01*
X168000856Y-134381796D01*
X167998342Y-134383414D01*
X167875000Y-134358437D01*
X167625000Y-134358437D01*
X167500856Y-134381796D01*
X167498342Y-134383414D01*
X167375000Y-134358437D01*
X167125000Y-134358437D01*
X167000856Y-134381796D01*
X166998342Y-134383414D01*
X166875000Y-134358437D01*
X166625000Y-134358437D01*
X166500856Y-134381796D01*
X166498342Y-134383414D01*
X166375000Y-134358437D01*
X166125000Y-134358437D01*
X166000856Y-134381796D01*
X165886838Y-134455165D01*
X165810347Y-134567113D01*
X165783437Y-134700000D01*
X165783437Y-136000000D01*
X165790000Y-136034880D01*
X165790000Y-136437054D01*
X165661987Y-136564843D01*
X165565111Y-136798148D01*
X165564890Y-137050766D01*
X165661360Y-137284239D01*
X165839832Y-137463024D01*
X166073137Y-137559900D01*
X166325755Y-137560121D01*
X166559228Y-137463651D01*
X166738013Y-137285179D01*
X166811081Y-137109211D01*
X166839832Y-137138013D01*
X167073137Y-137234889D01*
X167114537Y-137234925D01*
X164284462Y-140065000D01*
X163503750Y-140065000D01*
X163426250Y-139987500D01*
X163311038Y-139987500D01*
X163307887Y-139985347D01*
X163175000Y-139958437D01*
X161725000Y-139958437D01*
X161600856Y-139981796D01*
X161591992Y-139987500D01*
X161473750Y-139987500D01*
X161390000Y-140071250D01*
X161390000Y-140166635D01*
X161403731Y-140199785D01*
X161383437Y-140300000D01*
X161383437Y-140715000D01*
X160625000Y-140715000D01*
X160448965Y-140750015D01*
X160335000Y-140826165D01*
X160335000Y-139421250D01*
X161390000Y-139421250D01*
X161390000Y-139516635D01*
X161403820Y-139550000D01*
X161390000Y-139583365D01*
X161390000Y-139678750D01*
X161473750Y-139762500D01*
X161604044Y-139762500D01*
X161658364Y-139785000D01*
X162239250Y-139785000D01*
X162261750Y-139762500D01*
X162323000Y-139762500D01*
X162323000Y-139337500D01*
X162577000Y-139337500D01*
X162577000Y-139762500D01*
X162638250Y-139762500D01*
X162660750Y-139785000D01*
X163241636Y-139785000D01*
X163295956Y-139762500D01*
X163426250Y-139762500D01*
X163510000Y-139678750D01*
X163510000Y-139583365D01*
X163496180Y-139550000D01*
X163510000Y-139516635D01*
X163510000Y-139421250D01*
X163426250Y-139337500D01*
X163295956Y-139337500D01*
X163241636Y-139315000D01*
X162660750Y-139315000D01*
X162638250Y-139337500D01*
X162577000Y-139337500D01*
X162323000Y-139337500D01*
X162261750Y-139337500D01*
X162239250Y-139315000D01*
X161658364Y-139315000D01*
X161604044Y-139337500D01*
X161473750Y-139337500D01*
X161390000Y-139421250D01*
X160335000Y-139421250D01*
X160335000Y-138933365D01*
X161390000Y-138933365D01*
X161390000Y-139028750D01*
X161473750Y-139112500D01*
X162323000Y-139112500D01*
X162323000Y-138748750D01*
X162577000Y-138748750D01*
X162577000Y-139112500D01*
X163426250Y-139112500D01*
X163510000Y-139028750D01*
X163510000Y-138933365D01*
X163459000Y-138810238D01*
X163364763Y-138716001D01*
X163241636Y-138665000D01*
X162660750Y-138665000D01*
X162577000Y-138748750D01*
X162323000Y-138748750D01*
X162239250Y-138665000D01*
X161658364Y-138665000D01*
X161535237Y-138716001D01*
X161441000Y-138810238D01*
X161390000Y-138933365D01*
X160335000Y-138933365D01*
X160335000Y-136720865D01*
X160349144Y-136718204D01*
X160463162Y-136644835D01*
X160539653Y-136532887D01*
X160566563Y-136400000D01*
X160566563Y-135208975D01*
X161565538Y-134210000D01*
X163967591Y-134210000D01*
X164000000Y-134216563D01*
X165300000Y-134216563D01*
X165334880Y-134210000D01*
X165550000Y-134210000D01*
X165726035Y-134174985D01*
X165875269Y-134075269D01*
X166575269Y-133375269D01*
X166674984Y-133226035D01*
X166674985Y-133226034D01*
X166710000Y-133050000D01*
X166710000Y-127332409D01*
X166716563Y-127300000D01*
X166716563Y-126000000D01*
X166783437Y-126000000D01*
X166783437Y-127300000D01*
X166806796Y-127424144D01*
X166812500Y-127433008D01*
X166812500Y-127551250D01*
X166896250Y-127635000D01*
X166941635Y-127635000D01*
X166991602Y-127614304D01*
X166992113Y-127614653D01*
X167125000Y-127641563D01*
X167375000Y-127641563D01*
X167499144Y-127618204D01*
X167501658Y-127616586D01*
X167625000Y-127641563D01*
X167875000Y-127641563D01*
X167999144Y-127618204D01*
X168006456Y-127613499D01*
X168058365Y-127635000D01*
X168103750Y-127635000D01*
X168187500Y-127551250D01*
X168187500Y-127436038D01*
X168189653Y-127432887D01*
X168216563Y-127300000D01*
X168216563Y-126000000D01*
X168193204Y-125875856D01*
X168187500Y-125866992D01*
X168187500Y-125748750D01*
X168103750Y-125665000D01*
X168058365Y-125665000D01*
X168008398Y-125685696D01*
X168007887Y-125685347D01*
X167875000Y-125658437D01*
X167625000Y-125658437D01*
X167500856Y-125681796D01*
X167498342Y-125683414D01*
X167375000Y-125658437D01*
X167125000Y-125658437D01*
X167000856Y-125681796D01*
X166993544Y-125686501D01*
X166941635Y-125665000D01*
X166896250Y-125665000D01*
X166812500Y-125748750D01*
X166812500Y-125863962D01*
X166810347Y-125867113D01*
X166783437Y-126000000D01*
X166716563Y-126000000D01*
X166710000Y-125965120D01*
X166710000Y-122366563D01*
X166850000Y-122366563D01*
X166974144Y-122343204D01*
X167088162Y-122269835D01*
X167164653Y-122157887D01*
X167191563Y-122025000D01*
X167191563Y-121610750D01*
X167515000Y-121610750D01*
X167515000Y-122091635D01*
X167566000Y-122214762D01*
X167660237Y-122308999D01*
X167783364Y-122360000D01*
X168389250Y-122360000D01*
X168473000Y-122276250D01*
X168473000Y-121527000D01*
X168727000Y-121527000D01*
X168727000Y-122276250D01*
X168810750Y-122360000D01*
X169416636Y-122360000D01*
X169539763Y-122308999D01*
X169634000Y-122214762D01*
X169685000Y-122091635D01*
X169685000Y-121610750D01*
X169601250Y-121527000D01*
X168727000Y-121527000D01*
X168473000Y-121527000D01*
X167598750Y-121527000D01*
X167515000Y-121610750D01*
X167191563Y-121610750D01*
X167191563Y-120775000D01*
X167179025Y-120708365D01*
X167515000Y-120708365D01*
X167515000Y-121189250D01*
X167598750Y-121273000D01*
X168473000Y-121273000D01*
X168473000Y-120523750D01*
X168727000Y-120523750D01*
X168727000Y-121273000D01*
X169601250Y-121273000D01*
X169685000Y-121189250D01*
X169685000Y-120708365D01*
X169634000Y-120585238D01*
X169539763Y-120491001D01*
X169416636Y-120440000D01*
X168810750Y-120440000D01*
X168727000Y-120523750D01*
X168473000Y-120523750D01*
X168389250Y-120440000D01*
X167783364Y-120440000D01*
X167660237Y-120491001D01*
X167566000Y-120585238D01*
X167515000Y-120708365D01*
X167179025Y-120708365D01*
X167168204Y-120650856D01*
X167094835Y-120536838D01*
X166982887Y-120460347D01*
X166850000Y-120433437D01*
X165350000Y-120433437D01*
X165225856Y-120456796D01*
X165111838Y-120530165D01*
X165035347Y-120642113D01*
X165008437Y-120775000D01*
X165008437Y-122025000D01*
X165031796Y-122149144D01*
X165105165Y-122263162D01*
X165217113Y-122339653D01*
X165350000Y-122366563D01*
X165790000Y-122366563D01*
X165790000Y-125967591D01*
X165783437Y-126000000D01*
X165783437Y-127300000D01*
X165790000Y-127334880D01*
X165790000Y-132859462D01*
X165622141Y-133027321D01*
X165614304Y-133008398D01*
X165614653Y-133007887D01*
X165641563Y-132875000D01*
X165641563Y-132625000D01*
X165618204Y-132500856D01*
X165616586Y-132498342D01*
X165641563Y-132375000D01*
X165641563Y-132125000D01*
X165618204Y-132000856D01*
X165616586Y-131998342D01*
X165641563Y-131875000D01*
X165641563Y-131625000D01*
X165618204Y-131500856D01*
X165616586Y-131498342D01*
X165641563Y-131375000D01*
X165641563Y-131125000D01*
X165618204Y-131000856D01*
X165616586Y-130998342D01*
X165641563Y-130875000D01*
X165641563Y-130625000D01*
X165618204Y-130500856D01*
X165616586Y-130498342D01*
X165641563Y-130375000D01*
X165641563Y-130125000D01*
X165618204Y-130000856D01*
X165616586Y-129998342D01*
X165641563Y-129875000D01*
X165641563Y-129625000D01*
X165618204Y-129500856D01*
X165616586Y-129498342D01*
X165641563Y-129375000D01*
X165641563Y-129125000D01*
X165618204Y-129000856D01*
X165616586Y-128998342D01*
X165641563Y-128875000D01*
X165641563Y-128625000D01*
X165618204Y-128500856D01*
X165616586Y-128498342D01*
X165641563Y-128375000D01*
X165641563Y-128125000D01*
X165618204Y-128000856D01*
X165544835Y-127886838D01*
X165432887Y-127810347D01*
X165300000Y-127783437D01*
X164000000Y-127783437D01*
X163875856Y-127806796D01*
X163761838Y-127880165D01*
X163685347Y-127992113D01*
X163658437Y-128125000D01*
X163658437Y-128375000D01*
X163681796Y-128499144D01*
X163683414Y-128501658D01*
X163658437Y-128625000D01*
X163658437Y-128875000D01*
X163681796Y-128999144D01*
X163683414Y-129001658D01*
X163658437Y-129125000D01*
X163658437Y-129375000D01*
X163681796Y-129499144D01*
X163683414Y-129501658D01*
X163658437Y-129625000D01*
X163658437Y-129875000D01*
X163681796Y-129999144D01*
X163683414Y-130001658D01*
X163658437Y-130125000D01*
X163658437Y-130375000D01*
X163681796Y-130499144D01*
X163683414Y-130501658D01*
X163658437Y-130625000D01*
X163658437Y-130875000D01*
X163681796Y-130999144D01*
X163683414Y-131001658D01*
X163658437Y-131125000D01*
X163658437Y-131160428D01*
X163560168Y-131061987D01*
X163326863Y-130965111D01*
X163074245Y-130964890D01*
X162840772Y-131061360D01*
X162661987Y-131239832D01*
X162565111Y-131473137D01*
X162564890Y-131725755D01*
X162594650Y-131797778D01*
X162440772Y-131861360D01*
X162261987Y-132039832D01*
X162165111Y-132273137D01*
X162164890Y-132525755D01*
X162261360Y-132759228D01*
X162439832Y-132938013D01*
X162673137Y-133034889D01*
X162784448Y-133034986D01*
X162824731Y-133075269D01*
X162973965Y-133174985D01*
X163150000Y-133210000D01*
X163967591Y-133210000D01*
X164000000Y-133216563D01*
X164797000Y-133216563D01*
X164797000Y-133283437D01*
X164000000Y-133283437D01*
X163965120Y-133290000D01*
X161375000Y-133290000D01*
X161198965Y-133325015D01*
X161049731Y-133424731D01*
X160560000Y-133914462D01*
X160560000Y-133360750D01*
X160476250Y-133277000D01*
X159727000Y-133277000D01*
X159727000Y-134151250D01*
X159810750Y-134235000D01*
X160239462Y-134235000D01*
X159916025Y-134558437D01*
X158975000Y-134558437D01*
X158850856Y-134581796D01*
X158736838Y-134655165D01*
X158660347Y-134767113D01*
X158633437Y-134900000D01*
X158633437Y-136400000D01*
X158656796Y-136524144D01*
X158730165Y-136638162D01*
X158842113Y-136714653D01*
X158865000Y-136719288D01*
X158865000Y-146080002D01*
X158912486Y-146318728D01*
X158920949Y-146361274D01*
X159080277Y-146599725D01*
X162450275Y-149969724D01*
X162620350Y-150083364D01*
X162688727Y-150129052D01*
X162969999Y-150185001D01*
X165549999Y-150185001D01*
X165831271Y-150129052D01*
X165899647Y-150083364D01*
X168840000Y-150083364D01*
X168840000Y-150689250D01*
X168923750Y-150773000D01*
X169673000Y-150773000D01*
X169673000Y-149898750D01*
X169927000Y-149898750D01*
X169927000Y-150773000D01*
X170676250Y-150773000D01*
X170760000Y-150689250D01*
X170760000Y-150083364D01*
X170708999Y-149960237D01*
X170614762Y-149866000D01*
X170491635Y-149815000D01*
X170010750Y-149815000D01*
X169927000Y-149898750D01*
X169673000Y-149898750D01*
X169589250Y-149815000D01*
X169108365Y-149815000D01*
X168985238Y-149866000D01*
X168891001Y-149960237D01*
X168840000Y-150083364D01*
X165899647Y-150083364D01*
X166069722Y-149969724D01*
X166847884Y-149191563D01*
X167650000Y-149191563D01*
X167774144Y-149168204D01*
X167888162Y-149094835D01*
X167964653Y-148982887D01*
X167991563Y-148850000D01*
X167991563Y-147550000D01*
X167968204Y-147425856D01*
X167926049Y-147360345D01*
X168050001Y-147385001D01*
X168968174Y-147385001D01*
X168936838Y-147405165D01*
X168860347Y-147517113D01*
X168833437Y-147650000D01*
X168833437Y-149150000D01*
X168856796Y-149274144D01*
X168930165Y-149388162D01*
X169042113Y-149464653D01*
X169175000Y-149491563D01*
X170425000Y-149491563D01*
X170549144Y-149468204D01*
X170663162Y-149394835D01*
X170739653Y-149282887D01*
X170766563Y-149150000D01*
X170766563Y-149135000D01*
X171300000Y-149135000D01*
X171581272Y-149079051D01*
X171792441Y-148937952D01*
X171820507Y-149079051D01*
X171820949Y-149081272D01*
X171980277Y-149319723D01*
X172408437Y-149747883D01*
X172408437Y-150425000D01*
X172431796Y-150549144D01*
X172505165Y-150663162D01*
X172617113Y-150739653D01*
X172750000Y-150766563D01*
X173552117Y-150766563D01*
X174530276Y-151744723D01*
X174672514Y-151839763D01*
X174768728Y-151904051D01*
X175050000Y-151960000D01*
X176825000Y-151960000D01*
X177106272Y-151904051D01*
X177344723Y-151744723D01*
X178554447Y-150535000D01*
X178724431Y-150535000D01*
X178731796Y-150574144D01*
X178805165Y-150688162D01*
X178917113Y-150764653D01*
X179050000Y-150791563D01*
X180550000Y-150791563D01*
X180674144Y-150768204D01*
X180788162Y-150694835D01*
X180864653Y-150582887D01*
X180891563Y-150450000D01*
X180891563Y-149150000D01*
X181408437Y-149150000D01*
X181408437Y-150450000D01*
X181431796Y-150574144D01*
X181505165Y-150688162D01*
X181617113Y-150764653D01*
X181750000Y-150791563D01*
X183250000Y-150791563D01*
X183374144Y-150768204D01*
X183488162Y-150694835D01*
X183564653Y-150582887D01*
X183574350Y-150535000D01*
X183745554Y-150535000D01*
X184768278Y-151557725D01*
X185006106Y-151716636D01*
X185006729Y-151717052D01*
X185288001Y-151773001D01*
X189453557Y-151773001D01*
X191948992Y-154268437D01*
X190550000Y-154268437D01*
X190425856Y-154291796D01*
X190311838Y-154365165D01*
X190235347Y-154477113D01*
X190208437Y-154610000D01*
X190208437Y-156310000D01*
X190231796Y-156434144D01*
X190305165Y-156548162D01*
X190417113Y-156624653D01*
X190550000Y-156651563D01*
X192115001Y-156651563D01*
X192115001Y-157064433D01*
X191876696Y-156905203D01*
X191423216Y-156815000D01*
X191376784Y-156815000D01*
X190923304Y-156905203D01*
X190538862Y-157162078D01*
X190281987Y-157546520D01*
X190191784Y-158000000D01*
X190219785Y-158140769D01*
X190095554Y-158265000D01*
X185741563Y-158265000D01*
X185741563Y-157500000D01*
X185718204Y-157375856D01*
X185644835Y-157261838D01*
X185532887Y-157185347D01*
X185400000Y-157158437D01*
X182400000Y-157158437D01*
X182275856Y-157181796D01*
X182161838Y-157255165D01*
X182085347Y-157367113D01*
X182058437Y-157500000D01*
X182058437Y-160500000D01*
X182081796Y-160624144D01*
X182155165Y-160738162D01*
X182267113Y-160814653D01*
X182400000Y-160841563D01*
X185400000Y-160841563D01*
X185524144Y-160818204D01*
X185638162Y-160744835D01*
X185714653Y-160632887D01*
X185741563Y-160500000D01*
X185741563Y-159735000D01*
X190400000Y-159735000D01*
X190534778Y-159708191D01*
X190281987Y-160086520D01*
X190191784Y-160540000D01*
X190281987Y-160993480D01*
X190538862Y-161377922D01*
X190923304Y-161634797D01*
X191376784Y-161725000D01*
X191423216Y-161725000D01*
X191876696Y-161634797D01*
X192261138Y-161377922D01*
X192518013Y-160993480D01*
X192608216Y-160540000D01*
X192580215Y-160399231D01*
X193369724Y-159609723D01*
X193529052Y-159371271D01*
X193530617Y-159363403D01*
X193585001Y-159089999D01*
X193585001Y-154129999D01*
X193529052Y-153848727D01*
X193369725Y-153610276D01*
X191031011Y-151271563D01*
X192800000Y-151271563D01*
X192924144Y-151248204D01*
X193038162Y-151174835D01*
X193114653Y-151062887D01*
X193141563Y-150930000D01*
X193141563Y-148430000D01*
X193118204Y-148305856D01*
X193044835Y-148191838D01*
X192932887Y-148115347D01*
X192800000Y-148088437D01*
X192458812Y-148088437D01*
X192319723Y-147880276D01*
X187719723Y-143280277D01*
X187481272Y-143120949D01*
X187200000Y-143065001D01*
X186918728Y-143120949D01*
X186680277Y-143280277D01*
X186520949Y-143518728D01*
X186465001Y-143800000D01*
X186520949Y-144081272D01*
X186680277Y-144319723D01*
X190555295Y-148194741D01*
X190485347Y-148297113D01*
X190458437Y-148430000D01*
X190458437Y-150698989D01*
X190277726Y-150518278D01*
X190039275Y-150358950D01*
X189758003Y-150303001D01*
X187613746Y-150303001D01*
X187773461Y-150143564D01*
X187984759Y-149634702D01*
X187985240Y-149083715D01*
X187774831Y-148574485D01*
X187385564Y-148184539D01*
X186876702Y-147973241D01*
X186325715Y-147972760D01*
X185816485Y-148183169D01*
X185426539Y-148572436D01*
X185215241Y-149081298D01*
X185214760Y-149632285D01*
X185421090Y-150131644D01*
X184569723Y-149280277D01*
X184331272Y-149120949D01*
X184050000Y-149065000D01*
X183575569Y-149065000D01*
X183568204Y-149025856D01*
X183494835Y-148911838D01*
X183382887Y-148835347D01*
X183250000Y-148808437D01*
X181750000Y-148808437D01*
X181625856Y-148831796D01*
X181511838Y-148905165D01*
X181435347Y-149017113D01*
X181408437Y-149150000D01*
X180891563Y-149150000D01*
X180868204Y-149025856D01*
X180794835Y-148911838D01*
X180682887Y-148835347D01*
X180550000Y-148808437D01*
X179050000Y-148808437D01*
X178925856Y-148831796D01*
X178811838Y-148905165D01*
X178735347Y-149017113D01*
X178725650Y-149065000D01*
X178250000Y-149065000D01*
X177968728Y-149120949D01*
X177730276Y-149280277D01*
X177042402Y-149968152D01*
X177001250Y-149927000D01*
X176127000Y-149927000D01*
X176127000Y-149947000D01*
X175873000Y-149947000D01*
X175873000Y-149927000D01*
X174998750Y-149927000D01*
X174915000Y-150010750D01*
X174915000Y-150050553D01*
X174591563Y-149727117D01*
X174591563Y-149175000D01*
X174579025Y-149108365D01*
X174915000Y-149108365D01*
X174915000Y-149589250D01*
X174998750Y-149673000D01*
X175873000Y-149673000D01*
X175873000Y-148923750D01*
X176127000Y-148923750D01*
X176127000Y-149673000D01*
X177001250Y-149673000D01*
X177085000Y-149589250D01*
X177085000Y-149108365D01*
X177034000Y-148985238D01*
X176939763Y-148891001D01*
X176816636Y-148840000D01*
X176210750Y-148840000D01*
X176127000Y-148923750D01*
X175873000Y-148923750D01*
X175789250Y-148840000D01*
X175183364Y-148840000D01*
X175060237Y-148891001D01*
X174966000Y-148985238D01*
X174915000Y-149108365D01*
X174579025Y-149108365D01*
X174568204Y-149050856D01*
X174494835Y-148936838D01*
X174382887Y-148860347D01*
X174250000Y-148833437D01*
X173799962Y-148833437D01*
X173781272Y-148820949D01*
X173505551Y-148766104D01*
X173235000Y-148495554D01*
X173235000Y-146391563D01*
X173250000Y-146391563D01*
X173374144Y-146368204D01*
X173488162Y-146294835D01*
X173564653Y-146182887D01*
X173591563Y-146050000D01*
X173591563Y-144750000D01*
X173568204Y-144625856D01*
X173494835Y-144511838D01*
X173382887Y-144435347D01*
X173250000Y-144408437D01*
X172735000Y-144408437D01*
X172735000Y-142770865D01*
X172749144Y-142768204D01*
X172863162Y-142694835D01*
X172939653Y-142582887D01*
X172966563Y-142450000D01*
X172966563Y-142435000D01*
X175008437Y-142435000D01*
X175008437Y-142450000D01*
X175031796Y-142574144D01*
X175105165Y-142688162D01*
X175217113Y-142764653D01*
X175350000Y-142791563D01*
X176650000Y-142791563D01*
X176774144Y-142768204D01*
X176888162Y-142694835D01*
X176964653Y-142582887D01*
X176991563Y-142450000D01*
X176991563Y-142435000D01*
X178540000Y-142435000D01*
X178821272Y-142379051D01*
X179059723Y-142219723D01*
X184817814Y-136461632D01*
X185306277Y-136461632D01*
X185499601Y-136862820D01*
X185845644Y-137176854D01*
X186285521Y-137334559D01*
X186473000Y-137263832D01*
X186473000Y-136277000D01*
X185356018Y-136277000D01*
X185306277Y-136461632D01*
X184817814Y-136461632D01*
X185319724Y-135959723D01*
X185333440Y-135939195D01*
X185356018Y-136023000D01*
X186473000Y-136023000D01*
X186473000Y-135036168D01*
X186285521Y-134965441D01*
X186114798Y-135026649D01*
X186351270Y-134790177D01*
X186435846Y-134807000D01*
X186764154Y-134807000D01*
X186848730Y-134790177D01*
X187085202Y-135026649D01*
X186914479Y-134965441D01*
X186727000Y-135036168D01*
X186727000Y-136023000D01*
X186747000Y-136023000D01*
X186747000Y-136277000D01*
X186727000Y-136277000D01*
X186727000Y-137263832D01*
X186914479Y-137334559D01*
X187354356Y-137176854D01*
X187665000Y-136894945D01*
X187665000Y-137470000D01*
X187716529Y-137729050D01*
X187720949Y-137751272D01*
X187880277Y-137989723D01*
X190458437Y-140567884D01*
X190458437Y-142370000D01*
X190481796Y-142494144D01*
X190555165Y-142608162D01*
X190667113Y-142684653D01*
X190800000Y-142711563D01*
X192800000Y-142711563D01*
X192924144Y-142688204D01*
X193038162Y-142614835D01*
X193114653Y-142502887D01*
X193141563Y-142370000D01*
X193141563Y-139870000D01*
X193118204Y-139745856D01*
X193044835Y-139631838D01*
X192932887Y-139555347D01*
X192800000Y-139528437D01*
X191497884Y-139528437D01*
X189135000Y-137165554D01*
X189135000Y-135302000D01*
X189104766Y-135150000D01*
X190458437Y-135150000D01*
X190458437Y-137650000D01*
X190481796Y-137774144D01*
X190555165Y-137888162D01*
X190667113Y-137964653D01*
X190800000Y-137991563D01*
X192352116Y-137991563D01*
X193280276Y-138919723D01*
X193518728Y-139079051D01*
X193800000Y-139134999D01*
X194081272Y-139079051D01*
X194319723Y-138919723D01*
X194479051Y-138681272D01*
X194534999Y-138400000D01*
X194479051Y-138118728D01*
X194319723Y-137880276D01*
X193141563Y-136702117D01*
X193141563Y-135150000D01*
X193118204Y-135025856D01*
X193044835Y-134911838D01*
X192932887Y-134835347D01*
X192800000Y-134808437D01*
X190800000Y-134808437D01*
X190675856Y-134831796D01*
X190561838Y-134905165D01*
X190485347Y-135017113D01*
X190458437Y-135150000D01*
X189104766Y-135150000D01*
X189079051Y-135020728D01*
X189045790Y-134970949D01*
X188919724Y-134782277D01*
X187925698Y-133788251D01*
X187961154Y-133610000D01*
X187870038Y-133151928D01*
X187610561Y-132763593D01*
X187335000Y-132579469D01*
X187335000Y-132100531D01*
X187610561Y-131916407D01*
X187664955Y-131835000D01*
X188540000Y-131835000D01*
X188821272Y-131779051D01*
X189059723Y-131619723D01*
X191247884Y-129431563D01*
X192800000Y-129431563D01*
X192924144Y-129408204D01*
X193038162Y-129334835D01*
X193114653Y-129222887D01*
X193141563Y-129090000D01*
X193141563Y-126590000D01*
X193118204Y-126465856D01*
X193044835Y-126351838D01*
X192932887Y-126275347D01*
X192800000Y-126248437D01*
X192535000Y-126248437D01*
X192535000Y-126094446D01*
X198719724Y-119909723D01*
X198879052Y-119671271D01*
X198886904Y-119631796D01*
X198890000Y-119616232D01*
X198890000Y-165940000D01*
X136360000Y-165940000D01*
X136360000Y-155078126D01*
X138465000Y-157183127D01*
X138465000Y-157318223D01*
X138161914Y-157443455D01*
X137645270Y-157959199D01*
X137365319Y-158633395D01*
X137364682Y-159363403D01*
X137643455Y-160038086D01*
X138159199Y-160554730D01*
X138833395Y-160834681D01*
X139563403Y-160835318D01*
X140238086Y-160556545D01*
X140754730Y-160040801D01*
X141034681Y-159366605D01*
X141035318Y-158636597D01*
X140756545Y-157961914D01*
X140240801Y-157445270D01*
X139935000Y-157318290D01*
X139935000Y-156878680D01*
X139879051Y-156597408D01*
X139846146Y-156548162D01*
X139719724Y-156358957D01*
X136944999Y-153584233D01*
X136944999Y-151110750D01*
X168840000Y-151110750D01*
X168840000Y-151716636D01*
X168891001Y-151839763D01*
X168985238Y-151934000D01*
X169108365Y-151985000D01*
X169589250Y-151985000D01*
X169673000Y-151901250D01*
X169673000Y-151027000D01*
X169927000Y-151027000D01*
X169927000Y-151901250D01*
X170010750Y-151985000D01*
X170491635Y-151985000D01*
X170614762Y-151934000D01*
X170708999Y-151839763D01*
X170760000Y-151716636D01*
X170760000Y-151110750D01*
X170676250Y-151027000D01*
X169927000Y-151027000D01*
X169673000Y-151027000D01*
X168923750Y-151027000D01*
X168840000Y-151110750D01*
X136944999Y-151110750D01*
X136944999Y-149991563D01*
X138510000Y-149991563D01*
X138634144Y-149968204D01*
X138748162Y-149894835D01*
X138824653Y-149782887D01*
X138851563Y-149650000D01*
X138851563Y-149109745D01*
X139056186Y-149109745D01*
X139261788Y-149523886D01*
X139610224Y-149827822D01*
X139890256Y-149943803D01*
X140073000Y-149893902D01*
X140073000Y-148927000D01*
X140327000Y-148927000D01*
X140327000Y-149893902D01*
X140509744Y-149943803D01*
X140789776Y-149827822D01*
X141013942Y-149632285D01*
X145590760Y-149632285D01*
X145801169Y-150141515D01*
X146190436Y-150531461D01*
X146699298Y-150742759D01*
X147250285Y-150743240D01*
X147759515Y-150532831D01*
X148149461Y-150143564D01*
X148360759Y-149634702D01*
X148361240Y-149083715D01*
X148150831Y-148574485D01*
X147761564Y-148184539D01*
X147252702Y-147973241D01*
X146701715Y-147972760D01*
X146192485Y-148183169D01*
X145802539Y-148572436D01*
X145591241Y-149081298D01*
X145590760Y-149632285D01*
X141013942Y-149632285D01*
X141138212Y-149523886D01*
X141343814Y-149109745D01*
X141294437Y-148927000D01*
X140327000Y-148927000D01*
X140073000Y-148927000D01*
X139105563Y-148927000D01*
X139056186Y-149109745D01*
X138851563Y-149109745D01*
X138851563Y-148490255D01*
X139056186Y-148490255D01*
X139105563Y-148673000D01*
X140073000Y-148673000D01*
X140073000Y-147706098D01*
X140327000Y-147706098D01*
X140327000Y-148673000D01*
X141294437Y-148673000D01*
X141343814Y-148490255D01*
X141138212Y-148076114D01*
X140789776Y-147772178D01*
X140509744Y-147656197D01*
X140327000Y-147706098D01*
X140073000Y-147706098D01*
X139890256Y-147656197D01*
X139610224Y-147772178D01*
X139261788Y-148076114D01*
X139056186Y-148490255D01*
X138851563Y-148490255D01*
X138851563Y-147950000D01*
X138828204Y-147825856D01*
X138754835Y-147711838D01*
X138642887Y-147635347D01*
X138510000Y-147608437D01*
X138395000Y-147608437D01*
X138395000Y-145929908D01*
X138497922Y-145861138D01*
X138754797Y-145476696D01*
X138807697Y-145210750D01*
X139015000Y-145210750D01*
X139015000Y-145916636D01*
X139066001Y-146039763D01*
X139160238Y-146134000D01*
X139283365Y-146185000D01*
X139989250Y-146185000D01*
X140073000Y-146101250D01*
X140073000Y-145127000D01*
X140327000Y-145127000D01*
X140327000Y-146101250D01*
X140410750Y-146185000D01*
X141116635Y-146185000D01*
X141239762Y-146134000D01*
X141333999Y-146039763D01*
X141385000Y-145916636D01*
X141385000Y-145210750D01*
X141301250Y-145127000D01*
X140327000Y-145127000D01*
X140073000Y-145127000D01*
X139098750Y-145127000D01*
X139015000Y-145210750D01*
X138807697Y-145210750D01*
X138845000Y-145023216D01*
X138845000Y-144976784D01*
X138824703Y-144874744D01*
X139015000Y-144684447D01*
X139015000Y-144789250D01*
X139098750Y-144873000D01*
X140073000Y-144873000D01*
X140073000Y-143898750D01*
X140327000Y-143898750D01*
X140327000Y-144873000D01*
X141301250Y-144873000D01*
X141385000Y-144789250D01*
X141385000Y-144083364D01*
X141333999Y-143960237D01*
X141239762Y-143866000D01*
X141116635Y-143815000D01*
X140410750Y-143815000D01*
X140327000Y-143898750D01*
X140073000Y-143898750D01*
X139989250Y-143815000D01*
X139644444Y-143815000D01*
X143624445Y-139835000D01*
X146408437Y-139835000D01*
X146408437Y-139850000D01*
X146431796Y-139974144D01*
X146505165Y-140088162D01*
X146617113Y-140164653D01*
X146750000Y-140191563D01*
X148050000Y-140191563D01*
X148174144Y-140168204D01*
X148288162Y-140094835D01*
X148364653Y-139982887D01*
X148391563Y-139850000D01*
X148391563Y-139560000D01*
X148900000Y-139560000D01*
X149076035Y-139524985D01*
X149225269Y-139425269D01*
X150015524Y-138635014D01*
X150125755Y-138635110D01*
X150359228Y-138538640D01*
X150538013Y-138360168D01*
X150634889Y-138126863D01*
X150635110Y-137874245D01*
X150538640Y-137640772D01*
X150360168Y-137461987D01*
X150126863Y-137365111D01*
X149874245Y-137364890D01*
X149640772Y-137461360D01*
X149461987Y-137639832D01*
X149365111Y-137873137D01*
X149365014Y-137984448D01*
X148709462Y-138640000D01*
X148391563Y-138640000D01*
X148391563Y-138350000D01*
X148368204Y-138225856D01*
X148294835Y-138111838D01*
X148182887Y-138035347D01*
X148050000Y-138008437D01*
X146750000Y-138008437D01*
X146625856Y-138031796D01*
X146511838Y-138105165D01*
X146435347Y-138217113D01*
X146408437Y-138350000D01*
X146408437Y-138365000D01*
X143319998Y-138365000D01*
X143038726Y-138420949D01*
X142800275Y-138580276D01*
X137990276Y-143390276D01*
X137830948Y-143628727D01*
X137793242Y-143818287D01*
X137660000Y-143791784D01*
X137206520Y-143881987D01*
X136944999Y-144056729D01*
X136944999Y-138294447D01*
X137669725Y-137569722D01*
X137669727Y-137569719D01*
X137874743Y-137364703D01*
X137976784Y-137385000D01*
X138023216Y-137385000D01*
X138476696Y-137294797D01*
X138805647Y-137075000D01*
X141394353Y-137075000D01*
X141723304Y-137294797D01*
X142176784Y-137385000D01*
X142223216Y-137385000D01*
X142676696Y-137294797D01*
X143061138Y-137037922D01*
X143318013Y-136653480D01*
X143408216Y-136200000D01*
X143318013Y-135746520D01*
X143061138Y-135362078D01*
X142935000Y-135277796D01*
X142935000Y-134582204D01*
X143061138Y-134497922D01*
X143318013Y-134113480D01*
X143408216Y-133660000D01*
X143355492Y-133394938D01*
X146408437Y-136447884D01*
X146408437Y-137150000D01*
X146431796Y-137274144D01*
X146505165Y-137388162D01*
X146617113Y-137464653D01*
X146750000Y-137491563D01*
X148050000Y-137491563D01*
X148174144Y-137468204D01*
X148288162Y-137394835D01*
X148364653Y-137282887D01*
X148391563Y-137150000D01*
X148391563Y-136841787D01*
X148476035Y-136824985D01*
X148625269Y-136725269D01*
X151989788Y-133360750D01*
X158640000Y-133360750D01*
X158640000Y-133966636D01*
X158691001Y-134089763D01*
X158785238Y-134184000D01*
X158908365Y-134235000D01*
X159389250Y-134235000D01*
X159473000Y-134151250D01*
X159473000Y-133277000D01*
X158723750Y-133277000D01*
X158640000Y-133360750D01*
X151989788Y-133360750D01*
X153017174Y-132333364D01*
X158640000Y-132333364D01*
X158640000Y-132939250D01*
X158723750Y-133023000D01*
X159473000Y-133023000D01*
X159473000Y-132148750D01*
X159727000Y-132148750D01*
X159727000Y-133023000D01*
X160476250Y-133023000D01*
X160560000Y-132939250D01*
X160560000Y-132333364D01*
X160508999Y-132210237D01*
X160414762Y-132116000D01*
X160291635Y-132065000D01*
X159810750Y-132065000D01*
X159727000Y-132148750D01*
X159473000Y-132148750D01*
X159389250Y-132065000D01*
X158908365Y-132065000D01*
X158785238Y-132116000D01*
X158691001Y-132210237D01*
X158640000Y-132333364D01*
X153017174Y-132333364D01*
X161490538Y-123860000D01*
X164361956Y-123860000D01*
X164439832Y-123938013D01*
X164673137Y-124034889D01*
X164925755Y-124035110D01*
X165159228Y-123938640D01*
X165338013Y-123760168D01*
X165434889Y-123526863D01*
X165435110Y-123274245D01*
X165338640Y-123040772D01*
X165160168Y-122861987D01*
X164926863Y-122765111D01*
X164674245Y-122764890D01*
X164440772Y-122861360D01*
X164361994Y-122940000D01*
X161300000Y-122940000D01*
X161123966Y-122975015D01*
X161049136Y-123025015D01*
X160974731Y-123074731D01*
X148391563Y-135657899D01*
X148391563Y-135650000D01*
X148368204Y-135525856D01*
X148294835Y-135411838D01*
X148182887Y-135335347D01*
X148050000Y-135308437D01*
X147347884Y-135308437D01*
X143366942Y-131327496D01*
X143408216Y-131120000D01*
X143318013Y-130666520D01*
X143061138Y-130282078D01*
X142935000Y-130197796D01*
X142935000Y-129771563D01*
X143050000Y-129771563D01*
X143174144Y-129748204D01*
X143288162Y-129674835D01*
X143364653Y-129562887D01*
X143391563Y-129430000D01*
X143391563Y-127730000D01*
X143368204Y-127605856D01*
X143294835Y-127491838D01*
X143182887Y-127415347D01*
X143050000Y-127388437D01*
X141350000Y-127388437D01*
X141225856Y-127411796D01*
X141111838Y-127485165D01*
X141035347Y-127597113D01*
X141008437Y-127730000D01*
X141008437Y-127845000D01*
X139191563Y-127845000D01*
X139191563Y-127730000D01*
X139168204Y-127605856D01*
X139094835Y-127491838D01*
X138982887Y-127415347D01*
X138850000Y-127388437D01*
X137284999Y-127388437D01*
X137284999Y-121718590D01*
X137410224Y-121827822D01*
X137690256Y-121943803D01*
X137873000Y-121893902D01*
X137873000Y-120927000D01*
X138127000Y-120927000D01*
X138127000Y-121893902D01*
X138309744Y-121943803D01*
X138589776Y-121827822D01*
X138938212Y-121523886D01*
X139143814Y-121109745D01*
X139094437Y-120927000D01*
X138127000Y-120927000D01*
X137873000Y-120927000D01*
X137853000Y-120927000D01*
X137853000Y-120673000D01*
X137873000Y-120673000D01*
X137873000Y-119706098D01*
X138127000Y-119706098D01*
X138127000Y-120673000D01*
X139094437Y-120673000D01*
X139143814Y-120490255D01*
X138938212Y-120076114D01*
X138589776Y-119772178D01*
X138309744Y-119656197D01*
X138127000Y-119706098D01*
X137873000Y-119706098D01*
X137690256Y-119656197D01*
X137410224Y-119772178D01*
X137284999Y-119881410D01*
X137284999Y-117918590D01*
X137410224Y-118027822D01*
X137690256Y-118143803D01*
X137873000Y-118093902D01*
X137873000Y-117127000D01*
X138127000Y-117127000D01*
X138127000Y-118093902D01*
X138309744Y-118143803D01*
X138589776Y-118027822D01*
X138938212Y-117723886D01*
X139143814Y-117309745D01*
X139094437Y-117127000D01*
X138127000Y-117127000D01*
X137873000Y-117127000D01*
X137853000Y-117127000D01*
X137853000Y-116873000D01*
X137873000Y-116873000D01*
X137873000Y-115906098D01*
X138127000Y-115906098D01*
X138127000Y-116873000D01*
X139094437Y-116873000D01*
X139143814Y-116690255D01*
X138938212Y-116276114D01*
X138793634Y-116150000D01*
X139348437Y-116150000D01*
X139348437Y-117850000D01*
X139371796Y-117974144D01*
X139445165Y-118088162D01*
X139557113Y-118164653D01*
X139665000Y-118186500D01*
X139665000Y-119613141D01*
X139565856Y-119631796D01*
X139451838Y-119705165D01*
X139375347Y-119817113D01*
X139348437Y-119950000D01*
X139348437Y-121650000D01*
X139371796Y-121774144D01*
X139445165Y-121888162D01*
X139557113Y-121964653D01*
X139690000Y-121991563D01*
X141390000Y-121991563D01*
X141514144Y-121968204D01*
X141628162Y-121894835D01*
X141704653Y-121782887D01*
X141731563Y-121650000D01*
X141731563Y-119950000D01*
X141708204Y-119825856D01*
X141634835Y-119711838D01*
X141522887Y-119635347D01*
X141390000Y-119608437D01*
X141135000Y-119608437D01*
X141135000Y-118191563D01*
X141390000Y-118191563D01*
X141514144Y-118168204D01*
X141628162Y-118094835D01*
X141704653Y-117982887D01*
X141731563Y-117850000D01*
X141731563Y-116150000D01*
X141708204Y-116025856D01*
X141634835Y-115911838D01*
X141522887Y-115835347D01*
X141390000Y-115808437D01*
X139690000Y-115808437D01*
X139565856Y-115831796D01*
X139451838Y-115905165D01*
X139375347Y-116017113D01*
X139348437Y-116150000D01*
X138793634Y-116150000D01*
X138589776Y-115972178D01*
X138309744Y-115856197D01*
X138127000Y-115906098D01*
X137873000Y-115906098D01*
X137690256Y-115856197D01*
X137410224Y-115972178D01*
X137284999Y-116081410D01*
X137284999Y-114204447D01*
X138319723Y-113169724D01*
X138479051Y-112931272D01*
X138535000Y-112650000D01*
X138535000Y-112191563D01*
X138650000Y-112191563D01*
X138774144Y-112168204D01*
X138888162Y-112094835D01*
X138964653Y-111982887D01*
X138991563Y-111850000D01*
X138991563Y-111735000D01*
X139417796Y-111735000D01*
X139502078Y-111861138D01*
X139886520Y-112118013D01*
X140340000Y-112208216D01*
X140793480Y-112118013D01*
X141177922Y-111861138D01*
X141434797Y-111476696D01*
X141525000Y-111023216D01*
X141525000Y-110976784D01*
X141434797Y-110523304D01*
X141177922Y-110138862D01*
X140793480Y-109881987D01*
X140340000Y-109791784D01*
X139886520Y-109881987D01*
X139872164Y-109891580D01*
X139879051Y-109881272D01*
X139896851Y-109791784D01*
X139935000Y-109600000D01*
X139935000Y-107976285D01*
X145590760Y-107976285D01*
X145801169Y-108485515D01*
X146190436Y-108875461D01*
X146699298Y-109086759D01*
X147250285Y-109087240D01*
X147759515Y-108876831D01*
X148149461Y-108487564D01*
X148360759Y-107978702D01*
X148360761Y-107976285D01*
X185214760Y-107976285D01*
X185425169Y-108485515D01*
X185814436Y-108875461D01*
X186323298Y-109086759D01*
X186874285Y-109087240D01*
X187383515Y-108876831D01*
X187773461Y-108487564D01*
X187984759Y-107978702D01*
X187985240Y-107427715D01*
X187774831Y-106918485D01*
X187385564Y-106528539D01*
X186876702Y-106317241D01*
X186325715Y-106316760D01*
X185816485Y-106527169D01*
X185426539Y-106916436D01*
X185215241Y-107425298D01*
X185214760Y-107976285D01*
X148360761Y-107976285D01*
X148361240Y-107427715D01*
X148150831Y-106918485D01*
X147761564Y-106528539D01*
X147252702Y-106317241D01*
X146701715Y-106316760D01*
X146192485Y-106527169D01*
X145802539Y-106916436D01*
X145591241Y-107425298D01*
X145590760Y-107976285D01*
X139935000Y-107976285D01*
X139935000Y-100041563D01*
X140700000Y-100041563D01*
X140824144Y-100018204D01*
X140938162Y-99944835D01*
X141014653Y-99832887D01*
X141041563Y-99700000D01*
X141041563Y-99550349D01*
X182729256Y-99550349D01*
X182905565Y-99784788D01*
X183587734Y-100044707D01*
X184317443Y-100023786D01*
X184894435Y-99784788D01*
X185070744Y-99550349D01*
X183900000Y-98379605D01*
X182729256Y-99550349D01*
X141041563Y-99550349D01*
X141041563Y-97887734D01*
X182055293Y-97887734D01*
X182076214Y-98617443D01*
X182315212Y-99194435D01*
X182549651Y-99370744D01*
X183720395Y-98200000D01*
X184079605Y-98200000D01*
X185250349Y-99370744D01*
X185484788Y-99194435D01*
X185744707Y-98512266D01*
X185723786Y-97782557D01*
X185484788Y-97205565D01*
X185250349Y-97029256D01*
X184079605Y-98200000D01*
X183720395Y-98200000D01*
X182549651Y-97029256D01*
X182315212Y-97205565D01*
X182055293Y-97887734D01*
X141041563Y-97887734D01*
X141041563Y-96849651D01*
X182729256Y-96849651D01*
X183900000Y-98020395D01*
X185070744Y-96849651D01*
X184894435Y-96615212D01*
X184212266Y-96355293D01*
X183482557Y-96376214D01*
X182905565Y-96615212D01*
X182729256Y-96849651D01*
X141041563Y-96849651D01*
X141041563Y-96700000D01*
X141018204Y-96575856D01*
X140944835Y-96461838D01*
X140832887Y-96385347D01*
X140700000Y-96358437D01*
X137700000Y-96358437D01*
X137575856Y-96381796D01*
X137461838Y-96455165D01*
X137385347Y-96567113D01*
X137358437Y-96700000D01*
X137358437Y-99700000D01*
X137381796Y-99824144D01*
X137455165Y-99938162D01*
X137567113Y-100014653D01*
X137700000Y-100041563D01*
X138465000Y-100041563D01*
X138465000Y-109295554D01*
X137952117Y-109808437D01*
X136950000Y-109808437D01*
X136825856Y-109831796D01*
X136711838Y-109905165D01*
X136635347Y-110017113D01*
X136608437Y-110150000D01*
X136608437Y-111850000D01*
X136631796Y-111974144D01*
X136705165Y-112088162D01*
X136817113Y-112164653D01*
X136950000Y-112191563D01*
X137065000Y-112191563D01*
X137065000Y-112345553D01*
X136360000Y-113050554D01*
X136360000Y-91260000D01*
X198890000Y-91260000D01*
X198890000Y-111143768D01*
G36*
X183608314Y-127758852D02*
X183608314Y-127844999D01*
X183643329Y-128021034D01*
X183743045Y-128170268D01*
X185645056Y-130072279D01*
X185730476Y-130129355D01*
X185589439Y-130223593D01*
X185329962Y-130611928D01*
X185238846Y-131070000D01*
X185329962Y-131528072D01*
X185589439Y-131916407D01*
X185865000Y-132100531D01*
X185865000Y-132579469D01*
X185589439Y-132763593D01*
X185329962Y-133151928D01*
X185238846Y-133610000D01*
X185274302Y-133788251D01*
X184280277Y-134782277D01*
X184120949Y-135020728D01*
X184106330Y-135094223D01*
X178235554Y-140965000D01*
X176991563Y-140965000D01*
X176991563Y-140950000D01*
X176968204Y-140825856D01*
X176894835Y-140711838D01*
X176782887Y-140635347D01*
X176650000Y-140608437D01*
X175350000Y-140608437D01*
X175225856Y-140631796D01*
X175111838Y-140705165D01*
X175035347Y-140817113D01*
X175008437Y-140950000D01*
X175008437Y-140965000D01*
X173260538Y-140965000D01*
X173275270Y-140950268D01*
X173320293Y-140882887D01*
X173374986Y-140801033D01*
X173410001Y-140624999D01*
X173410001Y-137450001D01*
X173397072Y-137385000D01*
X173374986Y-137273966D01*
X173275270Y-137124732D01*
X172210000Y-136059462D01*
X172210000Y-136032409D01*
X172216563Y-136000000D01*
X172216563Y-134700000D01*
X172199668Y-134610208D01*
X175497897Y-137908437D01*
X175350000Y-137908437D01*
X175225856Y-137931796D01*
X175111838Y-138005165D01*
X175035347Y-138117113D01*
X175008437Y-138250000D01*
X175008437Y-139750000D01*
X175031796Y-139874144D01*
X175105165Y-139988162D01*
X175217113Y-140064653D01*
X175350000Y-140091563D01*
X176650000Y-140091563D01*
X176774144Y-140068204D01*
X176888162Y-139994835D01*
X176964653Y-139882887D01*
X176991563Y-139750000D01*
X176991563Y-138250000D01*
X176968204Y-138125856D01*
X176894835Y-138011838D01*
X176782887Y-137935347D01*
X176650000Y-137908437D01*
X176460000Y-137908437D01*
X176460000Y-137760002D01*
X176440379Y-137661360D01*
X176424985Y-137583967D01*
X176325269Y-137434733D01*
X173107099Y-134216563D01*
X174000000Y-134216563D01*
X174124144Y-134193204D01*
X174238162Y-134119835D01*
X174314653Y-134007887D01*
X174341563Y-133875000D01*
X174341563Y-133625000D01*
X174318204Y-133500856D01*
X174316586Y-133498342D01*
X174341563Y-133375000D01*
X174341563Y-133125000D01*
X174318204Y-133000856D01*
X174316586Y-132998342D01*
X174341563Y-132875000D01*
X174341563Y-132625000D01*
X174318204Y-132500856D01*
X174316586Y-132498342D01*
X174341563Y-132375000D01*
X174341563Y-132210000D01*
X177359462Y-132210000D01*
X178579006Y-133429544D01*
X178515189Y-133583233D01*
X178514812Y-134014873D01*
X178679646Y-134413800D01*
X178984595Y-134719282D01*
X179383233Y-134884811D01*
X179814873Y-134885188D01*
X180213800Y-134720354D01*
X180519282Y-134415405D01*
X180684811Y-134016767D01*
X180685188Y-133585127D01*
X180520354Y-133186200D01*
X180215405Y-132880718D01*
X179816767Y-132715189D01*
X179385127Y-132714812D01*
X179229609Y-132779071D01*
X177875269Y-131424731D01*
X177797663Y-131372875D01*
X179229544Y-129940994D01*
X179383233Y-130004811D01*
X179814873Y-130005188D01*
X180213800Y-129840354D01*
X180519282Y-129535405D01*
X180684811Y-129136767D01*
X180685188Y-128705127D01*
X180520354Y-128306200D01*
X180215405Y-128000718D01*
X179816767Y-127835189D01*
X179385127Y-127834812D01*
X178986200Y-127999646D01*
X178680718Y-128304595D01*
X178515189Y-128703233D01*
X178514812Y-129134873D01*
X178579071Y-129290391D01*
X177079462Y-130790000D01*
X174341563Y-130790000D01*
X174341563Y-130625000D01*
X174318204Y-130500856D01*
X174313499Y-130493544D01*
X174335000Y-130441635D01*
X174335000Y-130396250D01*
X174251250Y-130312500D01*
X174136038Y-130312500D01*
X174132887Y-130310347D01*
X174000000Y-130283437D01*
X173203000Y-130283437D01*
X173203000Y-130216563D01*
X174000000Y-130216563D01*
X174124144Y-130193204D01*
X174133008Y-130187500D01*
X174251250Y-130187500D01*
X174335000Y-130103750D01*
X174335000Y-130058365D01*
X174314304Y-130008398D01*
X174314653Y-130007887D01*
X174341563Y-129875000D01*
X174341563Y-129625000D01*
X174318204Y-129500856D01*
X174316586Y-129498342D01*
X174341563Y-129375000D01*
X174341563Y-129125000D01*
X174318204Y-129000856D01*
X174316586Y-128998342D01*
X174341563Y-128875000D01*
X174341563Y-128625000D01*
X174318204Y-128500856D01*
X174316586Y-128498342D01*
X174341563Y-128375000D01*
X174341563Y-128125000D01*
X174318204Y-128000856D01*
X174244835Y-127886838D01*
X174132887Y-127810347D01*
X174076591Y-127798947D01*
X177815538Y-124060000D01*
X179909462Y-124060000D01*
X183608314Y-127758852D01*
X183608314Y-127758852D01*
G37*
X183608314Y-127758852D02*
X183608314Y-127844999D01*
X183643329Y-128021034D01*
X183743045Y-128170268D01*
X185645056Y-130072279D01*
X185730476Y-130129355D01*
X185589439Y-130223593D01*
X185329962Y-130611928D01*
X185238846Y-131070000D01*
X185329962Y-131528072D01*
X185589439Y-131916407D01*
X185865000Y-132100531D01*
X185865000Y-132579469D01*
X185589439Y-132763593D01*
X185329962Y-133151928D01*
X185238846Y-133610000D01*
X185274302Y-133788251D01*
X184280277Y-134782277D01*
X184120949Y-135020728D01*
X184106330Y-135094223D01*
X178235554Y-140965000D01*
X176991563Y-140965000D01*
X176991563Y-140950000D01*
X176968204Y-140825856D01*
X176894835Y-140711838D01*
X176782887Y-140635347D01*
X176650000Y-140608437D01*
X175350000Y-140608437D01*
X175225856Y-140631796D01*
X175111838Y-140705165D01*
X175035347Y-140817113D01*
X175008437Y-140950000D01*
X175008437Y-140965000D01*
X173260538Y-140965000D01*
X173275270Y-140950268D01*
X173320293Y-140882887D01*
X173374986Y-140801033D01*
X173410001Y-140624999D01*
X173410001Y-137450001D01*
X173397072Y-137385000D01*
X173374986Y-137273966D01*
X173275270Y-137124732D01*
X172210000Y-136059462D01*
X172210000Y-136032409D01*
X172216563Y-136000000D01*
X172216563Y-134700000D01*
X172199668Y-134610208D01*
X175497897Y-137908437D01*
X175350000Y-137908437D01*
X175225856Y-137931796D01*
X175111838Y-138005165D01*
X175035347Y-138117113D01*
X175008437Y-138250000D01*
X175008437Y-139750000D01*
X175031796Y-139874144D01*
X175105165Y-139988162D01*
X175217113Y-140064653D01*
X175350000Y-140091563D01*
X176650000Y-140091563D01*
X176774144Y-140068204D01*
X176888162Y-139994835D01*
X176964653Y-139882887D01*
X176991563Y-139750000D01*
X176991563Y-138250000D01*
X176968204Y-138125856D01*
X176894835Y-138011838D01*
X176782887Y-137935347D01*
X176650000Y-137908437D01*
X176460000Y-137908437D01*
X176460000Y-137760002D01*
X176440379Y-137661360D01*
X176424985Y-137583967D01*
X176325269Y-137434733D01*
X173107099Y-134216563D01*
X174000000Y-134216563D01*
X174124144Y-134193204D01*
X174238162Y-134119835D01*
X174314653Y-134007887D01*
X174341563Y-133875000D01*
X174341563Y-133625000D01*
X174318204Y-133500856D01*
X174316586Y-133498342D01*
X174341563Y-133375000D01*
X174341563Y-133125000D01*
X174318204Y-133000856D01*
X174316586Y-132998342D01*
X174341563Y-132875000D01*
X174341563Y-132625000D01*
X174318204Y-132500856D01*
X174316586Y-132498342D01*
X174341563Y-132375000D01*
X174341563Y-132210000D01*
X177359462Y-132210000D01*
X178579006Y-133429544D01*
X178515189Y-133583233D01*
X178514812Y-134014873D01*
X178679646Y-134413800D01*
X178984595Y-134719282D01*
X179383233Y-134884811D01*
X179814873Y-134885188D01*
X180213800Y-134720354D01*
X180519282Y-134415405D01*
X180684811Y-134016767D01*
X180685188Y-133585127D01*
X180520354Y-133186200D01*
X180215405Y-132880718D01*
X179816767Y-132715189D01*
X179385127Y-132714812D01*
X179229609Y-132779071D01*
X177875269Y-131424731D01*
X177797663Y-131372875D01*
X179229544Y-129940994D01*
X179383233Y-130004811D01*
X179814873Y-130005188D01*
X180213800Y-129840354D01*
X180519282Y-129535405D01*
X180684811Y-129136767D01*
X180685188Y-128705127D01*
X180520354Y-128306200D01*
X180215405Y-128000718D01*
X179816767Y-127835189D01*
X179385127Y-127834812D01*
X178986200Y-127999646D01*
X178680718Y-128304595D01*
X178515189Y-128703233D01*
X178514812Y-129134873D01*
X178579071Y-129290391D01*
X177079462Y-130790000D01*
X174341563Y-130790000D01*
X174341563Y-130625000D01*
X174318204Y-130500856D01*
X174313499Y-130493544D01*
X174335000Y-130441635D01*
X174335000Y-130396250D01*
X174251250Y-130312500D01*
X174136038Y-130312500D01*
X174132887Y-130310347D01*
X174000000Y-130283437D01*
X173203000Y-130283437D01*
X173203000Y-130216563D01*
X174000000Y-130216563D01*
X174124144Y-130193204D01*
X174133008Y-130187500D01*
X174251250Y-130187500D01*
X174335000Y-130103750D01*
X174335000Y-130058365D01*
X174314304Y-130008398D01*
X174314653Y-130007887D01*
X174341563Y-129875000D01*
X174341563Y-129625000D01*
X174318204Y-129500856D01*
X174316586Y-129498342D01*
X174341563Y-129375000D01*
X174341563Y-129125000D01*
X174318204Y-129000856D01*
X174316586Y-128998342D01*
X174341563Y-128875000D01*
X174341563Y-128625000D01*
X174318204Y-128500856D01*
X174316586Y-128498342D01*
X174341563Y-128375000D01*
X174341563Y-128125000D01*
X174318204Y-128000856D01*
X174244835Y-127886838D01*
X174132887Y-127810347D01*
X174076591Y-127798947D01*
X177815538Y-124060000D01*
X179909462Y-124060000D01*
X183608314Y-127758852D01*
M02*
