G04 #@! TF.GenerationSoftware,KiCad,Pcbnew,(5.0.0)*
G04 #@! TF.CreationDate,2019-03-24T17:02:07+01:00*
G04 #@! TF.ProjectId,lcrmeter,6C63726D657465722E6B696361645F70,rev?*
G04 #@! TF.SameCoordinates,Original*
G04 #@! TF.FileFunction,Soldermask,Bot*
G04 #@! TF.FilePolarity,Negative*
%FSLAX46Y46*%
G04 Gerber Fmt 4.6, Leading zero omitted, Abs format (unit mm)*
G04 Created by KiCad (PCBNEW (5.0.0)) date 03/24/19 17:02:07*
%MOMM*%
%LPD*%
G01*
G04 APERTURE LIST*
%ADD10C,1.750000*%
%ADD11C,1.950000*%
%ADD12C,2.000000*%
%ADD13R,2.000000X2.000000*%
%ADD14C,0.100000*%
%ADD15C,1.150000*%
%ADD16C,0.950000*%
%ADD17R,0.800000X0.900000*%
%ADD18R,1.700000X1.700000*%
%ADD19O,1.700000X1.700000*%
%ADD20R,1.450000X0.450000*%
%ADD21R,1.300000X0.250000*%
%ADD22R,0.250000X1.300000*%
%ADD23C,1.700000*%
%ADD24C,1.500000*%
%ADD25R,1.500000X0.600000*%
%ADD26R,1.060000X0.650000*%
%ADD27C,1.525000*%
G04 APERTURE END LIST*
D10*
G04 #@! TO.C,J5*
X169926000Y-102362000D03*
D11*
X173076000Y-99212000D03*
X173076000Y-105462000D03*
X166876000Y-105412000D03*
X166876000Y-99212000D03*
G04 #@! TD*
D12*
G04 #@! TO.C,BT1*
X126078308Y-99635920D03*
D13*
X126078308Y-144335920D03*
G04 #@! TD*
G04 #@! TO.C,BT2*
X111854308Y-99735920D03*
D12*
X111854308Y-144435920D03*
G04 #@! TD*
D14*
G04 #@! TO.C,C1*
G36*
X164812505Y-127678204D02*
X164836773Y-127681804D01*
X164860572Y-127687765D01*
X164883671Y-127696030D01*
X164905850Y-127706520D01*
X164926893Y-127719132D01*
X164946599Y-127733747D01*
X164964777Y-127750223D01*
X164981253Y-127768401D01*
X164995868Y-127788107D01*
X165008480Y-127809150D01*
X165018970Y-127831329D01*
X165027235Y-127854428D01*
X165033196Y-127878227D01*
X165036796Y-127902495D01*
X165038000Y-127926999D01*
X165038000Y-128577001D01*
X165036796Y-128601505D01*
X165033196Y-128625773D01*
X165027235Y-128649572D01*
X165018970Y-128672671D01*
X165008480Y-128694850D01*
X164995868Y-128715893D01*
X164981253Y-128735599D01*
X164964777Y-128753777D01*
X164946599Y-128770253D01*
X164926893Y-128784868D01*
X164905850Y-128797480D01*
X164883671Y-128807970D01*
X164860572Y-128816235D01*
X164836773Y-128822196D01*
X164812505Y-128825796D01*
X164788001Y-128827000D01*
X163887999Y-128827000D01*
X163863495Y-128825796D01*
X163839227Y-128822196D01*
X163815428Y-128816235D01*
X163792329Y-128807970D01*
X163770150Y-128797480D01*
X163749107Y-128784868D01*
X163729401Y-128770253D01*
X163711223Y-128753777D01*
X163694747Y-128735599D01*
X163680132Y-128715893D01*
X163667520Y-128694850D01*
X163657030Y-128672671D01*
X163648765Y-128649572D01*
X163642804Y-128625773D01*
X163639204Y-128601505D01*
X163638000Y-128577001D01*
X163638000Y-127926999D01*
X163639204Y-127902495D01*
X163642804Y-127878227D01*
X163648765Y-127854428D01*
X163657030Y-127831329D01*
X163667520Y-127809150D01*
X163680132Y-127788107D01*
X163694747Y-127768401D01*
X163711223Y-127750223D01*
X163729401Y-127733747D01*
X163749107Y-127719132D01*
X163770150Y-127706520D01*
X163792329Y-127696030D01*
X163815428Y-127687765D01*
X163839227Y-127681804D01*
X163863495Y-127678204D01*
X163887999Y-127677000D01*
X164788001Y-127677000D01*
X164812505Y-127678204D01*
X164812505Y-127678204D01*
G37*
D15*
X164338000Y-128252000D03*
D14*
G36*
X164812505Y-129728204D02*
X164836773Y-129731804D01*
X164860572Y-129737765D01*
X164883671Y-129746030D01*
X164905850Y-129756520D01*
X164926893Y-129769132D01*
X164946599Y-129783747D01*
X164964777Y-129800223D01*
X164981253Y-129818401D01*
X164995868Y-129838107D01*
X165008480Y-129859150D01*
X165018970Y-129881329D01*
X165027235Y-129904428D01*
X165033196Y-129928227D01*
X165036796Y-129952495D01*
X165038000Y-129976999D01*
X165038000Y-130627001D01*
X165036796Y-130651505D01*
X165033196Y-130675773D01*
X165027235Y-130699572D01*
X165018970Y-130722671D01*
X165008480Y-130744850D01*
X164995868Y-130765893D01*
X164981253Y-130785599D01*
X164964777Y-130803777D01*
X164946599Y-130820253D01*
X164926893Y-130834868D01*
X164905850Y-130847480D01*
X164883671Y-130857970D01*
X164860572Y-130866235D01*
X164836773Y-130872196D01*
X164812505Y-130875796D01*
X164788001Y-130877000D01*
X163887999Y-130877000D01*
X163863495Y-130875796D01*
X163839227Y-130872196D01*
X163815428Y-130866235D01*
X163792329Y-130857970D01*
X163770150Y-130847480D01*
X163749107Y-130834868D01*
X163729401Y-130820253D01*
X163711223Y-130803777D01*
X163694747Y-130785599D01*
X163680132Y-130765893D01*
X163667520Y-130744850D01*
X163657030Y-130722671D01*
X163648765Y-130699572D01*
X163642804Y-130675773D01*
X163639204Y-130651505D01*
X163638000Y-130627001D01*
X163638000Y-129976999D01*
X163639204Y-129952495D01*
X163642804Y-129928227D01*
X163648765Y-129904428D01*
X163657030Y-129881329D01*
X163667520Y-129859150D01*
X163680132Y-129838107D01*
X163694747Y-129818401D01*
X163711223Y-129800223D01*
X163729401Y-129783747D01*
X163749107Y-129769132D01*
X163770150Y-129756520D01*
X163792329Y-129746030D01*
X163815428Y-129737765D01*
X163839227Y-129731804D01*
X163863495Y-129728204D01*
X163887999Y-129727000D01*
X164788001Y-129727000D01*
X164812505Y-129728204D01*
X164812505Y-129728204D01*
G37*
D15*
X164338000Y-130302000D03*
G04 #@! TD*
D14*
G04 #@! TO.C,C2*
G36*
X166082505Y-119568204D02*
X166106773Y-119571804D01*
X166130572Y-119577765D01*
X166153671Y-119586030D01*
X166175850Y-119596520D01*
X166196893Y-119609132D01*
X166216599Y-119623747D01*
X166234777Y-119640223D01*
X166251253Y-119658401D01*
X166265868Y-119678107D01*
X166278480Y-119699150D01*
X166288970Y-119721329D01*
X166297235Y-119744428D01*
X166303196Y-119768227D01*
X166306796Y-119792495D01*
X166308000Y-119816999D01*
X166308000Y-120467001D01*
X166306796Y-120491505D01*
X166303196Y-120515773D01*
X166297235Y-120539572D01*
X166288970Y-120562671D01*
X166278480Y-120584850D01*
X166265868Y-120605893D01*
X166251253Y-120625599D01*
X166234777Y-120643777D01*
X166216599Y-120660253D01*
X166196893Y-120674868D01*
X166175850Y-120687480D01*
X166153671Y-120697970D01*
X166130572Y-120706235D01*
X166106773Y-120712196D01*
X166082505Y-120715796D01*
X166058001Y-120717000D01*
X165157999Y-120717000D01*
X165133495Y-120715796D01*
X165109227Y-120712196D01*
X165085428Y-120706235D01*
X165062329Y-120697970D01*
X165040150Y-120687480D01*
X165019107Y-120674868D01*
X164999401Y-120660253D01*
X164981223Y-120643777D01*
X164964747Y-120625599D01*
X164950132Y-120605893D01*
X164937520Y-120584850D01*
X164927030Y-120562671D01*
X164918765Y-120539572D01*
X164912804Y-120515773D01*
X164909204Y-120491505D01*
X164908000Y-120467001D01*
X164908000Y-119816999D01*
X164909204Y-119792495D01*
X164912804Y-119768227D01*
X164918765Y-119744428D01*
X164927030Y-119721329D01*
X164937520Y-119699150D01*
X164950132Y-119678107D01*
X164964747Y-119658401D01*
X164981223Y-119640223D01*
X164999401Y-119623747D01*
X165019107Y-119609132D01*
X165040150Y-119596520D01*
X165062329Y-119586030D01*
X165085428Y-119577765D01*
X165109227Y-119571804D01*
X165133495Y-119568204D01*
X165157999Y-119567000D01*
X166058001Y-119567000D01*
X166082505Y-119568204D01*
X166082505Y-119568204D01*
G37*
D15*
X165608000Y-120142000D03*
D14*
G36*
X166082505Y-117518204D02*
X166106773Y-117521804D01*
X166130572Y-117527765D01*
X166153671Y-117536030D01*
X166175850Y-117546520D01*
X166196893Y-117559132D01*
X166216599Y-117573747D01*
X166234777Y-117590223D01*
X166251253Y-117608401D01*
X166265868Y-117628107D01*
X166278480Y-117649150D01*
X166288970Y-117671329D01*
X166297235Y-117694428D01*
X166303196Y-117718227D01*
X166306796Y-117742495D01*
X166308000Y-117766999D01*
X166308000Y-118417001D01*
X166306796Y-118441505D01*
X166303196Y-118465773D01*
X166297235Y-118489572D01*
X166288970Y-118512671D01*
X166278480Y-118534850D01*
X166265868Y-118555893D01*
X166251253Y-118575599D01*
X166234777Y-118593777D01*
X166216599Y-118610253D01*
X166196893Y-118624868D01*
X166175850Y-118637480D01*
X166153671Y-118647970D01*
X166130572Y-118656235D01*
X166106773Y-118662196D01*
X166082505Y-118665796D01*
X166058001Y-118667000D01*
X165157999Y-118667000D01*
X165133495Y-118665796D01*
X165109227Y-118662196D01*
X165085428Y-118656235D01*
X165062329Y-118647970D01*
X165040150Y-118637480D01*
X165019107Y-118624868D01*
X164999401Y-118610253D01*
X164981223Y-118593777D01*
X164964747Y-118575599D01*
X164950132Y-118555893D01*
X164937520Y-118534850D01*
X164927030Y-118512671D01*
X164918765Y-118489572D01*
X164912804Y-118465773D01*
X164909204Y-118441505D01*
X164908000Y-118417001D01*
X164908000Y-117766999D01*
X164909204Y-117742495D01*
X164912804Y-117718227D01*
X164918765Y-117694428D01*
X164927030Y-117671329D01*
X164937520Y-117649150D01*
X164950132Y-117628107D01*
X164964747Y-117608401D01*
X164981223Y-117590223D01*
X164999401Y-117573747D01*
X165019107Y-117559132D01*
X165040150Y-117546520D01*
X165062329Y-117536030D01*
X165085428Y-117527765D01*
X165109227Y-117521804D01*
X165133495Y-117518204D01*
X165157999Y-117517000D01*
X166058001Y-117517000D01*
X166082505Y-117518204D01*
X166082505Y-117518204D01*
G37*
D15*
X165608000Y-118092000D03*
G04 #@! TD*
D14*
G04 #@! TO.C,C3*
G36*
X148928779Y-132622144D02*
X148951834Y-132625563D01*
X148974443Y-132631227D01*
X148996387Y-132639079D01*
X149017457Y-132649044D01*
X149037448Y-132661026D01*
X149056168Y-132674910D01*
X149073438Y-132690562D01*
X149089090Y-132707832D01*
X149102974Y-132726552D01*
X149114956Y-132746543D01*
X149124921Y-132767613D01*
X149132773Y-132789557D01*
X149138437Y-132812166D01*
X149141856Y-132835221D01*
X149143000Y-132858500D01*
X149143000Y-133333500D01*
X149141856Y-133356779D01*
X149138437Y-133379834D01*
X149132773Y-133402443D01*
X149124921Y-133424387D01*
X149114956Y-133445457D01*
X149102974Y-133465448D01*
X149089090Y-133484168D01*
X149073438Y-133501438D01*
X149056168Y-133517090D01*
X149037448Y-133530974D01*
X149017457Y-133542956D01*
X148996387Y-133552921D01*
X148974443Y-133560773D01*
X148951834Y-133566437D01*
X148928779Y-133569856D01*
X148905500Y-133571000D01*
X148330500Y-133571000D01*
X148307221Y-133569856D01*
X148284166Y-133566437D01*
X148261557Y-133560773D01*
X148239613Y-133552921D01*
X148218543Y-133542956D01*
X148198552Y-133530974D01*
X148179832Y-133517090D01*
X148162562Y-133501438D01*
X148146910Y-133484168D01*
X148133026Y-133465448D01*
X148121044Y-133445457D01*
X148111079Y-133424387D01*
X148103227Y-133402443D01*
X148097563Y-133379834D01*
X148094144Y-133356779D01*
X148093000Y-133333500D01*
X148093000Y-132858500D01*
X148094144Y-132835221D01*
X148097563Y-132812166D01*
X148103227Y-132789557D01*
X148111079Y-132767613D01*
X148121044Y-132746543D01*
X148133026Y-132726552D01*
X148146910Y-132707832D01*
X148162562Y-132690562D01*
X148179832Y-132674910D01*
X148198552Y-132661026D01*
X148218543Y-132649044D01*
X148239613Y-132639079D01*
X148261557Y-132631227D01*
X148284166Y-132625563D01*
X148307221Y-132622144D01*
X148330500Y-132621000D01*
X148905500Y-132621000D01*
X148928779Y-132622144D01*
X148928779Y-132622144D01*
G37*
D16*
X148618000Y-133096000D03*
D14*
G36*
X150678779Y-132622144D02*
X150701834Y-132625563D01*
X150724443Y-132631227D01*
X150746387Y-132639079D01*
X150767457Y-132649044D01*
X150787448Y-132661026D01*
X150806168Y-132674910D01*
X150823438Y-132690562D01*
X150839090Y-132707832D01*
X150852974Y-132726552D01*
X150864956Y-132746543D01*
X150874921Y-132767613D01*
X150882773Y-132789557D01*
X150888437Y-132812166D01*
X150891856Y-132835221D01*
X150893000Y-132858500D01*
X150893000Y-133333500D01*
X150891856Y-133356779D01*
X150888437Y-133379834D01*
X150882773Y-133402443D01*
X150874921Y-133424387D01*
X150864956Y-133445457D01*
X150852974Y-133465448D01*
X150839090Y-133484168D01*
X150823438Y-133501438D01*
X150806168Y-133517090D01*
X150787448Y-133530974D01*
X150767457Y-133542956D01*
X150746387Y-133552921D01*
X150724443Y-133560773D01*
X150701834Y-133566437D01*
X150678779Y-133569856D01*
X150655500Y-133571000D01*
X150080500Y-133571000D01*
X150057221Y-133569856D01*
X150034166Y-133566437D01*
X150011557Y-133560773D01*
X149989613Y-133552921D01*
X149968543Y-133542956D01*
X149948552Y-133530974D01*
X149929832Y-133517090D01*
X149912562Y-133501438D01*
X149896910Y-133484168D01*
X149883026Y-133465448D01*
X149871044Y-133445457D01*
X149861079Y-133424387D01*
X149853227Y-133402443D01*
X149847563Y-133379834D01*
X149844144Y-133356779D01*
X149843000Y-133333500D01*
X149843000Y-132858500D01*
X149844144Y-132835221D01*
X149847563Y-132812166D01*
X149853227Y-132789557D01*
X149861079Y-132767613D01*
X149871044Y-132746543D01*
X149883026Y-132726552D01*
X149896910Y-132707832D01*
X149912562Y-132690562D01*
X149929832Y-132674910D01*
X149948552Y-132661026D01*
X149968543Y-132649044D01*
X149989613Y-132639079D01*
X150011557Y-132631227D01*
X150034166Y-132625563D01*
X150057221Y-132622144D01*
X150080500Y-132621000D01*
X150655500Y-132621000D01*
X150678779Y-132622144D01*
X150678779Y-132622144D01*
G37*
D16*
X150368000Y-133096000D03*
G04 #@! TD*
D14*
G04 #@! TO.C,C4*
G36*
X144278779Y-123428144D02*
X144301834Y-123431563D01*
X144324443Y-123437227D01*
X144346387Y-123445079D01*
X144367457Y-123455044D01*
X144387448Y-123467026D01*
X144406168Y-123480910D01*
X144423438Y-123496562D01*
X144439090Y-123513832D01*
X144452974Y-123532552D01*
X144464956Y-123552543D01*
X144474921Y-123573613D01*
X144482773Y-123595557D01*
X144488437Y-123618166D01*
X144491856Y-123641221D01*
X144493000Y-123664500D01*
X144493000Y-124239500D01*
X144491856Y-124262779D01*
X144488437Y-124285834D01*
X144482773Y-124308443D01*
X144474921Y-124330387D01*
X144464956Y-124351457D01*
X144452974Y-124371448D01*
X144439090Y-124390168D01*
X144423438Y-124407438D01*
X144406168Y-124423090D01*
X144387448Y-124436974D01*
X144367457Y-124448956D01*
X144346387Y-124458921D01*
X144324443Y-124466773D01*
X144301834Y-124472437D01*
X144278779Y-124475856D01*
X144255500Y-124477000D01*
X143780500Y-124477000D01*
X143757221Y-124475856D01*
X143734166Y-124472437D01*
X143711557Y-124466773D01*
X143689613Y-124458921D01*
X143668543Y-124448956D01*
X143648552Y-124436974D01*
X143629832Y-124423090D01*
X143612562Y-124407438D01*
X143596910Y-124390168D01*
X143583026Y-124371448D01*
X143571044Y-124351457D01*
X143561079Y-124330387D01*
X143553227Y-124308443D01*
X143547563Y-124285834D01*
X143544144Y-124262779D01*
X143543000Y-124239500D01*
X143543000Y-123664500D01*
X143544144Y-123641221D01*
X143547563Y-123618166D01*
X143553227Y-123595557D01*
X143561079Y-123573613D01*
X143571044Y-123552543D01*
X143583026Y-123532552D01*
X143596910Y-123513832D01*
X143612562Y-123496562D01*
X143629832Y-123480910D01*
X143648552Y-123467026D01*
X143668543Y-123455044D01*
X143689613Y-123445079D01*
X143711557Y-123437227D01*
X143734166Y-123431563D01*
X143757221Y-123428144D01*
X143780500Y-123427000D01*
X144255500Y-123427000D01*
X144278779Y-123428144D01*
X144278779Y-123428144D01*
G37*
D16*
X144018000Y-123952000D03*
D14*
G36*
X144278779Y-121678144D02*
X144301834Y-121681563D01*
X144324443Y-121687227D01*
X144346387Y-121695079D01*
X144367457Y-121705044D01*
X144387448Y-121717026D01*
X144406168Y-121730910D01*
X144423438Y-121746562D01*
X144439090Y-121763832D01*
X144452974Y-121782552D01*
X144464956Y-121802543D01*
X144474921Y-121823613D01*
X144482773Y-121845557D01*
X144488437Y-121868166D01*
X144491856Y-121891221D01*
X144493000Y-121914500D01*
X144493000Y-122489500D01*
X144491856Y-122512779D01*
X144488437Y-122535834D01*
X144482773Y-122558443D01*
X144474921Y-122580387D01*
X144464956Y-122601457D01*
X144452974Y-122621448D01*
X144439090Y-122640168D01*
X144423438Y-122657438D01*
X144406168Y-122673090D01*
X144387448Y-122686974D01*
X144367457Y-122698956D01*
X144346387Y-122708921D01*
X144324443Y-122716773D01*
X144301834Y-122722437D01*
X144278779Y-122725856D01*
X144255500Y-122727000D01*
X143780500Y-122727000D01*
X143757221Y-122725856D01*
X143734166Y-122722437D01*
X143711557Y-122716773D01*
X143689613Y-122708921D01*
X143668543Y-122698956D01*
X143648552Y-122686974D01*
X143629832Y-122673090D01*
X143612562Y-122657438D01*
X143596910Y-122640168D01*
X143583026Y-122621448D01*
X143571044Y-122601457D01*
X143561079Y-122580387D01*
X143553227Y-122558443D01*
X143547563Y-122535834D01*
X143544144Y-122512779D01*
X143543000Y-122489500D01*
X143543000Y-121914500D01*
X143544144Y-121891221D01*
X143547563Y-121868166D01*
X143553227Y-121845557D01*
X143561079Y-121823613D01*
X143571044Y-121802543D01*
X143583026Y-121782552D01*
X143596910Y-121763832D01*
X143612562Y-121746562D01*
X143629832Y-121730910D01*
X143648552Y-121717026D01*
X143668543Y-121705044D01*
X143689613Y-121695079D01*
X143711557Y-121687227D01*
X143734166Y-121681563D01*
X143757221Y-121678144D01*
X143780500Y-121677000D01*
X144255500Y-121677000D01*
X144278779Y-121678144D01*
X144278779Y-121678144D01*
G37*
D16*
X144018000Y-122202000D03*
G04 #@! TD*
D14*
G04 #@! TO.C,C5*
G36*
X157508779Y-118144144D02*
X157531834Y-118147563D01*
X157554443Y-118153227D01*
X157576387Y-118161079D01*
X157597457Y-118171044D01*
X157617448Y-118183026D01*
X157636168Y-118196910D01*
X157653438Y-118212562D01*
X157669090Y-118229832D01*
X157682974Y-118248552D01*
X157694956Y-118268543D01*
X157704921Y-118289613D01*
X157712773Y-118311557D01*
X157718437Y-118334166D01*
X157721856Y-118357221D01*
X157723000Y-118380500D01*
X157723000Y-118855500D01*
X157721856Y-118878779D01*
X157718437Y-118901834D01*
X157712773Y-118924443D01*
X157704921Y-118946387D01*
X157694956Y-118967457D01*
X157682974Y-118987448D01*
X157669090Y-119006168D01*
X157653438Y-119023438D01*
X157636168Y-119039090D01*
X157617448Y-119052974D01*
X157597457Y-119064956D01*
X157576387Y-119074921D01*
X157554443Y-119082773D01*
X157531834Y-119088437D01*
X157508779Y-119091856D01*
X157485500Y-119093000D01*
X156910500Y-119093000D01*
X156887221Y-119091856D01*
X156864166Y-119088437D01*
X156841557Y-119082773D01*
X156819613Y-119074921D01*
X156798543Y-119064956D01*
X156778552Y-119052974D01*
X156759832Y-119039090D01*
X156742562Y-119023438D01*
X156726910Y-119006168D01*
X156713026Y-118987448D01*
X156701044Y-118967457D01*
X156691079Y-118946387D01*
X156683227Y-118924443D01*
X156677563Y-118901834D01*
X156674144Y-118878779D01*
X156673000Y-118855500D01*
X156673000Y-118380500D01*
X156674144Y-118357221D01*
X156677563Y-118334166D01*
X156683227Y-118311557D01*
X156691079Y-118289613D01*
X156701044Y-118268543D01*
X156713026Y-118248552D01*
X156726910Y-118229832D01*
X156742562Y-118212562D01*
X156759832Y-118196910D01*
X156778552Y-118183026D01*
X156798543Y-118171044D01*
X156819613Y-118161079D01*
X156841557Y-118153227D01*
X156864166Y-118147563D01*
X156887221Y-118144144D01*
X156910500Y-118143000D01*
X157485500Y-118143000D01*
X157508779Y-118144144D01*
X157508779Y-118144144D01*
G37*
D16*
X157198000Y-118618000D03*
D14*
G36*
X155758779Y-118144144D02*
X155781834Y-118147563D01*
X155804443Y-118153227D01*
X155826387Y-118161079D01*
X155847457Y-118171044D01*
X155867448Y-118183026D01*
X155886168Y-118196910D01*
X155903438Y-118212562D01*
X155919090Y-118229832D01*
X155932974Y-118248552D01*
X155944956Y-118268543D01*
X155954921Y-118289613D01*
X155962773Y-118311557D01*
X155968437Y-118334166D01*
X155971856Y-118357221D01*
X155973000Y-118380500D01*
X155973000Y-118855500D01*
X155971856Y-118878779D01*
X155968437Y-118901834D01*
X155962773Y-118924443D01*
X155954921Y-118946387D01*
X155944956Y-118967457D01*
X155932974Y-118987448D01*
X155919090Y-119006168D01*
X155903438Y-119023438D01*
X155886168Y-119039090D01*
X155867448Y-119052974D01*
X155847457Y-119064956D01*
X155826387Y-119074921D01*
X155804443Y-119082773D01*
X155781834Y-119088437D01*
X155758779Y-119091856D01*
X155735500Y-119093000D01*
X155160500Y-119093000D01*
X155137221Y-119091856D01*
X155114166Y-119088437D01*
X155091557Y-119082773D01*
X155069613Y-119074921D01*
X155048543Y-119064956D01*
X155028552Y-119052974D01*
X155009832Y-119039090D01*
X154992562Y-119023438D01*
X154976910Y-119006168D01*
X154963026Y-118987448D01*
X154951044Y-118967457D01*
X154941079Y-118946387D01*
X154933227Y-118924443D01*
X154927563Y-118901834D01*
X154924144Y-118878779D01*
X154923000Y-118855500D01*
X154923000Y-118380500D01*
X154924144Y-118357221D01*
X154927563Y-118334166D01*
X154933227Y-118311557D01*
X154941079Y-118289613D01*
X154951044Y-118268543D01*
X154963026Y-118248552D01*
X154976910Y-118229832D01*
X154992562Y-118212562D01*
X155009832Y-118196910D01*
X155028552Y-118183026D01*
X155048543Y-118171044D01*
X155069613Y-118161079D01*
X155091557Y-118153227D01*
X155114166Y-118147563D01*
X155137221Y-118144144D01*
X155160500Y-118143000D01*
X155735500Y-118143000D01*
X155758779Y-118144144D01*
X155758779Y-118144144D01*
G37*
D16*
X155448000Y-118618000D03*
G04 #@! TD*
D14*
G04 #@! TO.C,C6*
G36*
X145294779Y-108442144D02*
X145317834Y-108445563D01*
X145340443Y-108451227D01*
X145362387Y-108459079D01*
X145383457Y-108469044D01*
X145403448Y-108481026D01*
X145422168Y-108494910D01*
X145439438Y-108510562D01*
X145455090Y-108527832D01*
X145468974Y-108546552D01*
X145480956Y-108566543D01*
X145490921Y-108587613D01*
X145498773Y-108609557D01*
X145504437Y-108632166D01*
X145507856Y-108655221D01*
X145509000Y-108678500D01*
X145509000Y-109253500D01*
X145507856Y-109276779D01*
X145504437Y-109299834D01*
X145498773Y-109322443D01*
X145490921Y-109344387D01*
X145480956Y-109365457D01*
X145468974Y-109385448D01*
X145455090Y-109404168D01*
X145439438Y-109421438D01*
X145422168Y-109437090D01*
X145403448Y-109450974D01*
X145383457Y-109462956D01*
X145362387Y-109472921D01*
X145340443Y-109480773D01*
X145317834Y-109486437D01*
X145294779Y-109489856D01*
X145271500Y-109491000D01*
X144796500Y-109491000D01*
X144773221Y-109489856D01*
X144750166Y-109486437D01*
X144727557Y-109480773D01*
X144705613Y-109472921D01*
X144684543Y-109462956D01*
X144664552Y-109450974D01*
X144645832Y-109437090D01*
X144628562Y-109421438D01*
X144612910Y-109404168D01*
X144599026Y-109385448D01*
X144587044Y-109365457D01*
X144577079Y-109344387D01*
X144569227Y-109322443D01*
X144563563Y-109299834D01*
X144560144Y-109276779D01*
X144559000Y-109253500D01*
X144559000Y-108678500D01*
X144560144Y-108655221D01*
X144563563Y-108632166D01*
X144569227Y-108609557D01*
X144577079Y-108587613D01*
X144587044Y-108566543D01*
X144599026Y-108546552D01*
X144612910Y-108527832D01*
X144628562Y-108510562D01*
X144645832Y-108494910D01*
X144664552Y-108481026D01*
X144684543Y-108469044D01*
X144705613Y-108459079D01*
X144727557Y-108451227D01*
X144750166Y-108445563D01*
X144773221Y-108442144D01*
X144796500Y-108441000D01*
X145271500Y-108441000D01*
X145294779Y-108442144D01*
X145294779Y-108442144D01*
G37*
D16*
X145034000Y-108966000D03*
D14*
G36*
X145294779Y-110192144D02*
X145317834Y-110195563D01*
X145340443Y-110201227D01*
X145362387Y-110209079D01*
X145383457Y-110219044D01*
X145403448Y-110231026D01*
X145422168Y-110244910D01*
X145439438Y-110260562D01*
X145455090Y-110277832D01*
X145468974Y-110296552D01*
X145480956Y-110316543D01*
X145490921Y-110337613D01*
X145498773Y-110359557D01*
X145504437Y-110382166D01*
X145507856Y-110405221D01*
X145509000Y-110428500D01*
X145509000Y-111003500D01*
X145507856Y-111026779D01*
X145504437Y-111049834D01*
X145498773Y-111072443D01*
X145490921Y-111094387D01*
X145480956Y-111115457D01*
X145468974Y-111135448D01*
X145455090Y-111154168D01*
X145439438Y-111171438D01*
X145422168Y-111187090D01*
X145403448Y-111200974D01*
X145383457Y-111212956D01*
X145362387Y-111222921D01*
X145340443Y-111230773D01*
X145317834Y-111236437D01*
X145294779Y-111239856D01*
X145271500Y-111241000D01*
X144796500Y-111241000D01*
X144773221Y-111239856D01*
X144750166Y-111236437D01*
X144727557Y-111230773D01*
X144705613Y-111222921D01*
X144684543Y-111212956D01*
X144664552Y-111200974D01*
X144645832Y-111187090D01*
X144628562Y-111171438D01*
X144612910Y-111154168D01*
X144599026Y-111135448D01*
X144587044Y-111115457D01*
X144577079Y-111094387D01*
X144569227Y-111072443D01*
X144563563Y-111049834D01*
X144560144Y-111026779D01*
X144559000Y-111003500D01*
X144559000Y-110428500D01*
X144560144Y-110405221D01*
X144563563Y-110382166D01*
X144569227Y-110359557D01*
X144577079Y-110337613D01*
X144587044Y-110316543D01*
X144599026Y-110296552D01*
X144612910Y-110277832D01*
X144628562Y-110260562D01*
X144645832Y-110244910D01*
X144664552Y-110231026D01*
X144684543Y-110219044D01*
X144705613Y-110209079D01*
X144727557Y-110201227D01*
X144750166Y-110195563D01*
X144773221Y-110192144D01*
X144796500Y-110191000D01*
X145271500Y-110191000D01*
X145294779Y-110192144D01*
X145294779Y-110192144D01*
G37*
D16*
X145034000Y-110716000D03*
G04 #@! TD*
D14*
G04 #@! TO.C,C7*
G36*
X159518779Y-126476144D02*
X159541834Y-126479563D01*
X159564443Y-126485227D01*
X159586387Y-126493079D01*
X159607457Y-126503044D01*
X159627448Y-126515026D01*
X159646168Y-126528910D01*
X159663438Y-126544562D01*
X159679090Y-126561832D01*
X159692974Y-126580552D01*
X159704956Y-126600543D01*
X159714921Y-126621613D01*
X159722773Y-126643557D01*
X159728437Y-126666166D01*
X159731856Y-126689221D01*
X159733000Y-126712500D01*
X159733000Y-127287500D01*
X159731856Y-127310779D01*
X159728437Y-127333834D01*
X159722773Y-127356443D01*
X159714921Y-127378387D01*
X159704956Y-127399457D01*
X159692974Y-127419448D01*
X159679090Y-127438168D01*
X159663438Y-127455438D01*
X159646168Y-127471090D01*
X159627448Y-127484974D01*
X159607457Y-127496956D01*
X159586387Y-127506921D01*
X159564443Y-127514773D01*
X159541834Y-127520437D01*
X159518779Y-127523856D01*
X159495500Y-127525000D01*
X159020500Y-127525000D01*
X158997221Y-127523856D01*
X158974166Y-127520437D01*
X158951557Y-127514773D01*
X158929613Y-127506921D01*
X158908543Y-127496956D01*
X158888552Y-127484974D01*
X158869832Y-127471090D01*
X158852562Y-127455438D01*
X158836910Y-127438168D01*
X158823026Y-127419448D01*
X158811044Y-127399457D01*
X158801079Y-127378387D01*
X158793227Y-127356443D01*
X158787563Y-127333834D01*
X158784144Y-127310779D01*
X158783000Y-127287500D01*
X158783000Y-126712500D01*
X158784144Y-126689221D01*
X158787563Y-126666166D01*
X158793227Y-126643557D01*
X158801079Y-126621613D01*
X158811044Y-126600543D01*
X158823026Y-126580552D01*
X158836910Y-126561832D01*
X158852562Y-126544562D01*
X158869832Y-126528910D01*
X158888552Y-126515026D01*
X158908543Y-126503044D01*
X158929613Y-126493079D01*
X158951557Y-126485227D01*
X158974166Y-126479563D01*
X158997221Y-126476144D01*
X159020500Y-126475000D01*
X159495500Y-126475000D01*
X159518779Y-126476144D01*
X159518779Y-126476144D01*
G37*
D16*
X159258000Y-127000000D03*
D14*
G36*
X159518779Y-128226144D02*
X159541834Y-128229563D01*
X159564443Y-128235227D01*
X159586387Y-128243079D01*
X159607457Y-128253044D01*
X159627448Y-128265026D01*
X159646168Y-128278910D01*
X159663438Y-128294562D01*
X159679090Y-128311832D01*
X159692974Y-128330552D01*
X159704956Y-128350543D01*
X159714921Y-128371613D01*
X159722773Y-128393557D01*
X159728437Y-128416166D01*
X159731856Y-128439221D01*
X159733000Y-128462500D01*
X159733000Y-129037500D01*
X159731856Y-129060779D01*
X159728437Y-129083834D01*
X159722773Y-129106443D01*
X159714921Y-129128387D01*
X159704956Y-129149457D01*
X159692974Y-129169448D01*
X159679090Y-129188168D01*
X159663438Y-129205438D01*
X159646168Y-129221090D01*
X159627448Y-129234974D01*
X159607457Y-129246956D01*
X159586387Y-129256921D01*
X159564443Y-129264773D01*
X159541834Y-129270437D01*
X159518779Y-129273856D01*
X159495500Y-129275000D01*
X159020500Y-129275000D01*
X158997221Y-129273856D01*
X158974166Y-129270437D01*
X158951557Y-129264773D01*
X158929613Y-129256921D01*
X158908543Y-129246956D01*
X158888552Y-129234974D01*
X158869832Y-129221090D01*
X158852562Y-129205438D01*
X158836910Y-129188168D01*
X158823026Y-129169448D01*
X158811044Y-129149457D01*
X158801079Y-129128387D01*
X158793227Y-129106443D01*
X158787563Y-129083834D01*
X158784144Y-129060779D01*
X158783000Y-129037500D01*
X158783000Y-128462500D01*
X158784144Y-128439221D01*
X158787563Y-128416166D01*
X158793227Y-128393557D01*
X158801079Y-128371613D01*
X158811044Y-128350543D01*
X158823026Y-128330552D01*
X158836910Y-128311832D01*
X158852562Y-128294562D01*
X158869832Y-128278910D01*
X158888552Y-128265026D01*
X158908543Y-128253044D01*
X158929613Y-128243079D01*
X158951557Y-128235227D01*
X158974166Y-128229563D01*
X158997221Y-128226144D01*
X159020500Y-128225000D01*
X159495500Y-128225000D01*
X159518779Y-128226144D01*
X159518779Y-128226144D01*
G37*
D16*
X159258000Y-128750000D03*
G04 #@! TD*
D14*
G04 #@! TO.C,C8*
G36*
X167978779Y-137702144D02*
X168001834Y-137705563D01*
X168024443Y-137711227D01*
X168046387Y-137719079D01*
X168067457Y-137729044D01*
X168087448Y-137741026D01*
X168106168Y-137754910D01*
X168123438Y-137770562D01*
X168139090Y-137787832D01*
X168152974Y-137806552D01*
X168164956Y-137826543D01*
X168174921Y-137847613D01*
X168182773Y-137869557D01*
X168188437Y-137892166D01*
X168191856Y-137915221D01*
X168193000Y-137938500D01*
X168193000Y-138413500D01*
X168191856Y-138436779D01*
X168188437Y-138459834D01*
X168182773Y-138482443D01*
X168174921Y-138504387D01*
X168164956Y-138525457D01*
X168152974Y-138545448D01*
X168139090Y-138564168D01*
X168123438Y-138581438D01*
X168106168Y-138597090D01*
X168087448Y-138610974D01*
X168067457Y-138622956D01*
X168046387Y-138632921D01*
X168024443Y-138640773D01*
X168001834Y-138646437D01*
X167978779Y-138649856D01*
X167955500Y-138651000D01*
X167380500Y-138651000D01*
X167357221Y-138649856D01*
X167334166Y-138646437D01*
X167311557Y-138640773D01*
X167289613Y-138632921D01*
X167268543Y-138622956D01*
X167248552Y-138610974D01*
X167229832Y-138597090D01*
X167212562Y-138581438D01*
X167196910Y-138564168D01*
X167183026Y-138545448D01*
X167171044Y-138525457D01*
X167161079Y-138504387D01*
X167153227Y-138482443D01*
X167147563Y-138459834D01*
X167144144Y-138436779D01*
X167143000Y-138413500D01*
X167143000Y-137938500D01*
X167144144Y-137915221D01*
X167147563Y-137892166D01*
X167153227Y-137869557D01*
X167161079Y-137847613D01*
X167171044Y-137826543D01*
X167183026Y-137806552D01*
X167196910Y-137787832D01*
X167212562Y-137770562D01*
X167229832Y-137754910D01*
X167248552Y-137741026D01*
X167268543Y-137729044D01*
X167289613Y-137719079D01*
X167311557Y-137711227D01*
X167334166Y-137705563D01*
X167357221Y-137702144D01*
X167380500Y-137701000D01*
X167955500Y-137701000D01*
X167978779Y-137702144D01*
X167978779Y-137702144D01*
G37*
D16*
X167668000Y-138176000D03*
D14*
G36*
X169728779Y-137702144D02*
X169751834Y-137705563D01*
X169774443Y-137711227D01*
X169796387Y-137719079D01*
X169817457Y-137729044D01*
X169837448Y-137741026D01*
X169856168Y-137754910D01*
X169873438Y-137770562D01*
X169889090Y-137787832D01*
X169902974Y-137806552D01*
X169914956Y-137826543D01*
X169924921Y-137847613D01*
X169932773Y-137869557D01*
X169938437Y-137892166D01*
X169941856Y-137915221D01*
X169943000Y-137938500D01*
X169943000Y-138413500D01*
X169941856Y-138436779D01*
X169938437Y-138459834D01*
X169932773Y-138482443D01*
X169924921Y-138504387D01*
X169914956Y-138525457D01*
X169902974Y-138545448D01*
X169889090Y-138564168D01*
X169873438Y-138581438D01*
X169856168Y-138597090D01*
X169837448Y-138610974D01*
X169817457Y-138622956D01*
X169796387Y-138632921D01*
X169774443Y-138640773D01*
X169751834Y-138646437D01*
X169728779Y-138649856D01*
X169705500Y-138651000D01*
X169130500Y-138651000D01*
X169107221Y-138649856D01*
X169084166Y-138646437D01*
X169061557Y-138640773D01*
X169039613Y-138632921D01*
X169018543Y-138622956D01*
X168998552Y-138610974D01*
X168979832Y-138597090D01*
X168962562Y-138581438D01*
X168946910Y-138564168D01*
X168933026Y-138545448D01*
X168921044Y-138525457D01*
X168911079Y-138504387D01*
X168903227Y-138482443D01*
X168897563Y-138459834D01*
X168894144Y-138436779D01*
X168893000Y-138413500D01*
X168893000Y-137938500D01*
X168894144Y-137915221D01*
X168897563Y-137892166D01*
X168903227Y-137869557D01*
X168911079Y-137847613D01*
X168921044Y-137826543D01*
X168933026Y-137806552D01*
X168946910Y-137787832D01*
X168962562Y-137770562D01*
X168979832Y-137754910D01*
X168998552Y-137741026D01*
X169018543Y-137729044D01*
X169039613Y-137719079D01*
X169061557Y-137711227D01*
X169084166Y-137705563D01*
X169107221Y-137702144D01*
X169130500Y-137701000D01*
X169705500Y-137701000D01*
X169728779Y-137702144D01*
X169728779Y-137702144D01*
G37*
D16*
X169418000Y-138176000D03*
G04 #@! TD*
D14*
G04 #@! TO.C,C9*
G36*
X159518779Y-122384144D02*
X159541834Y-122387563D01*
X159564443Y-122393227D01*
X159586387Y-122401079D01*
X159607457Y-122411044D01*
X159627448Y-122423026D01*
X159646168Y-122436910D01*
X159663438Y-122452562D01*
X159679090Y-122469832D01*
X159692974Y-122488552D01*
X159704956Y-122508543D01*
X159714921Y-122529613D01*
X159722773Y-122551557D01*
X159728437Y-122574166D01*
X159731856Y-122597221D01*
X159733000Y-122620500D01*
X159733000Y-123195500D01*
X159731856Y-123218779D01*
X159728437Y-123241834D01*
X159722773Y-123264443D01*
X159714921Y-123286387D01*
X159704956Y-123307457D01*
X159692974Y-123327448D01*
X159679090Y-123346168D01*
X159663438Y-123363438D01*
X159646168Y-123379090D01*
X159627448Y-123392974D01*
X159607457Y-123404956D01*
X159586387Y-123414921D01*
X159564443Y-123422773D01*
X159541834Y-123428437D01*
X159518779Y-123431856D01*
X159495500Y-123433000D01*
X159020500Y-123433000D01*
X158997221Y-123431856D01*
X158974166Y-123428437D01*
X158951557Y-123422773D01*
X158929613Y-123414921D01*
X158908543Y-123404956D01*
X158888552Y-123392974D01*
X158869832Y-123379090D01*
X158852562Y-123363438D01*
X158836910Y-123346168D01*
X158823026Y-123327448D01*
X158811044Y-123307457D01*
X158801079Y-123286387D01*
X158793227Y-123264443D01*
X158787563Y-123241834D01*
X158784144Y-123218779D01*
X158783000Y-123195500D01*
X158783000Y-122620500D01*
X158784144Y-122597221D01*
X158787563Y-122574166D01*
X158793227Y-122551557D01*
X158801079Y-122529613D01*
X158811044Y-122508543D01*
X158823026Y-122488552D01*
X158836910Y-122469832D01*
X158852562Y-122452562D01*
X158869832Y-122436910D01*
X158888552Y-122423026D01*
X158908543Y-122411044D01*
X158929613Y-122401079D01*
X158951557Y-122393227D01*
X158974166Y-122387563D01*
X158997221Y-122384144D01*
X159020500Y-122383000D01*
X159495500Y-122383000D01*
X159518779Y-122384144D01*
X159518779Y-122384144D01*
G37*
D16*
X159258000Y-122908000D03*
D14*
G36*
X159518779Y-120634144D02*
X159541834Y-120637563D01*
X159564443Y-120643227D01*
X159586387Y-120651079D01*
X159607457Y-120661044D01*
X159627448Y-120673026D01*
X159646168Y-120686910D01*
X159663438Y-120702562D01*
X159679090Y-120719832D01*
X159692974Y-120738552D01*
X159704956Y-120758543D01*
X159714921Y-120779613D01*
X159722773Y-120801557D01*
X159728437Y-120824166D01*
X159731856Y-120847221D01*
X159733000Y-120870500D01*
X159733000Y-121445500D01*
X159731856Y-121468779D01*
X159728437Y-121491834D01*
X159722773Y-121514443D01*
X159714921Y-121536387D01*
X159704956Y-121557457D01*
X159692974Y-121577448D01*
X159679090Y-121596168D01*
X159663438Y-121613438D01*
X159646168Y-121629090D01*
X159627448Y-121642974D01*
X159607457Y-121654956D01*
X159586387Y-121664921D01*
X159564443Y-121672773D01*
X159541834Y-121678437D01*
X159518779Y-121681856D01*
X159495500Y-121683000D01*
X159020500Y-121683000D01*
X158997221Y-121681856D01*
X158974166Y-121678437D01*
X158951557Y-121672773D01*
X158929613Y-121664921D01*
X158908543Y-121654956D01*
X158888552Y-121642974D01*
X158869832Y-121629090D01*
X158852562Y-121613438D01*
X158836910Y-121596168D01*
X158823026Y-121577448D01*
X158811044Y-121557457D01*
X158801079Y-121536387D01*
X158793227Y-121514443D01*
X158787563Y-121491834D01*
X158784144Y-121468779D01*
X158783000Y-121445500D01*
X158783000Y-120870500D01*
X158784144Y-120847221D01*
X158787563Y-120824166D01*
X158793227Y-120801557D01*
X158801079Y-120779613D01*
X158811044Y-120758543D01*
X158823026Y-120738552D01*
X158836910Y-120719832D01*
X158852562Y-120702562D01*
X158869832Y-120686910D01*
X158888552Y-120673026D01*
X158908543Y-120661044D01*
X158929613Y-120651079D01*
X158951557Y-120643227D01*
X158974166Y-120637563D01*
X158997221Y-120634144D01*
X159020500Y-120633000D01*
X159495500Y-120633000D01*
X159518779Y-120634144D01*
X159518779Y-120634144D01*
G37*
D16*
X159258000Y-121158000D03*
G04 #@! TD*
D14*
G04 #@! TO.C,C10*
G36*
X161550779Y-128226144D02*
X161573834Y-128229563D01*
X161596443Y-128235227D01*
X161618387Y-128243079D01*
X161639457Y-128253044D01*
X161659448Y-128265026D01*
X161678168Y-128278910D01*
X161695438Y-128294562D01*
X161711090Y-128311832D01*
X161724974Y-128330552D01*
X161736956Y-128350543D01*
X161746921Y-128371613D01*
X161754773Y-128393557D01*
X161760437Y-128416166D01*
X161763856Y-128439221D01*
X161765000Y-128462500D01*
X161765000Y-129037500D01*
X161763856Y-129060779D01*
X161760437Y-129083834D01*
X161754773Y-129106443D01*
X161746921Y-129128387D01*
X161736956Y-129149457D01*
X161724974Y-129169448D01*
X161711090Y-129188168D01*
X161695438Y-129205438D01*
X161678168Y-129221090D01*
X161659448Y-129234974D01*
X161639457Y-129246956D01*
X161618387Y-129256921D01*
X161596443Y-129264773D01*
X161573834Y-129270437D01*
X161550779Y-129273856D01*
X161527500Y-129275000D01*
X161052500Y-129275000D01*
X161029221Y-129273856D01*
X161006166Y-129270437D01*
X160983557Y-129264773D01*
X160961613Y-129256921D01*
X160940543Y-129246956D01*
X160920552Y-129234974D01*
X160901832Y-129221090D01*
X160884562Y-129205438D01*
X160868910Y-129188168D01*
X160855026Y-129169448D01*
X160843044Y-129149457D01*
X160833079Y-129128387D01*
X160825227Y-129106443D01*
X160819563Y-129083834D01*
X160816144Y-129060779D01*
X160815000Y-129037500D01*
X160815000Y-128462500D01*
X160816144Y-128439221D01*
X160819563Y-128416166D01*
X160825227Y-128393557D01*
X160833079Y-128371613D01*
X160843044Y-128350543D01*
X160855026Y-128330552D01*
X160868910Y-128311832D01*
X160884562Y-128294562D01*
X160901832Y-128278910D01*
X160920552Y-128265026D01*
X160940543Y-128253044D01*
X160961613Y-128243079D01*
X160983557Y-128235227D01*
X161006166Y-128229563D01*
X161029221Y-128226144D01*
X161052500Y-128225000D01*
X161527500Y-128225000D01*
X161550779Y-128226144D01*
X161550779Y-128226144D01*
G37*
D16*
X161290000Y-128750000D03*
D14*
G36*
X161550779Y-126476144D02*
X161573834Y-126479563D01*
X161596443Y-126485227D01*
X161618387Y-126493079D01*
X161639457Y-126503044D01*
X161659448Y-126515026D01*
X161678168Y-126528910D01*
X161695438Y-126544562D01*
X161711090Y-126561832D01*
X161724974Y-126580552D01*
X161736956Y-126600543D01*
X161746921Y-126621613D01*
X161754773Y-126643557D01*
X161760437Y-126666166D01*
X161763856Y-126689221D01*
X161765000Y-126712500D01*
X161765000Y-127287500D01*
X161763856Y-127310779D01*
X161760437Y-127333834D01*
X161754773Y-127356443D01*
X161746921Y-127378387D01*
X161736956Y-127399457D01*
X161724974Y-127419448D01*
X161711090Y-127438168D01*
X161695438Y-127455438D01*
X161678168Y-127471090D01*
X161659448Y-127484974D01*
X161639457Y-127496956D01*
X161618387Y-127506921D01*
X161596443Y-127514773D01*
X161573834Y-127520437D01*
X161550779Y-127523856D01*
X161527500Y-127525000D01*
X161052500Y-127525000D01*
X161029221Y-127523856D01*
X161006166Y-127520437D01*
X160983557Y-127514773D01*
X160961613Y-127506921D01*
X160940543Y-127496956D01*
X160920552Y-127484974D01*
X160901832Y-127471090D01*
X160884562Y-127455438D01*
X160868910Y-127438168D01*
X160855026Y-127419448D01*
X160843044Y-127399457D01*
X160833079Y-127378387D01*
X160825227Y-127356443D01*
X160819563Y-127333834D01*
X160816144Y-127310779D01*
X160815000Y-127287500D01*
X160815000Y-126712500D01*
X160816144Y-126689221D01*
X160819563Y-126666166D01*
X160825227Y-126643557D01*
X160833079Y-126621613D01*
X160843044Y-126600543D01*
X160855026Y-126580552D01*
X160868910Y-126561832D01*
X160884562Y-126544562D01*
X160901832Y-126528910D01*
X160920552Y-126515026D01*
X160940543Y-126503044D01*
X160961613Y-126493079D01*
X160983557Y-126485227D01*
X161006166Y-126479563D01*
X161029221Y-126476144D01*
X161052500Y-126475000D01*
X161527500Y-126475000D01*
X161550779Y-126476144D01*
X161550779Y-126476144D01*
G37*
D16*
X161290000Y-127000000D03*
G04 #@! TD*
D14*
G04 #@! TO.C,C11*
G36*
X153636505Y-115522204D02*
X153660773Y-115525804D01*
X153684572Y-115531765D01*
X153707671Y-115540030D01*
X153729850Y-115550520D01*
X153750893Y-115563132D01*
X153770599Y-115577747D01*
X153788777Y-115594223D01*
X153805253Y-115612401D01*
X153819868Y-115632107D01*
X153832480Y-115653150D01*
X153842970Y-115675329D01*
X153851235Y-115698428D01*
X153857196Y-115722227D01*
X153860796Y-115746495D01*
X153862000Y-115770999D01*
X153862000Y-116421001D01*
X153860796Y-116445505D01*
X153857196Y-116469773D01*
X153851235Y-116493572D01*
X153842970Y-116516671D01*
X153832480Y-116538850D01*
X153819868Y-116559893D01*
X153805253Y-116579599D01*
X153788777Y-116597777D01*
X153770599Y-116614253D01*
X153750893Y-116628868D01*
X153729850Y-116641480D01*
X153707671Y-116651970D01*
X153684572Y-116660235D01*
X153660773Y-116666196D01*
X153636505Y-116669796D01*
X153612001Y-116671000D01*
X152711999Y-116671000D01*
X152687495Y-116669796D01*
X152663227Y-116666196D01*
X152639428Y-116660235D01*
X152616329Y-116651970D01*
X152594150Y-116641480D01*
X152573107Y-116628868D01*
X152553401Y-116614253D01*
X152535223Y-116597777D01*
X152518747Y-116579599D01*
X152504132Y-116559893D01*
X152491520Y-116538850D01*
X152481030Y-116516671D01*
X152472765Y-116493572D01*
X152466804Y-116469773D01*
X152463204Y-116445505D01*
X152462000Y-116421001D01*
X152462000Y-115770999D01*
X152463204Y-115746495D01*
X152466804Y-115722227D01*
X152472765Y-115698428D01*
X152481030Y-115675329D01*
X152491520Y-115653150D01*
X152504132Y-115632107D01*
X152518747Y-115612401D01*
X152535223Y-115594223D01*
X152553401Y-115577747D01*
X152573107Y-115563132D01*
X152594150Y-115550520D01*
X152616329Y-115540030D01*
X152639428Y-115531765D01*
X152663227Y-115525804D01*
X152687495Y-115522204D01*
X152711999Y-115521000D01*
X153612001Y-115521000D01*
X153636505Y-115522204D01*
X153636505Y-115522204D01*
G37*
D15*
X153162000Y-116096000D03*
D14*
G36*
X153636505Y-113472204D02*
X153660773Y-113475804D01*
X153684572Y-113481765D01*
X153707671Y-113490030D01*
X153729850Y-113500520D01*
X153750893Y-113513132D01*
X153770599Y-113527747D01*
X153788777Y-113544223D01*
X153805253Y-113562401D01*
X153819868Y-113582107D01*
X153832480Y-113603150D01*
X153842970Y-113625329D01*
X153851235Y-113648428D01*
X153857196Y-113672227D01*
X153860796Y-113696495D01*
X153862000Y-113720999D01*
X153862000Y-114371001D01*
X153860796Y-114395505D01*
X153857196Y-114419773D01*
X153851235Y-114443572D01*
X153842970Y-114466671D01*
X153832480Y-114488850D01*
X153819868Y-114509893D01*
X153805253Y-114529599D01*
X153788777Y-114547777D01*
X153770599Y-114564253D01*
X153750893Y-114578868D01*
X153729850Y-114591480D01*
X153707671Y-114601970D01*
X153684572Y-114610235D01*
X153660773Y-114616196D01*
X153636505Y-114619796D01*
X153612001Y-114621000D01*
X152711999Y-114621000D01*
X152687495Y-114619796D01*
X152663227Y-114616196D01*
X152639428Y-114610235D01*
X152616329Y-114601970D01*
X152594150Y-114591480D01*
X152573107Y-114578868D01*
X152553401Y-114564253D01*
X152535223Y-114547777D01*
X152518747Y-114529599D01*
X152504132Y-114509893D01*
X152491520Y-114488850D01*
X152481030Y-114466671D01*
X152472765Y-114443572D01*
X152466804Y-114419773D01*
X152463204Y-114395505D01*
X152462000Y-114371001D01*
X152462000Y-113720999D01*
X152463204Y-113696495D01*
X152466804Y-113672227D01*
X152472765Y-113648428D01*
X152481030Y-113625329D01*
X152491520Y-113603150D01*
X152504132Y-113582107D01*
X152518747Y-113562401D01*
X152535223Y-113544223D01*
X152553401Y-113527747D01*
X152573107Y-113513132D01*
X152594150Y-113500520D01*
X152616329Y-113490030D01*
X152639428Y-113481765D01*
X152663227Y-113475804D01*
X152687495Y-113472204D01*
X152711999Y-113471000D01*
X153612001Y-113471000D01*
X153636505Y-113472204D01*
X153636505Y-113472204D01*
G37*
D15*
X153162000Y-114046000D03*
G04 #@! TD*
D14*
G04 #@! TO.C,C12*
G36*
X119041779Y-120176144D02*
X119064834Y-120179563D01*
X119087443Y-120185227D01*
X119109387Y-120193079D01*
X119130457Y-120203044D01*
X119150448Y-120215026D01*
X119169168Y-120228910D01*
X119186438Y-120244562D01*
X119202090Y-120261832D01*
X119215974Y-120280552D01*
X119227956Y-120300543D01*
X119237921Y-120321613D01*
X119245773Y-120343557D01*
X119251437Y-120366166D01*
X119254856Y-120389221D01*
X119256000Y-120412500D01*
X119256000Y-120887500D01*
X119254856Y-120910779D01*
X119251437Y-120933834D01*
X119245773Y-120956443D01*
X119237921Y-120978387D01*
X119227956Y-120999457D01*
X119215974Y-121019448D01*
X119202090Y-121038168D01*
X119186438Y-121055438D01*
X119169168Y-121071090D01*
X119150448Y-121084974D01*
X119130457Y-121096956D01*
X119109387Y-121106921D01*
X119087443Y-121114773D01*
X119064834Y-121120437D01*
X119041779Y-121123856D01*
X119018500Y-121125000D01*
X118443500Y-121125000D01*
X118420221Y-121123856D01*
X118397166Y-121120437D01*
X118374557Y-121114773D01*
X118352613Y-121106921D01*
X118331543Y-121096956D01*
X118311552Y-121084974D01*
X118292832Y-121071090D01*
X118275562Y-121055438D01*
X118259910Y-121038168D01*
X118246026Y-121019448D01*
X118234044Y-120999457D01*
X118224079Y-120978387D01*
X118216227Y-120956443D01*
X118210563Y-120933834D01*
X118207144Y-120910779D01*
X118206000Y-120887500D01*
X118206000Y-120412500D01*
X118207144Y-120389221D01*
X118210563Y-120366166D01*
X118216227Y-120343557D01*
X118224079Y-120321613D01*
X118234044Y-120300543D01*
X118246026Y-120280552D01*
X118259910Y-120261832D01*
X118275562Y-120244562D01*
X118292832Y-120228910D01*
X118311552Y-120215026D01*
X118331543Y-120203044D01*
X118352613Y-120193079D01*
X118374557Y-120185227D01*
X118397166Y-120179563D01*
X118420221Y-120176144D01*
X118443500Y-120175000D01*
X119018500Y-120175000D01*
X119041779Y-120176144D01*
X119041779Y-120176144D01*
G37*
D16*
X118731000Y-120650000D03*
D14*
G36*
X117291779Y-120176144D02*
X117314834Y-120179563D01*
X117337443Y-120185227D01*
X117359387Y-120193079D01*
X117380457Y-120203044D01*
X117400448Y-120215026D01*
X117419168Y-120228910D01*
X117436438Y-120244562D01*
X117452090Y-120261832D01*
X117465974Y-120280552D01*
X117477956Y-120300543D01*
X117487921Y-120321613D01*
X117495773Y-120343557D01*
X117501437Y-120366166D01*
X117504856Y-120389221D01*
X117506000Y-120412500D01*
X117506000Y-120887500D01*
X117504856Y-120910779D01*
X117501437Y-120933834D01*
X117495773Y-120956443D01*
X117487921Y-120978387D01*
X117477956Y-120999457D01*
X117465974Y-121019448D01*
X117452090Y-121038168D01*
X117436438Y-121055438D01*
X117419168Y-121071090D01*
X117400448Y-121084974D01*
X117380457Y-121096956D01*
X117359387Y-121106921D01*
X117337443Y-121114773D01*
X117314834Y-121120437D01*
X117291779Y-121123856D01*
X117268500Y-121125000D01*
X116693500Y-121125000D01*
X116670221Y-121123856D01*
X116647166Y-121120437D01*
X116624557Y-121114773D01*
X116602613Y-121106921D01*
X116581543Y-121096956D01*
X116561552Y-121084974D01*
X116542832Y-121071090D01*
X116525562Y-121055438D01*
X116509910Y-121038168D01*
X116496026Y-121019448D01*
X116484044Y-120999457D01*
X116474079Y-120978387D01*
X116466227Y-120956443D01*
X116460563Y-120933834D01*
X116457144Y-120910779D01*
X116456000Y-120887500D01*
X116456000Y-120412500D01*
X116457144Y-120389221D01*
X116460563Y-120366166D01*
X116466227Y-120343557D01*
X116474079Y-120321613D01*
X116484044Y-120300543D01*
X116496026Y-120280552D01*
X116509910Y-120261832D01*
X116525562Y-120244562D01*
X116542832Y-120228910D01*
X116561552Y-120215026D01*
X116581543Y-120203044D01*
X116602613Y-120193079D01*
X116624557Y-120185227D01*
X116647166Y-120179563D01*
X116670221Y-120176144D01*
X116693500Y-120175000D01*
X117268500Y-120175000D01*
X117291779Y-120176144D01*
X117291779Y-120176144D01*
G37*
D16*
X116981000Y-120650000D03*
G04 #@! TD*
D14*
G04 #@! TO.C,C13*
G36*
X162820779Y-142986144D02*
X162843834Y-142989563D01*
X162866443Y-142995227D01*
X162888387Y-143003079D01*
X162909457Y-143013044D01*
X162929448Y-143025026D01*
X162948168Y-143038910D01*
X162965438Y-143054562D01*
X162981090Y-143071832D01*
X162994974Y-143090552D01*
X163006956Y-143110543D01*
X163016921Y-143131613D01*
X163024773Y-143153557D01*
X163030437Y-143176166D01*
X163033856Y-143199221D01*
X163035000Y-143222500D01*
X163035000Y-143797500D01*
X163033856Y-143820779D01*
X163030437Y-143843834D01*
X163024773Y-143866443D01*
X163016921Y-143888387D01*
X163006956Y-143909457D01*
X162994974Y-143929448D01*
X162981090Y-143948168D01*
X162965438Y-143965438D01*
X162948168Y-143981090D01*
X162929448Y-143994974D01*
X162909457Y-144006956D01*
X162888387Y-144016921D01*
X162866443Y-144024773D01*
X162843834Y-144030437D01*
X162820779Y-144033856D01*
X162797500Y-144035000D01*
X162322500Y-144035000D01*
X162299221Y-144033856D01*
X162276166Y-144030437D01*
X162253557Y-144024773D01*
X162231613Y-144016921D01*
X162210543Y-144006956D01*
X162190552Y-143994974D01*
X162171832Y-143981090D01*
X162154562Y-143965438D01*
X162138910Y-143948168D01*
X162125026Y-143929448D01*
X162113044Y-143909457D01*
X162103079Y-143888387D01*
X162095227Y-143866443D01*
X162089563Y-143843834D01*
X162086144Y-143820779D01*
X162085000Y-143797500D01*
X162085000Y-143222500D01*
X162086144Y-143199221D01*
X162089563Y-143176166D01*
X162095227Y-143153557D01*
X162103079Y-143131613D01*
X162113044Y-143110543D01*
X162125026Y-143090552D01*
X162138910Y-143071832D01*
X162154562Y-143054562D01*
X162171832Y-143038910D01*
X162190552Y-143025026D01*
X162210543Y-143013044D01*
X162231613Y-143003079D01*
X162253557Y-142995227D01*
X162276166Y-142989563D01*
X162299221Y-142986144D01*
X162322500Y-142985000D01*
X162797500Y-142985000D01*
X162820779Y-142986144D01*
X162820779Y-142986144D01*
G37*
D16*
X162560000Y-143510000D03*
D14*
G36*
X162820779Y-141236144D02*
X162843834Y-141239563D01*
X162866443Y-141245227D01*
X162888387Y-141253079D01*
X162909457Y-141263044D01*
X162929448Y-141275026D01*
X162948168Y-141288910D01*
X162965438Y-141304562D01*
X162981090Y-141321832D01*
X162994974Y-141340552D01*
X163006956Y-141360543D01*
X163016921Y-141381613D01*
X163024773Y-141403557D01*
X163030437Y-141426166D01*
X163033856Y-141449221D01*
X163035000Y-141472500D01*
X163035000Y-142047500D01*
X163033856Y-142070779D01*
X163030437Y-142093834D01*
X163024773Y-142116443D01*
X163016921Y-142138387D01*
X163006956Y-142159457D01*
X162994974Y-142179448D01*
X162981090Y-142198168D01*
X162965438Y-142215438D01*
X162948168Y-142231090D01*
X162929448Y-142244974D01*
X162909457Y-142256956D01*
X162888387Y-142266921D01*
X162866443Y-142274773D01*
X162843834Y-142280437D01*
X162820779Y-142283856D01*
X162797500Y-142285000D01*
X162322500Y-142285000D01*
X162299221Y-142283856D01*
X162276166Y-142280437D01*
X162253557Y-142274773D01*
X162231613Y-142266921D01*
X162210543Y-142256956D01*
X162190552Y-142244974D01*
X162171832Y-142231090D01*
X162154562Y-142215438D01*
X162138910Y-142198168D01*
X162125026Y-142179448D01*
X162113044Y-142159457D01*
X162103079Y-142138387D01*
X162095227Y-142116443D01*
X162089563Y-142093834D01*
X162086144Y-142070779D01*
X162085000Y-142047500D01*
X162085000Y-141472500D01*
X162086144Y-141449221D01*
X162089563Y-141426166D01*
X162095227Y-141403557D01*
X162103079Y-141381613D01*
X162113044Y-141360543D01*
X162125026Y-141340552D01*
X162138910Y-141321832D01*
X162154562Y-141304562D01*
X162171832Y-141288910D01*
X162190552Y-141275026D01*
X162210543Y-141263044D01*
X162231613Y-141253079D01*
X162253557Y-141245227D01*
X162276166Y-141239563D01*
X162299221Y-141236144D01*
X162322500Y-141235000D01*
X162797500Y-141235000D01*
X162820779Y-141236144D01*
X162820779Y-141236144D01*
G37*
D16*
X162560000Y-141760000D03*
G04 #@! TD*
D14*
G04 #@! TO.C,C14*
G36*
X117545779Y-129320144D02*
X117568834Y-129323563D01*
X117591443Y-129329227D01*
X117613387Y-129337079D01*
X117634457Y-129347044D01*
X117654448Y-129359026D01*
X117673168Y-129372910D01*
X117690438Y-129388562D01*
X117706090Y-129405832D01*
X117719974Y-129424552D01*
X117731956Y-129444543D01*
X117741921Y-129465613D01*
X117749773Y-129487557D01*
X117755437Y-129510166D01*
X117758856Y-129533221D01*
X117760000Y-129556500D01*
X117760000Y-130031500D01*
X117758856Y-130054779D01*
X117755437Y-130077834D01*
X117749773Y-130100443D01*
X117741921Y-130122387D01*
X117731956Y-130143457D01*
X117719974Y-130163448D01*
X117706090Y-130182168D01*
X117690438Y-130199438D01*
X117673168Y-130215090D01*
X117654448Y-130228974D01*
X117634457Y-130240956D01*
X117613387Y-130250921D01*
X117591443Y-130258773D01*
X117568834Y-130264437D01*
X117545779Y-130267856D01*
X117522500Y-130269000D01*
X116947500Y-130269000D01*
X116924221Y-130267856D01*
X116901166Y-130264437D01*
X116878557Y-130258773D01*
X116856613Y-130250921D01*
X116835543Y-130240956D01*
X116815552Y-130228974D01*
X116796832Y-130215090D01*
X116779562Y-130199438D01*
X116763910Y-130182168D01*
X116750026Y-130163448D01*
X116738044Y-130143457D01*
X116728079Y-130122387D01*
X116720227Y-130100443D01*
X116714563Y-130077834D01*
X116711144Y-130054779D01*
X116710000Y-130031500D01*
X116710000Y-129556500D01*
X116711144Y-129533221D01*
X116714563Y-129510166D01*
X116720227Y-129487557D01*
X116728079Y-129465613D01*
X116738044Y-129444543D01*
X116750026Y-129424552D01*
X116763910Y-129405832D01*
X116779562Y-129388562D01*
X116796832Y-129372910D01*
X116815552Y-129359026D01*
X116835543Y-129347044D01*
X116856613Y-129337079D01*
X116878557Y-129329227D01*
X116901166Y-129323563D01*
X116924221Y-129320144D01*
X116947500Y-129319000D01*
X117522500Y-129319000D01*
X117545779Y-129320144D01*
X117545779Y-129320144D01*
G37*
D16*
X117235000Y-129794000D03*
D14*
G36*
X119295779Y-129320144D02*
X119318834Y-129323563D01*
X119341443Y-129329227D01*
X119363387Y-129337079D01*
X119384457Y-129347044D01*
X119404448Y-129359026D01*
X119423168Y-129372910D01*
X119440438Y-129388562D01*
X119456090Y-129405832D01*
X119469974Y-129424552D01*
X119481956Y-129444543D01*
X119491921Y-129465613D01*
X119499773Y-129487557D01*
X119505437Y-129510166D01*
X119508856Y-129533221D01*
X119510000Y-129556500D01*
X119510000Y-130031500D01*
X119508856Y-130054779D01*
X119505437Y-130077834D01*
X119499773Y-130100443D01*
X119491921Y-130122387D01*
X119481956Y-130143457D01*
X119469974Y-130163448D01*
X119456090Y-130182168D01*
X119440438Y-130199438D01*
X119423168Y-130215090D01*
X119404448Y-130228974D01*
X119384457Y-130240956D01*
X119363387Y-130250921D01*
X119341443Y-130258773D01*
X119318834Y-130264437D01*
X119295779Y-130267856D01*
X119272500Y-130269000D01*
X118697500Y-130269000D01*
X118674221Y-130267856D01*
X118651166Y-130264437D01*
X118628557Y-130258773D01*
X118606613Y-130250921D01*
X118585543Y-130240956D01*
X118565552Y-130228974D01*
X118546832Y-130215090D01*
X118529562Y-130199438D01*
X118513910Y-130182168D01*
X118500026Y-130163448D01*
X118488044Y-130143457D01*
X118478079Y-130122387D01*
X118470227Y-130100443D01*
X118464563Y-130077834D01*
X118461144Y-130054779D01*
X118460000Y-130031500D01*
X118460000Y-129556500D01*
X118461144Y-129533221D01*
X118464563Y-129510166D01*
X118470227Y-129487557D01*
X118478079Y-129465613D01*
X118488044Y-129444543D01*
X118500026Y-129424552D01*
X118513910Y-129405832D01*
X118529562Y-129388562D01*
X118546832Y-129372910D01*
X118565552Y-129359026D01*
X118585543Y-129347044D01*
X118606613Y-129337079D01*
X118628557Y-129329227D01*
X118651166Y-129323563D01*
X118674221Y-129320144D01*
X118697500Y-129319000D01*
X119272500Y-129319000D01*
X119295779Y-129320144D01*
X119295779Y-129320144D01*
G37*
D16*
X118985000Y-129794000D03*
G04 #@! TD*
D14*
G04 #@! TO.C,C15*
G36*
X141647779Y-140242144D02*
X141670834Y-140245563D01*
X141693443Y-140251227D01*
X141715387Y-140259079D01*
X141736457Y-140269044D01*
X141756448Y-140281026D01*
X141775168Y-140294910D01*
X141792438Y-140310562D01*
X141808090Y-140327832D01*
X141821974Y-140346552D01*
X141833956Y-140366543D01*
X141843921Y-140387613D01*
X141851773Y-140409557D01*
X141857437Y-140432166D01*
X141860856Y-140455221D01*
X141862000Y-140478500D01*
X141862000Y-140953500D01*
X141860856Y-140976779D01*
X141857437Y-140999834D01*
X141851773Y-141022443D01*
X141843921Y-141044387D01*
X141833956Y-141065457D01*
X141821974Y-141085448D01*
X141808090Y-141104168D01*
X141792438Y-141121438D01*
X141775168Y-141137090D01*
X141756448Y-141150974D01*
X141736457Y-141162956D01*
X141715387Y-141172921D01*
X141693443Y-141180773D01*
X141670834Y-141186437D01*
X141647779Y-141189856D01*
X141624500Y-141191000D01*
X141049500Y-141191000D01*
X141026221Y-141189856D01*
X141003166Y-141186437D01*
X140980557Y-141180773D01*
X140958613Y-141172921D01*
X140937543Y-141162956D01*
X140917552Y-141150974D01*
X140898832Y-141137090D01*
X140881562Y-141121438D01*
X140865910Y-141104168D01*
X140852026Y-141085448D01*
X140840044Y-141065457D01*
X140830079Y-141044387D01*
X140822227Y-141022443D01*
X140816563Y-140999834D01*
X140813144Y-140976779D01*
X140812000Y-140953500D01*
X140812000Y-140478500D01*
X140813144Y-140455221D01*
X140816563Y-140432166D01*
X140822227Y-140409557D01*
X140830079Y-140387613D01*
X140840044Y-140366543D01*
X140852026Y-140346552D01*
X140865910Y-140327832D01*
X140881562Y-140310562D01*
X140898832Y-140294910D01*
X140917552Y-140281026D01*
X140937543Y-140269044D01*
X140958613Y-140259079D01*
X140980557Y-140251227D01*
X141003166Y-140245563D01*
X141026221Y-140242144D01*
X141049500Y-140241000D01*
X141624500Y-140241000D01*
X141647779Y-140242144D01*
X141647779Y-140242144D01*
G37*
D16*
X141337000Y-140716000D03*
D14*
G36*
X139897779Y-140242144D02*
X139920834Y-140245563D01*
X139943443Y-140251227D01*
X139965387Y-140259079D01*
X139986457Y-140269044D01*
X140006448Y-140281026D01*
X140025168Y-140294910D01*
X140042438Y-140310562D01*
X140058090Y-140327832D01*
X140071974Y-140346552D01*
X140083956Y-140366543D01*
X140093921Y-140387613D01*
X140101773Y-140409557D01*
X140107437Y-140432166D01*
X140110856Y-140455221D01*
X140112000Y-140478500D01*
X140112000Y-140953500D01*
X140110856Y-140976779D01*
X140107437Y-140999834D01*
X140101773Y-141022443D01*
X140093921Y-141044387D01*
X140083956Y-141065457D01*
X140071974Y-141085448D01*
X140058090Y-141104168D01*
X140042438Y-141121438D01*
X140025168Y-141137090D01*
X140006448Y-141150974D01*
X139986457Y-141162956D01*
X139965387Y-141172921D01*
X139943443Y-141180773D01*
X139920834Y-141186437D01*
X139897779Y-141189856D01*
X139874500Y-141191000D01*
X139299500Y-141191000D01*
X139276221Y-141189856D01*
X139253166Y-141186437D01*
X139230557Y-141180773D01*
X139208613Y-141172921D01*
X139187543Y-141162956D01*
X139167552Y-141150974D01*
X139148832Y-141137090D01*
X139131562Y-141121438D01*
X139115910Y-141104168D01*
X139102026Y-141085448D01*
X139090044Y-141065457D01*
X139080079Y-141044387D01*
X139072227Y-141022443D01*
X139066563Y-140999834D01*
X139063144Y-140976779D01*
X139062000Y-140953500D01*
X139062000Y-140478500D01*
X139063144Y-140455221D01*
X139066563Y-140432166D01*
X139072227Y-140409557D01*
X139080079Y-140387613D01*
X139090044Y-140366543D01*
X139102026Y-140346552D01*
X139115910Y-140327832D01*
X139131562Y-140310562D01*
X139148832Y-140294910D01*
X139167552Y-140281026D01*
X139187543Y-140269044D01*
X139208613Y-140259079D01*
X139230557Y-140251227D01*
X139253166Y-140245563D01*
X139276221Y-140242144D01*
X139299500Y-140241000D01*
X139874500Y-140241000D01*
X139897779Y-140242144D01*
X139897779Y-140242144D01*
G37*
D16*
X139587000Y-140716000D03*
G04 #@! TD*
D17*
G04 #@! TO.C,D2*
X156906000Y-110744000D03*
X155006000Y-110744000D03*
X155956000Y-108744000D03*
G04 #@! TD*
G04 #@! TO.C,D3*
X158938000Y-115030000D03*
X157038000Y-115030000D03*
X157988000Y-113030000D03*
G04 #@! TD*
G04 #@! TO.C,D4*
X142748000Y-107442000D03*
X140848000Y-107442000D03*
X141798000Y-105442000D03*
G04 #@! TD*
G04 #@! TO.C,D5*
X157546000Y-105188000D03*
X156596000Y-107188000D03*
X158496000Y-107188000D03*
G04 #@! TD*
D18*
G04 #@! TO.C,J1*
X137922000Y-101092000D03*
D19*
X140462000Y-101092000D03*
X143002000Y-101092000D03*
X145542000Y-101092000D03*
G04 #@! TD*
D18*
G04 #@! TO.C,J2*
X137922000Y-98552000D03*
D19*
X140462000Y-98552000D03*
X143002000Y-98552000D03*
X145542000Y-98552000D03*
G04 #@! TD*
D18*
G04 #@! TO.C,J3*
X172720000Y-133350000D03*
D19*
X172720000Y-130810000D03*
X172720000Y-128270000D03*
X172720000Y-125730000D03*
X172720000Y-123190000D03*
X172720000Y-120650000D03*
G04 #@! TD*
D18*
G04 #@! TO.C,J6*
X149098000Y-101092000D03*
D19*
X151638000Y-101092000D03*
X154178000Y-101092000D03*
X156718000Y-101092000D03*
X159258000Y-101092000D03*
X161798000Y-101092000D03*
G04 #@! TD*
G04 #@! TO.C,J7*
X161798000Y-98552000D03*
X159258000Y-98552000D03*
X156718000Y-98552000D03*
X154178000Y-98552000D03*
X151638000Y-98552000D03*
D18*
X149098000Y-98552000D03*
G04 #@! TD*
D14*
G04 #@! TO.C,L2*
G36*
X147651505Y-113601204D02*
X147675773Y-113604804D01*
X147699572Y-113610765D01*
X147722671Y-113619030D01*
X147744850Y-113629520D01*
X147765893Y-113642132D01*
X147785599Y-113656747D01*
X147803777Y-113673223D01*
X147820253Y-113691401D01*
X147834868Y-113711107D01*
X147847480Y-113732150D01*
X147857970Y-113754329D01*
X147866235Y-113777428D01*
X147872196Y-113801227D01*
X147875796Y-113825495D01*
X147877000Y-113849999D01*
X147877000Y-114750001D01*
X147875796Y-114774505D01*
X147872196Y-114798773D01*
X147866235Y-114822572D01*
X147857970Y-114845671D01*
X147847480Y-114867850D01*
X147834868Y-114888893D01*
X147820253Y-114908599D01*
X147803777Y-114926777D01*
X147785599Y-114943253D01*
X147765893Y-114957868D01*
X147744850Y-114970480D01*
X147722671Y-114980970D01*
X147699572Y-114989235D01*
X147675773Y-114995196D01*
X147651505Y-114998796D01*
X147627001Y-115000000D01*
X146976999Y-115000000D01*
X146952495Y-114998796D01*
X146928227Y-114995196D01*
X146904428Y-114989235D01*
X146881329Y-114980970D01*
X146859150Y-114970480D01*
X146838107Y-114957868D01*
X146818401Y-114943253D01*
X146800223Y-114926777D01*
X146783747Y-114908599D01*
X146769132Y-114888893D01*
X146756520Y-114867850D01*
X146746030Y-114845671D01*
X146737765Y-114822572D01*
X146731804Y-114798773D01*
X146728204Y-114774505D01*
X146727000Y-114750001D01*
X146727000Y-113849999D01*
X146728204Y-113825495D01*
X146731804Y-113801227D01*
X146737765Y-113777428D01*
X146746030Y-113754329D01*
X146756520Y-113732150D01*
X146769132Y-113711107D01*
X146783747Y-113691401D01*
X146800223Y-113673223D01*
X146818401Y-113656747D01*
X146838107Y-113642132D01*
X146859150Y-113629520D01*
X146881329Y-113619030D01*
X146904428Y-113610765D01*
X146928227Y-113604804D01*
X146952495Y-113601204D01*
X146976999Y-113600000D01*
X147627001Y-113600000D01*
X147651505Y-113601204D01*
X147651505Y-113601204D01*
G37*
D15*
X147302000Y-114300000D03*
D14*
G36*
X149701505Y-113601204D02*
X149725773Y-113604804D01*
X149749572Y-113610765D01*
X149772671Y-113619030D01*
X149794850Y-113629520D01*
X149815893Y-113642132D01*
X149835599Y-113656747D01*
X149853777Y-113673223D01*
X149870253Y-113691401D01*
X149884868Y-113711107D01*
X149897480Y-113732150D01*
X149907970Y-113754329D01*
X149916235Y-113777428D01*
X149922196Y-113801227D01*
X149925796Y-113825495D01*
X149927000Y-113849999D01*
X149927000Y-114750001D01*
X149925796Y-114774505D01*
X149922196Y-114798773D01*
X149916235Y-114822572D01*
X149907970Y-114845671D01*
X149897480Y-114867850D01*
X149884868Y-114888893D01*
X149870253Y-114908599D01*
X149853777Y-114926777D01*
X149835599Y-114943253D01*
X149815893Y-114957868D01*
X149794850Y-114970480D01*
X149772671Y-114980970D01*
X149749572Y-114989235D01*
X149725773Y-114995196D01*
X149701505Y-114998796D01*
X149677001Y-115000000D01*
X149026999Y-115000000D01*
X149002495Y-114998796D01*
X148978227Y-114995196D01*
X148954428Y-114989235D01*
X148931329Y-114980970D01*
X148909150Y-114970480D01*
X148888107Y-114957868D01*
X148868401Y-114943253D01*
X148850223Y-114926777D01*
X148833747Y-114908599D01*
X148819132Y-114888893D01*
X148806520Y-114867850D01*
X148796030Y-114845671D01*
X148787765Y-114822572D01*
X148781804Y-114798773D01*
X148778204Y-114774505D01*
X148777000Y-114750001D01*
X148777000Y-113849999D01*
X148778204Y-113825495D01*
X148781804Y-113801227D01*
X148787765Y-113777428D01*
X148796030Y-113754329D01*
X148806520Y-113732150D01*
X148819132Y-113711107D01*
X148833747Y-113691401D01*
X148850223Y-113673223D01*
X148868401Y-113656747D01*
X148888107Y-113642132D01*
X148909150Y-113629520D01*
X148931329Y-113619030D01*
X148954428Y-113610765D01*
X148978227Y-113604804D01*
X149002495Y-113601204D01*
X149026999Y-113600000D01*
X149677001Y-113600000D01*
X149701505Y-113601204D01*
X149701505Y-113601204D01*
G37*
D15*
X149352000Y-114300000D03*
G04 #@! TD*
D14*
G04 #@! TO.C,R1*
G36*
X136475505Y-104203204D02*
X136499773Y-104206804D01*
X136523572Y-104212765D01*
X136546671Y-104221030D01*
X136568850Y-104231520D01*
X136589893Y-104244132D01*
X136609599Y-104258747D01*
X136627777Y-104275223D01*
X136644253Y-104293401D01*
X136658868Y-104313107D01*
X136671480Y-104334150D01*
X136681970Y-104356329D01*
X136690235Y-104379428D01*
X136696196Y-104403227D01*
X136699796Y-104427495D01*
X136701000Y-104451999D01*
X136701000Y-105352001D01*
X136699796Y-105376505D01*
X136696196Y-105400773D01*
X136690235Y-105424572D01*
X136681970Y-105447671D01*
X136671480Y-105469850D01*
X136658868Y-105490893D01*
X136644253Y-105510599D01*
X136627777Y-105528777D01*
X136609599Y-105545253D01*
X136589893Y-105559868D01*
X136568850Y-105572480D01*
X136546671Y-105582970D01*
X136523572Y-105591235D01*
X136499773Y-105597196D01*
X136475505Y-105600796D01*
X136451001Y-105602000D01*
X135800999Y-105602000D01*
X135776495Y-105600796D01*
X135752227Y-105597196D01*
X135728428Y-105591235D01*
X135705329Y-105582970D01*
X135683150Y-105572480D01*
X135662107Y-105559868D01*
X135642401Y-105545253D01*
X135624223Y-105528777D01*
X135607747Y-105510599D01*
X135593132Y-105490893D01*
X135580520Y-105469850D01*
X135570030Y-105447671D01*
X135561765Y-105424572D01*
X135555804Y-105400773D01*
X135552204Y-105376505D01*
X135551000Y-105352001D01*
X135551000Y-104451999D01*
X135552204Y-104427495D01*
X135555804Y-104403227D01*
X135561765Y-104379428D01*
X135570030Y-104356329D01*
X135580520Y-104334150D01*
X135593132Y-104313107D01*
X135607747Y-104293401D01*
X135624223Y-104275223D01*
X135642401Y-104258747D01*
X135662107Y-104244132D01*
X135683150Y-104231520D01*
X135705329Y-104221030D01*
X135728428Y-104212765D01*
X135752227Y-104206804D01*
X135776495Y-104203204D01*
X135800999Y-104202000D01*
X136451001Y-104202000D01*
X136475505Y-104203204D01*
X136475505Y-104203204D01*
G37*
D15*
X136126000Y-104902000D03*
D14*
G36*
X138525505Y-104203204D02*
X138549773Y-104206804D01*
X138573572Y-104212765D01*
X138596671Y-104221030D01*
X138618850Y-104231520D01*
X138639893Y-104244132D01*
X138659599Y-104258747D01*
X138677777Y-104275223D01*
X138694253Y-104293401D01*
X138708868Y-104313107D01*
X138721480Y-104334150D01*
X138731970Y-104356329D01*
X138740235Y-104379428D01*
X138746196Y-104403227D01*
X138749796Y-104427495D01*
X138751000Y-104451999D01*
X138751000Y-105352001D01*
X138749796Y-105376505D01*
X138746196Y-105400773D01*
X138740235Y-105424572D01*
X138731970Y-105447671D01*
X138721480Y-105469850D01*
X138708868Y-105490893D01*
X138694253Y-105510599D01*
X138677777Y-105528777D01*
X138659599Y-105545253D01*
X138639893Y-105559868D01*
X138618850Y-105572480D01*
X138596671Y-105582970D01*
X138573572Y-105591235D01*
X138549773Y-105597196D01*
X138525505Y-105600796D01*
X138501001Y-105602000D01*
X137850999Y-105602000D01*
X137826495Y-105600796D01*
X137802227Y-105597196D01*
X137778428Y-105591235D01*
X137755329Y-105582970D01*
X137733150Y-105572480D01*
X137712107Y-105559868D01*
X137692401Y-105545253D01*
X137674223Y-105528777D01*
X137657747Y-105510599D01*
X137643132Y-105490893D01*
X137630520Y-105469850D01*
X137620030Y-105447671D01*
X137611765Y-105424572D01*
X137605804Y-105400773D01*
X137602204Y-105376505D01*
X137601000Y-105352001D01*
X137601000Y-104451999D01*
X137602204Y-104427495D01*
X137605804Y-104403227D01*
X137611765Y-104379428D01*
X137620030Y-104356329D01*
X137630520Y-104334150D01*
X137643132Y-104313107D01*
X137657747Y-104293401D01*
X137674223Y-104275223D01*
X137692401Y-104258747D01*
X137712107Y-104244132D01*
X137733150Y-104231520D01*
X137755329Y-104221030D01*
X137778428Y-104212765D01*
X137802227Y-104206804D01*
X137826495Y-104203204D01*
X137850999Y-104202000D01*
X138501001Y-104202000D01*
X138525505Y-104203204D01*
X138525505Y-104203204D01*
G37*
D15*
X138176000Y-104902000D03*
G04 #@! TD*
D14*
G04 #@! TO.C,R2*
G36*
X153930779Y-133362144D02*
X153953834Y-133365563D01*
X153976443Y-133371227D01*
X153998387Y-133379079D01*
X154019457Y-133389044D01*
X154039448Y-133401026D01*
X154058168Y-133414910D01*
X154075438Y-133430562D01*
X154091090Y-133447832D01*
X154104974Y-133466552D01*
X154116956Y-133486543D01*
X154126921Y-133507613D01*
X154134773Y-133529557D01*
X154140437Y-133552166D01*
X154143856Y-133575221D01*
X154145000Y-133598500D01*
X154145000Y-134173500D01*
X154143856Y-134196779D01*
X154140437Y-134219834D01*
X154134773Y-134242443D01*
X154126921Y-134264387D01*
X154116956Y-134285457D01*
X154104974Y-134305448D01*
X154091090Y-134324168D01*
X154075438Y-134341438D01*
X154058168Y-134357090D01*
X154039448Y-134370974D01*
X154019457Y-134382956D01*
X153998387Y-134392921D01*
X153976443Y-134400773D01*
X153953834Y-134406437D01*
X153930779Y-134409856D01*
X153907500Y-134411000D01*
X153432500Y-134411000D01*
X153409221Y-134409856D01*
X153386166Y-134406437D01*
X153363557Y-134400773D01*
X153341613Y-134392921D01*
X153320543Y-134382956D01*
X153300552Y-134370974D01*
X153281832Y-134357090D01*
X153264562Y-134341438D01*
X153248910Y-134324168D01*
X153235026Y-134305448D01*
X153223044Y-134285457D01*
X153213079Y-134264387D01*
X153205227Y-134242443D01*
X153199563Y-134219834D01*
X153196144Y-134196779D01*
X153195000Y-134173500D01*
X153195000Y-133598500D01*
X153196144Y-133575221D01*
X153199563Y-133552166D01*
X153205227Y-133529557D01*
X153213079Y-133507613D01*
X153223044Y-133486543D01*
X153235026Y-133466552D01*
X153248910Y-133447832D01*
X153264562Y-133430562D01*
X153281832Y-133414910D01*
X153300552Y-133401026D01*
X153320543Y-133389044D01*
X153341613Y-133379079D01*
X153363557Y-133371227D01*
X153386166Y-133365563D01*
X153409221Y-133362144D01*
X153432500Y-133361000D01*
X153907500Y-133361000D01*
X153930779Y-133362144D01*
X153930779Y-133362144D01*
G37*
D16*
X153670000Y-133886000D03*
D14*
G36*
X153930779Y-135112144D02*
X153953834Y-135115563D01*
X153976443Y-135121227D01*
X153998387Y-135129079D01*
X154019457Y-135139044D01*
X154039448Y-135151026D01*
X154058168Y-135164910D01*
X154075438Y-135180562D01*
X154091090Y-135197832D01*
X154104974Y-135216552D01*
X154116956Y-135236543D01*
X154126921Y-135257613D01*
X154134773Y-135279557D01*
X154140437Y-135302166D01*
X154143856Y-135325221D01*
X154145000Y-135348500D01*
X154145000Y-135923500D01*
X154143856Y-135946779D01*
X154140437Y-135969834D01*
X154134773Y-135992443D01*
X154126921Y-136014387D01*
X154116956Y-136035457D01*
X154104974Y-136055448D01*
X154091090Y-136074168D01*
X154075438Y-136091438D01*
X154058168Y-136107090D01*
X154039448Y-136120974D01*
X154019457Y-136132956D01*
X153998387Y-136142921D01*
X153976443Y-136150773D01*
X153953834Y-136156437D01*
X153930779Y-136159856D01*
X153907500Y-136161000D01*
X153432500Y-136161000D01*
X153409221Y-136159856D01*
X153386166Y-136156437D01*
X153363557Y-136150773D01*
X153341613Y-136142921D01*
X153320543Y-136132956D01*
X153300552Y-136120974D01*
X153281832Y-136107090D01*
X153264562Y-136091438D01*
X153248910Y-136074168D01*
X153235026Y-136055448D01*
X153223044Y-136035457D01*
X153213079Y-136014387D01*
X153205227Y-135992443D01*
X153199563Y-135969834D01*
X153196144Y-135946779D01*
X153195000Y-135923500D01*
X153195000Y-135348500D01*
X153196144Y-135325221D01*
X153199563Y-135302166D01*
X153205227Y-135279557D01*
X153213079Y-135257613D01*
X153223044Y-135236543D01*
X153235026Y-135216552D01*
X153248910Y-135197832D01*
X153264562Y-135180562D01*
X153281832Y-135164910D01*
X153300552Y-135151026D01*
X153320543Y-135139044D01*
X153341613Y-135129079D01*
X153363557Y-135121227D01*
X153386166Y-135115563D01*
X153409221Y-135112144D01*
X153432500Y-135111000D01*
X153907500Y-135111000D01*
X153930779Y-135112144D01*
X153930779Y-135112144D01*
G37*
D16*
X153670000Y-135636000D03*
G04 #@! TD*
D14*
G04 #@! TO.C,R3*
G36*
X149436779Y-115858144D02*
X149459834Y-115861563D01*
X149482443Y-115867227D01*
X149504387Y-115875079D01*
X149525457Y-115885044D01*
X149545448Y-115897026D01*
X149564168Y-115910910D01*
X149581438Y-115926562D01*
X149597090Y-115943832D01*
X149610974Y-115962552D01*
X149622956Y-115982543D01*
X149632921Y-116003613D01*
X149640773Y-116025557D01*
X149646437Y-116048166D01*
X149649856Y-116071221D01*
X149651000Y-116094500D01*
X149651000Y-116569500D01*
X149649856Y-116592779D01*
X149646437Y-116615834D01*
X149640773Y-116638443D01*
X149632921Y-116660387D01*
X149622956Y-116681457D01*
X149610974Y-116701448D01*
X149597090Y-116720168D01*
X149581438Y-116737438D01*
X149564168Y-116753090D01*
X149545448Y-116766974D01*
X149525457Y-116778956D01*
X149504387Y-116788921D01*
X149482443Y-116796773D01*
X149459834Y-116802437D01*
X149436779Y-116805856D01*
X149413500Y-116807000D01*
X148838500Y-116807000D01*
X148815221Y-116805856D01*
X148792166Y-116802437D01*
X148769557Y-116796773D01*
X148747613Y-116788921D01*
X148726543Y-116778956D01*
X148706552Y-116766974D01*
X148687832Y-116753090D01*
X148670562Y-116737438D01*
X148654910Y-116720168D01*
X148641026Y-116701448D01*
X148629044Y-116681457D01*
X148619079Y-116660387D01*
X148611227Y-116638443D01*
X148605563Y-116615834D01*
X148602144Y-116592779D01*
X148601000Y-116569500D01*
X148601000Y-116094500D01*
X148602144Y-116071221D01*
X148605563Y-116048166D01*
X148611227Y-116025557D01*
X148619079Y-116003613D01*
X148629044Y-115982543D01*
X148641026Y-115962552D01*
X148654910Y-115943832D01*
X148670562Y-115926562D01*
X148687832Y-115910910D01*
X148706552Y-115897026D01*
X148726543Y-115885044D01*
X148747613Y-115875079D01*
X148769557Y-115867227D01*
X148792166Y-115861563D01*
X148815221Y-115858144D01*
X148838500Y-115857000D01*
X149413500Y-115857000D01*
X149436779Y-115858144D01*
X149436779Y-115858144D01*
G37*
D16*
X149126000Y-116332000D03*
D14*
G36*
X151186779Y-115858144D02*
X151209834Y-115861563D01*
X151232443Y-115867227D01*
X151254387Y-115875079D01*
X151275457Y-115885044D01*
X151295448Y-115897026D01*
X151314168Y-115910910D01*
X151331438Y-115926562D01*
X151347090Y-115943832D01*
X151360974Y-115962552D01*
X151372956Y-115982543D01*
X151382921Y-116003613D01*
X151390773Y-116025557D01*
X151396437Y-116048166D01*
X151399856Y-116071221D01*
X151401000Y-116094500D01*
X151401000Y-116569500D01*
X151399856Y-116592779D01*
X151396437Y-116615834D01*
X151390773Y-116638443D01*
X151382921Y-116660387D01*
X151372956Y-116681457D01*
X151360974Y-116701448D01*
X151347090Y-116720168D01*
X151331438Y-116737438D01*
X151314168Y-116753090D01*
X151295448Y-116766974D01*
X151275457Y-116778956D01*
X151254387Y-116788921D01*
X151232443Y-116796773D01*
X151209834Y-116802437D01*
X151186779Y-116805856D01*
X151163500Y-116807000D01*
X150588500Y-116807000D01*
X150565221Y-116805856D01*
X150542166Y-116802437D01*
X150519557Y-116796773D01*
X150497613Y-116788921D01*
X150476543Y-116778956D01*
X150456552Y-116766974D01*
X150437832Y-116753090D01*
X150420562Y-116737438D01*
X150404910Y-116720168D01*
X150391026Y-116701448D01*
X150379044Y-116681457D01*
X150369079Y-116660387D01*
X150361227Y-116638443D01*
X150355563Y-116615834D01*
X150352144Y-116592779D01*
X150351000Y-116569500D01*
X150351000Y-116094500D01*
X150352144Y-116071221D01*
X150355563Y-116048166D01*
X150361227Y-116025557D01*
X150369079Y-116003613D01*
X150379044Y-115982543D01*
X150391026Y-115962552D01*
X150404910Y-115943832D01*
X150420562Y-115926562D01*
X150437832Y-115910910D01*
X150456552Y-115897026D01*
X150476543Y-115885044D01*
X150497613Y-115875079D01*
X150519557Y-115867227D01*
X150542166Y-115861563D01*
X150565221Y-115858144D01*
X150588500Y-115857000D01*
X151163500Y-115857000D01*
X151186779Y-115858144D01*
X151186779Y-115858144D01*
G37*
D16*
X150876000Y-116332000D03*
G04 #@! TD*
D14*
G04 #@! TO.C,R4*
G36*
X117404779Y-123732144D02*
X117427834Y-123735563D01*
X117450443Y-123741227D01*
X117472387Y-123749079D01*
X117493457Y-123759044D01*
X117513448Y-123771026D01*
X117532168Y-123784910D01*
X117549438Y-123800562D01*
X117565090Y-123817832D01*
X117578974Y-123836552D01*
X117590956Y-123856543D01*
X117600921Y-123877613D01*
X117608773Y-123899557D01*
X117614437Y-123922166D01*
X117617856Y-123945221D01*
X117619000Y-123968500D01*
X117619000Y-124443500D01*
X117617856Y-124466779D01*
X117614437Y-124489834D01*
X117608773Y-124512443D01*
X117600921Y-124534387D01*
X117590956Y-124555457D01*
X117578974Y-124575448D01*
X117565090Y-124594168D01*
X117549438Y-124611438D01*
X117532168Y-124627090D01*
X117513448Y-124640974D01*
X117493457Y-124652956D01*
X117472387Y-124662921D01*
X117450443Y-124670773D01*
X117427834Y-124676437D01*
X117404779Y-124679856D01*
X117381500Y-124681000D01*
X116806500Y-124681000D01*
X116783221Y-124679856D01*
X116760166Y-124676437D01*
X116737557Y-124670773D01*
X116715613Y-124662921D01*
X116694543Y-124652956D01*
X116674552Y-124640974D01*
X116655832Y-124627090D01*
X116638562Y-124611438D01*
X116622910Y-124594168D01*
X116609026Y-124575448D01*
X116597044Y-124555457D01*
X116587079Y-124534387D01*
X116579227Y-124512443D01*
X116573563Y-124489834D01*
X116570144Y-124466779D01*
X116569000Y-124443500D01*
X116569000Y-123968500D01*
X116570144Y-123945221D01*
X116573563Y-123922166D01*
X116579227Y-123899557D01*
X116587079Y-123877613D01*
X116597044Y-123856543D01*
X116609026Y-123836552D01*
X116622910Y-123817832D01*
X116638562Y-123800562D01*
X116655832Y-123784910D01*
X116674552Y-123771026D01*
X116694543Y-123759044D01*
X116715613Y-123749079D01*
X116737557Y-123741227D01*
X116760166Y-123735563D01*
X116783221Y-123732144D01*
X116806500Y-123731000D01*
X117381500Y-123731000D01*
X117404779Y-123732144D01*
X117404779Y-123732144D01*
G37*
D16*
X117094000Y-124206000D03*
D14*
G36*
X119154779Y-123732144D02*
X119177834Y-123735563D01*
X119200443Y-123741227D01*
X119222387Y-123749079D01*
X119243457Y-123759044D01*
X119263448Y-123771026D01*
X119282168Y-123784910D01*
X119299438Y-123800562D01*
X119315090Y-123817832D01*
X119328974Y-123836552D01*
X119340956Y-123856543D01*
X119350921Y-123877613D01*
X119358773Y-123899557D01*
X119364437Y-123922166D01*
X119367856Y-123945221D01*
X119369000Y-123968500D01*
X119369000Y-124443500D01*
X119367856Y-124466779D01*
X119364437Y-124489834D01*
X119358773Y-124512443D01*
X119350921Y-124534387D01*
X119340956Y-124555457D01*
X119328974Y-124575448D01*
X119315090Y-124594168D01*
X119299438Y-124611438D01*
X119282168Y-124627090D01*
X119263448Y-124640974D01*
X119243457Y-124652956D01*
X119222387Y-124662921D01*
X119200443Y-124670773D01*
X119177834Y-124676437D01*
X119154779Y-124679856D01*
X119131500Y-124681000D01*
X118556500Y-124681000D01*
X118533221Y-124679856D01*
X118510166Y-124676437D01*
X118487557Y-124670773D01*
X118465613Y-124662921D01*
X118444543Y-124652956D01*
X118424552Y-124640974D01*
X118405832Y-124627090D01*
X118388562Y-124611438D01*
X118372910Y-124594168D01*
X118359026Y-124575448D01*
X118347044Y-124555457D01*
X118337079Y-124534387D01*
X118329227Y-124512443D01*
X118323563Y-124489834D01*
X118320144Y-124466779D01*
X118319000Y-124443500D01*
X118319000Y-123968500D01*
X118320144Y-123945221D01*
X118323563Y-123922166D01*
X118329227Y-123899557D01*
X118337079Y-123877613D01*
X118347044Y-123856543D01*
X118359026Y-123836552D01*
X118372910Y-123817832D01*
X118388562Y-123800562D01*
X118405832Y-123784910D01*
X118424552Y-123771026D01*
X118444543Y-123759044D01*
X118465613Y-123749079D01*
X118487557Y-123741227D01*
X118510166Y-123735563D01*
X118533221Y-123732144D01*
X118556500Y-123731000D01*
X119131500Y-123731000D01*
X119154779Y-123732144D01*
X119154779Y-123732144D01*
G37*
D16*
X118844000Y-124206000D03*
G04 #@! TD*
D14*
G04 #@! TO.C,R5*
G36*
X171506779Y-140496144D02*
X171529834Y-140499563D01*
X171552443Y-140505227D01*
X171574387Y-140513079D01*
X171595457Y-140523044D01*
X171615448Y-140535026D01*
X171634168Y-140548910D01*
X171651438Y-140564562D01*
X171667090Y-140581832D01*
X171680974Y-140600552D01*
X171692956Y-140620543D01*
X171702921Y-140641613D01*
X171710773Y-140663557D01*
X171716437Y-140686166D01*
X171719856Y-140709221D01*
X171721000Y-140732500D01*
X171721000Y-141207500D01*
X171719856Y-141230779D01*
X171716437Y-141253834D01*
X171710773Y-141276443D01*
X171702921Y-141298387D01*
X171692956Y-141319457D01*
X171680974Y-141339448D01*
X171667090Y-141358168D01*
X171651438Y-141375438D01*
X171634168Y-141391090D01*
X171615448Y-141404974D01*
X171595457Y-141416956D01*
X171574387Y-141426921D01*
X171552443Y-141434773D01*
X171529834Y-141440437D01*
X171506779Y-141443856D01*
X171483500Y-141445000D01*
X170908500Y-141445000D01*
X170885221Y-141443856D01*
X170862166Y-141440437D01*
X170839557Y-141434773D01*
X170817613Y-141426921D01*
X170796543Y-141416956D01*
X170776552Y-141404974D01*
X170757832Y-141391090D01*
X170740562Y-141375438D01*
X170724910Y-141358168D01*
X170711026Y-141339448D01*
X170699044Y-141319457D01*
X170689079Y-141298387D01*
X170681227Y-141276443D01*
X170675563Y-141253834D01*
X170672144Y-141230779D01*
X170671000Y-141207500D01*
X170671000Y-140732500D01*
X170672144Y-140709221D01*
X170675563Y-140686166D01*
X170681227Y-140663557D01*
X170689079Y-140641613D01*
X170699044Y-140620543D01*
X170711026Y-140600552D01*
X170724910Y-140581832D01*
X170740562Y-140564562D01*
X170757832Y-140548910D01*
X170776552Y-140535026D01*
X170796543Y-140523044D01*
X170817613Y-140513079D01*
X170839557Y-140505227D01*
X170862166Y-140499563D01*
X170885221Y-140496144D01*
X170908500Y-140495000D01*
X171483500Y-140495000D01*
X171506779Y-140496144D01*
X171506779Y-140496144D01*
G37*
D16*
X171196000Y-140970000D03*
D14*
G36*
X173256779Y-140496144D02*
X173279834Y-140499563D01*
X173302443Y-140505227D01*
X173324387Y-140513079D01*
X173345457Y-140523044D01*
X173365448Y-140535026D01*
X173384168Y-140548910D01*
X173401438Y-140564562D01*
X173417090Y-140581832D01*
X173430974Y-140600552D01*
X173442956Y-140620543D01*
X173452921Y-140641613D01*
X173460773Y-140663557D01*
X173466437Y-140686166D01*
X173469856Y-140709221D01*
X173471000Y-140732500D01*
X173471000Y-141207500D01*
X173469856Y-141230779D01*
X173466437Y-141253834D01*
X173460773Y-141276443D01*
X173452921Y-141298387D01*
X173442956Y-141319457D01*
X173430974Y-141339448D01*
X173417090Y-141358168D01*
X173401438Y-141375438D01*
X173384168Y-141391090D01*
X173365448Y-141404974D01*
X173345457Y-141416956D01*
X173324387Y-141426921D01*
X173302443Y-141434773D01*
X173279834Y-141440437D01*
X173256779Y-141443856D01*
X173233500Y-141445000D01*
X172658500Y-141445000D01*
X172635221Y-141443856D01*
X172612166Y-141440437D01*
X172589557Y-141434773D01*
X172567613Y-141426921D01*
X172546543Y-141416956D01*
X172526552Y-141404974D01*
X172507832Y-141391090D01*
X172490562Y-141375438D01*
X172474910Y-141358168D01*
X172461026Y-141339448D01*
X172449044Y-141319457D01*
X172439079Y-141298387D01*
X172431227Y-141276443D01*
X172425563Y-141253834D01*
X172422144Y-141230779D01*
X172421000Y-141207500D01*
X172421000Y-140732500D01*
X172422144Y-140709221D01*
X172425563Y-140686166D01*
X172431227Y-140663557D01*
X172439079Y-140641613D01*
X172449044Y-140620543D01*
X172461026Y-140600552D01*
X172474910Y-140581832D01*
X172490562Y-140564562D01*
X172507832Y-140548910D01*
X172526552Y-140535026D01*
X172546543Y-140523044D01*
X172567613Y-140513079D01*
X172589557Y-140505227D01*
X172612166Y-140499563D01*
X172635221Y-140496144D01*
X172658500Y-140495000D01*
X173233500Y-140495000D01*
X173256779Y-140496144D01*
X173256779Y-140496144D01*
G37*
D16*
X172946000Y-140970000D03*
G04 #@! TD*
D14*
G04 #@! TO.C,R6*
G36*
X150650779Y-135670144D02*
X150673834Y-135673563D01*
X150696443Y-135679227D01*
X150718387Y-135687079D01*
X150739457Y-135697044D01*
X150759448Y-135709026D01*
X150778168Y-135722910D01*
X150795438Y-135738562D01*
X150811090Y-135755832D01*
X150824974Y-135774552D01*
X150836956Y-135794543D01*
X150846921Y-135815613D01*
X150854773Y-135837557D01*
X150860437Y-135860166D01*
X150863856Y-135883221D01*
X150865000Y-135906500D01*
X150865000Y-136381500D01*
X150863856Y-136404779D01*
X150860437Y-136427834D01*
X150854773Y-136450443D01*
X150846921Y-136472387D01*
X150836956Y-136493457D01*
X150824974Y-136513448D01*
X150811090Y-136532168D01*
X150795438Y-136549438D01*
X150778168Y-136565090D01*
X150759448Y-136578974D01*
X150739457Y-136590956D01*
X150718387Y-136600921D01*
X150696443Y-136608773D01*
X150673834Y-136614437D01*
X150650779Y-136617856D01*
X150627500Y-136619000D01*
X150052500Y-136619000D01*
X150029221Y-136617856D01*
X150006166Y-136614437D01*
X149983557Y-136608773D01*
X149961613Y-136600921D01*
X149940543Y-136590956D01*
X149920552Y-136578974D01*
X149901832Y-136565090D01*
X149884562Y-136549438D01*
X149868910Y-136532168D01*
X149855026Y-136513448D01*
X149843044Y-136493457D01*
X149833079Y-136472387D01*
X149825227Y-136450443D01*
X149819563Y-136427834D01*
X149816144Y-136404779D01*
X149815000Y-136381500D01*
X149815000Y-135906500D01*
X149816144Y-135883221D01*
X149819563Y-135860166D01*
X149825227Y-135837557D01*
X149833079Y-135815613D01*
X149843044Y-135794543D01*
X149855026Y-135774552D01*
X149868910Y-135755832D01*
X149884562Y-135738562D01*
X149901832Y-135722910D01*
X149920552Y-135709026D01*
X149940543Y-135697044D01*
X149961613Y-135687079D01*
X149983557Y-135679227D01*
X150006166Y-135673563D01*
X150029221Y-135670144D01*
X150052500Y-135669000D01*
X150627500Y-135669000D01*
X150650779Y-135670144D01*
X150650779Y-135670144D01*
G37*
D16*
X150340000Y-136144000D03*
D14*
G36*
X148900779Y-135670144D02*
X148923834Y-135673563D01*
X148946443Y-135679227D01*
X148968387Y-135687079D01*
X148989457Y-135697044D01*
X149009448Y-135709026D01*
X149028168Y-135722910D01*
X149045438Y-135738562D01*
X149061090Y-135755832D01*
X149074974Y-135774552D01*
X149086956Y-135794543D01*
X149096921Y-135815613D01*
X149104773Y-135837557D01*
X149110437Y-135860166D01*
X149113856Y-135883221D01*
X149115000Y-135906500D01*
X149115000Y-136381500D01*
X149113856Y-136404779D01*
X149110437Y-136427834D01*
X149104773Y-136450443D01*
X149096921Y-136472387D01*
X149086956Y-136493457D01*
X149074974Y-136513448D01*
X149061090Y-136532168D01*
X149045438Y-136549438D01*
X149028168Y-136565090D01*
X149009448Y-136578974D01*
X148989457Y-136590956D01*
X148968387Y-136600921D01*
X148946443Y-136608773D01*
X148923834Y-136614437D01*
X148900779Y-136617856D01*
X148877500Y-136619000D01*
X148302500Y-136619000D01*
X148279221Y-136617856D01*
X148256166Y-136614437D01*
X148233557Y-136608773D01*
X148211613Y-136600921D01*
X148190543Y-136590956D01*
X148170552Y-136578974D01*
X148151832Y-136565090D01*
X148134562Y-136549438D01*
X148118910Y-136532168D01*
X148105026Y-136513448D01*
X148093044Y-136493457D01*
X148083079Y-136472387D01*
X148075227Y-136450443D01*
X148069563Y-136427834D01*
X148066144Y-136404779D01*
X148065000Y-136381500D01*
X148065000Y-135906500D01*
X148066144Y-135883221D01*
X148069563Y-135860166D01*
X148075227Y-135837557D01*
X148083079Y-135815613D01*
X148093044Y-135794543D01*
X148105026Y-135774552D01*
X148118910Y-135755832D01*
X148134562Y-135738562D01*
X148151832Y-135722910D01*
X148170552Y-135709026D01*
X148190543Y-135697044D01*
X148211613Y-135687079D01*
X148233557Y-135679227D01*
X148256166Y-135673563D01*
X148279221Y-135670144D01*
X148302500Y-135669000D01*
X148877500Y-135669000D01*
X148900779Y-135670144D01*
X148900779Y-135670144D01*
G37*
D16*
X148590000Y-136144000D03*
G04 #@! TD*
D14*
G04 #@! TO.C,R7*
G36*
X139287505Y-117919204D02*
X139311773Y-117922804D01*
X139335572Y-117928765D01*
X139358671Y-117937030D01*
X139380850Y-117947520D01*
X139401893Y-117960132D01*
X139421599Y-117974747D01*
X139439777Y-117991223D01*
X139456253Y-118009401D01*
X139470868Y-118029107D01*
X139483480Y-118050150D01*
X139493970Y-118072329D01*
X139502235Y-118095428D01*
X139508196Y-118119227D01*
X139511796Y-118143495D01*
X139513000Y-118167999D01*
X139513000Y-119068001D01*
X139511796Y-119092505D01*
X139508196Y-119116773D01*
X139502235Y-119140572D01*
X139493970Y-119163671D01*
X139483480Y-119185850D01*
X139470868Y-119206893D01*
X139456253Y-119226599D01*
X139439777Y-119244777D01*
X139421599Y-119261253D01*
X139401893Y-119275868D01*
X139380850Y-119288480D01*
X139358671Y-119298970D01*
X139335572Y-119307235D01*
X139311773Y-119313196D01*
X139287505Y-119316796D01*
X139263001Y-119318000D01*
X138612999Y-119318000D01*
X138588495Y-119316796D01*
X138564227Y-119313196D01*
X138540428Y-119307235D01*
X138517329Y-119298970D01*
X138495150Y-119288480D01*
X138474107Y-119275868D01*
X138454401Y-119261253D01*
X138436223Y-119244777D01*
X138419747Y-119226599D01*
X138405132Y-119206893D01*
X138392520Y-119185850D01*
X138382030Y-119163671D01*
X138373765Y-119140572D01*
X138367804Y-119116773D01*
X138364204Y-119092505D01*
X138363000Y-119068001D01*
X138363000Y-118167999D01*
X138364204Y-118143495D01*
X138367804Y-118119227D01*
X138373765Y-118095428D01*
X138382030Y-118072329D01*
X138392520Y-118050150D01*
X138405132Y-118029107D01*
X138419747Y-118009401D01*
X138436223Y-117991223D01*
X138454401Y-117974747D01*
X138474107Y-117960132D01*
X138495150Y-117947520D01*
X138517329Y-117937030D01*
X138540428Y-117928765D01*
X138564227Y-117922804D01*
X138588495Y-117919204D01*
X138612999Y-117918000D01*
X139263001Y-117918000D01*
X139287505Y-117919204D01*
X139287505Y-117919204D01*
G37*
D15*
X138938000Y-118618000D03*
D14*
G36*
X137237505Y-117919204D02*
X137261773Y-117922804D01*
X137285572Y-117928765D01*
X137308671Y-117937030D01*
X137330850Y-117947520D01*
X137351893Y-117960132D01*
X137371599Y-117974747D01*
X137389777Y-117991223D01*
X137406253Y-118009401D01*
X137420868Y-118029107D01*
X137433480Y-118050150D01*
X137443970Y-118072329D01*
X137452235Y-118095428D01*
X137458196Y-118119227D01*
X137461796Y-118143495D01*
X137463000Y-118167999D01*
X137463000Y-119068001D01*
X137461796Y-119092505D01*
X137458196Y-119116773D01*
X137452235Y-119140572D01*
X137443970Y-119163671D01*
X137433480Y-119185850D01*
X137420868Y-119206893D01*
X137406253Y-119226599D01*
X137389777Y-119244777D01*
X137371599Y-119261253D01*
X137351893Y-119275868D01*
X137330850Y-119288480D01*
X137308671Y-119298970D01*
X137285572Y-119307235D01*
X137261773Y-119313196D01*
X137237505Y-119316796D01*
X137213001Y-119318000D01*
X136562999Y-119318000D01*
X136538495Y-119316796D01*
X136514227Y-119313196D01*
X136490428Y-119307235D01*
X136467329Y-119298970D01*
X136445150Y-119288480D01*
X136424107Y-119275868D01*
X136404401Y-119261253D01*
X136386223Y-119244777D01*
X136369747Y-119226599D01*
X136355132Y-119206893D01*
X136342520Y-119185850D01*
X136332030Y-119163671D01*
X136323765Y-119140572D01*
X136317804Y-119116773D01*
X136314204Y-119092505D01*
X136313000Y-119068001D01*
X136313000Y-118167999D01*
X136314204Y-118143495D01*
X136317804Y-118119227D01*
X136323765Y-118095428D01*
X136332030Y-118072329D01*
X136342520Y-118050150D01*
X136355132Y-118029107D01*
X136369747Y-118009401D01*
X136386223Y-117991223D01*
X136404401Y-117974747D01*
X136424107Y-117960132D01*
X136445150Y-117947520D01*
X136467329Y-117937030D01*
X136490428Y-117928765D01*
X136514227Y-117922804D01*
X136538495Y-117919204D01*
X136562999Y-117918000D01*
X137213001Y-117918000D01*
X137237505Y-117919204D01*
X137237505Y-117919204D01*
G37*
D15*
X136888000Y-118618000D03*
G04 #@! TD*
D14*
G04 #@! TO.C,R8*
G36*
X137237505Y-115633204D02*
X137261773Y-115636804D01*
X137285572Y-115642765D01*
X137308671Y-115651030D01*
X137330850Y-115661520D01*
X137351893Y-115674132D01*
X137371599Y-115688747D01*
X137389777Y-115705223D01*
X137406253Y-115723401D01*
X137420868Y-115743107D01*
X137433480Y-115764150D01*
X137443970Y-115786329D01*
X137452235Y-115809428D01*
X137458196Y-115833227D01*
X137461796Y-115857495D01*
X137463000Y-115881999D01*
X137463000Y-116782001D01*
X137461796Y-116806505D01*
X137458196Y-116830773D01*
X137452235Y-116854572D01*
X137443970Y-116877671D01*
X137433480Y-116899850D01*
X137420868Y-116920893D01*
X137406253Y-116940599D01*
X137389777Y-116958777D01*
X137371599Y-116975253D01*
X137351893Y-116989868D01*
X137330850Y-117002480D01*
X137308671Y-117012970D01*
X137285572Y-117021235D01*
X137261773Y-117027196D01*
X137237505Y-117030796D01*
X137213001Y-117032000D01*
X136562999Y-117032000D01*
X136538495Y-117030796D01*
X136514227Y-117027196D01*
X136490428Y-117021235D01*
X136467329Y-117012970D01*
X136445150Y-117002480D01*
X136424107Y-116989868D01*
X136404401Y-116975253D01*
X136386223Y-116958777D01*
X136369747Y-116940599D01*
X136355132Y-116920893D01*
X136342520Y-116899850D01*
X136332030Y-116877671D01*
X136323765Y-116854572D01*
X136317804Y-116830773D01*
X136314204Y-116806505D01*
X136313000Y-116782001D01*
X136313000Y-115881999D01*
X136314204Y-115857495D01*
X136317804Y-115833227D01*
X136323765Y-115809428D01*
X136332030Y-115786329D01*
X136342520Y-115764150D01*
X136355132Y-115743107D01*
X136369747Y-115723401D01*
X136386223Y-115705223D01*
X136404401Y-115688747D01*
X136424107Y-115674132D01*
X136445150Y-115661520D01*
X136467329Y-115651030D01*
X136490428Y-115642765D01*
X136514227Y-115636804D01*
X136538495Y-115633204D01*
X136562999Y-115632000D01*
X137213001Y-115632000D01*
X137237505Y-115633204D01*
X137237505Y-115633204D01*
G37*
D15*
X136888000Y-116332000D03*
D14*
G36*
X139287505Y-115633204D02*
X139311773Y-115636804D01*
X139335572Y-115642765D01*
X139358671Y-115651030D01*
X139380850Y-115661520D01*
X139401893Y-115674132D01*
X139421599Y-115688747D01*
X139439777Y-115705223D01*
X139456253Y-115723401D01*
X139470868Y-115743107D01*
X139483480Y-115764150D01*
X139493970Y-115786329D01*
X139502235Y-115809428D01*
X139508196Y-115833227D01*
X139511796Y-115857495D01*
X139513000Y-115881999D01*
X139513000Y-116782001D01*
X139511796Y-116806505D01*
X139508196Y-116830773D01*
X139502235Y-116854572D01*
X139493970Y-116877671D01*
X139483480Y-116899850D01*
X139470868Y-116920893D01*
X139456253Y-116940599D01*
X139439777Y-116958777D01*
X139421599Y-116975253D01*
X139401893Y-116989868D01*
X139380850Y-117002480D01*
X139358671Y-117012970D01*
X139335572Y-117021235D01*
X139311773Y-117027196D01*
X139287505Y-117030796D01*
X139263001Y-117032000D01*
X138612999Y-117032000D01*
X138588495Y-117030796D01*
X138564227Y-117027196D01*
X138540428Y-117021235D01*
X138517329Y-117012970D01*
X138495150Y-117002480D01*
X138474107Y-116989868D01*
X138454401Y-116975253D01*
X138436223Y-116958777D01*
X138419747Y-116940599D01*
X138405132Y-116920893D01*
X138392520Y-116899850D01*
X138382030Y-116877671D01*
X138373765Y-116854572D01*
X138367804Y-116830773D01*
X138364204Y-116806505D01*
X138363000Y-116782001D01*
X138363000Y-115881999D01*
X138364204Y-115857495D01*
X138367804Y-115833227D01*
X138373765Y-115809428D01*
X138382030Y-115786329D01*
X138392520Y-115764150D01*
X138405132Y-115743107D01*
X138419747Y-115723401D01*
X138436223Y-115705223D01*
X138454401Y-115688747D01*
X138474107Y-115674132D01*
X138495150Y-115661520D01*
X138517329Y-115651030D01*
X138540428Y-115642765D01*
X138564227Y-115636804D01*
X138588495Y-115633204D01*
X138612999Y-115632000D01*
X139263001Y-115632000D01*
X139287505Y-115633204D01*
X139287505Y-115633204D01*
G37*
D15*
X138938000Y-116332000D03*
G04 #@! TD*
D14*
G04 #@! TO.C,R9*
G36*
X150374779Y-141462144D02*
X150397834Y-141465563D01*
X150420443Y-141471227D01*
X150442387Y-141479079D01*
X150463457Y-141489044D01*
X150483448Y-141501026D01*
X150502168Y-141514910D01*
X150519438Y-141530562D01*
X150535090Y-141547832D01*
X150548974Y-141566552D01*
X150560956Y-141586543D01*
X150570921Y-141607613D01*
X150578773Y-141629557D01*
X150584437Y-141652166D01*
X150587856Y-141675221D01*
X150589000Y-141698500D01*
X150589000Y-142273500D01*
X150587856Y-142296779D01*
X150584437Y-142319834D01*
X150578773Y-142342443D01*
X150570921Y-142364387D01*
X150560956Y-142385457D01*
X150548974Y-142405448D01*
X150535090Y-142424168D01*
X150519438Y-142441438D01*
X150502168Y-142457090D01*
X150483448Y-142470974D01*
X150463457Y-142482956D01*
X150442387Y-142492921D01*
X150420443Y-142500773D01*
X150397834Y-142506437D01*
X150374779Y-142509856D01*
X150351500Y-142511000D01*
X149876500Y-142511000D01*
X149853221Y-142509856D01*
X149830166Y-142506437D01*
X149807557Y-142500773D01*
X149785613Y-142492921D01*
X149764543Y-142482956D01*
X149744552Y-142470974D01*
X149725832Y-142457090D01*
X149708562Y-142441438D01*
X149692910Y-142424168D01*
X149679026Y-142405448D01*
X149667044Y-142385457D01*
X149657079Y-142364387D01*
X149649227Y-142342443D01*
X149643563Y-142319834D01*
X149640144Y-142296779D01*
X149639000Y-142273500D01*
X149639000Y-141698500D01*
X149640144Y-141675221D01*
X149643563Y-141652166D01*
X149649227Y-141629557D01*
X149657079Y-141607613D01*
X149667044Y-141586543D01*
X149679026Y-141566552D01*
X149692910Y-141547832D01*
X149708562Y-141530562D01*
X149725832Y-141514910D01*
X149744552Y-141501026D01*
X149764543Y-141489044D01*
X149785613Y-141479079D01*
X149807557Y-141471227D01*
X149830166Y-141465563D01*
X149853221Y-141462144D01*
X149876500Y-141461000D01*
X150351500Y-141461000D01*
X150374779Y-141462144D01*
X150374779Y-141462144D01*
G37*
D16*
X150114000Y-141986000D03*
D14*
G36*
X150374779Y-139712144D02*
X150397834Y-139715563D01*
X150420443Y-139721227D01*
X150442387Y-139729079D01*
X150463457Y-139739044D01*
X150483448Y-139751026D01*
X150502168Y-139764910D01*
X150519438Y-139780562D01*
X150535090Y-139797832D01*
X150548974Y-139816552D01*
X150560956Y-139836543D01*
X150570921Y-139857613D01*
X150578773Y-139879557D01*
X150584437Y-139902166D01*
X150587856Y-139925221D01*
X150589000Y-139948500D01*
X150589000Y-140523500D01*
X150587856Y-140546779D01*
X150584437Y-140569834D01*
X150578773Y-140592443D01*
X150570921Y-140614387D01*
X150560956Y-140635457D01*
X150548974Y-140655448D01*
X150535090Y-140674168D01*
X150519438Y-140691438D01*
X150502168Y-140707090D01*
X150483448Y-140720974D01*
X150463457Y-140732956D01*
X150442387Y-140742921D01*
X150420443Y-140750773D01*
X150397834Y-140756437D01*
X150374779Y-140759856D01*
X150351500Y-140761000D01*
X149876500Y-140761000D01*
X149853221Y-140759856D01*
X149830166Y-140756437D01*
X149807557Y-140750773D01*
X149785613Y-140742921D01*
X149764543Y-140732956D01*
X149744552Y-140720974D01*
X149725832Y-140707090D01*
X149708562Y-140691438D01*
X149692910Y-140674168D01*
X149679026Y-140655448D01*
X149667044Y-140635457D01*
X149657079Y-140614387D01*
X149649227Y-140592443D01*
X149643563Y-140569834D01*
X149640144Y-140546779D01*
X149639000Y-140523500D01*
X149639000Y-139948500D01*
X149640144Y-139925221D01*
X149643563Y-139902166D01*
X149649227Y-139879557D01*
X149657079Y-139857613D01*
X149667044Y-139836543D01*
X149679026Y-139816552D01*
X149692910Y-139797832D01*
X149708562Y-139780562D01*
X149725832Y-139764910D01*
X149744552Y-139751026D01*
X149764543Y-139739044D01*
X149785613Y-139729079D01*
X149807557Y-139721227D01*
X149830166Y-139715563D01*
X149853221Y-139712144D01*
X149876500Y-139711000D01*
X150351500Y-139711000D01*
X150374779Y-139712144D01*
X150374779Y-139712144D01*
G37*
D16*
X150114000Y-140236000D03*
G04 #@! TD*
D14*
G04 #@! TO.C,R10*
G36*
X119154779Y-121954144D02*
X119177834Y-121957563D01*
X119200443Y-121963227D01*
X119222387Y-121971079D01*
X119243457Y-121981044D01*
X119263448Y-121993026D01*
X119282168Y-122006910D01*
X119299438Y-122022562D01*
X119315090Y-122039832D01*
X119328974Y-122058552D01*
X119340956Y-122078543D01*
X119350921Y-122099613D01*
X119358773Y-122121557D01*
X119364437Y-122144166D01*
X119367856Y-122167221D01*
X119369000Y-122190500D01*
X119369000Y-122665500D01*
X119367856Y-122688779D01*
X119364437Y-122711834D01*
X119358773Y-122734443D01*
X119350921Y-122756387D01*
X119340956Y-122777457D01*
X119328974Y-122797448D01*
X119315090Y-122816168D01*
X119299438Y-122833438D01*
X119282168Y-122849090D01*
X119263448Y-122862974D01*
X119243457Y-122874956D01*
X119222387Y-122884921D01*
X119200443Y-122892773D01*
X119177834Y-122898437D01*
X119154779Y-122901856D01*
X119131500Y-122903000D01*
X118556500Y-122903000D01*
X118533221Y-122901856D01*
X118510166Y-122898437D01*
X118487557Y-122892773D01*
X118465613Y-122884921D01*
X118444543Y-122874956D01*
X118424552Y-122862974D01*
X118405832Y-122849090D01*
X118388562Y-122833438D01*
X118372910Y-122816168D01*
X118359026Y-122797448D01*
X118347044Y-122777457D01*
X118337079Y-122756387D01*
X118329227Y-122734443D01*
X118323563Y-122711834D01*
X118320144Y-122688779D01*
X118319000Y-122665500D01*
X118319000Y-122190500D01*
X118320144Y-122167221D01*
X118323563Y-122144166D01*
X118329227Y-122121557D01*
X118337079Y-122099613D01*
X118347044Y-122078543D01*
X118359026Y-122058552D01*
X118372910Y-122039832D01*
X118388562Y-122022562D01*
X118405832Y-122006910D01*
X118424552Y-121993026D01*
X118444543Y-121981044D01*
X118465613Y-121971079D01*
X118487557Y-121963227D01*
X118510166Y-121957563D01*
X118533221Y-121954144D01*
X118556500Y-121953000D01*
X119131500Y-121953000D01*
X119154779Y-121954144D01*
X119154779Y-121954144D01*
G37*
D16*
X118844000Y-122428000D03*
D14*
G36*
X117404779Y-121954144D02*
X117427834Y-121957563D01*
X117450443Y-121963227D01*
X117472387Y-121971079D01*
X117493457Y-121981044D01*
X117513448Y-121993026D01*
X117532168Y-122006910D01*
X117549438Y-122022562D01*
X117565090Y-122039832D01*
X117578974Y-122058552D01*
X117590956Y-122078543D01*
X117600921Y-122099613D01*
X117608773Y-122121557D01*
X117614437Y-122144166D01*
X117617856Y-122167221D01*
X117619000Y-122190500D01*
X117619000Y-122665500D01*
X117617856Y-122688779D01*
X117614437Y-122711834D01*
X117608773Y-122734443D01*
X117600921Y-122756387D01*
X117590956Y-122777457D01*
X117578974Y-122797448D01*
X117565090Y-122816168D01*
X117549438Y-122833438D01*
X117532168Y-122849090D01*
X117513448Y-122862974D01*
X117493457Y-122874956D01*
X117472387Y-122884921D01*
X117450443Y-122892773D01*
X117427834Y-122898437D01*
X117404779Y-122901856D01*
X117381500Y-122903000D01*
X116806500Y-122903000D01*
X116783221Y-122901856D01*
X116760166Y-122898437D01*
X116737557Y-122892773D01*
X116715613Y-122884921D01*
X116694543Y-122874956D01*
X116674552Y-122862974D01*
X116655832Y-122849090D01*
X116638562Y-122833438D01*
X116622910Y-122816168D01*
X116609026Y-122797448D01*
X116597044Y-122777457D01*
X116587079Y-122756387D01*
X116579227Y-122734443D01*
X116573563Y-122711834D01*
X116570144Y-122688779D01*
X116569000Y-122665500D01*
X116569000Y-122190500D01*
X116570144Y-122167221D01*
X116573563Y-122144166D01*
X116579227Y-122121557D01*
X116587079Y-122099613D01*
X116597044Y-122078543D01*
X116609026Y-122058552D01*
X116622910Y-122039832D01*
X116638562Y-122022562D01*
X116655832Y-122006910D01*
X116674552Y-121993026D01*
X116694543Y-121981044D01*
X116715613Y-121971079D01*
X116737557Y-121963227D01*
X116760166Y-121957563D01*
X116783221Y-121954144D01*
X116806500Y-121953000D01*
X117381500Y-121953000D01*
X117404779Y-121954144D01*
X117404779Y-121954144D01*
G37*
D16*
X117094000Y-122428000D03*
G04 #@! TD*
D14*
G04 #@! TO.C,R11*
G36*
X166454779Y-140496144D02*
X166477834Y-140499563D01*
X166500443Y-140505227D01*
X166522387Y-140513079D01*
X166543457Y-140523044D01*
X166563448Y-140535026D01*
X166582168Y-140548910D01*
X166599438Y-140564562D01*
X166615090Y-140581832D01*
X166628974Y-140600552D01*
X166640956Y-140620543D01*
X166650921Y-140641613D01*
X166658773Y-140663557D01*
X166664437Y-140686166D01*
X166667856Y-140709221D01*
X166669000Y-140732500D01*
X166669000Y-141207500D01*
X166667856Y-141230779D01*
X166664437Y-141253834D01*
X166658773Y-141276443D01*
X166650921Y-141298387D01*
X166640956Y-141319457D01*
X166628974Y-141339448D01*
X166615090Y-141358168D01*
X166599438Y-141375438D01*
X166582168Y-141391090D01*
X166563448Y-141404974D01*
X166543457Y-141416956D01*
X166522387Y-141426921D01*
X166500443Y-141434773D01*
X166477834Y-141440437D01*
X166454779Y-141443856D01*
X166431500Y-141445000D01*
X165856500Y-141445000D01*
X165833221Y-141443856D01*
X165810166Y-141440437D01*
X165787557Y-141434773D01*
X165765613Y-141426921D01*
X165744543Y-141416956D01*
X165724552Y-141404974D01*
X165705832Y-141391090D01*
X165688562Y-141375438D01*
X165672910Y-141358168D01*
X165659026Y-141339448D01*
X165647044Y-141319457D01*
X165637079Y-141298387D01*
X165629227Y-141276443D01*
X165623563Y-141253834D01*
X165620144Y-141230779D01*
X165619000Y-141207500D01*
X165619000Y-140732500D01*
X165620144Y-140709221D01*
X165623563Y-140686166D01*
X165629227Y-140663557D01*
X165637079Y-140641613D01*
X165647044Y-140620543D01*
X165659026Y-140600552D01*
X165672910Y-140581832D01*
X165688562Y-140564562D01*
X165705832Y-140548910D01*
X165724552Y-140535026D01*
X165744543Y-140523044D01*
X165765613Y-140513079D01*
X165787557Y-140505227D01*
X165810166Y-140499563D01*
X165833221Y-140496144D01*
X165856500Y-140495000D01*
X166431500Y-140495000D01*
X166454779Y-140496144D01*
X166454779Y-140496144D01*
G37*
D16*
X166144000Y-140970000D03*
D14*
G36*
X168204779Y-140496144D02*
X168227834Y-140499563D01*
X168250443Y-140505227D01*
X168272387Y-140513079D01*
X168293457Y-140523044D01*
X168313448Y-140535026D01*
X168332168Y-140548910D01*
X168349438Y-140564562D01*
X168365090Y-140581832D01*
X168378974Y-140600552D01*
X168390956Y-140620543D01*
X168400921Y-140641613D01*
X168408773Y-140663557D01*
X168414437Y-140686166D01*
X168417856Y-140709221D01*
X168419000Y-140732500D01*
X168419000Y-141207500D01*
X168417856Y-141230779D01*
X168414437Y-141253834D01*
X168408773Y-141276443D01*
X168400921Y-141298387D01*
X168390956Y-141319457D01*
X168378974Y-141339448D01*
X168365090Y-141358168D01*
X168349438Y-141375438D01*
X168332168Y-141391090D01*
X168313448Y-141404974D01*
X168293457Y-141416956D01*
X168272387Y-141426921D01*
X168250443Y-141434773D01*
X168227834Y-141440437D01*
X168204779Y-141443856D01*
X168181500Y-141445000D01*
X167606500Y-141445000D01*
X167583221Y-141443856D01*
X167560166Y-141440437D01*
X167537557Y-141434773D01*
X167515613Y-141426921D01*
X167494543Y-141416956D01*
X167474552Y-141404974D01*
X167455832Y-141391090D01*
X167438562Y-141375438D01*
X167422910Y-141358168D01*
X167409026Y-141339448D01*
X167397044Y-141319457D01*
X167387079Y-141298387D01*
X167379227Y-141276443D01*
X167373563Y-141253834D01*
X167370144Y-141230779D01*
X167369000Y-141207500D01*
X167369000Y-140732500D01*
X167370144Y-140709221D01*
X167373563Y-140686166D01*
X167379227Y-140663557D01*
X167387079Y-140641613D01*
X167397044Y-140620543D01*
X167409026Y-140600552D01*
X167422910Y-140581832D01*
X167438562Y-140564562D01*
X167455832Y-140548910D01*
X167474552Y-140535026D01*
X167494543Y-140523044D01*
X167515613Y-140513079D01*
X167537557Y-140505227D01*
X167560166Y-140499563D01*
X167583221Y-140496144D01*
X167606500Y-140495000D01*
X168181500Y-140495000D01*
X168204779Y-140496144D01*
X168204779Y-140496144D01*
G37*
D16*
X167894000Y-140970000D03*
G04 #@! TD*
D14*
G04 #@! TO.C,R12*
G36*
X117432779Y-127034144D02*
X117455834Y-127037563D01*
X117478443Y-127043227D01*
X117500387Y-127051079D01*
X117521457Y-127061044D01*
X117541448Y-127073026D01*
X117560168Y-127086910D01*
X117577438Y-127102562D01*
X117593090Y-127119832D01*
X117606974Y-127138552D01*
X117618956Y-127158543D01*
X117628921Y-127179613D01*
X117636773Y-127201557D01*
X117642437Y-127224166D01*
X117645856Y-127247221D01*
X117647000Y-127270500D01*
X117647000Y-127745500D01*
X117645856Y-127768779D01*
X117642437Y-127791834D01*
X117636773Y-127814443D01*
X117628921Y-127836387D01*
X117618956Y-127857457D01*
X117606974Y-127877448D01*
X117593090Y-127896168D01*
X117577438Y-127913438D01*
X117560168Y-127929090D01*
X117541448Y-127942974D01*
X117521457Y-127954956D01*
X117500387Y-127964921D01*
X117478443Y-127972773D01*
X117455834Y-127978437D01*
X117432779Y-127981856D01*
X117409500Y-127983000D01*
X116834500Y-127983000D01*
X116811221Y-127981856D01*
X116788166Y-127978437D01*
X116765557Y-127972773D01*
X116743613Y-127964921D01*
X116722543Y-127954956D01*
X116702552Y-127942974D01*
X116683832Y-127929090D01*
X116666562Y-127913438D01*
X116650910Y-127896168D01*
X116637026Y-127877448D01*
X116625044Y-127857457D01*
X116615079Y-127836387D01*
X116607227Y-127814443D01*
X116601563Y-127791834D01*
X116598144Y-127768779D01*
X116597000Y-127745500D01*
X116597000Y-127270500D01*
X116598144Y-127247221D01*
X116601563Y-127224166D01*
X116607227Y-127201557D01*
X116615079Y-127179613D01*
X116625044Y-127158543D01*
X116637026Y-127138552D01*
X116650910Y-127119832D01*
X116666562Y-127102562D01*
X116683832Y-127086910D01*
X116702552Y-127073026D01*
X116722543Y-127061044D01*
X116743613Y-127051079D01*
X116765557Y-127043227D01*
X116788166Y-127037563D01*
X116811221Y-127034144D01*
X116834500Y-127033000D01*
X117409500Y-127033000D01*
X117432779Y-127034144D01*
X117432779Y-127034144D01*
G37*
D16*
X117122000Y-127508000D03*
D14*
G36*
X119182779Y-127034144D02*
X119205834Y-127037563D01*
X119228443Y-127043227D01*
X119250387Y-127051079D01*
X119271457Y-127061044D01*
X119291448Y-127073026D01*
X119310168Y-127086910D01*
X119327438Y-127102562D01*
X119343090Y-127119832D01*
X119356974Y-127138552D01*
X119368956Y-127158543D01*
X119378921Y-127179613D01*
X119386773Y-127201557D01*
X119392437Y-127224166D01*
X119395856Y-127247221D01*
X119397000Y-127270500D01*
X119397000Y-127745500D01*
X119395856Y-127768779D01*
X119392437Y-127791834D01*
X119386773Y-127814443D01*
X119378921Y-127836387D01*
X119368956Y-127857457D01*
X119356974Y-127877448D01*
X119343090Y-127896168D01*
X119327438Y-127913438D01*
X119310168Y-127929090D01*
X119291448Y-127942974D01*
X119271457Y-127954956D01*
X119250387Y-127964921D01*
X119228443Y-127972773D01*
X119205834Y-127978437D01*
X119182779Y-127981856D01*
X119159500Y-127983000D01*
X118584500Y-127983000D01*
X118561221Y-127981856D01*
X118538166Y-127978437D01*
X118515557Y-127972773D01*
X118493613Y-127964921D01*
X118472543Y-127954956D01*
X118452552Y-127942974D01*
X118433832Y-127929090D01*
X118416562Y-127913438D01*
X118400910Y-127896168D01*
X118387026Y-127877448D01*
X118375044Y-127857457D01*
X118365079Y-127836387D01*
X118357227Y-127814443D01*
X118351563Y-127791834D01*
X118348144Y-127768779D01*
X118347000Y-127745500D01*
X118347000Y-127270500D01*
X118348144Y-127247221D01*
X118351563Y-127224166D01*
X118357227Y-127201557D01*
X118365079Y-127179613D01*
X118375044Y-127158543D01*
X118387026Y-127138552D01*
X118400910Y-127119832D01*
X118416562Y-127102562D01*
X118433832Y-127086910D01*
X118452552Y-127073026D01*
X118472543Y-127061044D01*
X118493613Y-127051079D01*
X118515557Y-127043227D01*
X118538166Y-127037563D01*
X118561221Y-127034144D01*
X118584500Y-127033000D01*
X119159500Y-127033000D01*
X119182779Y-127034144D01*
X119182779Y-127034144D01*
G37*
D16*
X118872000Y-127508000D03*
G04 #@! TD*
D14*
G04 #@! TO.C,R13*
G36*
X145802779Y-139712144D02*
X145825834Y-139715563D01*
X145848443Y-139721227D01*
X145870387Y-139729079D01*
X145891457Y-139739044D01*
X145911448Y-139751026D01*
X145930168Y-139764910D01*
X145947438Y-139780562D01*
X145963090Y-139797832D01*
X145976974Y-139816552D01*
X145988956Y-139836543D01*
X145998921Y-139857613D01*
X146006773Y-139879557D01*
X146012437Y-139902166D01*
X146015856Y-139925221D01*
X146017000Y-139948500D01*
X146017000Y-140523500D01*
X146015856Y-140546779D01*
X146012437Y-140569834D01*
X146006773Y-140592443D01*
X145998921Y-140614387D01*
X145988956Y-140635457D01*
X145976974Y-140655448D01*
X145963090Y-140674168D01*
X145947438Y-140691438D01*
X145930168Y-140707090D01*
X145911448Y-140720974D01*
X145891457Y-140732956D01*
X145870387Y-140742921D01*
X145848443Y-140750773D01*
X145825834Y-140756437D01*
X145802779Y-140759856D01*
X145779500Y-140761000D01*
X145304500Y-140761000D01*
X145281221Y-140759856D01*
X145258166Y-140756437D01*
X145235557Y-140750773D01*
X145213613Y-140742921D01*
X145192543Y-140732956D01*
X145172552Y-140720974D01*
X145153832Y-140707090D01*
X145136562Y-140691438D01*
X145120910Y-140674168D01*
X145107026Y-140655448D01*
X145095044Y-140635457D01*
X145085079Y-140614387D01*
X145077227Y-140592443D01*
X145071563Y-140569834D01*
X145068144Y-140546779D01*
X145067000Y-140523500D01*
X145067000Y-139948500D01*
X145068144Y-139925221D01*
X145071563Y-139902166D01*
X145077227Y-139879557D01*
X145085079Y-139857613D01*
X145095044Y-139836543D01*
X145107026Y-139816552D01*
X145120910Y-139797832D01*
X145136562Y-139780562D01*
X145153832Y-139764910D01*
X145172552Y-139751026D01*
X145192543Y-139739044D01*
X145213613Y-139729079D01*
X145235557Y-139721227D01*
X145258166Y-139715563D01*
X145281221Y-139712144D01*
X145304500Y-139711000D01*
X145779500Y-139711000D01*
X145802779Y-139712144D01*
X145802779Y-139712144D01*
G37*
D16*
X145542000Y-140236000D03*
D14*
G36*
X145802779Y-141462144D02*
X145825834Y-141465563D01*
X145848443Y-141471227D01*
X145870387Y-141479079D01*
X145891457Y-141489044D01*
X145911448Y-141501026D01*
X145930168Y-141514910D01*
X145947438Y-141530562D01*
X145963090Y-141547832D01*
X145976974Y-141566552D01*
X145988956Y-141586543D01*
X145998921Y-141607613D01*
X146006773Y-141629557D01*
X146012437Y-141652166D01*
X146015856Y-141675221D01*
X146017000Y-141698500D01*
X146017000Y-142273500D01*
X146015856Y-142296779D01*
X146012437Y-142319834D01*
X146006773Y-142342443D01*
X145998921Y-142364387D01*
X145988956Y-142385457D01*
X145976974Y-142405448D01*
X145963090Y-142424168D01*
X145947438Y-142441438D01*
X145930168Y-142457090D01*
X145911448Y-142470974D01*
X145891457Y-142482956D01*
X145870387Y-142492921D01*
X145848443Y-142500773D01*
X145825834Y-142506437D01*
X145802779Y-142509856D01*
X145779500Y-142511000D01*
X145304500Y-142511000D01*
X145281221Y-142509856D01*
X145258166Y-142506437D01*
X145235557Y-142500773D01*
X145213613Y-142492921D01*
X145192543Y-142482956D01*
X145172552Y-142470974D01*
X145153832Y-142457090D01*
X145136562Y-142441438D01*
X145120910Y-142424168D01*
X145107026Y-142405448D01*
X145095044Y-142385457D01*
X145085079Y-142364387D01*
X145077227Y-142342443D01*
X145071563Y-142319834D01*
X145068144Y-142296779D01*
X145067000Y-142273500D01*
X145067000Y-141698500D01*
X145068144Y-141675221D01*
X145071563Y-141652166D01*
X145077227Y-141629557D01*
X145085079Y-141607613D01*
X145095044Y-141586543D01*
X145107026Y-141566552D01*
X145120910Y-141547832D01*
X145136562Y-141530562D01*
X145153832Y-141514910D01*
X145172552Y-141501026D01*
X145192543Y-141489044D01*
X145213613Y-141479079D01*
X145235557Y-141471227D01*
X145258166Y-141465563D01*
X145281221Y-141462144D01*
X145304500Y-141461000D01*
X145779500Y-141461000D01*
X145802779Y-141462144D01*
X145802779Y-141462144D01*
G37*
D16*
X145542000Y-141986000D03*
G04 #@! TD*
D14*
G04 #@! TO.C,R14*
G36*
X141065505Y-126301204D02*
X141089773Y-126304804D01*
X141113572Y-126310765D01*
X141136671Y-126319030D01*
X141158850Y-126329520D01*
X141179893Y-126342132D01*
X141199599Y-126356747D01*
X141217777Y-126373223D01*
X141234253Y-126391401D01*
X141248868Y-126411107D01*
X141261480Y-126432150D01*
X141271970Y-126454329D01*
X141280235Y-126477428D01*
X141286196Y-126501227D01*
X141289796Y-126525495D01*
X141291000Y-126549999D01*
X141291000Y-127450001D01*
X141289796Y-127474505D01*
X141286196Y-127498773D01*
X141280235Y-127522572D01*
X141271970Y-127545671D01*
X141261480Y-127567850D01*
X141248868Y-127588893D01*
X141234253Y-127608599D01*
X141217777Y-127626777D01*
X141199599Y-127643253D01*
X141179893Y-127657868D01*
X141158850Y-127670480D01*
X141136671Y-127680970D01*
X141113572Y-127689235D01*
X141089773Y-127695196D01*
X141065505Y-127698796D01*
X141041001Y-127700000D01*
X140390999Y-127700000D01*
X140366495Y-127698796D01*
X140342227Y-127695196D01*
X140318428Y-127689235D01*
X140295329Y-127680970D01*
X140273150Y-127670480D01*
X140252107Y-127657868D01*
X140232401Y-127643253D01*
X140214223Y-127626777D01*
X140197747Y-127608599D01*
X140183132Y-127588893D01*
X140170520Y-127567850D01*
X140160030Y-127545671D01*
X140151765Y-127522572D01*
X140145804Y-127498773D01*
X140142204Y-127474505D01*
X140141000Y-127450001D01*
X140141000Y-126549999D01*
X140142204Y-126525495D01*
X140145804Y-126501227D01*
X140151765Y-126477428D01*
X140160030Y-126454329D01*
X140170520Y-126432150D01*
X140183132Y-126411107D01*
X140197747Y-126391401D01*
X140214223Y-126373223D01*
X140232401Y-126356747D01*
X140252107Y-126342132D01*
X140273150Y-126329520D01*
X140295329Y-126319030D01*
X140318428Y-126310765D01*
X140342227Y-126304804D01*
X140366495Y-126301204D01*
X140390999Y-126300000D01*
X141041001Y-126300000D01*
X141065505Y-126301204D01*
X141065505Y-126301204D01*
G37*
D15*
X140716000Y-127000000D03*
D14*
G36*
X139015505Y-126301204D02*
X139039773Y-126304804D01*
X139063572Y-126310765D01*
X139086671Y-126319030D01*
X139108850Y-126329520D01*
X139129893Y-126342132D01*
X139149599Y-126356747D01*
X139167777Y-126373223D01*
X139184253Y-126391401D01*
X139198868Y-126411107D01*
X139211480Y-126432150D01*
X139221970Y-126454329D01*
X139230235Y-126477428D01*
X139236196Y-126501227D01*
X139239796Y-126525495D01*
X139241000Y-126549999D01*
X139241000Y-127450001D01*
X139239796Y-127474505D01*
X139236196Y-127498773D01*
X139230235Y-127522572D01*
X139221970Y-127545671D01*
X139211480Y-127567850D01*
X139198868Y-127588893D01*
X139184253Y-127608599D01*
X139167777Y-127626777D01*
X139149599Y-127643253D01*
X139129893Y-127657868D01*
X139108850Y-127670480D01*
X139086671Y-127680970D01*
X139063572Y-127689235D01*
X139039773Y-127695196D01*
X139015505Y-127698796D01*
X138991001Y-127700000D01*
X138340999Y-127700000D01*
X138316495Y-127698796D01*
X138292227Y-127695196D01*
X138268428Y-127689235D01*
X138245329Y-127680970D01*
X138223150Y-127670480D01*
X138202107Y-127657868D01*
X138182401Y-127643253D01*
X138164223Y-127626777D01*
X138147747Y-127608599D01*
X138133132Y-127588893D01*
X138120520Y-127567850D01*
X138110030Y-127545671D01*
X138101765Y-127522572D01*
X138095804Y-127498773D01*
X138092204Y-127474505D01*
X138091000Y-127450001D01*
X138091000Y-126549999D01*
X138092204Y-126525495D01*
X138095804Y-126501227D01*
X138101765Y-126477428D01*
X138110030Y-126454329D01*
X138120520Y-126432150D01*
X138133132Y-126411107D01*
X138147747Y-126391401D01*
X138164223Y-126373223D01*
X138182401Y-126356747D01*
X138202107Y-126342132D01*
X138223150Y-126329520D01*
X138245329Y-126319030D01*
X138268428Y-126310765D01*
X138292227Y-126304804D01*
X138316495Y-126301204D01*
X138340999Y-126300000D01*
X138991001Y-126300000D01*
X139015505Y-126301204D01*
X139015505Y-126301204D01*
G37*
D15*
X138666000Y-127000000D03*
G04 #@! TD*
D14*
G04 #@! TO.C,R15*
G36*
X141083505Y-121983204D02*
X141107773Y-121986804D01*
X141131572Y-121992765D01*
X141154671Y-122001030D01*
X141176850Y-122011520D01*
X141197893Y-122024132D01*
X141217599Y-122038747D01*
X141235777Y-122055223D01*
X141252253Y-122073401D01*
X141266868Y-122093107D01*
X141279480Y-122114150D01*
X141289970Y-122136329D01*
X141298235Y-122159428D01*
X141304196Y-122183227D01*
X141307796Y-122207495D01*
X141309000Y-122231999D01*
X141309000Y-123132001D01*
X141307796Y-123156505D01*
X141304196Y-123180773D01*
X141298235Y-123204572D01*
X141289970Y-123227671D01*
X141279480Y-123249850D01*
X141266868Y-123270893D01*
X141252253Y-123290599D01*
X141235777Y-123308777D01*
X141217599Y-123325253D01*
X141197893Y-123339868D01*
X141176850Y-123352480D01*
X141154671Y-123362970D01*
X141131572Y-123371235D01*
X141107773Y-123377196D01*
X141083505Y-123380796D01*
X141059001Y-123382000D01*
X140408999Y-123382000D01*
X140384495Y-123380796D01*
X140360227Y-123377196D01*
X140336428Y-123371235D01*
X140313329Y-123362970D01*
X140291150Y-123352480D01*
X140270107Y-123339868D01*
X140250401Y-123325253D01*
X140232223Y-123308777D01*
X140215747Y-123290599D01*
X140201132Y-123270893D01*
X140188520Y-123249850D01*
X140178030Y-123227671D01*
X140169765Y-123204572D01*
X140163804Y-123180773D01*
X140160204Y-123156505D01*
X140159000Y-123132001D01*
X140159000Y-122231999D01*
X140160204Y-122207495D01*
X140163804Y-122183227D01*
X140169765Y-122159428D01*
X140178030Y-122136329D01*
X140188520Y-122114150D01*
X140201132Y-122093107D01*
X140215747Y-122073401D01*
X140232223Y-122055223D01*
X140250401Y-122038747D01*
X140270107Y-122024132D01*
X140291150Y-122011520D01*
X140313329Y-122001030D01*
X140336428Y-121992765D01*
X140360227Y-121986804D01*
X140384495Y-121983204D01*
X140408999Y-121982000D01*
X141059001Y-121982000D01*
X141083505Y-121983204D01*
X141083505Y-121983204D01*
G37*
D15*
X140734000Y-122682000D03*
D14*
G36*
X139033505Y-121983204D02*
X139057773Y-121986804D01*
X139081572Y-121992765D01*
X139104671Y-122001030D01*
X139126850Y-122011520D01*
X139147893Y-122024132D01*
X139167599Y-122038747D01*
X139185777Y-122055223D01*
X139202253Y-122073401D01*
X139216868Y-122093107D01*
X139229480Y-122114150D01*
X139239970Y-122136329D01*
X139248235Y-122159428D01*
X139254196Y-122183227D01*
X139257796Y-122207495D01*
X139259000Y-122231999D01*
X139259000Y-123132001D01*
X139257796Y-123156505D01*
X139254196Y-123180773D01*
X139248235Y-123204572D01*
X139239970Y-123227671D01*
X139229480Y-123249850D01*
X139216868Y-123270893D01*
X139202253Y-123290599D01*
X139185777Y-123308777D01*
X139167599Y-123325253D01*
X139147893Y-123339868D01*
X139126850Y-123352480D01*
X139104671Y-123362970D01*
X139081572Y-123371235D01*
X139057773Y-123377196D01*
X139033505Y-123380796D01*
X139009001Y-123382000D01*
X138358999Y-123382000D01*
X138334495Y-123380796D01*
X138310227Y-123377196D01*
X138286428Y-123371235D01*
X138263329Y-123362970D01*
X138241150Y-123352480D01*
X138220107Y-123339868D01*
X138200401Y-123325253D01*
X138182223Y-123308777D01*
X138165747Y-123290599D01*
X138151132Y-123270893D01*
X138138520Y-123249850D01*
X138128030Y-123227671D01*
X138119765Y-123204572D01*
X138113804Y-123180773D01*
X138110204Y-123156505D01*
X138109000Y-123132001D01*
X138109000Y-122231999D01*
X138110204Y-122207495D01*
X138113804Y-122183227D01*
X138119765Y-122159428D01*
X138128030Y-122136329D01*
X138138520Y-122114150D01*
X138151132Y-122093107D01*
X138165747Y-122073401D01*
X138182223Y-122055223D01*
X138200401Y-122038747D01*
X138220107Y-122024132D01*
X138241150Y-122011520D01*
X138263329Y-122001030D01*
X138286428Y-121992765D01*
X138310227Y-121986804D01*
X138334495Y-121983204D01*
X138358999Y-121982000D01*
X139009001Y-121982000D01*
X139033505Y-121983204D01*
X139033505Y-121983204D01*
G37*
D15*
X138684000Y-122682000D03*
G04 #@! TD*
D14*
G04 #@! TO.C,R16*
G36*
X139015505Y-124269204D02*
X139039773Y-124272804D01*
X139063572Y-124278765D01*
X139086671Y-124287030D01*
X139108850Y-124297520D01*
X139129893Y-124310132D01*
X139149599Y-124324747D01*
X139167777Y-124341223D01*
X139184253Y-124359401D01*
X139198868Y-124379107D01*
X139211480Y-124400150D01*
X139221970Y-124422329D01*
X139230235Y-124445428D01*
X139236196Y-124469227D01*
X139239796Y-124493495D01*
X139241000Y-124517999D01*
X139241000Y-125418001D01*
X139239796Y-125442505D01*
X139236196Y-125466773D01*
X139230235Y-125490572D01*
X139221970Y-125513671D01*
X139211480Y-125535850D01*
X139198868Y-125556893D01*
X139184253Y-125576599D01*
X139167777Y-125594777D01*
X139149599Y-125611253D01*
X139129893Y-125625868D01*
X139108850Y-125638480D01*
X139086671Y-125648970D01*
X139063572Y-125657235D01*
X139039773Y-125663196D01*
X139015505Y-125666796D01*
X138991001Y-125668000D01*
X138340999Y-125668000D01*
X138316495Y-125666796D01*
X138292227Y-125663196D01*
X138268428Y-125657235D01*
X138245329Y-125648970D01*
X138223150Y-125638480D01*
X138202107Y-125625868D01*
X138182401Y-125611253D01*
X138164223Y-125594777D01*
X138147747Y-125576599D01*
X138133132Y-125556893D01*
X138120520Y-125535850D01*
X138110030Y-125513671D01*
X138101765Y-125490572D01*
X138095804Y-125466773D01*
X138092204Y-125442505D01*
X138091000Y-125418001D01*
X138091000Y-124517999D01*
X138092204Y-124493495D01*
X138095804Y-124469227D01*
X138101765Y-124445428D01*
X138110030Y-124422329D01*
X138120520Y-124400150D01*
X138133132Y-124379107D01*
X138147747Y-124359401D01*
X138164223Y-124341223D01*
X138182401Y-124324747D01*
X138202107Y-124310132D01*
X138223150Y-124297520D01*
X138245329Y-124287030D01*
X138268428Y-124278765D01*
X138292227Y-124272804D01*
X138316495Y-124269204D01*
X138340999Y-124268000D01*
X138991001Y-124268000D01*
X139015505Y-124269204D01*
X139015505Y-124269204D01*
G37*
D15*
X138666000Y-124968000D03*
D14*
G36*
X141065505Y-124269204D02*
X141089773Y-124272804D01*
X141113572Y-124278765D01*
X141136671Y-124287030D01*
X141158850Y-124297520D01*
X141179893Y-124310132D01*
X141199599Y-124324747D01*
X141217777Y-124341223D01*
X141234253Y-124359401D01*
X141248868Y-124379107D01*
X141261480Y-124400150D01*
X141271970Y-124422329D01*
X141280235Y-124445428D01*
X141286196Y-124469227D01*
X141289796Y-124493495D01*
X141291000Y-124517999D01*
X141291000Y-125418001D01*
X141289796Y-125442505D01*
X141286196Y-125466773D01*
X141280235Y-125490572D01*
X141271970Y-125513671D01*
X141261480Y-125535850D01*
X141248868Y-125556893D01*
X141234253Y-125576599D01*
X141217777Y-125594777D01*
X141199599Y-125611253D01*
X141179893Y-125625868D01*
X141158850Y-125638480D01*
X141136671Y-125648970D01*
X141113572Y-125657235D01*
X141089773Y-125663196D01*
X141065505Y-125666796D01*
X141041001Y-125668000D01*
X140390999Y-125668000D01*
X140366495Y-125666796D01*
X140342227Y-125663196D01*
X140318428Y-125657235D01*
X140295329Y-125648970D01*
X140273150Y-125638480D01*
X140252107Y-125625868D01*
X140232401Y-125611253D01*
X140214223Y-125594777D01*
X140197747Y-125576599D01*
X140183132Y-125556893D01*
X140170520Y-125535850D01*
X140160030Y-125513671D01*
X140151765Y-125490572D01*
X140145804Y-125466773D01*
X140142204Y-125442505D01*
X140141000Y-125418001D01*
X140141000Y-124517999D01*
X140142204Y-124493495D01*
X140145804Y-124469227D01*
X140151765Y-124445428D01*
X140160030Y-124422329D01*
X140170520Y-124400150D01*
X140183132Y-124379107D01*
X140197747Y-124359401D01*
X140214223Y-124341223D01*
X140232401Y-124324747D01*
X140252107Y-124310132D01*
X140273150Y-124297520D01*
X140295329Y-124287030D01*
X140318428Y-124278765D01*
X140342227Y-124272804D01*
X140366495Y-124269204D01*
X140390999Y-124268000D01*
X141041001Y-124268000D01*
X141065505Y-124269204D01*
X141065505Y-124269204D01*
G37*
D15*
X140716000Y-124968000D03*
G04 #@! TD*
D20*
G04 #@! TO.C,U1*
X141380000Y-110531000D03*
X141380000Y-111181000D03*
X141380000Y-111831000D03*
X141380000Y-112481000D03*
X135480000Y-112481000D03*
X135480000Y-111831000D03*
X135480000Y-111181000D03*
X135480000Y-110531000D03*
G04 #@! TD*
D21*
G04 #@! TO.C,U2*
X156242000Y-123234000D03*
X156242000Y-123734000D03*
X156242000Y-124234000D03*
X156242000Y-124734000D03*
X156242000Y-125234000D03*
X156242000Y-125734000D03*
X156242000Y-126234000D03*
X156242000Y-126734000D03*
X156242000Y-127234000D03*
X156242000Y-127734000D03*
X156242000Y-128234000D03*
X156242000Y-128734000D03*
D22*
X154642000Y-130334000D03*
X154142000Y-130334000D03*
X153642000Y-130334000D03*
X153142000Y-130334000D03*
X152642000Y-130334000D03*
X152142000Y-130334000D03*
X151642000Y-130334000D03*
X151142000Y-130334000D03*
X150642000Y-130334000D03*
X150142000Y-130334000D03*
X149642000Y-130334000D03*
X149142000Y-130334000D03*
D21*
X147542000Y-128734000D03*
X147542000Y-128234000D03*
X147542000Y-127734000D03*
X147542000Y-127234000D03*
X147542000Y-126734000D03*
X147542000Y-126234000D03*
X147542000Y-125734000D03*
X147542000Y-125234000D03*
X147542000Y-124734000D03*
X147542000Y-124234000D03*
X147542000Y-123734000D03*
X147542000Y-123234000D03*
D22*
X149142000Y-121634000D03*
X149642000Y-121634000D03*
X150142000Y-121634000D03*
X150642000Y-121634000D03*
X151142000Y-121634000D03*
X151642000Y-121634000D03*
X152142000Y-121634000D03*
X152642000Y-121634000D03*
X153142000Y-121634000D03*
X153642000Y-121634000D03*
X154142000Y-121634000D03*
X154642000Y-121634000D03*
G04 #@! TD*
D23*
G04 #@! TO.C,U3*
X153416000Y-106426000D03*
X150876000Y-106426000D03*
X148336000Y-106426000D03*
X145796000Y-106426000D03*
D24*
X161316000Y-107126000D03*
X161316000Y-130726000D03*
X137816000Y-130726000D03*
X137816000Y-107126000D03*
G04 #@! TD*
D25*
G04 #@! TO.C,U4*
X123632000Y-127508000D03*
X123632000Y-126238000D03*
X123632000Y-124968000D03*
X123632000Y-123698000D03*
X123632000Y-122428000D03*
X123632000Y-121158000D03*
X123632000Y-119888000D03*
X129032000Y-119888000D03*
X129032000Y-121158000D03*
X129032000Y-122428000D03*
X129032000Y-123698000D03*
X129032000Y-124968000D03*
X129032000Y-126238000D03*
X129032000Y-127508000D03*
G04 #@! TD*
D24*
G04 #@! TO.C,Y1*
X167386000Y-122428000D03*
X167386000Y-127308000D03*
G04 #@! TD*
D18*
G04 #@! TO.C,SW1*
X162560000Y-134874000D03*
D19*
X165100000Y-134874000D03*
X167640000Y-134874000D03*
G04 #@! TD*
D14*
G04 #@! TO.C,R19*
G36*
X159154433Y-131863951D02*
X159178701Y-131867551D01*
X159202500Y-131873512D01*
X159225599Y-131881777D01*
X159247778Y-131892267D01*
X159268821Y-131904879D01*
X159288527Y-131919494D01*
X159306705Y-131935970D01*
X159323181Y-131954148D01*
X159337796Y-131973854D01*
X159350408Y-131994897D01*
X159360898Y-132017076D01*
X159369163Y-132040175D01*
X159375124Y-132063974D01*
X159378724Y-132088242D01*
X159379928Y-132112746D01*
X159379928Y-132762748D01*
X159378724Y-132787252D01*
X159375124Y-132811520D01*
X159369163Y-132835319D01*
X159360898Y-132858418D01*
X159350408Y-132880597D01*
X159337796Y-132901640D01*
X159323181Y-132921346D01*
X159306705Y-132939524D01*
X159288527Y-132956000D01*
X159268821Y-132970615D01*
X159247778Y-132983227D01*
X159225599Y-132993717D01*
X159202500Y-133001982D01*
X159178701Y-133007943D01*
X159154433Y-133011543D01*
X159129929Y-133012747D01*
X158229927Y-133012747D01*
X158205423Y-133011543D01*
X158181155Y-133007943D01*
X158157356Y-133001982D01*
X158134257Y-132993717D01*
X158112078Y-132983227D01*
X158091035Y-132970615D01*
X158071329Y-132956000D01*
X158053151Y-132939524D01*
X158036675Y-132921346D01*
X158022060Y-132901640D01*
X158009448Y-132880597D01*
X157998958Y-132858418D01*
X157990693Y-132835319D01*
X157984732Y-132811520D01*
X157981132Y-132787252D01*
X157979928Y-132762748D01*
X157979928Y-132112746D01*
X157981132Y-132088242D01*
X157984732Y-132063974D01*
X157990693Y-132040175D01*
X157998958Y-132017076D01*
X158009448Y-131994897D01*
X158022060Y-131973854D01*
X158036675Y-131954148D01*
X158053151Y-131935970D01*
X158071329Y-131919494D01*
X158091035Y-131904879D01*
X158112078Y-131892267D01*
X158134257Y-131881777D01*
X158157356Y-131873512D01*
X158181155Y-131867551D01*
X158205423Y-131863951D01*
X158229927Y-131862747D01*
X159129929Y-131862747D01*
X159154433Y-131863951D01*
X159154433Y-131863951D01*
G37*
D15*
X158679928Y-132437747D03*
D14*
G36*
X159154433Y-133913951D02*
X159178701Y-133917551D01*
X159202500Y-133923512D01*
X159225599Y-133931777D01*
X159247778Y-133942267D01*
X159268821Y-133954879D01*
X159288527Y-133969494D01*
X159306705Y-133985970D01*
X159323181Y-134004148D01*
X159337796Y-134023854D01*
X159350408Y-134044897D01*
X159360898Y-134067076D01*
X159369163Y-134090175D01*
X159375124Y-134113974D01*
X159378724Y-134138242D01*
X159379928Y-134162746D01*
X159379928Y-134812748D01*
X159378724Y-134837252D01*
X159375124Y-134861520D01*
X159369163Y-134885319D01*
X159360898Y-134908418D01*
X159350408Y-134930597D01*
X159337796Y-134951640D01*
X159323181Y-134971346D01*
X159306705Y-134989524D01*
X159288527Y-135006000D01*
X159268821Y-135020615D01*
X159247778Y-135033227D01*
X159225599Y-135043717D01*
X159202500Y-135051982D01*
X159178701Y-135057943D01*
X159154433Y-135061543D01*
X159129929Y-135062747D01*
X158229927Y-135062747D01*
X158205423Y-135061543D01*
X158181155Y-135057943D01*
X158157356Y-135051982D01*
X158134257Y-135043717D01*
X158112078Y-135033227D01*
X158091035Y-135020615D01*
X158071329Y-135006000D01*
X158053151Y-134989524D01*
X158036675Y-134971346D01*
X158022060Y-134951640D01*
X158009448Y-134930597D01*
X157998958Y-134908418D01*
X157990693Y-134885319D01*
X157984732Y-134861520D01*
X157981132Y-134837252D01*
X157979928Y-134812748D01*
X157979928Y-134162746D01*
X157981132Y-134138242D01*
X157984732Y-134113974D01*
X157990693Y-134090175D01*
X157998958Y-134067076D01*
X158009448Y-134044897D01*
X158022060Y-134023854D01*
X158036675Y-134004148D01*
X158053151Y-133985970D01*
X158071329Y-133969494D01*
X158091035Y-133954879D01*
X158112078Y-133942267D01*
X158134257Y-133931777D01*
X158157356Y-133923512D01*
X158181155Y-133917551D01*
X158205423Y-133913951D01*
X158229927Y-133912747D01*
X159129929Y-133912747D01*
X159154433Y-133913951D01*
X159154433Y-133913951D01*
G37*
D15*
X158679928Y-134487747D03*
G04 #@! TD*
D14*
G04 #@! TO.C,R17*
G36*
X162312779Y-115404144D02*
X162335834Y-115407563D01*
X162358443Y-115413227D01*
X162380387Y-115421079D01*
X162401457Y-115431044D01*
X162421448Y-115443026D01*
X162440168Y-115456910D01*
X162457438Y-115472562D01*
X162473090Y-115489832D01*
X162486974Y-115508552D01*
X162498956Y-115528543D01*
X162508921Y-115549613D01*
X162516773Y-115571557D01*
X162522437Y-115594166D01*
X162525856Y-115617221D01*
X162527000Y-115640500D01*
X162527000Y-116215500D01*
X162525856Y-116238779D01*
X162522437Y-116261834D01*
X162516773Y-116284443D01*
X162508921Y-116306387D01*
X162498956Y-116327457D01*
X162486974Y-116347448D01*
X162473090Y-116366168D01*
X162457438Y-116383438D01*
X162440168Y-116399090D01*
X162421448Y-116412974D01*
X162401457Y-116424956D01*
X162380387Y-116434921D01*
X162358443Y-116442773D01*
X162335834Y-116448437D01*
X162312779Y-116451856D01*
X162289500Y-116453000D01*
X161814500Y-116453000D01*
X161791221Y-116451856D01*
X161768166Y-116448437D01*
X161745557Y-116442773D01*
X161723613Y-116434921D01*
X161702543Y-116424956D01*
X161682552Y-116412974D01*
X161663832Y-116399090D01*
X161646562Y-116383438D01*
X161630910Y-116366168D01*
X161617026Y-116347448D01*
X161605044Y-116327457D01*
X161595079Y-116306387D01*
X161587227Y-116284443D01*
X161581563Y-116261834D01*
X161578144Y-116238779D01*
X161577000Y-116215500D01*
X161577000Y-115640500D01*
X161578144Y-115617221D01*
X161581563Y-115594166D01*
X161587227Y-115571557D01*
X161595079Y-115549613D01*
X161605044Y-115528543D01*
X161617026Y-115508552D01*
X161630910Y-115489832D01*
X161646562Y-115472562D01*
X161663832Y-115456910D01*
X161682552Y-115443026D01*
X161702543Y-115431044D01*
X161723613Y-115421079D01*
X161745557Y-115413227D01*
X161768166Y-115407563D01*
X161791221Y-115404144D01*
X161814500Y-115403000D01*
X162289500Y-115403000D01*
X162312779Y-115404144D01*
X162312779Y-115404144D01*
G37*
D16*
X162052000Y-115928000D03*
D14*
G36*
X162312779Y-113654144D02*
X162335834Y-113657563D01*
X162358443Y-113663227D01*
X162380387Y-113671079D01*
X162401457Y-113681044D01*
X162421448Y-113693026D01*
X162440168Y-113706910D01*
X162457438Y-113722562D01*
X162473090Y-113739832D01*
X162486974Y-113758552D01*
X162498956Y-113778543D01*
X162508921Y-113799613D01*
X162516773Y-113821557D01*
X162522437Y-113844166D01*
X162525856Y-113867221D01*
X162527000Y-113890500D01*
X162527000Y-114465500D01*
X162525856Y-114488779D01*
X162522437Y-114511834D01*
X162516773Y-114534443D01*
X162508921Y-114556387D01*
X162498956Y-114577457D01*
X162486974Y-114597448D01*
X162473090Y-114616168D01*
X162457438Y-114633438D01*
X162440168Y-114649090D01*
X162421448Y-114662974D01*
X162401457Y-114674956D01*
X162380387Y-114684921D01*
X162358443Y-114692773D01*
X162335834Y-114698437D01*
X162312779Y-114701856D01*
X162289500Y-114703000D01*
X161814500Y-114703000D01*
X161791221Y-114701856D01*
X161768166Y-114698437D01*
X161745557Y-114692773D01*
X161723613Y-114684921D01*
X161702543Y-114674956D01*
X161682552Y-114662974D01*
X161663832Y-114649090D01*
X161646562Y-114633438D01*
X161630910Y-114616168D01*
X161617026Y-114597448D01*
X161605044Y-114577457D01*
X161595079Y-114556387D01*
X161587227Y-114534443D01*
X161581563Y-114511834D01*
X161578144Y-114488779D01*
X161577000Y-114465500D01*
X161577000Y-113890500D01*
X161578144Y-113867221D01*
X161581563Y-113844166D01*
X161587227Y-113821557D01*
X161595079Y-113799613D01*
X161605044Y-113778543D01*
X161617026Y-113758552D01*
X161630910Y-113739832D01*
X161646562Y-113722562D01*
X161663832Y-113706910D01*
X161682552Y-113693026D01*
X161702543Y-113681044D01*
X161723613Y-113671079D01*
X161745557Y-113663227D01*
X161768166Y-113657563D01*
X161791221Y-113654144D01*
X161814500Y-113653000D01*
X162289500Y-113653000D01*
X162312779Y-113654144D01*
X162312779Y-113654144D01*
G37*
D16*
X162052000Y-114178000D03*
G04 #@! TD*
D14*
G04 #@! TO.C,R18*
G36*
X162312779Y-117981144D02*
X162335834Y-117984563D01*
X162358443Y-117990227D01*
X162380387Y-117998079D01*
X162401457Y-118008044D01*
X162421448Y-118020026D01*
X162440168Y-118033910D01*
X162457438Y-118049562D01*
X162473090Y-118066832D01*
X162486974Y-118085552D01*
X162498956Y-118105543D01*
X162508921Y-118126613D01*
X162516773Y-118148557D01*
X162522437Y-118171166D01*
X162525856Y-118194221D01*
X162527000Y-118217500D01*
X162527000Y-118792500D01*
X162525856Y-118815779D01*
X162522437Y-118838834D01*
X162516773Y-118861443D01*
X162508921Y-118883387D01*
X162498956Y-118904457D01*
X162486974Y-118924448D01*
X162473090Y-118943168D01*
X162457438Y-118960438D01*
X162440168Y-118976090D01*
X162421448Y-118989974D01*
X162401457Y-119001956D01*
X162380387Y-119011921D01*
X162358443Y-119019773D01*
X162335834Y-119025437D01*
X162312779Y-119028856D01*
X162289500Y-119030000D01*
X161814500Y-119030000D01*
X161791221Y-119028856D01*
X161768166Y-119025437D01*
X161745557Y-119019773D01*
X161723613Y-119011921D01*
X161702543Y-119001956D01*
X161682552Y-118989974D01*
X161663832Y-118976090D01*
X161646562Y-118960438D01*
X161630910Y-118943168D01*
X161617026Y-118924448D01*
X161605044Y-118904457D01*
X161595079Y-118883387D01*
X161587227Y-118861443D01*
X161581563Y-118838834D01*
X161578144Y-118815779D01*
X161577000Y-118792500D01*
X161577000Y-118217500D01*
X161578144Y-118194221D01*
X161581563Y-118171166D01*
X161587227Y-118148557D01*
X161595079Y-118126613D01*
X161605044Y-118105543D01*
X161617026Y-118085552D01*
X161630910Y-118066832D01*
X161646562Y-118049562D01*
X161663832Y-118033910D01*
X161682552Y-118020026D01*
X161702543Y-118008044D01*
X161723613Y-117998079D01*
X161745557Y-117990227D01*
X161768166Y-117984563D01*
X161791221Y-117981144D01*
X161814500Y-117980000D01*
X162289500Y-117980000D01*
X162312779Y-117981144D01*
X162312779Y-117981144D01*
G37*
D16*
X162052000Y-118505000D03*
D14*
G36*
X162312779Y-119731144D02*
X162335834Y-119734563D01*
X162358443Y-119740227D01*
X162380387Y-119748079D01*
X162401457Y-119758044D01*
X162421448Y-119770026D01*
X162440168Y-119783910D01*
X162457438Y-119799562D01*
X162473090Y-119816832D01*
X162486974Y-119835552D01*
X162498956Y-119855543D01*
X162508921Y-119876613D01*
X162516773Y-119898557D01*
X162522437Y-119921166D01*
X162525856Y-119944221D01*
X162527000Y-119967500D01*
X162527000Y-120542500D01*
X162525856Y-120565779D01*
X162522437Y-120588834D01*
X162516773Y-120611443D01*
X162508921Y-120633387D01*
X162498956Y-120654457D01*
X162486974Y-120674448D01*
X162473090Y-120693168D01*
X162457438Y-120710438D01*
X162440168Y-120726090D01*
X162421448Y-120739974D01*
X162401457Y-120751956D01*
X162380387Y-120761921D01*
X162358443Y-120769773D01*
X162335834Y-120775437D01*
X162312779Y-120778856D01*
X162289500Y-120780000D01*
X161814500Y-120780000D01*
X161791221Y-120778856D01*
X161768166Y-120775437D01*
X161745557Y-120769773D01*
X161723613Y-120761921D01*
X161702543Y-120751956D01*
X161682552Y-120739974D01*
X161663832Y-120726090D01*
X161646562Y-120710438D01*
X161630910Y-120693168D01*
X161617026Y-120674448D01*
X161605044Y-120654457D01*
X161595079Y-120633387D01*
X161587227Y-120611443D01*
X161581563Y-120588834D01*
X161578144Y-120565779D01*
X161577000Y-120542500D01*
X161577000Y-119967500D01*
X161578144Y-119944221D01*
X161581563Y-119921166D01*
X161587227Y-119898557D01*
X161595079Y-119876613D01*
X161605044Y-119855543D01*
X161617026Y-119835552D01*
X161630910Y-119816832D01*
X161646562Y-119799562D01*
X161663832Y-119783910D01*
X161682552Y-119770026D01*
X161702543Y-119758044D01*
X161723613Y-119748079D01*
X161745557Y-119740227D01*
X161768166Y-119734563D01*
X161791221Y-119731144D01*
X161814500Y-119730000D01*
X162289500Y-119730000D01*
X162312779Y-119731144D01*
X162312779Y-119731144D01*
G37*
D16*
X162052000Y-120255000D03*
G04 #@! TD*
D14*
G04 #@! TO.C,R20*
G36*
X156867708Y-132063891D02*
X156890763Y-132067310D01*
X156913372Y-132072974D01*
X156935316Y-132080826D01*
X156956386Y-132090791D01*
X156976377Y-132102773D01*
X156995097Y-132116657D01*
X157012367Y-132132309D01*
X157028019Y-132149579D01*
X157041903Y-132168299D01*
X157053885Y-132188290D01*
X157063850Y-132209360D01*
X157071702Y-132231304D01*
X157077366Y-132253913D01*
X157080785Y-132276968D01*
X157081929Y-132300247D01*
X157081929Y-132875247D01*
X157080785Y-132898526D01*
X157077366Y-132921581D01*
X157071702Y-132944190D01*
X157063850Y-132966134D01*
X157053885Y-132987204D01*
X157041903Y-133007195D01*
X157028019Y-133025915D01*
X157012367Y-133043185D01*
X156995097Y-133058837D01*
X156976377Y-133072721D01*
X156956386Y-133084703D01*
X156935316Y-133094668D01*
X156913372Y-133102520D01*
X156890763Y-133108184D01*
X156867708Y-133111603D01*
X156844429Y-133112747D01*
X156369429Y-133112747D01*
X156346150Y-133111603D01*
X156323095Y-133108184D01*
X156300486Y-133102520D01*
X156278542Y-133094668D01*
X156257472Y-133084703D01*
X156237481Y-133072721D01*
X156218761Y-133058837D01*
X156201491Y-133043185D01*
X156185839Y-133025915D01*
X156171955Y-133007195D01*
X156159973Y-132987204D01*
X156150008Y-132966134D01*
X156142156Y-132944190D01*
X156136492Y-132921581D01*
X156133073Y-132898526D01*
X156131929Y-132875247D01*
X156131929Y-132300247D01*
X156133073Y-132276968D01*
X156136492Y-132253913D01*
X156142156Y-132231304D01*
X156150008Y-132209360D01*
X156159973Y-132188290D01*
X156171955Y-132168299D01*
X156185839Y-132149579D01*
X156201491Y-132132309D01*
X156218761Y-132116657D01*
X156237481Y-132102773D01*
X156257472Y-132090791D01*
X156278542Y-132080826D01*
X156300486Y-132072974D01*
X156323095Y-132067310D01*
X156346150Y-132063891D01*
X156369429Y-132062747D01*
X156844429Y-132062747D01*
X156867708Y-132063891D01*
X156867708Y-132063891D01*
G37*
D16*
X156606929Y-132587747D03*
D14*
G36*
X156867708Y-133813891D02*
X156890763Y-133817310D01*
X156913372Y-133822974D01*
X156935316Y-133830826D01*
X156956386Y-133840791D01*
X156976377Y-133852773D01*
X156995097Y-133866657D01*
X157012367Y-133882309D01*
X157028019Y-133899579D01*
X157041903Y-133918299D01*
X157053885Y-133938290D01*
X157063850Y-133959360D01*
X157071702Y-133981304D01*
X157077366Y-134003913D01*
X157080785Y-134026968D01*
X157081929Y-134050247D01*
X157081929Y-134625247D01*
X157080785Y-134648526D01*
X157077366Y-134671581D01*
X157071702Y-134694190D01*
X157063850Y-134716134D01*
X157053885Y-134737204D01*
X157041903Y-134757195D01*
X157028019Y-134775915D01*
X157012367Y-134793185D01*
X156995097Y-134808837D01*
X156976377Y-134822721D01*
X156956386Y-134834703D01*
X156935316Y-134844668D01*
X156913372Y-134852520D01*
X156890763Y-134858184D01*
X156867708Y-134861603D01*
X156844429Y-134862747D01*
X156369429Y-134862747D01*
X156346150Y-134861603D01*
X156323095Y-134858184D01*
X156300486Y-134852520D01*
X156278542Y-134844668D01*
X156257472Y-134834703D01*
X156237481Y-134822721D01*
X156218761Y-134808837D01*
X156201491Y-134793185D01*
X156185839Y-134775915D01*
X156171955Y-134757195D01*
X156159973Y-134737204D01*
X156150008Y-134716134D01*
X156142156Y-134694190D01*
X156136492Y-134671581D01*
X156133073Y-134648526D01*
X156131929Y-134625247D01*
X156131929Y-134050247D01*
X156133073Y-134026968D01*
X156136492Y-134003913D01*
X156142156Y-133981304D01*
X156150008Y-133959360D01*
X156159973Y-133938290D01*
X156171955Y-133918299D01*
X156185839Y-133899579D01*
X156201491Y-133882309D01*
X156218761Y-133866657D01*
X156237481Y-133852773D01*
X156257472Y-133840791D01*
X156278542Y-133830826D01*
X156300486Y-133822974D01*
X156323095Y-133817310D01*
X156346150Y-133813891D01*
X156369429Y-133812747D01*
X156844429Y-133812747D01*
X156867708Y-133813891D01*
X156867708Y-133813891D01*
G37*
D16*
X156606929Y-134337747D03*
G04 #@! TD*
D14*
G04 #@! TO.C,R22*
G36*
X116592779Y-110869144D02*
X116615834Y-110872563D01*
X116638443Y-110878227D01*
X116660387Y-110886079D01*
X116681457Y-110896044D01*
X116701448Y-110908026D01*
X116720168Y-110921910D01*
X116737438Y-110937562D01*
X116753090Y-110954832D01*
X116766974Y-110973552D01*
X116778956Y-110993543D01*
X116788921Y-111014613D01*
X116796773Y-111036557D01*
X116802437Y-111059166D01*
X116805856Y-111082221D01*
X116807000Y-111105500D01*
X116807000Y-111680500D01*
X116805856Y-111703779D01*
X116802437Y-111726834D01*
X116796773Y-111749443D01*
X116788921Y-111771387D01*
X116778956Y-111792457D01*
X116766974Y-111812448D01*
X116753090Y-111831168D01*
X116737438Y-111848438D01*
X116720168Y-111864090D01*
X116701448Y-111877974D01*
X116681457Y-111889956D01*
X116660387Y-111899921D01*
X116638443Y-111907773D01*
X116615834Y-111913437D01*
X116592779Y-111916856D01*
X116569500Y-111918000D01*
X116094500Y-111918000D01*
X116071221Y-111916856D01*
X116048166Y-111913437D01*
X116025557Y-111907773D01*
X116003613Y-111899921D01*
X115982543Y-111889956D01*
X115962552Y-111877974D01*
X115943832Y-111864090D01*
X115926562Y-111848438D01*
X115910910Y-111831168D01*
X115897026Y-111812448D01*
X115885044Y-111792457D01*
X115875079Y-111771387D01*
X115867227Y-111749443D01*
X115861563Y-111726834D01*
X115858144Y-111703779D01*
X115857000Y-111680500D01*
X115857000Y-111105500D01*
X115858144Y-111082221D01*
X115861563Y-111059166D01*
X115867227Y-111036557D01*
X115875079Y-111014613D01*
X115885044Y-110993543D01*
X115897026Y-110973552D01*
X115910910Y-110954832D01*
X115926562Y-110937562D01*
X115943832Y-110921910D01*
X115962552Y-110908026D01*
X115982543Y-110896044D01*
X116003613Y-110886079D01*
X116025557Y-110878227D01*
X116048166Y-110872563D01*
X116071221Y-110869144D01*
X116094500Y-110868000D01*
X116569500Y-110868000D01*
X116592779Y-110869144D01*
X116592779Y-110869144D01*
G37*
D16*
X116332000Y-111393000D03*
D14*
G36*
X116592779Y-112619144D02*
X116615834Y-112622563D01*
X116638443Y-112628227D01*
X116660387Y-112636079D01*
X116681457Y-112646044D01*
X116701448Y-112658026D01*
X116720168Y-112671910D01*
X116737438Y-112687562D01*
X116753090Y-112704832D01*
X116766974Y-112723552D01*
X116778956Y-112743543D01*
X116788921Y-112764613D01*
X116796773Y-112786557D01*
X116802437Y-112809166D01*
X116805856Y-112832221D01*
X116807000Y-112855500D01*
X116807000Y-113430500D01*
X116805856Y-113453779D01*
X116802437Y-113476834D01*
X116796773Y-113499443D01*
X116788921Y-113521387D01*
X116778956Y-113542457D01*
X116766974Y-113562448D01*
X116753090Y-113581168D01*
X116737438Y-113598438D01*
X116720168Y-113614090D01*
X116701448Y-113627974D01*
X116681457Y-113639956D01*
X116660387Y-113649921D01*
X116638443Y-113657773D01*
X116615834Y-113663437D01*
X116592779Y-113666856D01*
X116569500Y-113668000D01*
X116094500Y-113668000D01*
X116071221Y-113666856D01*
X116048166Y-113663437D01*
X116025557Y-113657773D01*
X116003613Y-113649921D01*
X115982543Y-113639956D01*
X115962552Y-113627974D01*
X115943832Y-113614090D01*
X115926562Y-113598438D01*
X115910910Y-113581168D01*
X115897026Y-113562448D01*
X115885044Y-113542457D01*
X115875079Y-113521387D01*
X115867227Y-113499443D01*
X115861563Y-113476834D01*
X115858144Y-113453779D01*
X115857000Y-113430500D01*
X115857000Y-112855500D01*
X115858144Y-112832221D01*
X115861563Y-112809166D01*
X115867227Y-112786557D01*
X115875079Y-112764613D01*
X115885044Y-112743543D01*
X115897026Y-112723552D01*
X115910910Y-112704832D01*
X115926562Y-112687562D01*
X115943832Y-112671910D01*
X115962552Y-112658026D01*
X115982543Y-112646044D01*
X116003613Y-112636079D01*
X116025557Y-112628227D01*
X116048166Y-112622563D01*
X116071221Y-112619144D01*
X116094500Y-112618000D01*
X116569500Y-112618000D01*
X116592779Y-112619144D01*
X116592779Y-112619144D01*
G37*
D16*
X116332000Y-113143000D03*
G04 #@! TD*
D14*
G04 #@! TO.C,R23*
G36*
X119894779Y-112788144D02*
X119917834Y-112791563D01*
X119940443Y-112797227D01*
X119962387Y-112805079D01*
X119983457Y-112815044D01*
X120003448Y-112827026D01*
X120022168Y-112840910D01*
X120039438Y-112856562D01*
X120055090Y-112873832D01*
X120068974Y-112892552D01*
X120080956Y-112912543D01*
X120090921Y-112933613D01*
X120098773Y-112955557D01*
X120104437Y-112978166D01*
X120107856Y-113001221D01*
X120109000Y-113024500D01*
X120109000Y-113599500D01*
X120107856Y-113622779D01*
X120104437Y-113645834D01*
X120098773Y-113668443D01*
X120090921Y-113690387D01*
X120080956Y-113711457D01*
X120068974Y-113731448D01*
X120055090Y-113750168D01*
X120039438Y-113767438D01*
X120022168Y-113783090D01*
X120003448Y-113796974D01*
X119983457Y-113808956D01*
X119962387Y-113818921D01*
X119940443Y-113826773D01*
X119917834Y-113832437D01*
X119894779Y-113835856D01*
X119871500Y-113837000D01*
X119396500Y-113837000D01*
X119373221Y-113835856D01*
X119350166Y-113832437D01*
X119327557Y-113826773D01*
X119305613Y-113818921D01*
X119284543Y-113808956D01*
X119264552Y-113796974D01*
X119245832Y-113783090D01*
X119228562Y-113767438D01*
X119212910Y-113750168D01*
X119199026Y-113731448D01*
X119187044Y-113711457D01*
X119177079Y-113690387D01*
X119169227Y-113668443D01*
X119163563Y-113645834D01*
X119160144Y-113622779D01*
X119159000Y-113599500D01*
X119159000Y-113024500D01*
X119160144Y-113001221D01*
X119163563Y-112978166D01*
X119169227Y-112955557D01*
X119177079Y-112933613D01*
X119187044Y-112912543D01*
X119199026Y-112892552D01*
X119212910Y-112873832D01*
X119228562Y-112856562D01*
X119245832Y-112840910D01*
X119264552Y-112827026D01*
X119284543Y-112815044D01*
X119305613Y-112805079D01*
X119327557Y-112797227D01*
X119350166Y-112791563D01*
X119373221Y-112788144D01*
X119396500Y-112787000D01*
X119871500Y-112787000D01*
X119894779Y-112788144D01*
X119894779Y-112788144D01*
G37*
D16*
X119634000Y-113312000D03*
D14*
G36*
X119894779Y-114538144D02*
X119917834Y-114541563D01*
X119940443Y-114547227D01*
X119962387Y-114555079D01*
X119983457Y-114565044D01*
X120003448Y-114577026D01*
X120022168Y-114590910D01*
X120039438Y-114606562D01*
X120055090Y-114623832D01*
X120068974Y-114642552D01*
X120080956Y-114662543D01*
X120090921Y-114683613D01*
X120098773Y-114705557D01*
X120104437Y-114728166D01*
X120107856Y-114751221D01*
X120109000Y-114774500D01*
X120109000Y-115349500D01*
X120107856Y-115372779D01*
X120104437Y-115395834D01*
X120098773Y-115418443D01*
X120090921Y-115440387D01*
X120080956Y-115461457D01*
X120068974Y-115481448D01*
X120055090Y-115500168D01*
X120039438Y-115517438D01*
X120022168Y-115533090D01*
X120003448Y-115546974D01*
X119983457Y-115558956D01*
X119962387Y-115568921D01*
X119940443Y-115576773D01*
X119917834Y-115582437D01*
X119894779Y-115585856D01*
X119871500Y-115587000D01*
X119396500Y-115587000D01*
X119373221Y-115585856D01*
X119350166Y-115582437D01*
X119327557Y-115576773D01*
X119305613Y-115568921D01*
X119284543Y-115558956D01*
X119264552Y-115546974D01*
X119245832Y-115533090D01*
X119228562Y-115517438D01*
X119212910Y-115500168D01*
X119199026Y-115481448D01*
X119187044Y-115461457D01*
X119177079Y-115440387D01*
X119169227Y-115418443D01*
X119163563Y-115395834D01*
X119160144Y-115372779D01*
X119159000Y-115349500D01*
X119159000Y-114774500D01*
X119160144Y-114751221D01*
X119163563Y-114728166D01*
X119169227Y-114705557D01*
X119177079Y-114683613D01*
X119187044Y-114662543D01*
X119199026Y-114642552D01*
X119212910Y-114623832D01*
X119228562Y-114606562D01*
X119245832Y-114590910D01*
X119264552Y-114577026D01*
X119284543Y-114565044D01*
X119305613Y-114555079D01*
X119327557Y-114547227D01*
X119350166Y-114541563D01*
X119373221Y-114538144D01*
X119396500Y-114537000D01*
X119871500Y-114537000D01*
X119894779Y-114538144D01*
X119894779Y-114538144D01*
G37*
D16*
X119634000Y-115062000D03*
G04 #@! TD*
D26*
G04 #@! TO.C,U5*
X119210000Y-106746000D03*
X119210000Y-107696000D03*
X119210000Y-108646000D03*
X117010000Y-108646000D03*
X117010000Y-106746000D03*
G04 #@! TD*
D14*
G04 #@! TO.C,R21*
G36*
X122000505Y-102054204D02*
X122024773Y-102057804D01*
X122048572Y-102063765D01*
X122071671Y-102072030D01*
X122093850Y-102082520D01*
X122114893Y-102095132D01*
X122134599Y-102109747D01*
X122152777Y-102126223D01*
X122169253Y-102144401D01*
X122183868Y-102164107D01*
X122196480Y-102185150D01*
X122206970Y-102207329D01*
X122215235Y-102230428D01*
X122221196Y-102254227D01*
X122224796Y-102278495D01*
X122226000Y-102302999D01*
X122226000Y-104453001D01*
X122224796Y-104477505D01*
X122221196Y-104501773D01*
X122215235Y-104525572D01*
X122206970Y-104548671D01*
X122196480Y-104570850D01*
X122183868Y-104591893D01*
X122169253Y-104611599D01*
X122152777Y-104629777D01*
X122134599Y-104646253D01*
X122114893Y-104660868D01*
X122093850Y-104673480D01*
X122071671Y-104683970D01*
X122048572Y-104692235D01*
X122024773Y-104698196D01*
X122000505Y-104701796D01*
X121976001Y-104703000D01*
X120950999Y-104703000D01*
X120926495Y-104701796D01*
X120902227Y-104698196D01*
X120878428Y-104692235D01*
X120855329Y-104683970D01*
X120833150Y-104673480D01*
X120812107Y-104660868D01*
X120792401Y-104646253D01*
X120774223Y-104629777D01*
X120757747Y-104611599D01*
X120743132Y-104591893D01*
X120730520Y-104570850D01*
X120720030Y-104548671D01*
X120711765Y-104525572D01*
X120705804Y-104501773D01*
X120702204Y-104477505D01*
X120701000Y-104453001D01*
X120701000Y-102302999D01*
X120702204Y-102278495D01*
X120705804Y-102254227D01*
X120711765Y-102230428D01*
X120720030Y-102207329D01*
X120730520Y-102185150D01*
X120743132Y-102164107D01*
X120757747Y-102144401D01*
X120774223Y-102126223D01*
X120792401Y-102109747D01*
X120812107Y-102095132D01*
X120833150Y-102082520D01*
X120855329Y-102072030D01*
X120878428Y-102063765D01*
X120902227Y-102057804D01*
X120926495Y-102054204D01*
X120950999Y-102053000D01*
X121976001Y-102053000D01*
X122000505Y-102054204D01*
X122000505Y-102054204D01*
G37*
D27*
X121463500Y-103378000D03*
D14*
G36*
X117325505Y-102054204D02*
X117349773Y-102057804D01*
X117373572Y-102063765D01*
X117396671Y-102072030D01*
X117418850Y-102082520D01*
X117439893Y-102095132D01*
X117459599Y-102109747D01*
X117477777Y-102126223D01*
X117494253Y-102144401D01*
X117508868Y-102164107D01*
X117521480Y-102185150D01*
X117531970Y-102207329D01*
X117540235Y-102230428D01*
X117546196Y-102254227D01*
X117549796Y-102278495D01*
X117551000Y-102302999D01*
X117551000Y-104453001D01*
X117549796Y-104477505D01*
X117546196Y-104501773D01*
X117540235Y-104525572D01*
X117531970Y-104548671D01*
X117521480Y-104570850D01*
X117508868Y-104591893D01*
X117494253Y-104611599D01*
X117477777Y-104629777D01*
X117459599Y-104646253D01*
X117439893Y-104660868D01*
X117418850Y-104673480D01*
X117396671Y-104683970D01*
X117373572Y-104692235D01*
X117349773Y-104698196D01*
X117325505Y-104701796D01*
X117301001Y-104703000D01*
X116275999Y-104703000D01*
X116251495Y-104701796D01*
X116227227Y-104698196D01*
X116203428Y-104692235D01*
X116180329Y-104683970D01*
X116158150Y-104673480D01*
X116137107Y-104660868D01*
X116117401Y-104646253D01*
X116099223Y-104629777D01*
X116082747Y-104611599D01*
X116068132Y-104591893D01*
X116055520Y-104570850D01*
X116045030Y-104548671D01*
X116036765Y-104525572D01*
X116030804Y-104501773D01*
X116027204Y-104477505D01*
X116026000Y-104453001D01*
X116026000Y-102302999D01*
X116027204Y-102278495D01*
X116030804Y-102254227D01*
X116036765Y-102230428D01*
X116045030Y-102207329D01*
X116055520Y-102185150D01*
X116068132Y-102164107D01*
X116082747Y-102144401D01*
X116099223Y-102126223D01*
X116117401Y-102109747D01*
X116137107Y-102095132D01*
X116158150Y-102082520D01*
X116180329Y-102072030D01*
X116203428Y-102063765D01*
X116227227Y-102057804D01*
X116251495Y-102054204D01*
X116275999Y-102053000D01*
X117301001Y-102053000D01*
X117325505Y-102054204D01*
X117325505Y-102054204D01*
G37*
D27*
X116788500Y-103378000D03*
G04 #@! TD*
M02*
