G04 #@! TF.GenerationSoftware,KiCad,Pcbnew,(5.0.0)*
G04 #@! TF.CreationDate,2019-03-24T17:02:07+01:00*
G04 #@! TF.ProjectId,lcrmeter,6C63726D657465722E6B696361645F70,rev?*
G04 #@! TF.SameCoordinates,Original*
G04 #@! TF.FileFunction,Legend,Bot*
G04 #@! TF.FilePolarity,Positive*
%FSLAX46Y46*%
G04 Gerber Fmt 4.6, Leading zero omitted, Abs format (unit mm)*
G04 Created by KiCad (PCBNEW (5.0.0)) date 03/24/19 17:02:07*
%MOMM*%
%LPD*%
G01*
G04 APERTURE LIST*
%ADD10C,0.120000*%
%ADD11C,0.150000*%
G04 APERTURE END LIST*
D10*
G04 #@! TO.C,C1*
X163628000Y-129015748D02*
X163628000Y-129538252D01*
X165048000Y-129015748D02*
X165048000Y-129538252D01*
G04 #@! TO.C,C2*
X166318000Y-119378252D02*
X166318000Y-118855748D01*
X164898000Y-119378252D02*
X164898000Y-118855748D01*
G04 #@! TO.C,C3*
X149321733Y-133606000D02*
X149664267Y-133606000D01*
X149321733Y-132586000D02*
X149664267Y-132586000D01*
G04 #@! TO.C,C4*
X144528000Y-122905733D02*
X144528000Y-123248267D01*
X143508000Y-122905733D02*
X143508000Y-123248267D01*
G04 #@! TO.C,C5*
X156494267Y-118108000D02*
X156151733Y-118108000D01*
X156494267Y-119128000D02*
X156151733Y-119128000D01*
G04 #@! TO.C,C6*
X144524000Y-110012267D02*
X144524000Y-109669733D01*
X145544000Y-110012267D02*
X145544000Y-109669733D01*
G04 #@! TO.C,C7*
X158748000Y-128046267D02*
X158748000Y-127703733D01*
X159768000Y-128046267D02*
X159768000Y-127703733D01*
G04 #@! TO.C,C8*
X168371733Y-138686000D02*
X168714267Y-138686000D01*
X168371733Y-137666000D02*
X168714267Y-137666000D01*
G04 #@! TO.C,C9*
X159768000Y-122204267D02*
X159768000Y-121861733D01*
X158748000Y-122204267D02*
X158748000Y-121861733D01*
G04 #@! TO.C,C10*
X161800000Y-127703733D02*
X161800000Y-128046267D01*
X160780000Y-127703733D02*
X160780000Y-128046267D01*
G04 #@! TO.C,C11*
X153872000Y-114809748D02*
X153872000Y-115332252D01*
X152452000Y-114809748D02*
X152452000Y-115332252D01*
G04 #@! TO.C,C12*
X118027267Y-120140000D02*
X117684733Y-120140000D01*
X118027267Y-121160000D02*
X117684733Y-121160000D01*
G04 #@! TO.C,C13*
X163070000Y-142463733D02*
X163070000Y-142806267D01*
X162050000Y-142463733D02*
X162050000Y-142806267D01*
G04 #@! TO.C,C14*
X118281267Y-130304000D02*
X117938733Y-130304000D01*
X118281267Y-129284000D02*
X117938733Y-129284000D01*
G04 #@! TO.C,C15*
X140633267Y-140206000D02*
X140290733Y-140206000D01*
X140633267Y-141226000D02*
X140290733Y-141226000D01*
G04 #@! TO.C,D2*
X154376000Y-108984000D02*
X155306000Y-108984000D01*
X157536000Y-108984000D02*
X156606000Y-108984000D01*
X157536000Y-108984000D02*
X157536000Y-111144000D01*
X154376000Y-108984000D02*
X154376000Y-110444000D01*
G04 #@! TO.C,D3*
X156408000Y-113270000D02*
X157338000Y-113270000D01*
X159568000Y-113270000D02*
X158638000Y-113270000D01*
X159568000Y-113270000D02*
X159568000Y-115430000D01*
X156408000Y-113270000D02*
X156408000Y-114730000D01*
G04 #@! TO.C,D4*
X140218000Y-105682000D02*
X141148000Y-105682000D01*
X143378000Y-105682000D02*
X142448000Y-105682000D01*
X143378000Y-105682000D02*
X143378000Y-107842000D01*
X140218000Y-105682000D02*
X140218000Y-107142000D01*
G04 #@! TO.C,D5*
X155966000Y-105428000D02*
X155966000Y-106888000D01*
X159126000Y-105428000D02*
X159126000Y-107588000D01*
X159126000Y-105428000D02*
X158196000Y-105428000D01*
X155966000Y-105428000D02*
X156896000Y-105428000D01*
G04 #@! TO.C,L2*
X148065748Y-115010000D02*
X148588252Y-115010000D01*
X148065748Y-113590000D02*
X148588252Y-113590000D01*
G04 #@! TO.C,R1*
X137412252Y-105612000D02*
X136889748Y-105612000D01*
X137412252Y-104192000D02*
X136889748Y-104192000D01*
G04 #@! TO.C,R2*
X153160000Y-134932267D02*
X153160000Y-134589733D01*
X154180000Y-134932267D02*
X154180000Y-134589733D01*
G04 #@! TO.C,R3*
X149829733Y-116842000D02*
X150172267Y-116842000D01*
X149829733Y-115822000D02*
X150172267Y-115822000D01*
G04 #@! TO.C,R4*
X118140267Y-124716000D02*
X117797733Y-124716000D01*
X118140267Y-123696000D02*
X117797733Y-123696000D01*
G04 #@! TO.C,R5*
X172242267Y-141480000D02*
X171899733Y-141480000D01*
X172242267Y-140460000D02*
X171899733Y-140460000D01*
G04 #@! TO.C,R6*
X149636267Y-135634000D02*
X149293733Y-135634000D01*
X149636267Y-136654000D02*
X149293733Y-136654000D01*
G04 #@! TO.C,R7*
X137651748Y-117908000D02*
X138174252Y-117908000D01*
X137651748Y-119328000D02*
X138174252Y-119328000D01*
G04 #@! TO.C,R8*
X137651748Y-117042000D02*
X138174252Y-117042000D01*
X137651748Y-115622000D02*
X138174252Y-115622000D01*
G04 #@! TO.C,R9*
X150624000Y-140939733D02*
X150624000Y-141282267D01*
X149604000Y-140939733D02*
X149604000Y-141282267D01*
G04 #@! TO.C,R10*
X118140267Y-121918000D02*
X117797733Y-121918000D01*
X118140267Y-122938000D02*
X117797733Y-122938000D01*
G04 #@! TO.C,R11*
X166847733Y-141480000D02*
X167190267Y-141480000D01*
X166847733Y-140460000D02*
X167190267Y-140460000D01*
G04 #@! TO.C,R12*
X118168267Y-128018000D02*
X117825733Y-128018000D01*
X118168267Y-126998000D02*
X117825733Y-126998000D01*
G04 #@! TO.C,R13*
X145032000Y-140939733D02*
X145032000Y-141282267D01*
X146052000Y-140939733D02*
X146052000Y-141282267D01*
G04 #@! TO.C,R14*
X139429748Y-126290000D02*
X139952252Y-126290000D01*
X139429748Y-127710000D02*
X139952252Y-127710000D01*
G04 #@! TO.C,R15*
X139970252Y-121972000D02*
X139447748Y-121972000D01*
X139970252Y-123392000D02*
X139447748Y-123392000D01*
G04 #@! TO.C,R16*
X139429748Y-125678000D02*
X139952252Y-125678000D01*
X139429748Y-124258000D02*
X139952252Y-124258000D01*
D11*
G04 #@! TO.C,U1*
X140755000Y-109881000D02*
X140755000Y-109981000D01*
X136105000Y-109881000D02*
X136105000Y-110081000D01*
X136105000Y-113131000D02*
X136105000Y-112931000D01*
X140755000Y-113131000D02*
X140755000Y-112931000D01*
X140755000Y-109881000D02*
X136105000Y-109881000D01*
X140755000Y-113131000D02*
X136105000Y-113131000D01*
X140755000Y-109981000D02*
X142105000Y-109981000D01*
D10*
G04 #@! TO.C,U2*
X148332000Y-122424000D02*
X148332000Y-122844000D01*
X148332000Y-129544000D02*
X148332000Y-129124000D01*
X155452000Y-129544000D02*
X155452000Y-129124000D01*
X155452000Y-122424000D02*
X155032000Y-122424000D01*
X148332000Y-129544000D02*
X148752000Y-129544000D01*
X148332000Y-122424000D02*
X148752000Y-122424000D01*
X155452000Y-122844000D02*
X156832000Y-122844000D01*
X155452000Y-122424000D02*
X155452000Y-122844000D01*
X155452000Y-129544000D02*
X155032000Y-129544000D01*
D11*
G04 #@! TO.C,U4*
X124257000Y-128148000D02*
X124257000Y-128123000D01*
X128407000Y-128148000D02*
X128407000Y-128033000D01*
X128407000Y-119248000D02*
X128407000Y-119363000D01*
X124257000Y-119248000D02*
X124257000Y-119363000D01*
X124257000Y-128148000D02*
X128407000Y-128148000D01*
X124257000Y-119248000D02*
X128407000Y-119248000D01*
X124257000Y-128123000D02*
X122882000Y-128123000D01*
D10*
G04 #@! TO.C,R19*
X157969928Y-133723999D02*
X157969928Y-133201495D01*
X159389928Y-133723999D02*
X159389928Y-133201495D01*
G04 #@! TO.C,R17*
X162562000Y-114881733D02*
X162562000Y-115224267D01*
X161542000Y-114881733D02*
X161542000Y-115224267D01*
G04 #@! TO.C,R18*
X161542000Y-119208733D02*
X161542000Y-119551267D01*
X162562000Y-119208733D02*
X162562000Y-119551267D01*
G04 #@! TO.C,R20*
X156096929Y-133291480D02*
X156096929Y-133634014D01*
X157116929Y-133291480D02*
X157116929Y-133634014D01*
G04 #@! TO.C,R22*
X115822000Y-112096733D02*
X115822000Y-112439267D01*
X116842000Y-112096733D02*
X116842000Y-112439267D01*
G04 #@! TO.C,R23*
X119124000Y-114015733D02*
X119124000Y-114358267D01*
X120144000Y-114015733D02*
X120144000Y-114358267D01*
G04 #@! TO.C,U5*
X119010000Y-109306000D02*
X117210000Y-109306000D01*
X117210000Y-106086000D02*
X119660000Y-106086000D01*
G04 #@! TO.C,R21*
X120528064Y-102018000D02*
X117723936Y-102018000D01*
X120528064Y-104738000D02*
X117723936Y-104738000D01*
G04 #@! TO.C,C1*
D11*
X166219142Y-130389333D02*
X166266761Y-130341714D01*
X166314380Y-130198857D01*
X166314380Y-130103619D01*
X166266761Y-129960761D01*
X166171523Y-129865523D01*
X166076285Y-129817904D01*
X165885809Y-129770285D01*
X165742952Y-129770285D01*
X165552476Y-129817904D01*
X165457238Y-129865523D01*
X165362000Y-129960761D01*
X165314380Y-130103619D01*
X165314380Y-130198857D01*
X165362000Y-130341714D01*
X165409619Y-130389333D01*
X166314380Y-131341714D02*
X166314380Y-130770285D01*
X166314380Y-131056000D02*
X165314380Y-131056000D01*
X165457238Y-130960761D01*
X165552476Y-130865523D01*
X165600095Y-130770285D01*
G04 #@! TO.C,C2*
X167615142Y-118950333D02*
X167662761Y-118902714D01*
X167710380Y-118759857D01*
X167710380Y-118664619D01*
X167662761Y-118521761D01*
X167567523Y-118426523D01*
X167472285Y-118378904D01*
X167281809Y-118331285D01*
X167138952Y-118331285D01*
X166948476Y-118378904D01*
X166853238Y-118426523D01*
X166758000Y-118521761D01*
X166710380Y-118664619D01*
X166710380Y-118759857D01*
X166758000Y-118902714D01*
X166805619Y-118950333D01*
X166805619Y-119331285D02*
X166758000Y-119378904D01*
X166710380Y-119474142D01*
X166710380Y-119712238D01*
X166758000Y-119807476D01*
X166805619Y-119855095D01*
X166900857Y-119902714D01*
X166996095Y-119902714D01*
X167138952Y-119855095D01*
X167710380Y-119283666D01*
X167710380Y-119902714D01*
G04 #@! TO.C,C3*
X149659666Y-134883142D02*
X149707285Y-134930761D01*
X149850142Y-134978380D01*
X149945380Y-134978380D01*
X150088238Y-134930761D01*
X150183476Y-134835523D01*
X150231095Y-134740285D01*
X150278714Y-134549809D01*
X150278714Y-134406952D01*
X150231095Y-134216476D01*
X150183476Y-134121238D01*
X150088238Y-134026000D01*
X149945380Y-133978380D01*
X149850142Y-133978380D01*
X149707285Y-134026000D01*
X149659666Y-134073619D01*
X149326333Y-133978380D02*
X148707285Y-133978380D01*
X149040619Y-134359333D01*
X148897761Y-134359333D01*
X148802523Y-134406952D01*
X148754904Y-134454571D01*
X148707285Y-134549809D01*
X148707285Y-134787904D01*
X148754904Y-134883142D01*
X148802523Y-134930761D01*
X148897761Y-134978380D01*
X149183476Y-134978380D01*
X149278714Y-134930761D01*
X149326333Y-134883142D01*
G04 #@! TO.C,C4*
X142945142Y-122910333D02*
X142992761Y-122862714D01*
X143040380Y-122719857D01*
X143040380Y-122624619D01*
X142992761Y-122481761D01*
X142897523Y-122386523D01*
X142802285Y-122338904D01*
X142611809Y-122291285D01*
X142468952Y-122291285D01*
X142278476Y-122338904D01*
X142183238Y-122386523D01*
X142088000Y-122481761D01*
X142040380Y-122624619D01*
X142040380Y-122719857D01*
X142088000Y-122862714D01*
X142135619Y-122910333D01*
X142373714Y-123767476D02*
X143040380Y-123767476D01*
X141992761Y-123529380D02*
X142707047Y-123291285D01*
X142707047Y-123910333D01*
G04 #@! TO.C,C5*
X156376666Y-117705142D02*
X156424285Y-117752761D01*
X156567142Y-117800380D01*
X156662380Y-117800380D01*
X156805238Y-117752761D01*
X156900476Y-117657523D01*
X156948095Y-117562285D01*
X156995714Y-117371809D01*
X156995714Y-117228952D01*
X156948095Y-117038476D01*
X156900476Y-116943238D01*
X156805238Y-116848000D01*
X156662380Y-116800380D01*
X156567142Y-116800380D01*
X156424285Y-116848000D01*
X156376666Y-116895619D01*
X155471904Y-116800380D02*
X155948095Y-116800380D01*
X155995714Y-117276571D01*
X155948095Y-117228952D01*
X155852857Y-117181333D01*
X155614761Y-117181333D01*
X155519523Y-117228952D01*
X155471904Y-117276571D01*
X155424285Y-117371809D01*
X155424285Y-117609904D01*
X155471904Y-117705142D01*
X155519523Y-117752761D01*
X155614761Y-117800380D01*
X155852857Y-117800380D01*
X155948095Y-117752761D01*
X155995714Y-117705142D01*
G04 #@! TO.C,C6*
X146821142Y-109674333D02*
X146868761Y-109626714D01*
X146916380Y-109483857D01*
X146916380Y-109388619D01*
X146868761Y-109245761D01*
X146773523Y-109150523D01*
X146678285Y-109102904D01*
X146487809Y-109055285D01*
X146344952Y-109055285D01*
X146154476Y-109102904D01*
X146059238Y-109150523D01*
X145964000Y-109245761D01*
X145916380Y-109388619D01*
X145916380Y-109483857D01*
X145964000Y-109626714D01*
X146011619Y-109674333D01*
X145916380Y-110531476D02*
X145916380Y-110341000D01*
X145964000Y-110245761D01*
X146011619Y-110198142D01*
X146154476Y-110102904D01*
X146344952Y-110055285D01*
X146725904Y-110055285D01*
X146821142Y-110102904D01*
X146868761Y-110150523D01*
X146916380Y-110245761D01*
X146916380Y-110436238D01*
X146868761Y-110531476D01*
X146821142Y-110579095D01*
X146725904Y-110626714D01*
X146487809Y-110626714D01*
X146392571Y-110579095D01*
X146344952Y-110531476D01*
X146297333Y-110436238D01*
X146297333Y-110245761D01*
X146344952Y-110150523D01*
X146392571Y-110102904D01*
X146487809Y-110055285D01*
G04 #@! TO.C,C7*
X159615142Y-130389333D02*
X159662761Y-130341714D01*
X159710380Y-130198857D01*
X159710380Y-130103619D01*
X159662761Y-129960761D01*
X159567523Y-129865523D01*
X159472285Y-129817904D01*
X159281809Y-129770285D01*
X159138952Y-129770285D01*
X158948476Y-129817904D01*
X158853238Y-129865523D01*
X158758000Y-129960761D01*
X158710380Y-130103619D01*
X158710380Y-130198857D01*
X158758000Y-130341714D01*
X158805619Y-130389333D01*
X158710380Y-130722666D02*
X158710380Y-131389333D01*
X159710380Y-130960761D01*
G04 #@! TO.C,C8*
X168709666Y-139963142D02*
X168757285Y-140010761D01*
X168900142Y-140058380D01*
X168995380Y-140058380D01*
X169138238Y-140010761D01*
X169233476Y-139915523D01*
X169281095Y-139820285D01*
X169328714Y-139629809D01*
X169328714Y-139486952D01*
X169281095Y-139296476D01*
X169233476Y-139201238D01*
X169138238Y-139106000D01*
X168995380Y-139058380D01*
X168900142Y-139058380D01*
X168757285Y-139106000D01*
X168709666Y-139153619D01*
X168138238Y-139486952D02*
X168233476Y-139439333D01*
X168281095Y-139391714D01*
X168328714Y-139296476D01*
X168328714Y-139248857D01*
X168281095Y-139153619D01*
X168233476Y-139106000D01*
X168138238Y-139058380D01*
X167947761Y-139058380D01*
X167852523Y-139106000D01*
X167804904Y-139153619D01*
X167757285Y-139248857D01*
X167757285Y-139296476D01*
X167804904Y-139391714D01*
X167852523Y-139439333D01*
X167947761Y-139486952D01*
X168138238Y-139486952D01*
X168233476Y-139534571D01*
X168281095Y-139582190D01*
X168328714Y-139677428D01*
X168328714Y-139867904D01*
X168281095Y-139963142D01*
X168233476Y-140010761D01*
X168138238Y-140058380D01*
X167947761Y-140058380D01*
X167852523Y-140010761D01*
X167804904Y-139963142D01*
X167757285Y-139867904D01*
X167757285Y-139677428D01*
X167804904Y-139582190D01*
X167852523Y-139534571D01*
X167947761Y-139486952D01*
G04 #@! TO.C,C9*
X161045142Y-121866333D02*
X161092761Y-121818714D01*
X161140380Y-121675857D01*
X161140380Y-121580619D01*
X161092761Y-121437761D01*
X160997523Y-121342523D01*
X160902285Y-121294904D01*
X160711809Y-121247285D01*
X160568952Y-121247285D01*
X160378476Y-121294904D01*
X160283238Y-121342523D01*
X160188000Y-121437761D01*
X160140380Y-121580619D01*
X160140380Y-121675857D01*
X160188000Y-121818714D01*
X160235619Y-121866333D01*
X161140380Y-122342523D02*
X161140380Y-122533000D01*
X161092761Y-122628238D01*
X161045142Y-122675857D01*
X160902285Y-122771095D01*
X160711809Y-122818714D01*
X160330857Y-122818714D01*
X160235619Y-122771095D01*
X160188000Y-122723476D01*
X160140380Y-122628238D01*
X160140380Y-122437761D01*
X160188000Y-122342523D01*
X160235619Y-122294904D01*
X160330857Y-122247285D01*
X160568952Y-122247285D01*
X160664190Y-122294904D01*
X160711809Y-122342523D01*
X160759428Y-122437761D01*
X160759428Y-122628238D01*
X160711809Y-122723476D01*
X160664190Y-122771095D01*
X160568952Y-122818714D01*
G04 #@! TO.C,C10*
X163171142Y-125595142D02*
X163218761Y-125547523D01*
X163266380Y-125404666D01*
X163266380Y-125309428D01*
X163218761Y-125166571D01*
X163123523Y-125071333D01*
X163028285Y-125023714D01*
X162837809Y-124976095D01*
X162694952Y-124976095D01*
X162504476Y-125023714D01*
X162409238Y-125071333D01*
X162314000Y-125166571D01*
X162266380Y-125309428D01*
X162266380Y-125404666D01*
X162314000Y-125547523D01*
X162361619Y-125595142D01*
X163266380Y-126547523D02*
X163266380Y-125976095D01*
X163266380Y-126261809D02*
X162266380Y-126261809D01*
X162409238Y-126166571D01*
X162504476Y-126071333D01*
X162552095Y-125976095D01*
X162266380Y-127166571D02*
X162266380Y-127261809D01*
X162314000Y-127357047D01*
X162361619Y-127404666D01*
X162456857Y-127452285D01*
X162647333Y-127499904D01*
X162885428Y-127499904D01*
X163075904Y-127452285D01*
X163171142Y-127404666D01*
X163218761Y-127357047D01*
X163266380Y-127261809D01*
X163266380Y-127166571D01*
X163218761Y-127071333D01*
X163171142Y-127023714D01*
X163075904Y-126976095D01*
X162885428Y-126928476D01*
X162647333Y-126928476D01*
X162456857Y-126976095D01*
X162361619Y-127023714D01*
X162314000Y-127071333D01*
X162266380Y-127166571D01*
G04 #@! TO.C,C11*
X151869142Y-112895142D02*
X151916761Y-112847523D01*
X151964380Y-112704666D01*
X151964380Y-112609428D01*
X151916761Y-112466571D01*
X151821523Y-112371333D01*
X151726285Y-112323714D01*
X151535809Y-112276095D01*
X151392952Y-112276095D01*
X151202476Y-112323714D01*
X151107238Y-112371333D01*
X151012000Y-112466571D01*
X150964380Y-112609428D01*
X150964380Y-112704666D01*
X151012000Y-112847523D01*
X151059619Y-112895142D01*
X151964380Y-113847523D02*
X151964380Y-113276095D01*
X151964380Y-113561809D02*
X150964380Y-113561809D01*
X151107238Y-113466571D01*
X151202476Y-113371333D01*
X151250095Y-113276095D01*
X151964380Y-114799904D02*
X151964380Y-114228476D01*
X151964380Y-114514190D02*
X150964380Y-114514190D01*
X151107238Y-114418952D01*
X151202476Y-114323714D01*
X151250095Y-114228476D01*
G04 #@! TO.C,C12*
X115196857Y-119229142D02*
X115244476Y-119276761D01*
X115387333Y-119324380D01*
X115482571Y-119324380D01*
X115625428Y-119276761D01*
X115720666Y-119181523D01*
X115768285Y-119086285D01*
X115815904Y-118895809D01*
X115815904Y-118752952D01*
X115768285Y-118562476D01*
X115720666Y-118467238D01*
X115625428Y-118372000D01*
X115482571Y-118324380D01*
X115387333Y-118324380D01*
X115244476Y-118372000D01*
X115196857Y-118419619D01*
X114244476Y-119324380D02*
X114815904Y-119324380D01*
X114530190Y-119324380D02*
X114530190Y-118324380D01*
X114625428Y-118467238D01*
X114720666Y-118562476D01*
X114815904Y-118610095D01*
X113863523Y-118419619D02*
X113815904Y-118372000D01*
X113720666Y-118324380D01*
X113482571Y-118324380D01*
X113387333Y-118372000D01*
X113339714Y-118419619D01*
X113292095Y-118514857D01*
X113292095Y-118610095D01*
X113339714Y-118752952D01*
X113911142Y-119324380D01*
X113292095Y-119324380D01*
G04 #@! TO.C,C13*
X161487142Y-141992142D02*
X161534761Y-141944523D01*
X161582380Y-141801666D01*
X161582380Y-141706428D01*
X161534761Y-141563571D01*
X161439523Y-141468333D01*
X161344285Y-141420714D01*
X161153809Y-141373095D01*
X161010952Y-141373095D01*
X160820476Y-141420714D01*
X160725238Y-141468333D01*
X160630000Y-141563571D01*
X160582380Y-141706428D01*
X160582380Y-141801666D01*
X160630000Y-141944523D01*
X160677619Y-141992142D01*
X161582380Y-142944523D02*
X161582380Y-142373095D01*
X161582380Y-142658809D02*
X160582380Y-142658809D01*
X160725238Y-142563571D01*
X160820476Y-142468333D01*
X160868095Y-142373095D01*
X160582380Y-143277857D02*
X160582380Y-143896904D01*
X160963333Y-143563571D01*
X160963333Y-143706428D01*
X161010952Y-143801666D01*
X161058571Y-143849285D01*
X161153809Y-143896904D01*
X161391904Y-143896904D01*
X161487142Y-143849285D01*
X161534761Y-143801666D01*
X161582380Y-143706428D01*
X161582380Y-143420714D01*
X161534761Y-143325476D01*
X161487142Y-143277857D01*
G04 #@! TO.C,C14*
X115196857Y-128119142D02*
X115244476Y-128166761D01*
X115387333Y-128214380D01*
X115482571Y-128214380D01*
X115625428Y-128166761D01*
X115720666Y-128071523D01*
X115768285Y-127976285D01*
X115815904Y-127785809D01*
X115815904Y-127642952D01*
X115768285Y-127452476D01*
X115720666Y-127357238D01*
X115625428Y-127262000D01*
X115482571Y-127214380D01*
X115387333Y-127214380D01*
X115244476Y-127262000D01*
X115196857Y-127309619D01*
X114244476Y-128214380D02*
X114815904Y-128214380D01*
X114530190Y-128214380D02*
X114530190Y-127214380D01*
X114625428Y-127357238D01*
X114720666Y-127452476D01*
X114815904Y-127500095D01*
X113387333Y-127547714D02*
X113387333Y-128214380D01*
X113625428Y-127166761D02*
X113863523Y-127881047D01*
X113244476Y-127881047D01*
G04 #@! TO.C,C15*
X141104857Y-139643142D02*
X141152476Y-139690761D01*
X141295333Y-139738380D01*
X141390571Y-139738380D01*
X141533428Y-139690761D01*
X141628666Y-139595523D01*
X141676285Y-139500285D01*
X141723904Y-139309809D01*
X141723904Y-139166952D01*
X141676285Y-138976476D01*
X141628666Y-138881238D01*
X141533428Y-138786000D01*
X141390571Y-138738380D01*
X141295333Y-138738380D01*
X141152476Y-138786000D01*
X141104857Y-138833619D01*
X140152476Y-139738380D02*
X140723904Y-139738380D01*
X140438190Y-139738380D02*
X140438190Y-138738380D01*
X140533428Y-138881238D01*
X140628666Y-138976476D01*
X140723904Y-139024095D01*
X139247714Y-138738380D02*
X139723904Y-138738380D01*
X139771523Y-139214571D01*
X139723904Y-139166952D01*
X139628666Y-139119333D01*
X139390571Y-139119333D01*
X139295333Y-139166952D01*
X139247714Y-139214571D01*
X139200095Y-139309809D01*
X139200095Y-139547904D01*
X139247714Y-139643142D01*
X139295333Y-139690761D01*
X139390571Y-139738380D01*
X139628666Y-139738380D01*
X139723904Y-139690761D01*
X139771523Y-139643142D01*
G04 #@! TO.C,D2*
X158908380Y-109005904D02*
X157908380Y-109005904D01*
X157908380Y-109244000D01*
X157956000Y-109386857D01*
X158051238Y-109482095D01*
X158146476Y-109529714D01*
X158336952Y-109577333D01*
X158479809Y-109577333D01*
X158670285Y-109529714D01*
X158765523Y-109482095D01*
X158860761Y-109386857D01*
X158908380Y-109244000D01*
X158908380Y-109005904D01*
X158003619Y-109958285D02*
X157956000Y-110005904D01*
X157908380Y-110101142D01*
X157908380Y-110339238D01*
X157956000Y-110434476D01*
X158003619Y-110482095D01*
X158098857Y-110529714D01*
X158194095Y-110529714D01*
X158336952Y-110482095D01*
X158908380Y-109910666D01*
X158908380Y-110529714D01*
G04 #@! TO.C,D3*
X160940380Y-113291904D02*
X159940380Y-113291904D01*
X159940380Y-113530000D01*
X159988000Y-113672857D01*
X160083238Y-113768095D01*
X160178476Y-113815714D01*
X160368952Y-113863333D01*
X160511809Y-113863333D01*
X160702285Y-113815714D01*
X160797523Y-113768095D01*
X160892761Y-113672857D01*
X160940380Y-113530000D01*
X160940380Y-113291904D01*
X159940380Y-114196666D02*
X159940380Y-114815714D01*
X160321333Y-114482380D01*
X160321333Y-114625238D01*
X160368952Y-114720476D01*
X160416571Y-114768095D01*
X160511809Y-114815714D01*
X160749904Y-114815714D01*
X160845142Y-114768095D01*
X160892761Y-114720476D01*
X160940380Y-114625238D01*
X160940380Y-114339523D01*
X160892761Y-114244285D01*
X160845142Y-114196666D01*
G04 #@! TO.C,D4*
X144750380Y-105703904D02*
X143750380Y-105703904D01*
X143750380Y-105942000D01*
X143798000Y-106084857D01*
X143893238Y-106180095D01*
X143988476Y-106227714D01*
X144178952Y-106275333D01*
X144321809Y-106275333D01*
X144512285Y-106227714D01*
X144607523Y-106180095D01*
X144702761Y-106084857D01*
X144750380Y-105942000D01*
X144750380Y-105703904D01*
X144083714Y-107132476D02*
X144750380Y-107132476D01*
X143702761Y-106894380D02*
X144417047Y-106656285D01*
X144417047Y-107275333D01*
G04 #@! TO.C,D5*
X160498380Y-105449904D02*
X159498380Y-105449904D01*
X159498380Y-105688000D01*
X159546000Y-105830857D01*
X159641238Y-105926095D01*
X159736476Y-105973714D01*
X159926952Y-106021333D01*
X160069809Y-106021333D01*
X160260285Y-105973714D01*
X160355523Y-105926095D01*
X160450761Y-105830857D01*
X160498380Y-105688000D01*
X160498380Y-105449904D01*
X159498380Y-106926095D02*
X159498380Y-106449904D01*
X159974571Y-106402285D01*
X159926952Y-106449904D01*
X159879333Y-106545142D01*
X159879333Y-106783238D01*
X159926952Y-106878476D01*
X159974571Y-106926095D01*
X160069809Y-106973714D01*
X160307904Y-106973714D01*
X160403142Y-106926095D01*
X160450761Y-106878476D01*
X160498380Y-106783238D01*
X160498380Y-106545142D01*
X160450761Y-106449904D01*
X160403142Y-106402285D01*
G04 #@! TO.C,L2*
X145962666Y-116402380D02*
X146438857Y-116402380D01*
X146438857Y-115402380D01*
X145676952Y-115497619D02*
X145629333Y-115450000D01*
X145534095Y-115402380D01*
X145296000Y-115402380D01*
X145200761Y-115450000D01*
X145153142Y-115497619D01*
X145105523Y-115592857D01*
X145105523Y-115688095D01*
X145153142Y-115830952D01*
X145724571Y-116402380D01*
X145105523Y-116402380D01*
G04 #@! TO.C,R1*
X137317666Y-103704380D02*
X137651000Y-103228190D01*
X137889095Y-103704380D02*
X137889095Y-102704380D01*
X137508142Y-102704380D01*
X137412904Y-102752000D01*
X137365285Y-102799619D01*
X137317666Y-102894857D01*
X137317666Y-103037714D01*
X137365285Y-103132952D01*
X137412904Y-103180571D01*
X137508142Y-103228190D01*
X137889095Y-103228190D01*
X136365285Y-103704380D02*
X136936714Y-103704380D01*
X136651000Y-103704380D02*
X136651000Y-102704380D01*
X136746238Y-102847238D01*
X136841476Y-102942476D01*
X136936714Y-102990095D01*
G04 #@! TO.C,R2*
X154376380Y-137247333D02*
X153900190Y-136914000D01*
X154376380Y-136675904D02*
X153376380Y-136675904D01*
X153376380Y-137056857D01*
X153424000Y-137152095D01*
X153471619Y-137199714D01*
X153566857Y-137247333D01*
X153709714Y-137247333D01*
X153804952Y-137199714D01*
X153852571Y-137152095D01*
X153900190Y-137056857D01*
X153900190Y-136675904D01*
X153471619Y-137628285D02*
X153424000Y-137675904D01*
X153376380Y-137771142D01*
X153376380Y-138009238D01*
X153424000Y-138104476D01*
X153471619Y-138152095D01*
X153566857Y-138199714D01*
X153662095Y-138199714D01*
X153804952Y-138152095D01*
X154376380Y-137580666D01*
X154376380Y-138199714D01*
G04 #@! TO.C,R3*
X150167666Y-118214380D02*
X150501000Y-117738190D01*
X150739095Y-118214380D02*
X150739095Y-117214380D01*
X150358142Y-117214380D01*
X150262904Y-117262000D01*
X150215285Y-117309619D01*
X150167666Y-117404857D01*
X150167666Y-117547714D01*
X150215285Y-117642952D01*
X150262904Y-117690571D01*
X150358142Y-117738190D01*
X150739095Y-117738190D01*
X149834333Y-117214380D02*
X149215285Y-117214380D01*
X149548619Y-117595333D01*
X149405761Y-117595333D01*
X149310523Y-117642952D01*
X149262904Y-117690571D01*
X149215285Y-117785809D01*
X149215285Y-118023904D01*
X149262904Y-118119142D01*
X149310523Y-118166761D01*
X149405761Y-118214380D01*
X149691476Y-118214380D01*
X149786714Y-118166761D01*
X149834333Y-118119142D01*
G04 #@! TO.C,R4*
X114466666Y-122626380D02*
X114800000Y-122150190D01*
X115038095Y-122626380D02*
X115038095Y-121626380D01*
X114657142Y-121626380D01*
X114561904Y-121674000D01*
X114514285Y-121721619D01*
X114466666Y-121816857D01*
X114466666Y-121959714D01*
X114514285Y-122054952D01*
X114561904Y-122102571D01*
X114657142Y-122150190D01*
X115038095Y-122150190D01*
X113609523Y-121959714D02*
X113609523Y-122626380D01*
X113847619Y-121578761D02*
X114085714Y-122293047D01*
X113466666Y-122293047D01*
G04 #@! TO.C,R5*
X172237666Y-139992380D02*
X172571000Y-139516190D01*
X172809095Y-139992380D02*
X172809095Y-138992380D01*
X172428142Y-138992380D01*
X172332904Y-139040000D01*
X172285285Y-139087619D01*
X172237666Y-139182857D01*
X172237666Y-139325714D01*
X172285285Y-139420952D01*
X172332904Y-139468571D01*
X172428142Y-139516190D01*
X172809095Y-139516190D01*
X171332904Y-138992380D02*
X171809095Y-138992380D01*
X171856714Y-139468571D01*
X171809095Y-139420952D01*
X171713857Y-139373333D01*
X171475761Y-139373333D01*
X171380523Y-139420952D01*
X171332904Y-139468571D01*
X171285285Y-139563809D01*
X171285285Y-139801904D01*
X171332904Y-139897142D01*
X171380523Y-139944761D01*
X171475761Y-139992380D01*
X171713857Y-139992380D01*
X171809095Y-139944761D01*
X171856714Y-139897142D01*
G04 #@! TO.C,R6*
X149631666Y-138374380D02*
X149965000Y-137898190D01*
X150203095Y-138374380D02*
X150203095Y-137374380D01*
X149822142Y-137374380D01*
X149726904Y-137422000D01*
X149679285Y-137469619D01*
X149631666Y-137564857D01*
X149631666Y-137707714D01*
X149679285Y-137802952D01*
X149726904Y-137850571D01*
X149822142Y-137898190D01*
X150203095Y-137898190D01*
X148774523Y-137374380D02*
X148965000Y-137374380D01*
X149060238Y-137422000D01*
X149107857Y-137469619D01*
X149203095Y-137612476D01*
X149250714Y-137802952D01*
X149250714Y-138183904D01*
X149203095Y-138279142D01*
X149155476Y-138326761D01*
X149060238Y-138374380D01*
X148869761Y-138374380D01*
X148774523Y-138326761D01*
X148726904Y-138279142D01*
X148679285Y-138183904D01*
X148679285Y-137945809D01*
X148726904Y-137850571D01*
X148774523Y-137802952D01*
X148869761Y-137755333D01*
X149060238Y-137755333D01*
X149155476Y-137802952D01*
X149203095Y-137850571D01*
X149250714Y-137945809D01*
G04 #@! TO.C,R7*
X136818666Y-120720380D02*
X137152000Y-120244190D01*
X137390095Y-120720380D02*
X137390095Y-119720380D01*
X137009142Y-119720380D01*
X136913904Y-119768000D01*
X136866285Y-119815619D01*
X136818666Y-119910857D01*
X136818666Y-120053714D01*
X136866285Y-120148952D01*
X136913904Y-120196571D01*
X137009142Y-120244190D01*
X137390095Y-120244190D01*
X136485333Y-119720380D02*
X135818666Y-119720380D01*
X136247238Y-120720380D01*
G04 #@! TO.C,R8*
X138079666Y-115260380D02*
X138413000Y-114784190D01*
X138651095Y-115260380D02*
X138651095Y-114260380D01*
X138270142Y-114260380D01*
X138174904Y-114308000D01*
X138127285Y-114355619D01*
X138079666Y-114450857D01*
X138079666Y-114593714D01*
X138127285Y-114688952D01*
X138174904Y-114736571D01*
X138270142Y-114784190D01*
X138651095Y-114784190D01*
X137508238Y-114688952D02*
X137603476Y-114641333D01*
X137651095Y-114593714D01*
X137698714Y-114498476D01*
X137698714Y-114450857D01*
X137651095Y-114355619D01*
X137603476Y-114308000D01*
X137508238Y-114260380D01*
X137317761Y-114260380D01*
X137222523Y-114308000D01*
X137174904Y-114355619D01*
X137127285Y-114450857D01*
X137127285Y-114498476D01*
X137174904Y-114593714D01*
X137222523Y-114641333D01*
X137317761Y-114688952D01*
X137508238Y-114688952D01*
X137603476Y-114736571D01*
X137651095Y-114784190D01*
X137698714Y-114879428D01*
X137698714Y-115069904D01*
X137651095Y-115165142D01*
X137603476Y-115212761D01*
X137508238Y-115260380D01*
X137317761Y-115260380D01*
X137222523Y-115212761D01*
X137174904Y-115165142D01*
X137127285Y-115069904D01*
X137127285Y-114879428D01*
X137174904Y-114784190D01*
X137222523Y-114736571D01*
X137317761Y-114688952D01*
G04 #@! TO.C,R9*
X149136380Y-140944333D02*
X148660190Y-140611000D01*
X149136380Y-140372904D02*
X148136380Y-140372904D01*
X148136380Y-140753857D01*
X148184000Y-140849095D01*
X148231619Y-140896714D01*
X148326857Y-140944333D01*
X148469714Y-140944333D01*
X148564952Y-140896714D01*
X148612571Y-140849095D01*
X148660190Y-140753857D01*
X148660190Y-140372904D01*
X149136380Y-141420523D02*
X149136380Y-141611000D01*
X149088761Y-141706238D01*
X149041142Y-141753857D01*
X148898285Y-141849095D01*
X148707809Y-141896714D01*
X148326857Y-141896714D01*
X148231619Y-141849095D01*
X148184000Y-141801476D01*
X148136380Y-141706238D01*
X148136380Y-141515761D01*
X148184000Y-141420523D01*
X148231619Y-141372904D01*
X148326857Y-141325285D01*
X148564952Y-141325285D01*
X148660190Y-141372904D01*
X148707809Y-141420523D01*
X148755428Y-141515761D01*
X148755428Y-141706238D01*
X148707809Y-141801476D01*
X148660190Y-141849095D01*
X148564952Y-141896714D01*
G04 #@! TO.C,R10*
X114942857Y-121102380D02*
X115276190Y-120626190D01*
X115514285Y-121102380D02*
X115514285Y-120102380D01*
X115133333Y-120102380D01*
X115038095Y-120150000D01*
X114990476Y-120197619D01*
X114942857Y-120292857D01*
X114942857Y-120435714D01*
X114990476Y-120530952D01*
X115038095Y-120578571D01*
X115133333Y-120626190D01*
X115514285Y-120626190D01*
X113990476Y-121102380D02*
X114561904Y-121102380D01*
X114276190Y-121102380D02*
X114276190Y-120102380D01*
X114371428Y-120245238D01*
X114466666Y-120340476D01*
X114561904Y-120388095D01*
X113371428Y-120102380D02*
X113276190Y-120102380D01*
X113180952Y-120150000D01*
X113133333Y-120197619D01*
X113085714Y-120292857D01*
X113038095Y-120483333D01*
X113038095Y-120721428D01*
X113085714Y-120911904D01*
X113133333Y-121007142D01*
X113180952Y-121054761D01*
X113276190Y-121102380D01*
X113371428Y-121102380D01*
X113466666Y-121054761D01*
X113514285Y-121007142D01*
X113561904Y-120911904D01*
X113609523Y-120721428D01*
X113609523Y-120483333D01*
X113561904Y-120292857D01*
X113514285Y-120197619D01*
X113466666Y-120150000D01*
X113371428Y-120102380D01*
G04 #@! TO.C,R11*
X167661857Y-142852380D02*
X167995190Y-142376190D01*
X168233285Y-142852380D02*
X168233285Y-141852380D01*
X167852333Y-141852380D01*
X167757095Y-141900000D01*
X167709476Y-141947619D01*
X167661857Y-142042857D01*
X167661857Y-142185714D01*
X167709476Y-142280952D01*
X167757095Y-142328571D01*
X167852333Y-142376190D01*
X168233285Y-142376190D01*
X166709476Y-142852380D02*
X167280904Y-142852380D01*
X166995190Y-142852380D02*
X166995190Y-141852380D01*
X167090428Y-141995238D01*
X167185666Y-142090476D01*
X167280904Y-142138095D01*
X165757095Y-142852380D02*
X166328523Y-142852380D01*
X166042809Y-142852380D02*
X166042809Y-141852380D01*
X166138047Y-141995238D01*
X166233285Y-142090476D01*
X166328523Y-142138095D01*
G04 #@! TO.C,R12*
X115196857Y-126182380D02*
X115530190Y-125706190D01*
X115768285Y-126182380D02*
X115768285Y-125182380D01*
X115387333Y-125182380D01*
X115292095Y-125230000D01*
X115244476Y-125277619D01*
X115196857Y-125372857D01*
X115196857Y-125515714D01*
X115244476Y-125610952D01*
X115292095Y-125658571D01*
X115387333Y-125706190D01*
X115768285Y-125706190D01*
X114244476Y-126182380D02*
X114815904Y-126182380D01*
X114530190Y-126182380D02*
X114530190Y-125182380D01*
X114625428Y-125325238D01*
X114720666Y-125420476D01*
X114815904Y-125468095D01*
X113863523Y-125277619D02*
X113815904Y-125230000D01*
X113720666Y-125182380D01*
X113482571Y-125182380D01*
X113387333Y-125230000D01*
X113339714Y-125277619D01*
X113292095Y-125372857D01*
X113292095Y-125468095D01*
X113339714Y-125610952D01*
X113911142Y-126182380D01*
X113292095Y-126182380D01*
G04 #@! TO.C,R13*
X144564380Y-140468142D02*
X144088190Y-140134809D01*
X144564380Y-139896714D02*
X143564380Y-139896714D01*
X143564380Y-140277666D01*
X143612000Y-140372904D01*
X143659619Y-140420523D01*
X143754857Y-140468142D01*
X143897714Y-140468142D01*
X143992952Y-140420523D01*
X144040571Y-140372904D01*
X144088190Y-140277666D01*
X144088190Y-139896714D01*
X144564380Y-141420523D02*
X144564380Y-140849095D01*
X144564380Y-141134809D02*
X143564380Y-141134809D01*
X143707238Y-141039571D01*
X143802476Y-140944333D01*
X143850095Y-140849095D01*
X143564380Y-141753857D02*
X143564380Y-142372904D01*
X143945333Y-142039571D01*
X143945333Y-142182428D01*
X143992952Y-142277666D01*
X144040571Y-142325285D01*
X144135809Y-142372904D01*
X144373904Y-142372904D01*
X144469142Y-142325285D01*
X144516761Y-142277666D01*
X144564380Y-142182428D01*
X144564380Y-141896714D01*
X144516761Y-141801476D01*
X144469142Y-141753857D01*
G04 #@! TO.C,R14*
X136786857Y-127452380D02*
X137120190Y-126976190D01*
X137358285Y-127452380D02*
X137358285Y-126452380D01*
X136977333Y-126452380D01*
X136882095Y-126500000D01*
X136834476Y-126547619D01*
X136786857Y-126642857D01*
X136786857Y-126785714D01*
X136834476Y-126880952D01*
X136882095Y-126928571D01*
X136977333Y-126976190D01*
X137358285Y-126976190D01*
X135834476Y-127452380D02*
X136405904Y-127452380D01*
X136120190Y-127452380D02*
X136120190Y-126452380D01*
X136215428Y-126595238D01*
X136310666Y-126690476D01*
X136405904Y-126738095D01*
X134977333Y-126785714D02*
X134977333Y-127452380D01*
X135215428Y-126404761D02*
X135453523Y-127119047D01*
X134834476Y-127119047D01*
G04 #@! TO.C,R15*
X137040857Y-123134380D02*
X137374190Y-122658190D01*
X137612285Y-123134380D02*
X137612285Y-122134380D01*
X137231333Y-122134380D01*
X137136095Y-122182000D01*
X137088476Y-122229619D01*
X137040857Y-122324857D01*
X137040857Y-122467714D01*
X137088476Y-122562952D01*
X137136095Y-122610571D01*
X137231333Y-122658190D01*
X137612285Y-122658190D01*
X136088476Y-123134380D02*
X136659904Y-123134380D01*
X136374190Y-123134380D02*
X136374190Y-122134380D01*
X136469428Y-122277238D01*
X136564666Y-122372476D01*
X136659904Y-122420095D01*
X135183714Y-122134380D02*
X135659904Y-122134380D01*
X135707523Y-122610571D01*
X135659904Y-122562952D01*
X135564666Y-122515333D01*
X135326571Y-122515333D01*
X135231333Y-122562952D01*
X135183714Y-122610571D01*
X135136095Y-122705809D01*
X135136095Y-122943904D01*
X135183714Y-123039142D01*
X135231333Y-123086761D01*
X135326571Y-123134380D01*
X135564666Y-123134380D01*
X135659904Y-123086761D01*
X135707523Y-123039142D01*
G04 #@! TO.C,R16*
X137294857Y-125420380D02*
X137628190Y-124944190D01*
X137866285Y-125420380D02*
X137866285Y-124420380D01*
X137485333Y-124420380D01*
X137390095Y-124468000D01*
X137342476Y-124515619D01*
X137294857Y-124610857D01*
X137294857Y-124753714D01*
X137342476Y-124848952D01*
X137390095Y-124896571D01*
X137485333Y-124944190D01*
X137866285Y-124944190D01*
X136342476Y-125420380D02*
X136913904Y-125420380D01*
X136628190Y-125420380D02*
X136628190Y-124420380D01*
X136723428Y-124563238D01*
X136818666Y-124658476D01*
X136913904Y-124706095D01*
X135485333Y-124420380D02*
X135675809Y-124420380D01*
X135771047Y-124468000D01*
X135818666Y-124515619D01*
X135913904Y-124658476D01*
X135961523Y-124848952D01*
X135961523Y-125229904D01*
X135913904Y-125325142D01*
X135866285Y-125372761D01*
X135771047Y-125420380D01*
X135580571Y-125420380D01*
X135485333Y-125372761D01*
X135437714Y-125325142D01*
X135390095Y-125229904D01*
X135390095Y-124991809D01*
X135437714Y-124896571D01*
X135485333Y-124848952D01*
X135580571Y-124801333D01*
X135771047Y-124801333D01*
X135866285Y-124848952D01*
X135913904Y-124896571D01*
X135961523Y-124991809D01*
G04 #@! TO.C,U1*
X139191904Y-108408380D02*
X139191904Y-109217904D01*
X139144285Y-109313142D01*
X139096666Y-109360761D01*
X139001428Y-109408380D01*
X138810952Y-109408380D01*
X138715714Y-109360761D01*
X138668095Y-109313142D01*
X138620476Y-109217904D01*
X138620476Y-108408380D01*
X137620476Y-109408380D02*
X138191904Y-109408380D01*
X137906190Y-109408380D02*
X137906190Y-108408380D01*
X138001428Y-108551238D01*
X138096666Y-108646476D01*
X138191904Y-108694095D01*
G04 #@! TO.C,U2*
X152653904Y-119436380D02*
X152653904Y-120245904D01*
X152606285Y-120341142D01*
X152558666Y-120388761D01*
X152463428Y-120436380D01*
X152272952Y-120436380D01*
X152177714Y-120388761D01*
X152130095Y-120341142D01*
X152082476Y-120245904D01*
X152082476Y-119436380D01*
X151653904Y-119531619D02*
X151606285Y-119484000D01*
X151511047Y-119436380D01*
X151272952Y-119436380D01*
X151177714Y-119484000D01*
X151130095Y-119531619D01*
X151082476Y-119626857D01*
X151082476Y-119722095D01*
X151130095Y-119864952D01*
X151701523Y-120436380D01*
X151082476Y-120436380D01*
G04 #@! TO.C,U4*
X127093904Y-128525380D02*
X127093904Y-129334904D01*
X127046285Y-129430142D01*
X126998666Y-129477761D01*
X126903428Y-129525380D01*
X126712952Y-129525380D01*
X126617714Y-129477761D01*
X126570095Y-129430142D01*
X126522476Y-129334904D01*
X126522476Y-128525380D01*
X125617714Y-128858714D02*
X125617714Y-129525380D01*
X125855809Y-128477761D02*
X126093904Y-129192047D01*
X125474857Y-129192047D01*
G04 #@! TO.C,R19*
X159202380Y-136263142D02*
X158726190Y-135929809D01*
X159202380Y-135691714D02*
X158202380Y-135691714D01*
X158202380Y-136072666D01*
X158250000Y-136167904D01*
X158297619Y-136215523D01*
X158392857Y-136263142D01*
X158535714Y-136263142D01*
X158630952Y-136215523D01*
X158678571Y-136167904D01*
X158726190Y-136072666D01*
X158726190Y-135691714D01*
X159202380Y-137215523D02*
X159202380Y-136644095D01*
X159202380Y-136929809D02*
X158202380Y-136929809D01*
X158345238Y-136834571D01*
X158440476Y-136739333D01*
X158488095Y-136644095D01*
X159202380Y-137691714D02*
X159202380Y-137882190D01*
X159154761Y-137977428D01*
X159107142Y-138025047D01*
X158964285Y-138120285D01*
X158773809Y-138167904D01*
X158392857Y-138167904D01*
X158297619Y-138120285D01*
X158250000Y-138072666D01*
X158202380Y-137977428D01*
X158202380Y-137786952D01*
X158250000Y-137691714D01*
X158297619Y-137644095D01*
X158392857Y-137596476D01*
X158630952Y-137596476D01*
X158726190Y-137644095D01*
X158773809Y-137691714D01*
X158821428Y-137786952D01*
X158821428Y-137977428D01*
X158773809Y-138072666D01*
X158726190Y-138120285D01*
X158630952Y-138167904D01*
G04 #@! TO.C,R17*
X164028380Y-111879142D02*
X163552190Y-111545809D01*
X164028380Y-111307714D02*
X163028380Y-111307714D01*
X163028380Y-111688666D01*
X163076000Y-111783904D01*
X163123619Y-111831523D01*
X163218857Y-111879142D01*
X163361714Y-111879142D01*
X163456952Y-111831523D01*
X163504571Y-111783904D01*
X163552190Y-111688666D01*
X163552190Y-111307714D01*
X164028380Y-112831523D02*
X164028380Y-112260095D01*
X164028380Y-112545809D02*
X163028380Y-112545809D01*
X163171238Y-112450571D01*
X163266476Y-112355333D01*
X163314095Y-112260095D01*
X163028380Y-113164857D02*
X163028380Y-113831523D01*
X164028380Y-113402952D01*
G04 #@! TO.C,R18*
X161074380Y-118737142D02*
X160598190Y-118403809D01*
X161074380Y-118165714D02*
X160074380Y-118165714D01*
X160074380Y-118546666D01*
X160122000Y-118641904D01*
X160169619Y-118689523D01*
X160264857Y-118737142D01*
X160407714Y-118737142D01*
X160502952Y-118689523D01*
X160550571Y-118641904D01*
X160598190Y-118546666D01*
X160598190Y-118165714D01*
X161074380Y-119689523D02*
X161074380Y-119118095D01*
X161074380Y-119403809D02*
X160074380Y-119403809D01*
X160217238Y-119308571D01*
X160312476Y-119213333D01*
X160360095Y-119118095D01*
X160502952Y-120260952D02*
X160455333Y-120165714D01*
X160407714Y-120118095D01*
X160312476Y-120070476D01*
X160264857Y-120070476D01*
X160169619Y-120118095D01*
X160122000Y-120165714D01*
X160074380Y-120260952D01*
X160074380Y-120451428D01*
X160122000Y-120546666D01*
X160169619Y-120594285D01*
X160264857Y-120641904D01*
X160312476Y-120641904D01*
X160407714Y-120594285D01*
X160455333Y-120546666D01*
X160502952Y-120451428D01*
X160502952Y-120260952D01*
X160550571Y-120165714D01*
X160598190Y-120118095D01*
X160693428Y-120070476D01*
X160883904Y-120070476D01*
X160979142Y-120118095D01*
X161026761Y-120165714D01*
X161074380Y-120260952D01*
X161074380Y-120451428D01*
X161026761Y-120546666D01*
X160979142Y-120594285D01*
X160883904Y-120641904D01*
X160693428Y-120641904D01*
X160598190Y-120594285D01*
X160550571Y-120546666D01*
X160502952Y-120451428D01*
G04 #@! TO.C,R20*
X157170380Y-136009142D02*
X156694190Y-135675809D01*
X157170380Y-135437714D02*
X156170380Y-135437714D01*
X156170380Y-135818666D01*
X156218000Y-135913904D01*
X156265619Y-135961523D01*
X156360857Y-136009142D01*
X156503714Y-136009142D01*
X156598952Y-135961523D01*
X156646571Y-135913904D01*
X156694190Y-135818666D01*
X156694190Y-135437714D01*
X156265619Y-136390095D02*
X156218000Y-136437714D01*
X156170380Y-136532952D01*
X156170380Y-136771047D01*
X156218000Y-136866285D01*
X156265619Y-136913904D01*
X156360857Y-136961523D01*
X156456095Y-136961523D01*
X156598952Y-136913904D01*
X157170380Y-136342476D01*
X157170380Y-136961523D01*
X156170380Y-137580571D02*
X156170380Y-137675809D01*
X156218000Y-137771047D01*
X156265619Y-137818666D01*
X156360857Y-137866285D01*
X156551333Y-137913904D01*
X156789428Y-137913904D01*
X156979904Y-137866285D01*
X157075142Y-137818666D01*
X157122761Y-137771047D01*
X157170380Y-137675809D01*
X157170380Y-137580571D01*
X157122761Y-137485333D01*
X157075142Y-137437714D01*
X156979904Y-137390095D01*
X156789428Y-137342476D01*
X156551333Y-137342476D01*
X156360857Y-137390095D01*
X156265619Y-137437714D01*
X156218000Y-137485333D01*
X156170380Y-137580571D01*
G04 #@! TO.C,R22*
X115354380Y-111625142D02*
X114878190Y-111291809D01*
X115354380Y-111053714D02*
X114354380Y-111053714D01*
X114354380Y-111434666D01*
X114402000Y-111529904D01*
X114449619Y-111577523D01*
X114544857Y-111625142D01*
X114687714Y-111625142D01*
X114782952Y-111577523D01*
X114830571Y-111529904D01*
X114878190Y-111434666D01*
X114878190Y-111053714D01*
X114449619Y-112006095D02*
X114402000Y-112053714D01*
X114354380Y-112148952D01*
X114354380Y-112387047D01*
X114402000Y-112482285D01*
X114449619Y-112529904D01*
X114544857Y-112577523D01*
X114640095Y-112577523D01*
X114782952Y-112529904D01*
X115354380Y-111958476D01*
X115354380Y-112577523D01*
X114449619Y-112958476D02*
X114402000Y-113006095D01*
X114354380Y-113101333D01*
X114354380Y-113339428D01*
X114402000Y-113434666D01*
X114449619Y-113482285D01*
X114544857Y-113529904D01*
X114640095Y-113529904D01*
X114782952Y-113482285D01*
X115354380Y-112910857D01*
X115354380Y-113529904D01*
G04 #@! TO.C,R23*
X118656380Y-113544142D02*
X118180190Y-113210809D01*
X118656380Y-112972714D02*
X117656380Y-112972714D01*
X117656380Y-113353666D01*
X117704000Y-113448904D01*
X117751619Y-113496523D01*
X117846857Y-113544142D01*
X117989714Y-113544142D01*
X118084952Y-113496523D01*
X118132571Y-113448904D01*
X118180190Y-113353666D01*
X118180190Y-112972714D01*
X117751619Y-113925095D02*
X117704000Y-113972714D01*
X117656380Y-114067952D01*
X117656380Y-114306047D01*
X117704000Y-114401285D01*
X117751619Y-114448904D01*
X117846857Y-114496523D01*
X117942095Y-114496523D01*
X118084952Y-114448904D01*
X118656380Y-113877476D01*
X118656380Y-114496523D01*
X117656380Y-114829857D02*
X117656380Y-115448904D01*
X118037333Y-115115571D01*
X118037333Y-115258428D01*
X118084952Y-115353666D01*
X118132571Y-115401285D01*
X118227809Y-115448904D01*
X118465904Y-115448904D01*
X118561142Y-115401285D01*
X118608761Y-115353666D01*
X118656380Y-115258428D01*
X118656380Y-114972714D01*
X118608761Y-114877476D01*
X118561142Y-114829857D01*
G04 #@! TO.C,U5*
X122427904Y-108672380D02*
X122427904Y-109481904D01*
X122380285Y-109577142D01*
X122332666Y-109624761D01*
X122237428Y-109672380D01*
X122046952Y-109672380D01*
X121951714Y-109624761D01*
X121904095Y-109577142D01*
X121856476Y-109481904D01*
X121856476Y-108672380D01*
X120904095Y-108672380D02*
X121380285Y-108672380D01*
X121427904Y-109148571D01*
X121380285Y-109100952D01*
X121285047Y-109053333D01*
X121046952Y-109053333D01*
X120951714Y-109100952D01*
X120904095Y-109148571D01*
X120856476Y-109243809D01*
X120856476Y-109481904D01*
X120904095Y-109577142D01*
X120951714Y-109624761D01*
X121046952Y-109672380D01*
X121285047Y-109672380D01*
X121380285Y-109624761D01*
X121427904Y-109577142D01*
G04 #@! TO.C,R21*
X119768857Y-101550380D02*
X120102190Y-101074190D01*
X120340285Y-101550380D02*
X120340285Y-100550380D01*
X119959333Y-100550380D01*
X119864095Y-100598000D01*
X119816476Y-100645619D01*
X119768857Y-100740857D01*
X119768857Y-100883714D01*
X119816476Y-100978952D01*
X119864095Y-101026571D01*
X119959333Y-101074190D01*
X120340285Y-101074190D01*
X119387904Y-100645619D02*
X119340285Y-100598000D01*
X119245047Y-100550380D01*
X119006952Y-100550380D01*
X118911714Y-100598000D01*
X118864095Y-100645619D01*
X118816476Y-100740857D01*
X118816476Y-100836095D01*
X118864095Y-100978952D01*
X119435523Y-101550380D01*
X118816476Y-101550380D01*
X117864095Y-101550380D02*
X118435523Y-101550380D01*
X118149809Y-101550380D02*
X118149809Y-100550380D01*
X118245047Y-100693238D01*
X118340285Y-100788476D01*
X118435523Y-100836095D01*
G04 #@! TD*
M02*
