G04 #@! TF.GenerationSoftware,KiCad,Pcbnew,(5.0.0)*
G04 #@! TF.CreationDate,2019-03-24T17:02:07+01:00*
G04 #@! TF.ProjectId,lcrmeter,6C63726D657465722E6B696361645F70,rev?*
G04 #@! TF.SameCoordinates,Original*
G04 #@! TF.FileFunction,Soldermask,Top*
G04 #@! TF.FilePolarity,Negative*
%FSLAX46Y46*%
G04 Gerber Fmt 4.6, Leading zero omitted, Abs format (unit mm)*
G04 Created by KiCad (PCBNEW (5.0.0)) date 03/24/19 17:02:07*
%MOMM*%
%LPD*%
G01*
G04 APERTURE LIST*
%ADD10C,1.750000*%
%ADD11C,1.950000*%
%ADD12C,2.000000*%
%ADD13R,2.000000X2.000000*%
%ADD14R,1.700000X1.700000*%
%ADD15O,1.700000X1.700000*%
%ADD16R,1.380000X0.450000*%
%ADD17R,2.100000X1.475000*%
%ADD18R,1.900000X2.375000*%
%ADD19R,1.900000X1.175000*%
%ADD20R,2.500000X2.000000*%
%ADD21C,1.700000*%
%ADD22C,1.500000*%
G04 APERTURE END LIST*
D10*
G04 #@! TO.C,J5*
X169926000Y-102362000D03*
D11*
X173076000Y-99212000D03*
X173076000Y-105462000D03*
X166876000Y-105412000D03*
X166876000Y-99212000D03*
G04 #@! TD*
D12*
G04 #@! TO.C,BT1*
X126078308Y-99635920D03*
D13*
X126078308Y-144335920D03*
G04 #@! TD*
G04 #@! TO.C,BT2*
X111854308Y-99735920D03*
D12*
X111854308Y-144435920D03*
G04 #@! TD*
D14*
G04 #@! TO.C,J1*
X137922000Y-101092000D03*
D15*
X140462000Y-101092000D03*
X143002000Y-101092000D03*
X145542000Y-101092000D03*
G04 #@! TD*
D14*
G04 #@! TO.C,J2*
X137922000Y-98552000D03*
D15*
X140462000Y-98552000D03*
X143002000Y-98552000D03*
X145542000Y-98552000D03*
G04 #@! TD*
D14*
G04 #@! TO.C,J3*
X172720000Y-133350000D03*
D15*
X172720000Y-130810000D03*
X172720000Y-128270000D03*
X172720000Y-125730000D03*
X172720000Y-123190000D03*
X172720000Y-120650000D03*
G04 #@! TD*
D16*
G04 #@! TO.C,J4*
X170822000Y-114330000D03*
X170822000Y-113680000D03*
X170822000Y-113030000D03*
X170822000Y-112380000D03*
X170822000Y-111730000D03*
D17*
X171182000Y-115492500D03*
X171182000Y-110567500D03*
D18*
X173482000Y-115940000D03*
X173482000Y-110120000D03*
D19*
X173482000Y-113870000D03*
X173482000Y-112190000D03*
G04 #@! TD*
D14*
G04 #@! TO.C,J6*
X149098000Y-101092000D03*
D15*
X151638000Y-101092000D03*
X154178000Y-101092000D03*
X156718000Y-101092000D03*
X159258000Y-101092000D03*
X161798000Y-101092000D03*
G04 #@! TD*
G04 #@! TO.C,J7*
X161798000Y-98552000D03*
X159258000Y-98552000D03*
X156718000Y-98552000D03*
X154178000Y-98552000D03*
X151638000Y-98552000D03*
D14*
X149098000Y-98552000D03*
G04 #@! TD*
D20*
G04 #@! TO.C,SW2*
X144996000Y-137160000D03*
X136436000Y-137160000D03*
G04 #@! TD*
G04 #@! TO.C,SW3*
X136436000Y-144780000D03*
X144996000Y-144780000D03*
G04 #@! TD*
G04 #@! TO.C,SW4*
X159220000Y-141224000D03*
X150660000Y-141224000D03*
G04 #@! TD*
G04 #@! TO.C,SW5*
X163106000Y-146812000D03*
X171666000Y-146812000D03*
G04 #@! TD*
D21*
G04 #@! TO.C,U3*
X153416000Y-106426000D03*
X150876000Y-106426000D03*
X148336000Y-106426000D03*
X145796000Y-106426000D03*
D22*
X161316000Y-107126000D03*
X161316000Y-130726000D03*
X137816000Y-130726000D03*
X137816000Y-107126000D03*
G04 #@! TD*
G04 #@! TO.C,Y1*
X167386000Y-122428000D03*
X167386000Y-127308000D03*
G04 #@! TD*
D14*
G04 #@! TO.C,SW1*
X162560000Y-134874000D03*
D15*
X165100000Y-134874000D03*
X167640000Y-134874000D03*
G04 #@! TD*
M02*
