M48
; DRILL file {KiCad 7.0.9} date Thu Jan  4 11:58:01 2024
; FORMAT={-:-/ absolute / metric / decimal}
; #@! TF.CreationDate,2024-01-04T11:58:01+01:00
; #@! TF.GenerationSoftware,Kicad,Pcbnew,7.0.9
; #@! TF.FileFunction,MixedPlating,1,2
FMAT,2
METRIC
; #@! TA.AperFunction,Plated,PTH,ViaDrill
T1C0.400
; #@! TA.AperFunction,Plated,PTH,ComponentDrill
T2C1.000
; #@! TA.AperFunction,Plated,PTH,ComponentDrill
T3C1.020
; #@! TA.AperFunction,NonPlated,NPTH,ComponentDrill
T4C2.500
; #@! TA.AperFunction,NonPlated,NPTH,ComponentDrill
T5C3.450
%
G90
G05
T1
X93.218Y-97.028
X93.218Y-98.806
X96.52Y-113.538
X103.378Y-100.838
X104.648Y-109.22
X109.093Y-104.775
X109.601Y-93.091
X109.601Y-101.854
X110.744Y-90.17
X110.998Y-95.25
X111.252Y-97.536
X111.252Y-99.06
X111.76Y-92.71
X112.014Y-102.108
X112.141Y-109.982
X115.062Y-93.98
X115.316Y-104.394
X115.837Y-78.994
X117.348Y-84.328
X117.602Y-107.188
X118.11Y-89.916
X118.142Y-99.679
X119.507Y-94.107
X119.814Y-98.118
X119.888Y-89.281
X119.888Y-106.68
X120.396Y-101.219
X120.65Y-112.522
X121.92Y-106.426
X122.174Y-84.582
X122.428Y-87.659
X122.719Y-94.953
X123.295Y-100.733
X123.457Y-107.442
X123.504Y-103.184
X123.992Y-97.242
X124.206Y-108.966
X124.968Y-106.68
X126.024Y-95.464
X126.492Y-101.092
X126.746Y-110.998
X127.0Y-106.68
X127.653Y-102.253
X128.016Y-107.442
X128.698Y-97.443
X129.286Y-102.362
X130.102Y-103.831
X130.556Y-101.092
X130.81Y-89.154
X130.81Y-98.151
X131.064Y-72.136
X131.318Y-101.854
X131.409Y-98.979
X132.527Y-106.615
X133.109Y-92.202
X133.35Y-111.252
X133.585Y-108.112
X133.707Y-107.069
X134.112Y-96.012
X134.683Y-83.274
X135.001Y-71.882
X135.422Y-104.608
X135.517Y-86.465
X135.633Y-83.831
X136.5Y-111.76
X136.906Y-91.948
X137.033Y-71.882
X137.16Y-113.284
X137.201Y-86.054
X137.414Y-104.4
X137.668Y-117.094
X138.43Y-95.25
X138.43Y-96.774
X138.869Y-111.829
X138.938Y-107.11
X139.6Y-98.552
X140.208Y-97.282
X140.208Y-104.648
X140.26Y-111.374
X141.986Y-91.44
X141.986Y-94.488
X141.986Y-110.236
X142.748Y-115.062
X142.748Y-116.84
X143.764Y-109.728
X144.78Y-97.282
X146.05Y-96.52
X146.05Y-104.902
X146.776Y-103.969
X147.574Y-114.554
X149.86Y-81.788
X150.495Y-69.469
X150.622Y-116.586
X151.638Y-105.156
T2
X119.38Y-69.85
X119.38Y-73.66
X121.92Y-69.85
X121.92Y-73.66
X124.46Y-69.85
X124.46Y-73.66
X125.73Y-80.01
X127.0Y-69.85
X127.0Y-73.66
X128.27Y-80.01
X130.81Y-80.01
X133.35Y-69.85
X133.35Y-73.66
X133.35Y-80.01
X135.89Y-69.85
X135.89Y-73.66
X138.43Y-69.85
X138.43Y-73.66
X140.97Y-69.85
X140.97Y-73.66
X143.51Y-69.85
X143.51Y-73.66
X146.05Y-69.85
X146.05Y-73.66
X146.05Y-80.01
X146.05Y-82.55
X146.05Y-85.09
X146.05Y-87.63
X146.05Y-90.17
X146.05Y-92.71
X150.368Y-91.948
X150.368Y-94.488
X150.368Y-97.028
T3
X95.25Y-71.35
X107.95Y-71.35
T4
X118.11Y-80.01
X118.11Y-102.87
X140.97Y-80.01
X140.97Y-102.87
T5
X99.25Y-109.96
X103.95Y-79.99
T0
M30
