M48
;DRILL file {KiCad (5.0.0)} date 03/24/19 17:04:24
;FORMAT={-:-/ absolute / inch / decimal}
FMAT,2
INCH,TZ
T1C0.0157
T2C0.0315
T3C0.0394
T4C0.0402
T5C0.0492
T6C0.0571
T7C0.0591
%
G90
G05
M72
T1
X4.49Y-4.79
X4.51Y-5.03
X4.74Y-4.95
X4.9223Y-5.0377
X4.96Y-4.75
X5.Y-4.78
X5.01Y-5.14
X5.01Y-5.23
X5.02Y-4.87
X5.12Y-5.46
X5.19Y-4.72
X5.2Y-4.4
X5.22Y-4.99
X5.2798Y-5.0185
X5.31Y-5.08
X5.38Y-4.88
X5.3871Y-5.0118
X5.41Y-4.77
X5.41Y-5.54
X5.42Y-4.73
X5.43Y-5.63
X5.48Y-5.6407
X5.51Y-4.53
X5.54Y-4.66
X5.5564Y-4.7415
X5.61Y-4.53
X5.61Y-4.88
X5.64Y-4.56
X5.65Y-5.25
X5.6728Y-4.5818
X5.69Y-4.5
X5.72Y-4.74
X5.72Y-4.89
X5.7333Y-4.5729
X5.75Y-5.02
X5.7619Y-4.6014
X5.819Y-4.6069
X5.8191Y-5.0989
X5.82Y-5.41
X5.8345Y-5.6584
X5.8407Y-4.7585
X5.8432Y-5.13
X5.88Y-4.94
X5.88Y-5.03
X5.9068Y-5.1941
X5.9521Y-4.9937
X5.96Y-4.92
X5.97Y-5.24
X5.98Y-4.96
X5.99Y-4.1
X6.0148Y-4.6552
X6.0153Y-4.7072
X6.0487Y-4.8831
X6.06Y-4.43
X6.07Y-4.85
X6.09Y-5.3
X6.11Y-5.37
X6.13Y-4.43
X6.13Y-4.77
X6.1469Y-4.572
X6.148Y-5.1263
X6.18Y-4.72
X6.19Y-4.28
X6.19Y-4.62
X6.19Y-4.81
X6.1933Y-5.1137
X6.21Y-5.15
X6.2214Y-5.0375
X6.2394Y-4.6388
X6.25Y-4.39
X6.2639Y-4.5744
X6.28Y-4.72
X6.3Y-4.9
X6.3168Y-4.5508
X6.3209Y-4.5901
X6.34Y-4.8
X6.3898Y-4.7998
X6.43Y-5.16
X6.47Y-5.63
X6.54Y-4.95
X6.58Y-4.32
X6.5914Y-5.083
X6.62Y-5.11
X6.63Y-4.31
X6.7026Y-4.8175
X6.71Y-4.76
X6.71Y-5.4
X6.74Y-4.83
X6.7446Y-4.7362
X6.79Y-5.61
T2
X6.59Y-4.82
X6.59Y-5.0121
T3
X5.74Y-4.19
X5.84Y-4.19
X5.94Y-4.19
X6.04Y-4.19
X5.87Y-3.88
X5.97Y-3.88
X6.07Y-3.88
X6.17Y-3.88
X6.27Y-3.88
X6.37Y-3.88
X6.8Y-4.75
X6.8Y-4.85
X6.8Y-4.95
X6.8Y-5.05
X6.8Y-5.15
X6.8Y-5.25
X5.43Y-3.88
X5.53Y-3.88
X5.63Y-3.88
X5.73Y-3.88
X5.43Y-3.98
X5.53Y-3.98
X5.63Y-3.98
X5.73Y-3.98
X6.4Y-5.31
X6.5Y-5.31
X6.6Y-5.31
X5.87Y-3.98
X5.97Y-3.98
X6.07Y-3.98
X6.17Y-3.98
X6.27Y-3.98
X6.37Y-3.98
T4
X4.9637Y-3.9227
X4.9637Y-5.6825
X4.4037Y-3.9266
X4.4037Y-5.6865
T5
X6.69Y-4.03
T6
X6.5699Y-3.906
X6.5699Y-4.1501
X6.814Y-3.906
X6.814Y-4.152
T7
X5.4258Y-4.2176
X5.4258Y-5.1467
X6.351Y-4.2176
X6.351Y-5.1467
T0
M30
